<?xml version="1.0" encoding="UTF-8"?>
<svg id="Layer_1" data-name="Layer 1" xmlns="http://www.w3.org/2000/svg" version="1.1" xmlns:xlink="http://www.w3.org/1999/xlink" viewBox="0 0 286 232">
  <defs>
    <style>
      .cls-1 {
        mask: url(#mask-23);
      }

      .cls-2 {
        mask: url(#mask-27);
      }

      .cls-3 {
        mask: url(#mask-10);
      }

      .cls-4 {
        mask: url(#mask-26);
      }

      .cls-5 {
        mask: url(#mask-17);
      }

      .cls-6 {
        mask: url(#mask-43);
      }

      .cls-7 {
        mask: url(#mask-41);
      }

      .cls-8 {
        mask: url(#mask-2);
      }

      .cls-9 {
        mask: url(#mask-45);
      }

      .cls-10 {
        mask: url(#mask-34);
      }

      .cls-11 {
        mask: url(#mask-33);
      }

      .cls-12 {
        mask: url(#mask-13);
      }

      .cls-13 {
        mask: url(#mask-3);
      }

      .cls-14 {
        mask: url(#mask-31);
      }

      .cls-15 {
        mask: url(#mask-30);
      }

      .cls-16 {
        mask: url(#mask-32);
      }

      .cls-17 {
        mask: url(#mask-9);
      }

      .cls-18 {
        mask: url(#mask-39);
      }

      .cls-19 {
        mask: url(#mask-12);
      }

      .cls-20 {
        mask: url(#mask-5);
      }

      .cls-21 {
        fill: none;
        stroke: #5372c0;
        stroke-miterlimit: 10;
      }

      .cls-22 {
        mask: url(#mask-36);
      }

      .cls-23 {
        mask: url(#mask-35);
      }

      .cls-24 {
        mask: url(#mask-40);
      }

      .cls-25 {
        mask: url(#mask-20);
      }

      .cls-26 {
        mask: url(#mask-38);
      }

      .cls-27 {
        mask: url(#mask-44);
      }

      .cls-28 {
        mask: url(#mask-25);
      }

      .cls-29 {
        mask: url(#mask-8);
      }

      .cls-30 {
        mask: url(#mask-4);
      }

      .cls-31 {
        fill: #5372c0;
      }

      .cls-31, .cls-32, .cls-33 {
        stroke-width: 0px;
      }

      .cls-34 {
        mask: url(#mask-24);
      }

      .cls-35 {
        mask: url(#mask-19);
      }

      .cls-36 {
        mask: url(#mask-15);
      }

      .cls-37 {
        mask: url(#mask-6);
      }

      .cls-38 {
        mask: url(#mask-42);
      }

      .cls-39 {
        mask: url(#mask-16);
      }

      .cls-40 {
        mask: url(#mask-18);
      }

      .cls-41 {
        mask: url(#mask-37);
      }

      .cls-32 {
        fill: #fff;
      }

      .cls-42 {
        mask: url(#mask-1);
      }

      .cls-43 {
        mask: url(#mask);
      }

      .cls-44 {
        mask: url(#mask-22);
      }

      .cls-45 {
        mask: url(#mask-29);
      }

      .cls-46 {
        mask: url(#mask-7);
      }

      .cls-33 {
        fill: #edd9bc;
      }

      .cls-47 {
        mask: url(#mask-14);
      }

      .cls-48 {
        mask: url(#mask-21);
      }

      .cls-49 {
        mask: url(#mask-11);
      }

      .cls-50 {
        mask: url(#mask-28);
      }
    </style>
    <mask id="mask" x="8.4" y="73.6" width="39.8" height="15.3" maskUnits="userSpaceOnUse">
      <g id="path-4-inside-1_114_348" data-name="path-4-inside-1 114 348">
        <path class="cls-32" d="M43.4,74.9c-10,1.4-18.8,10-29.4,6.7-1.4-.5-2.8-1.2-3.9-2.2l.5-.4c2.6,5.6,9.1,9,15.2,8.3,2.4-.3,4.5-1.3,6.8-1.9,5.1-1.2,10.7-.2,15,2.7-3.7-2.3-8.1-3.2-12.4-2.7-2.6.3-4.9,1.3-7.5,2.1-1.7.5-3.5.6-5.2.5-5.3-.5-10.3-3.7-12.6-8.6l-.6-1.4,1.1,1c3.3,2.9,8,3.2,12.1,2.5,7.2-1.2,13.4-5.8,20.7-6.5h0Z"/>
      </g>
    </mask>
    <mask id="mask-1" x="71.6" y="48.8" width="8.8" height="5.9" maskUnits="userSpaceOnUse">
      <g id="path-6-inside-2_114_348" data-name="path-6-inside-2 114 348">
        <path class="cls-32" d="M71.8,49.8c3.1-.2,6,1.7,7.8,4-2.5-1.6-4.9-3.3-7.8-4Z"/>
      </g>
    </mask>
    <mask id="mask-2" x="53.1" y="57.4" width="14.4" height="11.5" maskUnits="userSpaceOnUse">
      <g id="path-8-inside-3_114_348" data-name="path-8-inside-3 114 348">
        <path class="cls-32" d="M66.5,66.9c-.8-2.3-2.3-4.3-3.9-6-1.7-1.8-4.5-2.6-6.5-.9-.6.6-1,1.3-1.2,2.2-.8,2.6,1.7,4.6,4,5,1.2.2,2.5,0,3.4-.9.3.7.6,1.4.9,2.2-.3-.7-.7-1.3-1-2h.2c-2.3,2.3-6.8.9-8-2-.4-.9-.3-2,0-2.9.7-2.3,3.1-3.6,5.4-3,1.3.3,2.3,1.1,3.1,2,1.6,1.8,3,3.9,3.5,6.3h0Z"/>
      </g>
    </mask>
    <mask id="mask-3" x="54.3" y="59.7" width="5.8" height="6.1" maskUnits="userSpaceOnUse">
      <g id="path-10-inside-4_114_348" data-name="path-10-inside-4 114 348">
        <path class="cls-32" d="M58.7,61.4c-1-1.3-2.9-.5-2.8,1.1,0,1.1.8,2,1.9,1.6,1.2-.3,1.7-1.8.9-2.7ZM58.7,61.4c1.1,1.3.1,3.3-1.5,3.3-1.2,0-2-1.2-1.8-2.3.2-1.7,2.3-2.5,3.4-1Z"/>
      </g>
    </mask>
    <mask id="mask-4" x="54.3" y="70" width="9.7" height="4.1" maskUnits="userSpaceOnUse">
      <g id="path-12-inside-5_114_348" data-name="path-12-inside-5 114 348">
        <path class="cls-32" d="M55.2,70.6c1.4,1.7,3.9,2.3,5.9,1.5.7-.2,1.3-.6,2-1-1.9,2.7-6.6,2.8-7.9-.4Z"/>
      </g>
    </mask>
    <mask id="mask-5" x="73.2" y="55" width="5.6" height="6" maskUnits="userSpaceOnUse">
      <g id="path-14-inside-6_114_348" data-name="path-14-inside-6 114 348">
        <path class="cls-32" d="M77.8,55.6c-.3,2-1.9,3.9-3.9,4.4.6-.6,1.5-1.4,2.1-2.1.6-.6,1.3-1.6,1.8-2.3Z"/>
      </g>
    </mask>
    <mask id="mask-6" x="77" y="57.5" width="8.1" height="12.9" maskUnits="userSpaceOnUse">
      <g id="path-16-inside-7_114_348" data-name="path-16-inside-7 114 348">
        <path class="cls-32" d="M84,57.9c-.2,3.8-6.6,5-5.2,9.2.9,2.3,3.8,2.1,5.7,1.2-2,1.4-5.2,1.6-6.2-1-.7-1.6,0-3.4,1.2-4.5,1.6-1.6,4-2.5,4.6-4.9h0Z"/>
      </g>
    </mask>
    <mask id="mask-7" x="81.3" y="55" width="8.6" height="4.1" maskUnits="userSpaceOnUse">
      <g id="path-18-inside-8_114_348" data-name="path-18-inside-8 114 348">
        <path class="cls-32" d="M84.1,56.3c1.2-.6,2.9,0,3.6,1.1-1.2-.4-2.3-.7-3.6-1.1Z"/>
      </g>
    </mask>
    <mask id="mask-8" x="77.9" y="126.1" width="15.5" height="3.8" maskUnits="userSpaceOnUse">
      <g id="path-21-inside-9_114_348" data-name="path-21-inside-9 114 348">
        <path class="cls-32" d="M93.1,128.8c-3.7-.5-7.4-1.4-11.1-.8-1.2.2-2.4.6-3.6,1,1.1-.6,2.3-1.1,3.5-1.5,3.7-.9,7.7,0,11.2,1.3Z"/>
      </g>
    </mask>
    <mask id="mask-9" x="86.2" y="130.7" width="6.3" height="5" maskUnits="userSpaceOnUse">
      <g id="path-23-inside-10_114_348" data-name="path-23-inside-10 114 348">
        <path class="cls-32" d="M87.1,134.9c.9-1.8,2.9-3.1,4.9-3.2-1.7,1-3.3,2-4.9,3.2Z"/>
      </g>
    </mask>
    <mask id="mask-10" x="101.8" y="143.6" width="17.4" height="5.5" maskUnits="userSpaceOnUse">
      <g id="path-25-inside-11_114_348" data-name="path-25-inside-11 114 348">
        <path class="cls-32" d="M103.1,147.6c3.5-2,7.6-2.9,11.7-3,1.3,0,2.8,0,4,.6-1.3-.4-2.6-.3-4-.1-4,.4-7.9,1.2-11.7,2.5h0Z"/>
      </g>
    </mask>
    <mask id="mask-11" x="88.1" y="8.2" width="31.1" height="122.5" maskUnits="userSpaceOnUse">
      <g id="path-27-inside-12_114_348" data-name="path-27-inside-12 114 348">
        <path class="cls-32" d="M106.1,9.1c-4.5,2.7-10.8,2.4-14.5,6.3-4,4.5-1.7,11.4,1.9,15.3,3.2,3.6,7.2,6.1,10.5,9.6,4.4,4.7,7,10.8,8.1,17,1.1,6.3.6,12.8-1.3,18.9-1.9,6.1-5.6,11.4-8.4,17-1.9,3.9-3.4,8-3.5,12.3-.1,6.8,2.6,13.8,7.6,18.5,3.4,3.1,8.2,3.8,12.2,5.8-3.9-1.9-8.5-2.5-11.9-5.3-7.6-6.5-10.4-18-6.8-27.2,2.7-7.4,7.8-13.8,10.2-21.3,2.7-9,2.5-19-1.5-27.5-1.3-2.8-3-5.5-5.2-7.8-3.2-3.4-7.3-6.1-10.4-9.7-3.7-4.1-6-11.3-1.8-15.8,3.8-3.9,10.1-3.4,14.7-6.1h0Z"/>
      </g>
    </mask>
    <mask id="mask-12" x="128.2" y="71.4" width="27.3" height="60.8" maskUnits="userSpaceOnUse">
      <g id="path-29-inside-13_114_348" data-name="path-29-inside-13 114 348">
        <path class="cls-32" d="M129.3,130.6c2.2,1,5,.3,6.5-1.5,1.5-1.8,1.5-4.6.2-6.5v-.2c1.1-.6,1.9-1.8,2.1-3.1.2-1.2-.1-2.6-1-3.5l-.5-.5h.7c2.6.3,4.1-2.8,2.3-4.7l-.3-.3.4-.2c2.8-1.1,3.4-4.9,1-6.8l-.6-.5h.8c2.7-.5,3.4-4.1,1.1-5.5l-.8-.5h.9c1.7-.4,3.5-1.1,4.5-2.6.9-1.4.9-3.5-.4-4.7l-.4-.4c3.2-.4,5.1-4.6,3.4-7.3v-.2c-.1,0,.1,0,.1,0,1.8-.6,4.6-2.1,3.7-4.4-.5-1.3-1.4-2.4-2.3-3.4,1.2-.2,2.3-.5,3.3-1.1.3-.2.6-.4.8-.8-.2.3-.5.6-.8.8-1,.6-2.1,1-3.2,1.2h0c1.2,1.1,2.7,2.7,2.6,4.6-.4,1.9-2.4,2.9-4.1,3.5v-.3c1,1.4,1.1,3.2.5,4.7-.6,1.5-1.8,2.9-3.4,3.2v-.5c1.7,1.3,1.7,3.8.6,5.4-.5.8-1.3,1.5-2.2,1.9-.8.5-1.8.7-2.7.9v-.6c3,1.8,2.2,6.1-1.2,6.6l.2-.6c1.3,1,1.9,2.7,1.7,4.3-.2,1.6-1.4,3-2.9,3.6v-.5c1.1,1,1.3,2.6.7,3.8-.6,1.2-2,2-3.4,1.9l.2-.4c2,2.1,1.3,6-1.2,7.2v-.3c1.5,2,1.4,5-.3,6.9-1.6,1.9-4.5,2.5-6.7,1.4h0Z"/>
      </g>
    </mask>
    <mask id="mask-13" x="72.8" y="95.9" width="10.6" height="15.3" maskUnits="userSpaceOnUse">
      <g id="path-31-inside-14_114_348" data-name="path-31-inside-14 114 348">
        <path class="cls-32" d="M81.8,110.1c-1-1.1-2.5-1.4-3.8-2-4.6-2.1-3.6-7.7-4.3-11.8.5,1.4.7,2.8.9,4.2.3,2.7,1,5.8,3.6,7.1,1.2.7,2.7,1.2,3.5,2.4h0Z"/>
      </g>
    </mask>
    <mask id="mask-14" x="77.4" y="84.6" width="6" height="10.5" maskUnits="userSpaceOnUse">
      <g id="path-33-inside-15_114_348" data-name="path-33-inside-15 114 348">
        <path class="cls-32" d="M78.3,85.5c1.3,1,2.3,2.6,2.8,4.2.5,1.6.7,3.2,1.4,4.7-1.2-1.2-1.5-3-2.1-4.5-.5-1.6-1.3-3-2.2-4.4h0Z"/>
      </g>
    </mask>
    <mask id="mask-15" x="74.2" y="89.7" width="8.3" height="16.5" maskUnits="userSpaceOnUse">
      <g id="path-35-inside-16_114_348" data-name="path-35-inside-16 114 348">
        <path class="cls-32" d="M75.5,91.4c2.4,1.6,3.1,4.4,3.4,7.1.3,2.5.8,5.4,3.2,6.8-.6-.2-1.2-.6-1.7-1.1-3.4-3.8-.9-9-4.8-12.8h0Z"/>
      </g>
    </mask>
    <mask id="mask-16" x="83.8" y="87.3" width="9.3" height="4.9" maskUnits="userSpaceOnUse">
      <g id="path-37-inside-17_114_348" data-name="path-37-inside-17 114 348">
        <path class="cls-32" d="M84.8,87.7c.6,1.3,1.6,2.4,3,2.9.4.2.9.3,1.4.4-2,.8-4.6-1.1-4.4-3.3h0Z"/>
      </g>
    </mask>
    <mask id="mask-17" x="140.5" y="110.2" width="10.1" height="8.6" maskUnits="userSpaceOnUse">
      <g id="path-39-inside-18_114_348" data-name="path-39-inside-18 114 348">
        <path class="cls-32" d="M141.4,110.8c2.1,3.3,5.2,5.8,8.8,7.1-3.9-.4-7.6-3.3-8.8-7.1Z"/>
      </g>
    </mask>
    <mask id="mask-18" x="142.8" y="118.2" width="10.7" height="4.8" maskUnits="userSpaceOnUse">
      <g id="path-41-inside-19_114_348" data-name="path-41-inside-19 114 348">
        <path class="cls-32" d="M143.6,119c2.6,2.1,6.1,2.9,9.4,2.1-3,1.7-7.4.7-9.4-2.1Z"/>
      </g>
    </mask>
    <mask id="mask-19" x="146" y="123" width="15.2" height="16.1" maskUnits="userSpaceOnUse">
      <g id="path-43-inside-20_114_348" data-name="path-43-inside-20 114 348">
        <path class="cls-32" d="M152.8,137.9c3.4-.3,7.1-1.8,6.9-5.9,0-1.1-.3-2.2-.8-3.2-1.4-2.6-3.2-2.3-5.7-2.5-2.4-.2-4.6-1.1-6.5-2.4,2,1.1,4.3,1.8,6.6,1.9,1.2,0,2.4,0,3.5.3,1.8.5,3,2.3,3.3,4.1,1.2,5.3-2.4,7.7-7.3,7.7h0Z"/>
      </g>
    </mask>
    <mask id="mask-20" x="98.6" y="25.3" width="123.4" height="23.7" maskUnits="userSpaceOnUse">
      <g id="path-45-inside-21_114_348" data-name="path-45-inside-21 114 348">
        <path class="cls-32" d="M100.3,31.3c5.2-.1,10.4-.7,15.5-1.7,5.1-1,10.2-2.4,15.4-2.9,13-1.3,26.2.6,38.9,3.5,7.6,2,14.8,5.3,22,8.3,9.6,4,19.7,6.7,29.8,9.5-10.1-2.5-20.3-5.1-30-9-7.3-2.9-14.3-6.3-21.9-8.2-12.6-2.9-25.7-4.8-38.7-3.6-5.2.4-10.3,1.8-15.4,2.7-5.1.9-10.4,1.4-15.6,1.4h0Z"/>
      </g>
    </mask>
    <mask id="mask-21" x="143.2" y="18.7" width="71.4" height="21.9" maskUnits="userSpaceOnUse">
      <g id="path-47-inside-22_114_348" data-name="path-47-inside-22 114 348">
        <path class="cls-32" d="M143.3,20c22-2.5,42.5,8,62.3,16.2,2.9,1.2,5.7,2.3,8.6,3.4-3-.9-5.9-2-8.8-3.1-20-7.7-40.2-18.1-62.2-16.5Z"/>
      </g>
    </mask>
    <mask id="mask-22" x="137.4" y="10.9" width="44.2" height="11.3" maskUnits="userSpaceOnUse">
      <g id="path-49-inside-23_114_348" data-name="path-49-inside-23 114 348">
        <path class="cls-32" d="M137.5,12.1c15-1.2,30.4,2,43.6,9.1-13.6-6.3-28.6-9.4-43.6-9.1Z"/>
      </g>
    </mask>
    <mask id="mask-23" x="131.8" y="6.6" width="12.8" height="20.9" maskUnits="userSpaceOnUse">
      <g id="path-51-inside-24_114_348" data-name="path-51-inside-24 114 348">
        <path class="cls-32" d="M136,26.5c1.2-.3,2.3-.7,3.5-1.1.5-.2,1.2-.4,1.2-1-.1-2-2.6-2.1-4.2-2.3-1.2-.1-2.4-.3-3.6-.4v-.5c1,.2,2,.3,2.9.2,1,0,1.9-.2,2.9-.4,1.4-.3,2.8-.5,3.8-1.6.9-1.1.5-2.6-.4-3.6-2.2-2.1-5.4-1.3-8.2-1.9l-1.1-.2c1.2-.2,2.5-.4,3.6-.8,2-.7,3.5-3.3,1.4-4.8-.4-.2-.8-.4-1.2-.3,1.1-.2,2.2.8,2.4,1.8.2,1.6-1,3.1-2.4,3.7-.8.4-1.7.6-2.5.7v-.4c2.8.5,6.3-.3,8.6,1.9,1.7,1.6,1.5,4.4-.7,5.4-.9.5-1.9.6-2.9.8-1.9.4-4,.6-5.9.1v-.5c1.3.2,2.5.3,3.7.5,1.2.2,2.5.3,3.5,1.1.8.6,1.3,1.9.3,2.5-1.4.7-2.9,1-4.4,1.3h0Z"/>
      </g>
    </mask>
    <mask id="mask-24" x="113.6" y="8.4" width="12.3" height="14.8" maskUnits="userSpaceOnUse">
      <g id="path-53-inside-25_114_348" data-name="path-53-inside-25 114 348">
        <path class="cls-32" d="M113.9,21.9c2.4.3,4.9-.1,7.1-1.3,1.3-.6,2.7-2.1,1.9-3.5-.5-1-2-1.2-3-1.3-.8-.1-2.9-.4-3.7-.5v-.6c2.1.2,4.2.4,6.1-.6,1.3-.7,2.4-2.1,2.4-3.6,0-.5-.1-1-.4-1.5.3.4.5.9.5,1.5,0,1.6-.9,3.2-2.3,4-1.9,1-4.2.9-6.3.8v-.6c1.5.2,3.5.4,5,.7,3.7.8,2.9,4.5,0,5.7-2.3,1.1-4.9,1.4-7.3.9h0Z"/>
      </g>
    </mask>
    <mask id="mask-25" x="102.3" y="8.2" width="13.1" height="18.1" maskUnits="userSpaceOnUse">
      <g id="path-55-inside-26_114_348" data-name="path-55-inside-26 114 348">
        <path class="cls-32" d="M102.8,25.3c3,0,6-1.3,8.2-3.5.9-.9,2.2-2.2,1.6-3.6-.6-1.3-2.3-1.6-3.7-1.8l-2.6-.3c1.7-.2,4-.3,5.5-1.1,2.4-1.1,3.4-4.8.4-5.7-.5-.1-1.1,0-1.5.2.2-.2.5-.3.7-.3,2.2-.3,3.6,1.8,2.8,3.8-.8,2.2-3.2,3.1-5.3,3.4v-.6c.8,0,1.6.2,2.3.5,1.2.4,2.3,1.6,2,3-.1.8-.7,1.5-1.2,2.1-1.3,1.5-3,2.6-4.8,3.3-1.5.5-3,.7-4.6.6h0Z"/>
      </g>
    </mask>
    <mask id="mask-26" x="134.7" y="26.4" width="15.1" height="49.9" maskUnits="userSpaceOnUse">
      <g id="path-57-inside-27_114_348" data-name="path-57-inside-27 114 348">
        <path class="cls-32" d="M143.6,27.7c3.4.8,4,5.6,2,8-2,2.6-5.6,3.3-8.8,3.2h-1.9c0,0,1.8-.4,1.8-.4,3-.6,6.1-.4,9,.5,1.2.4,2.9.8,3.1,2.3,0,.9-.7,1.6-1.3,2.1-2.3,2-5.4,3.1-8.4,3.1v-.6c1.7.6,3.2,1.2,4.7,2,.7.4,1.5.8,2.2,1.4,2,2.1.6,5.6-1.7,6.8-1.5.9-3.2,1.3-4.8,1.6l.2-.3c0,.6.7,1,1.4,1.2.7.2,1.5.3,2.3.7,2.1,1,4,3.5,3.4,5.9-.3.9-1.4,1-2.1,1.2l-4.5,1.3v-.3c.7,1,1.7,1.6,2.6,2.3,2.4,1.8,1.7,4.6-1,5.4-1.1.3-2.3.3-3.5.2,1.2,0,2.3,0,3.4-.3,1.6-.4,3-2.3,2-3.9-1-1.6-2.9-2.1-3.9-3.8h.2c0,0,4.5-1.4,4.5-1.4.7-.2,1.6-.3,1.8-1,.4-2.2-1.3-4.4-3.2-5.3-1.1-.5-2.3-.4-3.3-1.2-.4-.3-.6-.7-.6-1.2v-.2c2-.5,4.2-.9,5.8-2.3,1.4-1.3,2.1-3.7.6-5.1-.5-.5-1.2-.9-2-1.3-2-1-4.1-1.8-6.2-2.6h1.7c1.9,0,3.9-.5,5.6-1.3.9-.4,1.7-1,2.4-1.6.6-.5,1.5-1.3.9-2.1-.5-.7-1.6-1-2.5-1.3-2.8-.9-5.8-1.1-8.8-.6v-.4c3,.2,6.5-.5,8.5-2.9,2-2.3,1.4-7-1.8-7.9h0Z"/>
      </g>
    </mask>
    <mask id="mask-27" x="105" y="64.2" width="19.9" height="36.8" maskUnits="userSpaceOnUse">
      <g id="path-60-inside-28_114_348" data-name="path-60-inside-28 114 348">
        <path class="cls-32" d="M107.7,99.5c1.7.1,3.4.9,5,.2,1.6-.8,1.5-3,.4-4.2-1.1-1.3-3-2.1-4.4-3,2.2.6,6.1,2.5,7.4-.3.9-2.6-1.8-4.5-3.5-6l1.2.3c1.7.4,3.5.2,4.9-.9,1.3-1,2-3,1.1-4.4-.6-.9-1.7-1.6-2.7-1.4l-.2-.6c1.7-.6,3.4,0,5-.6,1.7-.6,1.8-2.5.5-3.6-.9-.8-2.2-1.1-3.4-1.5l.5-.3c1.5-.9,3.2-1.9,3.8-3.7.6-1.8-.9-3.5-2.7-3.9-1.2-.3-2.4-.1-3.6.2,1.2-.4,2.4-.6,3.7-.3,1.9.3,3.6,2.2,3,4.1-.6,1.9-2.3,3-3.9,4v-.4c1,.3,2.2.6,3.1,1.4,2.4,2.3.6,4.8-2.4,4.9-1.1,0-2.3,0-3.3.3l-.2-.6c1.3-.3,2.7.5,3.4,1.6,1.1,1.7.3,4.1-1.2,5.3-1.5,1.2-3.6,1.4-5.4,1l.3-.5c1.2,1.1,2.6,2.4,2.9,4.1.4,2-1,3.6-3,3.6-1.2,0-2.2-.3-3.3-.7l.2-.4c1,.6,2,1.2,2.7,2.2,1.2,1.3,1.2,3.8-.6,4.6-1.7.7-3.4-.2-5.1-.4h0Z"/>
      </g>
    </mask>
    <mask id="mask-28" x="107.6" y="99.8" width="13.1" height="19.7" maskUnits="userSpaceOnUse">
      <g id="path-62-inside-29_114_348" data-name="path-62-inside-29 114 348">
        <path class="cls-32" d="M109.3,117.5c1.6.8,3.6,1,5.2.2,1.5-.8,2.5-2.7,1.9-4.4-.5-1.3-1.7-2.4-2.7-3.4.8,0,1.8,0,2.6,0,1.8-.1,3.3-1.4,2.7-3.3-.6-2.3-1.9-4.5-3.8-6,2,1.4,3.6,3.5,4.3,5.9.8,2.2-1,3.9-3.1,4.1-.6,0-1.3,0-1.9,0l.2-.6c.4.4.9.9,1.3,1.4,2,2.2,1.3,5.3-1.4,6.6-1.7.8-3.9.4-5.4-.6h0Z"/>
      </g>
    </mask>
    <mask id="mask-29" x="121.3" y="96" width="11.3" height="19.7" maskUnits="userSpaceOnUse">
      <g id="path-64-inside-30_114_348" data-name="path-64-inside-30 114 348">
        <path class="cls-32" d="M121.7,114c1.1.4,2.4.6,3.5.3,2.2-.4,4.1-3,2.9-5.2-.5-1-1.6-1.7-2.7-1.6l-2.3.2c2.7-1.2,6.2-2,7.6-4.8.9-2.1,0-4.8-1.9-6.1,2.2,1,3.3,4,2.4,6.3-1,2.4-3.5,3.5-5.7,4.4l-.2-.6c.7,0,1.4.1,1.9.5,2.5,1.6,2.1,5.1-.3,6.6-1.6,1-3.8.9-5.4,0Z"/>
      </g>
    </mask>
    <mask id="mask-30" x="153" y="53.6" width="14" height="5.7" maskUnits="userSpaceOnUse">
      <g id="path-66-inside-31_114_348" data-name="path-66-inside-31 114 348">
        <path class="cls-32" d="M166,59.1c-.9-3.2-6.4-3.6-9.2-3.9-1.2-.1-2.4-.2-3.6-.2,3.3-.7,12.5-.4,12.8,4.2Z"/>
      </g>
    </mask>
    <mask id="mask-31" x="180.6" y="48.7" width="27.1" height="5.9" maskUnits="userSpaceOnUse">
      <g id="path-69-inside-32_114_348" data-name="path-69-inside-32 114 348">
        <path class="cls-32" d="M207.6,53.7c-4.5.2-9-.4-13.5-1-4.5-.7-8.9-1.6-13.2-2.9,8.9,1.6,17.7,3.1,26.7,3.9Z"/>
      </g>
    </mask>
    <mask id="mask-32" x="181.2" y="51.5" width="38.7" height="11.8" maskUnits="userSpaceOnUse">
      <g id="path-72-inside-33_114_348" data-name="path-72-inside-33 114 348">
        <path class="cls-32" d="M181.5,52.4c6.4,1.6,12.5,4.1,18.9,5.7,6.4,1.7,12.8,2.9,19.3,4.2-6.5-.8-13.1-1.8-19.4-3.5-6.4-1.7-12.5-4.2-18.7-6.3Z"/>
      </g>
    </mask>
    <mask id="mask-33" x="176" y="55" width="26.9" height="12.7" maskUnits="userSpaceOnUse">
      <g id="path-74-inside-34_114_348" data-name="path-74-inside-34 114 348">
        <path class="cls-32" d="M178.2,56.1c5.9,3.3,11.9,6.2,18.2,8.6,2.1.7,4.2,1.7,6.4,2.1-2.3,0-4.4-.9-6.5-1.6-6.4-2.2-12.5-5.2-18-9.1h0Z"/>
      </g>
    </mask>
    <mask id="mask-34" x="147.3" y="87.1" width="100.7" height="69.3" maskUnits="userSpaceOnUse">
      <g id="path-76-inside-35_114_348" data-name="path-76-inside-35 114 348">
        <path class="cls-32" d="M149.3,89.7c11.2,8.1,16.4,21.6,24.6,32.4,3.5,4.5,7.6,9.1,13.1,10.9,3.7,1.1,7.7,1,11.5,1.9,10.1,2.2,12.1,7.2,19.5,12.5,4.3,3,9.7,3.2,14.8,4.2,2.6.5,5,1.4,7.4,2.6,2.3,1.1,5.2,1.8,7.4.2-1,.8-2.4,1.1-3.7,1-2.6-.2-4.9-1.8-7.3-2.5-1.2-.4-2.5-.7-3.8-.9-10.5-1.6-13-1.4-21-9.1-3.9-3.8-7.9-6.2-13.3-7.3-2.5-.6-5.1-.8-7.7-1.1-5.6-.6-9.8-3.4-13.5-7.4-10.6-11.4-15.3-27.6-27.9-37.2h0Z"/>
      </g>
    </mask>
    <mask id="mask-35" x="156.1" y="86.4" width="5" height="6.6" maskUnits="userSpaceOnUse">
      <g id="path-78-inside-36_114_348" data-name="path-78-inside-36 114 348">
        <path class="cls-32" d="M158.4,87.7c0-.2-.4-.2-.5,0-.2.2-.2.7-.2,1-.1,1-.2,2.3.9,2.8.5.2,1.1.3,1.5-.1,0,.3-.4.5-.7.6-.7.2-1.4,0-1.9-.6-.6-.8-.6-1.9-.3-2.8.1-.4.3-1.2.9-1.1.2,0,.4.1.3.3h0Z"/>
      </g>
    </mask>
    <mask id="mask-36" x="162" y="93.8" width="4.4" height="7.2" maskUnits="userSpaceOnUse">
      <g id="path-80-inside-37_114_348" data-name="path-80-inside-37 114 348">
        <path class="cls-32" d="M164.4,95c-.3-.2-.6,0-.7.2-.1.2-.1.5-.1.8,0,.6,0,1.2.1,1.8.1.8.1,1.8,1,1.9.3,0,.6,0,.7-.3,0,.2,0,.3-.2.4-.3.2-.7.3-1,.2-1.3-.6-1.3-2.8-1.1-4,0-.3.1-.7.4-.9.2-.2.8-.3.9,0h0Z"/>
      </g>
    </mask>
    <mask id="mask-37" x="166.9" y="100.5" width="4.5" height="7.5" maskUnits="userSpaceOnUse">
      <g id="path-82-inside-38_114_348" data-name="path-82-inside-38 114 348">
        <path class="cls-32" d="M168.5,102.3c-.1,1.1-.3,3.5.8,4.2.4.1,1-.1,1-.6.2.3,0,.6-.2.8-.5.5-1.4.3-1.7-.2-.8-1.2-.7-2.9.1-4.1h0Z"/>
      </g>
    </mask>
    <mask id="mask-38" x="172.1" y="110.8" width="5.4" height="6.2" maskUnits="userSpaceOnUse">
      <g id="path-84-inside-39_114_348" data-name="path-84-inside-39 114 348">
        <path class="cls-32" d="M173.3,112.2c.2,1.3.3,3.2,2,3.3.4,0,.9-.1,1.2-.6,0,.3-.1.6-.3.8-.7.6-1.8.5-2.5-.3-.8-.9-.7-2.2-.4-3.2h0Z"/>
      </g>
    </mask>
    <mask id="mask-39" x="178.6" y="118.6" width="5" height="6.9" maskUnits="userSpaceOnUse">
      <g id="path-86-inside-40_114_348" data-name="path-86-inside-40 114 348">
        <path class="cls-32" d="M180.5,120.7c-.2.9-.5,1.9,0,2.7.2.4.5.6.9.6.4,0,.9-.3.9-.8.3.6-.3,1.2-.8,1.3-.6.2-1.3-.3-1.5-.8-.6-1,0-2.2.6-3h0Z"/>
      </g>
    </mask>
    <mask id="mask-40" x="186" y="125" width="4.8" height="4.9" maskUnits="userSpaceOnUse">
      <g id="path-88-inside-41_114_348" data-name="path-88-inside-41 114 348">
        <path class="cls-32" d="M187.1,126.2c.4.6.6,1.4,1.1,1.8.4.4,1.2.6,1.7,0,0,.2-.1.4-.3.6-.5.4-1.4.4-1.9-.1-.6-.6-.8-1.5-.6-2.3h0Z"/>
      </g>
    </mask>
    <mask id="mask-41" x="196.4" y="128.1" width="4.3" height="5" maskUnits="userSpaceOnUse">
      <g id="path-90-inside-42_114_348" data-name="path-90-inside-42 114 348">
        <path class="cls-32" d="M197.7,130.4c0,.7.7,1.3,1.4,1.1.2,0,.4-.2.6-.4.1.7-.7,1.3-1.4,1.1-.7-.2-1.1-1.2-.6-1.7Z"/>
      </g>
    </mask>
    <mask id="mask-42" x="205.9" y="129.6" width="6.5" height="5.8" maskUnits="userSpaceOnUse">
      <g id="path-92-inside-43_114_348" data-name="path-92-inside-43 114 348">
        <path class="cls-32" d="M208.1,131.1c-1.1,1.2-.4,3,1.3,3-.8.6-2,0-2.3-.8-.4-.9.1-2,1-2.2Z"/>
      </g>
    </mask>
    <mask id="mask-43" x="216" y="136.9" width="5.2" height="7.4" maskUnits="userSpaceOnUse">
      <g id="path-94-inside-44_114_348" data-name="path-94-inside-44 114 348">
        <path class="cls-32" d="M217.8,139.8c0,1-.6,2.3.5,2.9.3.2.6.3,1,0,0,.2-.3.4-.5.4-.7.2-1.5-.3-1.7-1-.3-.9.1-1.8.7-2.4Z"/>
      </g>
    </mask>
    <mask id="mask-44" x="224.8" y="143.1" width="5.1" height="6.3" maskUnits="userSpaceOnUse">
      <g id="path-96-inside-45_114_348" data-name="path-96-inside-45 114 348">
        <path class="cls-32" d="M226,145.7c.1.8.5,1.5,1.1,1.9h-.3c.3-.2.5-.5.6-1,.4.5.1,1.2-.4,1.6-1-.3-1.6-1.6-1-2.5Z"/>
      </g>
    </mask>
    <mask id="mask-45" x="16.4" y="75.9" width="38.2" height="10.5" maskUnits="userSpaceOnUse">
      <g id="path-98-inside-46_114_348" data-name="path-98-inside-46 114 348">
        <path class="cls-32" d="M38.9,77.5c2.3-.4,4.6-.7,6.9-.5,2.3.2,4.6,1.1,6.3,2.8.8.9,1.5,2,1.6,3.2-.2,1.1-2.2,1.7-3.1,1.8-1.2.1-2.4-.3-3.5-.7-1.1-.3-2.2-.6-3.3-.8-2.2-.4-4.5-.5-6.8-.3-2.3.2-4.5.7-6.7,1.3-2.2.6-4.5,1.2-6.8,1-2.3-.2-4.5-.8-6.7-1.6,2.2.6,4.4,1.2,6.7,1.3,3.5.3,6.7-1.4,10-2,3.4-.7,6.9-.9,10.4-.3,1.1.2,2.3.5,3.4.9,1.5.6,3.2,1,4.8.3.4-.2,1-.4,1.1-.9,0-1-.7-2.1-1.4-2.8-3.2-3.6-8.4-3.2-12.7-2.6h0Z"/>
      </g>
    </mask>
  </defs>
  <path class="cls-33" d="M151.9,137.9c1.9,1.6,4.7,1.9,6.8.7,3.5,3.4,7.2,6.9,11.9,8.3,7.5,2.3,15.5-1.2,23.3-.6,9.5.8,17.6,7.5,27.1,8.7,4,.5,8.2,0,12.1,1.1,3.9,1.1,7.4,3.6,11.5,3.9,4.9.4,9.5-2.7,14.4-3.1,3.8-.3,7.6.9,11.4,1.6,3.8.7,8,.7,11-1.7,3-2.4,3.5-7.9.1-9.7.3,1.7.7,3.4.3,5-.4,1.6-1.8,3.2-3.5,3.2-1,0-5.6,0-6.5-.4-5.2-2.6-7.4-4.5-13.2-4.5-3.6,0-8.7,1.8-12.5,1.2-3.9-.6-6.5-3.5-9.7-5.2-5.2-2.7-10.8-5-15.5-8.4-4.3-3.1-7.4-9.8-12.4-11.4-3-.9-6.2.3-9.4.4-5,0-9.7-3-12.9-6.9-3.2-3.9-7.1-7.1-9.4-11.6-3.9-7.4-7-15.7-12.6-21.8-2.6-2.8-6.9-5.4-8.9-8.6-2.3-3.6,1.6-6.7-.4-10.1,1.6-.2,3.2-.5,4.6-1.3,1.4-.9,2.3-2.5,1.9-4.1,2-.2,3.9-1.6,4.7-3.5,8.7,3,17.4,5.9,26.4,7.2,9.1,1.3,18.6.7,26.9-3.2,1.1-1.8,2.2-3.6,3.4-5.4-5.2-.5-10.2-2.1-14.8-4.4h.7c2.7.2,5.5.4,8.1-.3,2.6-.7,5.1-2.6,5.7-5.2,1,0,1.9-.2,2.7-.8-10.9-11.3-28-14-40.5-23.4-2.8-2.1-5.3-4.5-8.2-6.5-4.3-2.9-9.2-4.6-14-6.4-17.2-6.2-34.4-6.3-52.2-3.4-5.4.9-10.8.2-16.2,1.3-5.9,1.3-11.7,4.2-15.1,9.2-3.4,5-3.6,12.4.5,16.8,4.3,4.5,11.6,4.7,16.5,8.6,3.2,2.5,5.1,6.4,6.8,10.2,1.5,3.3,3,6.7,3.2,10.4.3,3.6-.9,7.6-3.7,9.8-4-5.3-7.9.3-11-.8-1.5-.5-2.6-2.2-2.4-3.8.1-1.3.9-2.4,1.4-3.5,2-4,1.9-8.7,1.7-13.2-.2-4.5-.5-9.4-3.4-12.9-.5,5.7-1.9,11.3-4.1,16.6-1.2.7-2.7-.5-3.1-1.9-.3-1.3,0-2.7.3-4.1.7-5.8-3-11.2-6.5-15.9-1,1.9-.5,4.1.1,6.1.6,2,1.4,4.1,1.1,6.1-.4,2.1-2.5,4-4.5,3.2-1.6,4.1-6.2,6.9-10.6,6.4-1.6-.2-3.3-.8-4.8-.3-1.4.4-2.4,1.5-3.7,2.2-1.5.8-3.2,1-4.9,1.1-5.5.4-10.9.9-16.4,1.3-.3,5.5,2.6,11.1,7.3,14,.7.4,1.5.8,2.3.9.9.1,1.9-.1,2.8-.3,4.1-.6,8.5.8,11.5,3.8,1.4,1.4,2.4,3.4,1.7,5.2-.7,1.6-2.5,2.3-4.1,2.9-6.7,2.2-13.5,3.1-20.3,4.8-.7,5.9,6.2,3.5,9.5,3.1,5.8-.6,11.7-.6,17.5.2,1.3.2,2.7.4,3.9.9,2.6,1.2,4.2,3.7,5.5,6.2,1.3,2.5,2.4,5.2,4.4,7.1,2.5,2.4,5.4,1.4,8.1,2.7,3.1,1.6,5.1,4.8,8.7,6.2,4.1,1.5,8.5,2,12.8,2.4,0,.7-7.1,4.2-10.7,3.1-1.8-.5-3.5-1.4-5.4-1.7-4.4-.7-8.5,2-12.1,4.7.8,1.3,2.2,2.1,3.7,2.1-2.1,1.9-4.4,4.4-3.7,7.1.7,2.5,3.9,3.6,6.4,3,2.5-.6,4.5-2.5,6.4-4.3-.3,2-.7,4.1.2,5.9.8,1.8,3.4,3,4.9,1.7,0-2,.2-4.1,1-6,.9-1.8,2.7-3.4,4.7-3.3.6,1.3,1.2,2.6,1.8,3.9,6.2-2.8,12.9-5.7,19.6-4.5l-.7-2.5c3.4.1,6.8.7,10,1.7-2.5,3.8-5.4,8-9.9,8.9-2,.4-4.1,0-6.1,0-6.5-.4-13.2,1.4-18.6,4.9,2,2.4,5.6,3.3,8.5,2.3-2.4,2.4-4,5.5-4.6,8.9,2-2.1,5.5.6,8.3-.2,1.6-.5,2.6-2,3.7-3.1,1.9-1.9,4.5-3,7.2-3-1.7,1.4-3.6,3-3.8,5.1-.2,2.2,2.5,4.4,4.1,3,.4-.4.7-.8.9-1.3,3.5-6.2,12-9.1,18.6-6.3"/>
  <path class="cls-21" d="M151.9,137.9c1.9,1.6,4.7,1.9,6.8.7,3.5,3.4,7.2,6.9,11.9,8.3,7.5,2.3,15.5-1.2,23.3-.6,9.5.8,17.6,7.5,27.1,8.7,4,.5,8.2,0,12.1,1.1,3.9,1.1,7.4,3.6,11.5,3.9,4.9.4,9.5-2.7,14.4-3.1,3.8-.3,7.6.9,11.4,1.6,3.8.7,8,.7,11-1.7,3-2.4,3.5-7.9.1-9.7.3,1.7.7,3.4.3,5-.4,1.6-1.8,3.2-3.5,3.2-1,0-5.6,0-6.5-.4-5.2-2.6-7.4-4.5-13.2-4.5-3.6,0-8.7,1.8-12.5,1.2-3.9-.6-6.5-3.5-9.7-5.2-5.2-2.7-10.8-5-15.5-8.4-4.3-3.1-7.4-9.8-12.4-11.4-3-.9-6.2.3-9.4.4-5,0-9.7-3-12.9-6.9-3.2-3.9-7.1-7.1-9.4-11.6-3.9-7.4-7-15.7-12.6-21.8-2.6-2.8-6.9-5.4-8.9-8.6-2.3-3.6,1.6-6.7-.4-10.1,1.6-.2,3.2-.5,4.6-1.3,1.4-.9,2.3-2.5,1.9-4.1,2-.2,3.9-1.6,4.7-3.5,8.7,3,17.4,5.9,26.4,7.2,9.1,1.3,18.6.7,26.9-3.2,1.1-1.8,2.2-3.6,3.4-5.4-5.2-.5-10.2-2.1-14.8-4.4h.7c2.7.2,5.5.4,8.1-.3,2.6-.7,5.1-2.6,5.7-5.2,1,0,1.9-.2,2.7-.8-10.9-11.3-28-14-40.5-23.4-2.8-2.1-5.3-4.5-8.2-6.5-4.3-2.9-9.2-4.6-14-6.4-17.2-6.2-34.4-6.3-52.2-3.4-5.4.9-10.8.2-16.2,1.3-5.9,1.3-11.7,4.2-15.1,9.2-3.4,5-3.6,12.4.5,16.8,4.3,4.5,11.6,4.7,16.5,8.6,3.2,2.5,5.1,6.4,6.8,10.2,1.5,3.3,3,6.7,3.2,10.4.3,3.6-.9,7.6-3.7,9.8-4-5.3-7.9.3-11-.8-1.5-.5-2.6-2.2-2.4-3.8.1-1.3.9-2.4,1.4-3.5,2-4,1.9-8.7,1.7-13.2-.2-4.5-.5-9.4-3.4-12.9-.5,5.7-1.9,11.3-4.1,16.6-1.2.7-2.7-.5-3.1-1.9-.3-1.3,0-2.7.3-4.1.7-5.8-3-11.2-6.5-15.9-1,1.9-.5,4.1.1,6.1.6,2,1.4,4.1,1.1,6.1-.4,2.1-2.5,4-4.5,3.2-1.6,4.1-6.2,6.9-10.6,6.4-1.6-.2-3.3-.8-4.8-.3-1.4.4-2.4,1.5-3.7,2.2-1.5.8-3.2,1-4.9,1.1-5.5.4-10.9.9-16.4,1.3-.3,5.5,2.6,11.1,7.3,14,.7.4,1.5.8,2.3.9.9.1,1.9-.1,2.8-.3,4.1-.6,8.5.8,11.5,3.8,1.4,1.4,2.4,3.4,1.7,5.2-.7,1.6-2.5,2.3-4.1,2.9-6.7,2.2-13.5,3.1-20.3,4.8-.7,5.9,6.2,3.5,9.5,3.1,5.8-.6,11.7-.6,17.5.2,1.3.2,2.7.4,3.9.9,2.6,1.2,4.2,3.7,5.5,6.2,1.3,2.5,2.4,5.2,4.4,7.1,2.5,2.4,5.4,1.4,8.1,2.7,3.1,1.6,5.1,4.8,8.7,6.2,4.1,1.5,8.5,2,12.8,2.4,0,.7-7.1,4.2-10.7,3.1-1.8-.5-3.5-1.4-5.4-1.7-4.4-.7-8.5,2-12.1,4.7.8,1.3,2.2,2.1,3.7,2.1-2.1,1.9-4.4,4.4-3.7,7.1.7,2.5,3.9,3.6,6.4,3,2.5-.6,4.5-2.5,6.4-4.3-.3,2-.7,4.1.2,5.9.8,1.8,3.4,3,4.9,1.7,0-2,.2-4.1,1-6,.9-1.8,2.7-3.4,4.7-3.3.6,1.3,1.2,2.6,1.8,3.9,6.2-2.8,12.9-5.7,19.6-4.5l-.7-2.5c3.4.1,6.8.7,10,1.7-2.5,3.8-5.4,8-9.9,8.9-2,.4-4.1,0-6.1,0-6.5-.4-13.2,1.4-18.6,4.9,2,2.4,5.6,3.3,8.5,2.3-2.4,2.4-4,5.5-4.6,8.9,2-2.1,5.5.6,8.3-.2,1.6-.5,2.6-2,3.7-3.1,1.9-1.9,4.5-3,7.2-3-1.7,1.4-3.6,3-3.8,5.1-.2,2.2,2.5,4.4,4.1,3,.4-.4.7-.8.9-1.3,3.5-6.2,12-9.1,18.6-6.3"/>
  <path class="cls-33" d="M57,83.5c.8,2-6,3.8-9.5,4.5-6.5-3.5-4-2-11.5-2.5s-6,2.5-13.5,2.5-10.8-6.3-12.5-9.5c1.5,2.5,4.5,3,12.5,3s10.5-5,21-6,12.5,5.5,13.5,8Z"/>
  <path class="cls-33" d="M43.4,74.9c-10,1.4-18.8,10-29.4,6.7-1.4-.5-2.8-1.2-3.9-2.2l.5-.4c2.6,5.6,9.1,9,15.2,8.3,2.4-.3,4.5-1.3,6.8-1.9,5.1-1.2,10.7-.2,15,2.7-3.7-2.3-8.1-3.2-12.4-2.7-2.6.3-4.9,1.3-7.5,2.1-1.7.5-3.5.6-5.2.5-5.3-.5-10.3-3.7-12.6-8.6l-.6-1.4,1.1,1c3.3,2.9,8,3.2,12.1,2.5,7.2-1.2,13.4-5.8,20.7-6.5h0Z"/>
  <g class="cls-43">
    <path class="cls-31" d="M43.4,74.9l.9.5.9-1.7-1.9.3v1ZM13.9,81.6l-.3.9h0s0,0,0,0l.3-1ZM10.1,79.4l-.6-.8-1,.7.9.8.7-.7ZM10.5,79l.9-.4-.5-1.1-1,.7.6.8ZM25.8,87.2v1c.1,0,.1,0,.1,0v-1ZM32.6,85.3l.2,1h0s-.2-1-.2-1ZM47.6,88l-.5.9,1.1-1.7-.6.8ZM35.2,85.3v1c0,0,.1,0,.1,0h0s-.1-1-.1-1ZM27.8,87.4l.3,1h0s0,0,0,0l-.3-1ZM22.5,87.9v-1c0,0,0,0,0,0v1ZM10,79.3l.9-.4h0s-.9.4-.9.4ZM9.3,77.9l.7-.7-1.6,1.2.9-.4ZM10.5,78.9l.7-.7h0s-.7.7-.7.7ZM22.6,81.4l-.2-1h0s.2,1,.2,1ZM43.4,74.9v1c0,0,.6,0,.6,0l.3-.5-.9-.5ZM43.2,73.9c-2.6.4-5.1,1.2-7.6,2.2-1.2.5-2.4,1-3.6,1.5-1.2.5-2.4,1-3.5,1.5-4.7,1.9-9.3,3.1-14.3,1.5l-.6,1.9c5.7,1.8,10.8.3,15.6-1.6,1.2-.5,2.4-1,3.6-1.5,1.2-.5,2.4-1,3.6-1.5,2.4-.9,4.7-1.7,7.1-2l-.3-2ZM14.2,80.6c-1.3-.4-2.5-1.1-3.5-2l-1.3,1.5c1.2,1.1,2.7,1.9,4.2,2.4l.6-1.9ZM10.6,80.2l.5-.4-1.2-1.6-.5.4,1.2,1.6ZM9.6,79.4c2.8,6,9.7,9.7,16.2,8.8l-.3-2c-5.7.7-11.7-2.5-14.2-7.7l-1.8.9ZM25.9,88.2c1.3-.2,2.5-.5,3.6-.9,1.2-.4,2.2-.8,3.3-1l-.5-1.9c-1.2.3-2.4.7-3.5,1.1-1.1.4-2.2.7-3.3.8l.3,2ZM32.8,86.3c4.8-1.2,10.1-.2,14.2,2.5l1.1-1.7c-4.6-3.1-10.5-4.1-15.8-2.8l.5,1.9ZM48.1,87.2c-3.9-2.4-8.5-3.4-13-2.9l.2,2c4.1-.5,8.3.5,11.7,2.6l1.1-1.7ZM35.1,84.3c-1.4.1-2.7.5-4,.9-1.3.4-2.4.8-3.7,1.2l.6,1.9c1.2-.4,2.6-.9,3.7-1.2,1.2-.4,2.4-.7,3.6-.8l-.2-2ZM27.5,86.4c-1.6.4-3.3.6-4.9.4l-.2,2c1.9.2,3.8,0,5.6-.5l-.5-1.9ZM22.6,86.9c-4.9-.5-9.7-3.5-11.7-8l-1.8.8c2.4,5.2,7.8,8.7,13.4,9.2l.2-2ZM10.9,78.8l-.6-1.4-1.8.8.6,1.4,1.8-.8ZM8.7,78.6l1.1,1,1.3-1.5-1.1-1-1.3,1.5ZM9.8,79.6c3.6,3.2,8.7,3.5,13,2.7l-.4-2c-4,.7-8.4.4-11.3-2.3l-1.3,1.5ZM22.8,82.4c3.7-.6,7.2-2.1,10.5-3.5,3.4-1.4,6.6-2.7,10.1-3l-.2-2c-3.8.3-7.4,1.7-10.7,3.1-3.4,1.4-6.6,2.8-10.1,3.4l.3,2ZM44.3,75.3h0s-1.8-.9-1.8-.9h0s1.8.9,1.8.9Z"/>
  </g>
  <path class="cls-33" d="M71.8,49.8c3.1-.2,6,1.7,7.8,4-2.5-1.6-4.9-3.3-7.8-4Z"/>
  <g class="cls-42">
    <path class="cls-31" d="M71.8,49.8v-1c0,0-.2,2-.2,2l.2-1ZM79.6,53.8l-.5.8,1.3-1.5-.8.6ZM71.9,50.8c2.6-.2,5.2,1.5,7,3.6l1.6-1.3c-2-2.5-5.2-4.6-8.7-4.4v2ZM80.2,53c-2.4-1.6-5-3.4-8.1-4.1l-.5,1.9c2.7.7,5,2.2,7.5,3.9l1.1-1.7Z"/>
  </g>
  <path class="cls-33" d="M66.5,66.9c-.8-2.3-2.3-4.3-3.9-6-1.7-1.8-4.5-2.6-6.5-.9-.6.6-1,1.3-1.2,2.2-.8,2.6,1.7,4.6,4,5,1.2.2,2.5,0,3.4-.9.3.7.6,1.4.9,2.2-.3-.7-.7-1.3-1-2h.2c-2.3,2.3-6.8.9-8-2-.4-.9-.3-2,0-2.9.7-2.3,3.1-3.6,5.4-3,1.3.3,2.3,1.1,3.1,2,1.6,1.8,3,3.9,3.5,6.3h0Z"/>
  <g class="cls-8">
    <path class="cls-31" d="M66.5,66.9l-.9.3,1.9-.6-1,.3ZM62.6,60.9l-.7.7h0s0,0,0,0l.7-.7ZM56.1,60l-.7-.8h0s0,0,0,0l.7.7ZM54.9,62.2l1,.3h0s0,0,0,0l-1-.2ZM58.9,67.1l.2-1h0s-.2,1-.2,1ZM62.3,66.2l.9-.4-.6-1.4-1.1,1,.7.7ZM63.2,68.4l-.9.5,1.8-.8-.9.4ZM62.2,66.4l.2-1-2-.4.9,1.8.9-.4ZM62.3,66.5l.7.7,1.4-1.4-1.9-.3-.2,1ZM54.3,64.4l.9-.4h0s-.9.4-.9.4ZM54.4,61.6l.9.3h0s0,0,0,0l-1-.3ZM59.8,58.6l-.3,1h0s0,0,0,0l.2-1ZM63,60.6l.7-.7h0s-.7.7-.7.7ZM66.5,66.9l-1,.2h0s0,0,0,0l.9-.3ZM67.5,66.6c-.8-2.5-2.4-4.6-4.1-6.4l-1.4,1.4c1.6,1.7,3,3.5,3.7,5.6l1.9-.6ZM63.3,60.2c-1.9-2.1-5.3-3.2-7.9-1l1.3,1.5c1.4-1.2,3.6-.8,5.1.8l1.5-1.3ZM55.4,59.3c-.8.7-1.3,1.6-1.5,2.6l1.9.5c.2-.7.5-1.2,1-1.7l-1.4-1.5ZM53.9,61.9c-.5,1.7,0,3.2,1,4.3,1,1.1,2.4,1.8,3.8,2l.3-2c-1-.2-2-.7-2.6-1.4-.6-.7-.9-1.5-.6-2.3l-1.9-.6ZM58.7,68.1c1.4.2,3.1,0,4.2-1.2l-1.4-1.4c-.6.6-1.5.8-2.5.6l-.3,2ZM61.4,66.6c.3.7.6,1.4.9,2.2l1.9-.7c-.3-.7-.6-1.5-.9-2.2l-1.8.8ZM64,68c-.3-.6-.7-1.3-1-2l-1.8.9c.3.7.7,1.3,1,2l1.8-.9ZM62,67.4h.2s.4-1.9.4-1.9h-.2s-.4,1.9-.4,1.9ZM61.6,65.8c-.8.8-2.1,1-3.4.7-1.3-.4-2.5-1.3-2.9-2.4l-1.9.7c.7,1.8,2.4,3.1,4.2,3.6,1.8.5,3.9.3,5.4-1.2l-1.4-1.4ZM55.3,64.1c-.2-.6-.2-1.4,0-2.2l-1.9-.7c-.4,1-.5,2.4,0,3.6l1.9-.8ZM55.4,61.8c.5-1.8,2.4-2.8,4.2-2.3l.5-1.9c-2.8-.7-5.8.8-6.6,3.7l1.9.6ZM59.6,59.5c1,.2,1.9.9,2.6,1.7l1.5-1.3c-.9-1-2.2-2-3.7-2.3l-.5,1.9ZM62.2,61.2c1.6,1.8,2.8,3.7,3.3,5.9l2-.4c-.6-2.6-2.1-4.9-3.8-6.8l-1.5,1.3ZM65.6,67.2h0s1.9-.6,1.9-.6h0s-1.9.6-1.9.6Z"/>
  </g>
  <path class="cls-33" d="M58.7,61.4c-1-1.3-2.9-.5-2.8,1.1,0,1.1.8,2,1.9,1.6,1.2-.3,1.7-1.8.9-2.7ZM58.7,61.4c1.1,1.3.1,3.3-1.5,3.3-1.2,0-2-1.2-1.8-2.3.2-1.7,2.3-2.5,3.4-1Z"/>
  <g class="cls-13">
    <path class="cls-31" d="M58.7,61.4l-.8.6h0s0,0,0,0l.8-.6ZM55.9,62.5h1c0,0,0,0,0,0h0c0,0-1,0-1,0ZM57.8,64.1l-.2-1h0s0,0,0,0l.3,1ZM57.1,64.7v-1s0,0,0,0h0s0,1,0,1ZM55.3,62.4l1,.2h0c0,0,0-.1,0-.1h-1ZM59.5,60.8c-.8-1-2-1.2-3-.8-1,.4-1.7,1.4-1.6,2.6h2c0-.4.2-.6.4-.7.1,0,.2,0,.3,0,0,0,.2,0,.3.2l1.6-1.2ZM54.9,62.4c0,.8.2,1.6.8,2.1.6.6,1.5.8,2.4.5l-.6-1.9c-.1,0-.2,0-.2,0,0,0-.1,0-.2,0-.1,0-.2-.3-.2-.5h-2ZM58,65.1c1.9-.5,2.7-2.8,1.4-4.3l-1.5,1.3c.3.4.1,1-.4,1.1l.5,1.9ZM57.9,62c.5.6,0,1.7-.8,1.7v2c2.6,0,3.9-3.1,2.3-5l-1.5,1.3ZM57.1,63.7c-.2,0-.4,0-.6-.3-.2-.2-.2-.6-.2-.8l-2-.4c-.2.9,0,1.7.6,2.4.5.7,1.3,1.2,2.3,1.1v-2ZM56.3,62.5c0-.4.3-.7.7-.8.3-.1.7,0,.9.3l1.6-1.2c-.8-1.1-2.1-1.3-3.1-1-1,.3-1.9,1.3-2,2.6l2,.2Z"/>
  </g>
  <path class="cls-33" d="M55.2,70.6c1.4,1.7,3.9,2.3,5.9,1.5.7-.2,1.3-.6,2-1-1.9,2.7-6.6,2.8-7.9-.4Z"/>
  <g class="cls-30">
    <path class="cls-31" d="M55.2,70.6l.8-.6-1.7,1,.9-.4ZM61.1,72.1l-.3-.9h0s0,0,0,0l.4.9ZM63.1,71.1l.8.6-1.4-1.4.6.8ZM54.4,71.3c1.7,2.1,4.6,2.7,7.1,1.8l-.7-1.9c-1.7.6-3.7.2-4.8-1.2l-1.5,1.3ZM61.5,73.1c.8-.3,1.5-.7,2.2-1.1l-1.1-1.7c-.6.4-1.2.7-1.7.9l.7,1.9ZM62.3,70.5c-.7,1-2,1.6-3.3,1.6-1.3,0-2.4-.7-2.9-1.8l-1.8.8c.9,2.1,2.8,3,4.7,3.1,1.9,0,3.8-.8,5-2.4l-1.6-1.1Z"/>
  </g>
  <path class="cls-33" d="M77.8,55.6c-.3,2-1.9,3.9-3.9,4.4.6-.6,1.5-1.4,2.1-2.1.6-.6,1.3-1.6,1.8-2.3Z"/>
  <g class="cls-20">
    <path class="cls-31" d="M77.8,55.6l1,.2-1.8-.7.8.6ZM73.9,60.1l-.7-.7.9,1.7-.3-1ZM76,58l-.7-.7h0s0,0,0,0l.8.7ZM76.8,55.5c-.3,1.7-1.6,3.2-3.2,3.6l.5,1.9c2.4-.7,4.3-2.8,4.7-5.3l-2-.3ZM74.5,60.8c.6-.6,1.6-1.5,2.2-2.2l-1.5-1.3c-.5.6-1.4,1.4-2,2l1.4,1.5ZM76.7,58.6c.6-.7,1.4-1.7,1.9-2.4l-1.6-1.2c-.5.7-1.2,1.7-1.8,2.3l1.5,1.4Z"/>
  </g>
  <path class="cls-33" d="M84,57.9c-.2,3.8-6.6,5-5.2,9.2.9,2.3,3.8,2.1,5.7,1.2-2,1.4-5.2,1.6-6.2-1-.7-1.6,0-3.4,1.2-4.5,1.6-1.6,4-2.5,4.6-4.9h0Z"/>
  <g class="cls-37">
    <path class="cls-31" d="M84,57.9h1s-1.9-.4-1.9-.4l.9.4ZM78.8,67.1l-.9.3h0s0,0,0,0l.9-.3ZM84.5,68.3l.6.8-1-1.7.4.9ZM78.3,67.4l.9-.4h0s-.9.4-.9.4ZM79.4,62.8l.7.7h0s0,0,0,0l-.7-.7ZM84,57.9l-.9-.4h0c0,.1,0,.2,0,.2l1,.2ZM83,57.9c0,.7-.3,1.2-.8,1.9-.5.6-1.2,1.2-2,1.9-.7.6-1.5,1.4-2,2.3-.5,1-.7,2.1-.2,3.5l1.9-.6c-.3-.8-.2-1.4.1-1.9.3-.6.9-1.1,1.6-1.8.7-.6,1.5-1.3,2.2-2.1.7-.8,1.3-1.8,1.3-3.1h-2ZM77.9,67.5c.6,1.6,1.9,2.3,3.3,2.4,1.3.1,2.7-.2,3.7-.7l-.9-1.8c-.8.4-1.8.6-2.7.5-.8,0-1.4-.4-1.6-1.1l-1.9.7ZM83.9,67.5c-.8.6-1.9.9-2.8.8-.9,0-1.6-.5-1.9-1.4l-1.8.8c.7,1.7,2.1,2.5,3.6,2.6,1.4.1,3-.4,4.1-1.2l-1.2-1.6ZM79.2,67c-.5-1.1,0-2.5.9-3.4l-1.4-1.5c-1.4,1.3-2.3,3.6-1.4,5.6l1.8-.8ZM80.1,63.5c.3-.3.7-.7,1.2-1,.4-.3.9-.7,1.4-1.1.9-.8,1.9-1.8,2.2-3.3l-1.9-.5c-.2.9-.8,1.5-1.6,2.2-.4.3-.9.7-1.3,1-.5.4-1,.7-1.4,1.2l1.4,1.4ZM84.9,58.4h0s-1.8-.9-1.8-.9h0s1.8.9,1.8.9Z"/>
  </g>
  <path class="cls-33" d="M84.1,56.3c1.2-.6,2.9,0,3.6,1.1-1.2-.4-2.3-.7-3.6-1.1Z"/>
  <g class="cls-46">
    <path class="cls-31" d="M84.1,56.3l-.4-.9-2.4,1.2,2.6.7.3-1ZM87.7,57.3l-.3,1,2.5.8-1.4-2.3-.9.5ZM84.6,57.2c.8-.4,1.9,0,2.3.7l1.7-1c-1-1.6-3.2-2.3-4.9-1.5l.9,1.8ZM88,56.4c-1.2-.4-2.4-.7-3.6-1.1l-.5,1.9c1.2.3,2.3.7,3.5,1.1l.6-1.9Z"/>
  </g>
  <path class="cls-33" d="M93.1,128.8c-3.7-.5-7.4-1.4-11.1-.8-1.2.2-2.4.6-3.6,1,1.1-.6,2.3-1.1,3.5-1.5,3.7-.9,7.7,0,11.2,1.3Z"/>
  <g class="cls-29">
    <path class="cls-31" d="M93.1,128.8v1c-.1,0,.3-1.9.3-1.9l-.3.9ZM82,128l-.2-1h0s.2,1,.2,1ZM78.4,128.9l-.5-.9.8,1.8-.3-1ZM81.9,127.5l-.2-1h0s0,0,0,0l.2,1ZM93.3,127.8c-3.5-.5-7.5-1.4-11.4-.8l.3,2c3.5-.6,7,.2,10.8.8l.3-2ZM81.9,127c-1.3.2-2.6.7-3.7,1l.6,1.9c1.3-.4,2.4-.7,3.5-.9l-.3-2ZM78.9,129.8c1.1-.6,2.1-1.1,3.3-1.4l-.5-1.9c-1.4.4-2.6.9-3.7,1.6l1,1.8ZM82.2,128.4c3.4-.8,7.1,0,10.6,1.2l.7-1.9c-3.6-1.3-7.7-2.3-11.8-1.3l.5,1.9Z"/>
  </g>
  <path class="cls-33" d="M87.1,134.9c.9-1.8,2.9-3.1,4.9-3.2-1.7,1-3.3,2-4.9,3.2Z"/>
  <g class="cls-17">
    <path class="cls-31" d="M87.1,134.9l-.9-.5,1.5,1.3-.6-.8ZM92.1,131.7l.5.9-.6-1.9v1ZM88,135.4c.8-1.5,2.4-2.6,4.1-2.7v-2c-2.5.2-4.8,1.6-5.9,3.8l1.8.9ZM91.6,130.9c-1.8,1-3.4,2.1-5,3.3l1.2,1.6c1.6-1.2,3.2-2.2,4.9-3.2l-1-1.7Z"/>
  </g>
  <path class="cls-33" d="M103.1,147.6c3.5-2,7.6-2.9,11.7-3,1.3,0,2.8,0,4,.6-1.3-.4-2.6-.3-4-.1-4,.4-7.9,1.2-11.7,2.5h0Z"/>
  <g class="cls-3">
    <path class="cls-31" d="M103.1,147.6l-.9.3.4,1.2,1.1-.6-.5-.9ZM114.7,144.6v-1h0v1ZM118.7,145.2l-.3,1,.7-1.9-.5.9ZM114.7,145.1v1h0v-1ZM103.1,147.6l-.3-.9-.9.3.3.9.9-.3ZM103.6,148.5c3.3-1.9,7.3-2.8,11.2-2.9v-2c-4.2.1-8.5,1-12.2,3.2l1,1.7ZM114.7,145.6c1.3,0,2.5,0,3.5.5l.9-1.8c-1.5-.7-3.1-.8-4.5-.7v2ZM119,144.3c-1.5-.4-3-.3-4.3-.2l.2,2c1.3-.1,2.5-.2,3.6.1l.5-1.9ZM114.7,144.1c-4.1.4-8.1,1.2-11.9,2.6l.7,1.9c3.7-1.3,7.5-2.1,11.5-2.5l-.2-2ZM102.1,147.9h0s1.9-.6,1.9-.6h0s-1.9.6-1.9.6Z"/>
  </g>
  <path class="cls-33" d="M106.1,9.1c-4.5,2.7-10.8,2.4-14.5,6.3-4,4.5-1.7,11.4,1.9,15.3,3.2,3.6,7.2,6.1,10.5,9.6,4.4,4.7,7,10.8,8.1,17,1.1,6.3.6,12.8-1.3,18.9-1.9,6.1-5.6,11.4-8.4,17-1.9,3.9-3.4,8-3.5,12.3-.1,6.8,2.6,13.8,7.6,18.5,3.4,3.1,8.2,3.8,12.2,5.8-3.9-1.9-8.5-2.5-11.9-5.3-7.6-6.5-10.4-18-6.8-27.2,2.7-7.4,7.8-13.8,10.2-21.3,2.7-9,2.5-19-1.5-27.5-1.3-2.8-3-5.5-5.2-7.8-3.2-3.4-7.3-6.1-10.4-9.7-3.7-4.1-6-11.3-1.8-15.8,3.8-3.9,10.1-3.4,14.7-6.1h0Z"/>
  <g class="cls-49">
    <path class="cls-31" d="M106.1,9.1l.7.7-1.2-1.6.5.9ZM91.6,15.4l-.7-.7h0s0,0,0,0l.7.7ZM93.5,30.7l.7-.7h0s-.7.7-.7.7ZM104,40.3l-.7.7h0s.7-.7.7-.7ZM112.1,57.3l1-.2h0s-1,.2-1,.2ZM110.8,76.2l1,.3h0s-1-.3-1-.3ZM102.5,93.2l.9.4h0s-.9-.4-.9-.4ZM99,105.5h1s0,0,0,0h-1ZM106.6,124l-.7.7h0s.7-.7.7-.7ZM118.8,129.9l-.4.9.9-1.8-.5.9ZM106.9,124.6l-.6.8h0s0,0,0,0l.6-.8ZM100.1,97.3l.9.4h0s-.9-.4-.9-.4ZM110.2,76l1,.3h0s-1-.3-1-.3ZM108.8,48.5l-.9.4h0s.9-.4.9-.4ZM103.6,40.7l-.7.7h0s.7-.7.7-.7ZM93.2,31l.8-.7h0s-.7.7-.7.7ZM91.4,15.2l-.7-.7h0s0,0,0,0l.7.7ZM106.1,9.1l.5.9h.1c0,0,0-.2,0-.2l-.7-.7ZM105.6,8.2c-2.1,1.3-4.6,1.8-7.3,2.6-2.6.7-5.4,1.7-7.4,3.9l1.5,1.4c1.6-1.7,3.9-2.6,6.5-3.3,2.5-.7,5.4-1.3,7.8-2.8l-1-1.7ZM90.9,14.7c-2.3,2.5-2.7,5.7-2.2,8.7.6,3,2.1,5.9,4.1,8l1.5-1.3c-1.7-1.9-3.1-4.4-3.6-7-.5-2.6,0-5.1,1.7-7l-1.5-1.3ZM92.8,31.4c1.6,1.8,3.5,3.4,5.3,4.9,1.8,1.5,3.6,3,5.2,4.7l1.5-1.4c-1.7-1.8-3.6-3.3-5.4-4.8-1.8-1.5-3.6-3-5.1-4.7l-1.5,1.3ZM103.3,41c4.2,4.5,6.8,10.4,7.9,16.5l2-.4c-1.1-6.4-3.8-12.7-8.4-17.5l-1.5,1.4ZM111.2,57.5c1.1,6.1.6,12.5-1.3,18.4l1.9.6c1.9-6.2,2.5-12.9,1.3-19.3l-2,.3ZM109.9,75.9c-.9,3-2.3,5.7-3.8,8.5-1.5,2.7-3.1,5.5-4.5,8.4l1.8.9c1.4-2.8,3-5.5,4.5-8.3,1.5-2.8,2.9-5.7,3.9-8.9l-1.9-.6ZM101.6,92.8c-2,3.9-3.5,8.2-3.6,12.8h2c0-4.1,1.4-8.1,3.3-11.9l-1.8-.9ZM98,105.5c-.1,7.1,2.6,14.3,7.9,19.2l1.4-1.5c-4.8-4.5-7.4-11.2-7.3-17.7h-2ZM105.9,124.8c1.8,1.7,4,2.7,6.2,3.5,2.2.8,4.3,1.5,6.2,2.5l.9-1.8c-2.1-1.1-4.4-1.8-6.4-2.6-2.1-.8-4-1.7-5.5-3.1l-1.4,1.5ZM119.2,129c-2-1-4.2-1.6-6.2-2.4-2-.7-3.9-1.5-5.5-2.8l-1.3,1.5c1.9,1.5,4,2.4,6.1,3.2,2.1.8,4.1,1.3,6,2.3l.9-1.8ZM107.6,123.8c-7.3-6.2-9.9-17.2-6.6-26.1l-1.9-.7c-3.7,9.7-.8,21.6,7.1,28.4l1.3-1.5ZM101,97.7c1.3-3.6,3.2-7,5.2-10.5,1.9-3.5,3.8-7,5-10.9l-1.9-.6c-1.1,3.7-2.9,7.1-4.9,10.5-1.9,3.4-3.9,7-5.3,10.8l1.9.7ZM111.2,76.3c2.8-9.2,2.6-19.4-1.5-28.3l-1.8.8c3.9,8.3,4.1,18.1,1.4,26.8l1.9.6ZM109.7,48.1c-1.3-2.9-3.1-5.7-5.4-8l-1.5,1.4c2.1,2.2,3.7,4.8,5,7.5l1.8-.8ZM104.3,40c-1.7-1.8-3.5-3.3-5.3-4.9-1.8-1.5-3.6-3.1-5.1-4.8l-1.5,1.3c1.6,1.9,3.5,3.5,5.3,5,1.8,1.6,3.6,3,5.2,4.7l1.5-1.4ZM93.9,30.4c-1.7-1.9-3.1-4.6-3.6-7.3-.5-2.7,0-5.2,1.8-7.2l-1.5-1.4c-2.4,2.5-2.9,5.8-2.3,8.9.5,3.1,2.1,6.1,4.1,8.3l1.5-1.3ZM92.1,15.9c1.7-1.8,4-2.6,6.6-3.3,2.5-.7,5.4-1.2,7.9-2.7l-1-1.7c-2.1,1.2-4.7,1.7-7.4,2.5-2.6.7-5.4,1.6-7.5,3.8l1.4,1.4ZM106.8,9.8h0s-1.4-1.4-1.4-1.4h0s1.4,1.4,1.4,1.4Z"/>
  </g>
  <path class="cls-33" d="M129.3,130.6c2.2,1,5,.3,6.5-1.5,1.5-1.8,1.5-4.6.2-6.5v-.2c1.1-.6,1.9-1.8,2.1-3.1.2-1.2-.1-2.6-1-3.5l-.5-.5h.7c2.6.3,4.1-2.8,2.3-4.7l-.3-.3.4-.2c2.8-1.1,3.4-4.9,1-6.8l-.6-.5h.8c2.7-.5,3.4-4.1,1.1-5.5l-.8-.5h.9c1.7-.4,3.5-1.1,4.5-2.6.9-1.4.9-3.5-.4-4.7l-.4-.4c3.2-.4,5.1-4.6,3.4-7.3v-.2c-.1,0,.1,0,.1,0,1.8-.6,4.6-2.1,3.7-4.4-.5-1.3-1.4-2.4-2.3-3.4,1.2-.2,2.3-.5,3.3-1.1.3-.2.6-.4.8-.8-.2.3-.5.6-.8.8-1,.6-2.1,1-3.2,1.2h0c1.2,1.1,2.7,2.7,2.6,4.6-.4,1.9-2.4,2.9-4.1,3.5v-.3c1,1.4,1.1,3.2.5,4.7-.6,1.5-1.8,2.9-3.4,3.2v-.5c1.7,1.3,1.7,3.8.6,5.4-.5.8-1.3,1.5-2.2,1.9-.8.5-1.8.7-2.7.9v-.6c3,1.8,2.2,6.1-1.2,6.6l.2-.6c1.3,1,1.9,2.7,1.7,4.3-.2,1.6-1.4,3-2.9,3.6v-.5c1.1,1,1.3,2.6.7,3.8-.6,1.2-2,2-3.4,1.9l.2-.4c2,2.1,1.3,6-1.2,7.2v-.3c1.5,2,1.4,5-.3,6.9-1.6,1.9-4.5,2.5-6.7,1.4h0Z"/>
  <g class="cls-19">
    <path class="cls-31" d="M129.3,130.6l.4-.9-1.2-.5-.2,1.3h1ZM135.8,129.1l.8.6h0s-.8-.6-.8-.6ZM135.9,122.6l.8-.6h0s-.8.6-.8.6ZM135.8,122.4l-.4-.9-1.1.5.7,1,.8-.6ZM138.1,119.2l-1-.2h0s1,.2,1,.2ZM137,115.8l-.7.7h0s.7-.7.7-.7ZM136.5,115.2v-1c0,0-2.7-.3-2.7-.3l2,2,.7-.7ZM137.3,115.3v1c0,0,0,0,0,0h0s0-1,0-1ZM139.5,110.6l.7-.7h0s0,0,0,0l-.7.7ZM139.2,110.3l-.4-.9-1.4.6,1.1,1.1.7-.7ZM139.6,110.1l.4.9h0s-.4-.9-.4-.9ZM140.6,103.3l.6-.8h0s-.6.8-.6.8ZM140,102.8v-1c-.1,0-2.5.3-2.5.3l1.9,1.5.6-.8ZM140.8,102.7v1c.1,0,.1,0,.1,0h0s-.2-1-.2-1ZM141.9,97.3l.5-.9h0s0,0,0,0l-.5.9ZM141.1,96.8v-1c-.1,0-3,.4-3,.4l2.5,1.5.5-.9ZM142,96.7v-1c-.1,0-.1,0-.1,0v1ZM146.4,94.2l-.8-.6h0s.8.6.8.6ZM146.1,89.6l.7-.8h0s-.6.8-.6.8ZM145.6,89.2v-1c-.1,0-2.4.3-2.4.3l1.7,1.5.6-.8ZM149,81.9l.8-.5h0s-.8.5-.8.5ZM148.8,81.7l-.3-.9-1.2.4.7,1.1.8-.5ZM149.1,81.6l.3.9h0s-.3-.9-.3-.9ZM152.8,77.2l-.9.3h0s.9-.3.9-.3ZM150.5,73.8l-.2-1-1.9.3,1.4,1.4.7-.7ZM153.9,72.8l.5.9h0s0,0,0,0l-.5-.8ZM154.7,72l.8.5-1.7-1.1.8.6ZM153.9,72.8l.5.8h0s0,0,0,0l-.6-.8ZM150.7,74l-1-.3-.5,1.6,1.6-.3-.2-1ZM150.7,73.8l.7-.7-1.2-1.2-.5,1.6,1,.3ZM153.3,78.5l1,.2h0c0,0,0-.1,0-.1h-1ZM149.2,82l-.9-.3-.7,2,2-.8-.4-.9ZM149.3,81.7l.8-.6-1.1-1.6-.7,1.8.9.3ZM149.7,86.4l-.9-.4h0s.9.4.9.4ZM146.3,89.6l-1-.2-.4,1.6,1.6-.4-.2-1ZM146.4,89.1l.7-.8-1.2-1.1-.4,1.6,1,.2ZM146.9,94.6l.8.6h0s-.8-.6-.8-.6ZM144.8,96.5l-.5-.9h0s.5.9.5.9ZM142,97.3l-1-.2-.3,1.4,1.4-.2v-1ZM142.2,96.8l.5-.9-1.2-.7-.3,1.4,1,.2ZM140.9,103.3l-1-.3-.4,1.5,1.5-.2-.2-1ZM141,102.8l.6-.8-1.2-.9-.4,1.5,1,.3ZM142.7,107.1l1,.2h0s-1-.2-1-.2ZM139.8,110.6l-1-.2-.4,1.8,1.7-.7-.4-.9ZM139.9,110.2l.7-.7-1.3-1.3-.4,1.8,1,.2ZM140.6,114l.9.4h0s-.9-.4-.9-.4ZM137.2,115.8l-.9-.4-.6,1.3,1.4.2v-1ZM137.4,115.4l.7-.7-1-1-.6,1.3.9.4ZM136.2,122.6l-1-.2-.5,2.1,1.9-1-.4-.9ZM136.3,122.3l.8-.6-1.3-1.8-.5,2.2,1,.2ZM135.9,129.3l.8.6h0s-.8-.6-.8-.6ZM129.3,130.7h-1c0-.1-.1.6-.1.6l.7.3.4-.9ZM128.9,131.6c2.6,1.1,5.9.4,7.7-1.8l-1.6-1.3c-1.2,1.5-3.5,2-5.3,1.3l-.8,1.8ZM136.5,129.7c1.8-2.2,1.8-5.5.2-7.8l-1.6,1.2c1.1,1.5,1,3.9-.2,5.3l1.6,1.3ZM136.8,122v-.2c-.1,0-1.7,1.2-1.7,1.2v.2c.1,0,1.7-1.2,1.7-1.2ZM136.2,123.3c1.6-.7,2.6-2.3,2.8-3.9l-2-.3c-.2,1.1-.8,2-1.7,2.4l.8,1.8ZM139,119.4c.2-1.5-.1-3.2-1.3-4.3l-1.4,1.4c.6.6.9,1.6.7,2.6l2,.3ZM137.8,115l-.5-.5-1.4,1.4.5.5,1.4-1.4ZM136.4,116.2h.7c0,0,.2-1.9.2-1.9h-.7c0,0-.2,1.9-.2,1.9ZM137.2,116.3c3.5.2,5.5-3.9,3.1-6.4l-1.4,1.4c1.2,1.2.3,3.2-1.5,3v2ZM140.2,109.9l-.3-.3-1.4,1.4.3.3,1.4-1.4ZM139.6,111.2l.4-.2-.7-1.9-.4.2.7,1.9ZM140,111c3.5-1.4,4.2-6.2,1.2-8.5l-1.2,1.6c1.8,1.4,1.4,4.3-.7,5.1l.7,1.9ZM141.2,102.5l-.6-.5-1.2,1.6.6.5,1.2-1.6ZM140.1,103.8h.8c0,0-.3-2.1-.3-2.1h-.8c0,0,.3,2.1.3,2.1ZM140.9,103.7c3.6-.6,4.6-5.3,1.4-7.3l-1.1,1.7c1.6,1,1.1,3.3-.7,3.6l.3,2ZM142.4,96.4l-.8-.5-1,1.7.8.5,1-1.7ZM141.2,97.8h.9c0-.1-.3-2.1-.3-2.1h-.9c0,.1.3,2.1.3,2.1ZM142.1,97.7c1.9-.3,4-1.1,5.2-2.9l-1.7-1.1c-.8,1.1-2.2,1.8-3.8,2l.3,2ZM147.3,94.8c.6-.9.9-2,.8-3,0-1.1-.5-2.2-1.4-2.9l-1.3,1.5c.4.3.6.9.7,1.5,0,.7-.1,1.3-.5,1.8l1.7,1.1ZM146.7,88.8l-.4-.4-1.3,1.5.4.4,1.3-1.5ZM145.8,90.2c2-.3,3.5-1.7,4.3-3.4.8-1.7.9-3.8-.2-5.5l-1.7,1.1c.7,1,.7,2.4.1,3.5-.5,1.2-1.6,2-2.8,2.2l.3,2ZM149.8,81.4v-.2c-.1,0-1.8,1.1-1.8,1.1v.2c.1,0,1.8-1.1,1.8-1.1ZM149.2,82.7h.3c0,0-.6-2-.6-2h-.3c0,0,.6,2,.6,2ZM149.4,82.6c1-.3,2.3-.9,3.2-1.8.5-.4.9-1,1.2-1.7.2-.7.3-1.5,0-2.3l-1.9.7c.1.4.1.7,0,.9,0,.3-.3.6-.6.8-.7.6-1.7,1.1-2.5,1.3l.6,1.9ZM153.8,76.9c-.5-1.5-1.6-2.7-2.6-3.8l-1.4,1.4c.9,1,1.7,1.9,2.1,3l1.9-.7ZM150.7,74.8c1.2-.2,2.5-.5,3.7-1.2l-1-1.7c-.8.5-1.9.8-3,.9l.3,2ZM154.4,73.6c.4-.2.8-.6,1.1-1l-1.6-1.1c-.1.2-.3.3-.5.5l1.1,1.7ZM153.9,71.5c-.1.2-.3.3-.5.5l1.1,1.6c.4-.3.8-.6,1.1-1.1l-1.7-1.1ZM153.3,72c-.8.5-1.8.8-2.8,1l.4,2c1.2-.2,2.4-.6,3.6-1.3l-1.1-1.7ZM151.6,74.3h0c0-.1-1.9-.7-1.9-.7h0c0,.1,1.9.7,1.9.7ZM150,74.5c.6.6,1.2,1.3,1.7,2,.4.7.7,1.3.6,2h2c0-1.1-.4-2.2-.9-3.1-.6-.9-1.3-1.7-1.9-2.3l-1.4,1.4ZM152.3,78.3c-.1.6-.6,1.2-1.2,1.6-.6.5-1.4.8-2.3,1.1l.7,1.9c.9-.3,1.9-.8,2.7-1.4.9-.6,1.7-1.5,2-2.8l-2-.4ZM150.2,82.4v-.3c.1,0-1.8-.7-1.8-.7v.3c-.1,0,1.8.7,1.8.7ZM148.5,82.3c.7,1,.8,2.5.3,3.8l1.9.7c.7-1.7.6-3.9-.5-5.6l-1.7,1.1ZM148.8,86c-.5,1.3-1.5,2.3-2.7,2.6l.5,1.9c2-.5,3.5-2.1,4.1-3.9l-1.9-.7ZM147.3,89.9v-.5c.1,0-1.8-.5-1.8-.5v.5c-.1,0,1.8.5,1.8.5ZM145.8,89.9c1.1.9,1.2,2.8.3,4.1l1.7,1.1c1.3-1.9,1.3-5-.7-6.7l-1.3,1.5ZM146.1,94c-.4.7-1.1,1.2-1.8,1.6l.9,1.8c1-.5,1.9-1.3,2.5-2.2l-1.7-1.1ZM144.3,95.6c-.7.4-1.5.6-2.4.8l.3,2c1-.2,2.1-.5,3-1l-.9-1.8ZM143,97.5v-.6c.1,0-1.9-.4-1.9-.4v.6c-.1,0,1.9.4,1.9.4ZM141.6,97.6c2.1,1.3,1.5,4.4-.9,4.7l.3,2c4.3-.7,5.4-6.2,1.7-8.4l-1,1.7ZM141.8,103.6l.2-.6-1.9-.5-.2.6,1.9.5ZM140.4,103.6c1,.8,1.5,2.1,1.3,3.3l2,.3c.3-2-.5-4-2.1-5.2l-1.2,1.6ZM141.7,106.9c-.2,1.2-1.1,2.3-2.2,2.8l.7,1.9c1.8-.7,3.2-2.4,3.5-4.4l-2-.3ZM140.8,110.8v-.5c.1,0-1.9-.4-1.9-.4v.5c-.1,0,1.9.4,1.9.4ZM139.2,110.9c.7.7.9,1.8.4,2.7l1.8.9c.8-1.6.4-3.6-.8-4.9l-1.4,1.4ZM139.7,113.5c-.4.9-1.4,1.4-2.4,1.3l-.2,2c1.8.2,3.6-.8,4.4-2.4l-1.8-.9ZM138.1,116.3l.2-.5-1.8-.9-.2.4,1.8.9ZM136.7,116.1c.7.8,1,1.9.8,3.1-.2,1.1-.8,2.1-1.8,2.6l.9,1.8c1.6-.8,2.6-2.4,2.9-4.1.3-1.6,0-3.5-1.3-4.8l-1.4,1.4ZM137.2,122.9v-.3c0,0-1.9-.5-1.9-.5v.3c0,0,1.9.5,1.9.5ZM135.4,122.9c1.2,1.7,1.1,4.1-.3,5.7l1.5,1.3c1.9-2.2,2.1-5.7.4-8.1l-1.6,1.1ZM135.2,128.6c-1.3,1.5-3.7,2-5.5,1.2l-.9,1.8c2.6,1.3,6,.6,7.9-1.6l-1.5-1.3ZM130.3,130.8h0s-2-.3-2-.3h0s2,.3,2,.3Z"/>
  </g>
  <path class="cls-33" d="M81.8,110.1c-1-1.1-2.5-1.4-3.8-2-4.6-2.1-3.6-7.7-4.3-11.8.5,1.4.7,2.8.9,4.2.3,2.7,1,5.8,3.6,7.1,1.2.7,2.7,1.2,3.5,2.4h0Z"/>
  <g class="cls-12">
    <path class="cls-31" d="M81.8,110.1l-.7.7.4.5.6-.2-.3-1ZM78.1,108.1l.4-.9h0s0,0,0,0l-.4.9ZM73.8,96.3l.9-.4-1.9.5,1-.2ZM74.7,100.5h1c0-.1,0-.1,0-.1h-1ZM78.3,107.6l.5-.9h0s0,0,0,0l-.5.9ZM81.8,110.1l.3.9,1.2-.4-.7-1.1-.8.5ZM82.6,109.4c-.6-.7-1.4-1.1-2.1-1.4-.3-.2-.7-.3-1-.4-.3-.1-.6-.3-.9-.4l-.9,1.8c.4.2.7.3,1.1.5.3.1.7.3,1,.4.6.3,1.1.5,1.5.9l1.4-1.4ZM78.5,107.2c-1.9-.9-2.7-2.4-3-4.4-.2-1-.3-2.1-.4-3.3,0-1.1-.2-2.3-.3-3.4l-2,.3c.2,1,.2,2,.3,3.2,0,1.1.2,2.3.4,3.5.5,2.3,1.5,4.6,4.2,5.9l.8-1.8ZM72.8,96.7c.5,1.2.6,2.6.9,4l2-.3c-.2-1.4-.4-3-1-4.5l-1.9.7ZM73.7,100.7c.3,2.7,1,6.3,4.2,7.9l.9-1.8c-2.1-1.1-2.8-3.6-3.1-6.3l-2,.3ZM77.8,108.5c.3.2.7.4,1,.5.3.2.6.3.9.5.6.3,1,.7,1.3,1.1l1.7-1.1c-.5-.8-1.3-1.4-1.9-1.8-.3-.2-.7-.4-1-.6-.3-.2-.6-.3-.9-.5l-1,1.7ZM81.5,109.1h0l.6,1.9h0s-.6-1.9-.6-1.9Z"/>
  </g>
  <path class="cls-33" d="M78.3,85.5c1.3,1,2.3,2.6,2.8,4.2.5,1.6.7,3.2,1.4,4.7-1.2-1.2-1.5-3-2.1-4.5-.5-1.6-1.3-3-2.2-4.4h0Z"/>
  <g class="cls-47">
    <path class="cls-31" d="M78.3,85.5l.5-.9-1.1,1.7.6-.8ZM81.1,89.7l1-.3h0s-1,.3-1,.3ZM82.5,94.4l-.7.7,1.6-1.1-.9.4ZM80.5,89.9l-1,.3h0s0,0,0,0l.9-.3ZM78.3,85.5l.8-.6v-.2c-.1,0-.4-.1-.4-.1l-.5.9ZM77.7,86.3c1.2.9,2,2.2,2.5,3.7l1.9-.6c-.6-1.8-1.6-3.5-3.1-4.6l-1.2,1.6ZM80.1,90c.2.8.4,1.5.6,2.3.2.8.5,1.7.9,2.5l1.8-.9c-.3-.7-.5-1.4-.7-2.2-.2-.7-.4-1.6-.7-2.5l-1.9.6ZM83.2,93.7c-.5-.5-.8-1.1-1.1-1.8-.3-.8-.5-1.5-.8-2.3l-1.9.6c.2.7.5,1.6.8,2.4.3.8.8,1.7,1.5,2.5l1.4-1.4ZM81.4,89.6c-.5-1.7-1.4-3.2-2.3-4.6l-1.7,1.1c.9,1.3,1.6,2.6,2.1,4.1l1.9-.6ZM78.7,84.6h0s-.9,1.8-.9,1.8h0s.9-1.8.9-1.8Z"/>
  </g>
  <path class="cls-33" d="M75.5,91.4c2.4,1.6,3.1,4.4,3.4,7.1.3,2.5.8,5.4,3.2,6.8-.6-.2-1.2-.6-1.7-1.1-3.4-3.8-.9-9-4.8-12.8h0Z"/>
  <g class="cls-36">
    <path class="cls-31" d="M75.5,91.4l-.9-.5-.4.8.7.5.5-.8ZM78.9,98.5h-1c0,0,0,.1,0,.1h1ZM82,105.3l-.3,1,.8-1.8-.5.9ZM80.3,104.2l-.7.7h0s0,0,0,0l.7-.7ZM75.5,91.4l.7-.7-1-.9-.6,1.2.9.5ZM75,92.2c2,1.3,2.6,3.7,2.9,6.3l2-.2c-.3-2.7-1-6-3.8-7.8l-1.1,1.7ZM77.9,98.6c.1,1.3.3,2.7.8,4.1.5,1.4,1.4,2.6,2.8,3.5l1-1.7c-.9-.5-1.5-1.4-1.9-2.5-.4-1.1-.6-2.3-.7-3.6l-2,.2ZM82.3,104.3c-.5-.1-.9-.4-1.3-.8l-1.4,1.4c.6.6,1.3,1.1,2.1,1.3l.6-1.9ZM81.1,103.5c-1.4-1.6-1.6-3.5-1.9-5.8-.3-2.3-.7-4.9-2.9-7l-1.4,1.4c1.7,1.6,2,3.6,2.3,5.8.3,2.2.5,4.8,2.4,6.9l1.5-1.3ZM74.6,90.9h0s1.8.9,1.8.9h0s-1.8-.9-1.8-.9Z"/>
  </g>
  <path class="cls-33" d="M84.8,87.7c.6,1.3,1.6,2.4,3,2.9.4.2.9.3,1.4.4-2,.8-4.6-1.1-4.4-3.3h0Z"/>
  <g class="cls-39">
    <path class="cls-31" d="M84.8,87.7l.9-.4-1.9.7.9-.3ZM87.8,90.6l-.4.9h0s.4-.9.4-.9ZM89.2,91l.4.9,3.6-1.4-3.8-.6v1ZM84.8,87.7h1c0,0,0-.1,0-.1v-.2c0,0-1,.3-1,.3ZM83.9,88.1c.7,1.6,1.9,2.8,3.5,3.4l.8-1.8c-1.1-.5-2-1.3-2.5-2.4l-1.8.8ZM87.4,91.6c.5.2,1.1.4,1.6.4l.3-2c-.4,0-.8-.2-1.2-.3l-.8,1.9ZM88.8,90.1c-.6.2-1.4,0-2.1-.4-.7-.5-1-1.2-1-1.9l-2-.2c-.1,1.5.7,2.8,1.8,3.6,1.1.8,2.6,1.2,4,.7l-.7-1.9ZM85.7,87.4h0s-1.9.6-1.9.6h0s1.9-.6,1.9-.6Z"/>
  </g>
  <path class="cls-33" d="M141.4,110.8c2.1,3.3,5.2,5.8,8.8,7.1-3.9-.4-7.6-3.3-8.8-7.1Z"/>
  <g class="cls-5">
    <path class="cls-31" d="M141.4,110.8l.8-.5-1.8.9.9-.3ZM150.3,117.9v1c-.1,0,.3-1.9.3-1.9l-.3.9ZM140.6,111.3c2.2,3.5,5.5,6.1,9.3,7.5l.7-1.9c-3.4-1.2-6.4-3.6-8.3-6.7l-1.7,1.1ZM150.4,116.9c-3.5-.4-6.9-3-8-6.4l-1.9.6c1.4,4.1,5.4,7.3,9.7,7.8l.2-2Z"/>
  </g>
  <path class="cls-33" d="M143.6,119c2.6,2.1,6.1,2.9,9.4,2.1-3,1.7-7.4.7-9.4-2.1Z"/>
  <g class="cls-40">
    <path class="cls-31" d="M143.6,119l.6-.8-1.5,1.3.8-.6ZM153,121.1l.5.9-.7-1.8.2,1ZM143,119.8c2.9,2.3,6.7,3.2,10.2,2.3l-.5-1.9c-3,.7-6.1,0-8.5-2l-1.3,1.6ZM152.5,120.3c-2.6,1.5-6.4.6-8.1-1.8l-1.6,1.1c2.3,3.3,7.2,4.4,10.7,2.4l-1-1.7Z"/>
  </g>
  <path class="cls-33" d="M152.8,137.9c3.4-.3,7.1-1.8,6.9-5.9,0-1.1-.3-2.2-.8-3.2-1.4-2.6-3.2-2.3-5.7-2.5-2.4-.2-4.6-1.1-6.5-2.4,2,1.1,4.3,1.8,6.6,1.9,1.2,0,2.4,0,3.5.3,1.8.5,3,2.3,3.3,4.1,1.2,5.3-2.4,7.7-7.3,7.7h0Z"/>
  <g class="cls-35">
    <path class="cls-31" d="M152.8,137.9l-.9-.5-.8,1.6,1.8-.2v-1ZM159.7,132h-1c0,0,1,0,1,0ZM158.9,128.8l.9-.5h0s-.9.5-.9.5ZM153.1,126.3v1c-.1,0,0,0,0,0h0s0-1,0-1ZM146.6,123.9l.5-.9-1,1.7.6-.8ZM153.2,125.8v-1c0,0,0,0,0,0v1ZM156.7,126.1l.3-1h0s-.3,1-.3,1ZM160,130.2l-1,.2h0s0,0,0,0l1-.2ZM152.8,137.9v-1s-.6,0-.6,0l-.3.6.9.5ZM152.9,138.9c1.8-.2,3.8-.7,5.3-1.7,1.6-1.1,2.6-2.8,2.5-5.2h-2c0,1.7-.6,2.8-1.7,3.5-1.1.8-2.7,1.2-4.3,1.4l.2,2ZM160.6,132c0-1.2-.3-2.5-.9-3.6l-1.8.9c.4.8.6,1.8.7,2.8h2ZM159.8,128.4c-.8-1.5-1.8-2.3-3-2.6-.6-.2-1.2-.2-1.7-.3-.3,0-.6,0-.9,0-.3,0-.6,0-.9,0l-.2,2c.3,0,.6,0,.9,0,.3,0,.6,0,.8,0,.5,0,1,0,1.3.2.7.2,1.3.6,1.8,1.6l1.8-.9ZM153.3,125.3c-2.2-.2-4.3-1-6.1-2.3l-1.1,1.6c2,1.4,4.5,2.3,7,2.6l.2-2ZM146.1,124.8c2.2,1.2,4.5,1.9,7,2v-2c-2-.1-4.1-.8-6-1.8l-.9,1.8ZM153.1,126.8c.6,0,1.3,0,1.8,0,.6,0,1,0,1.5.2l.6-1.9c-.7-.2-1.4-.3-2-.3-.7,0-1.2,0-1.7,0v2ZM156.4,127.1c1.3.4,2.3,1.8,2.6,3.3l2-.3c-.4-2-1.7-4.2-4-4.9l-.6,1.9ZM159.1,130.5c.5,2.4,0,3.9-1.1,4.9-1.1,1-2.9,1.6-5.2,1.6v2c2.6,0,5-.6,6.6-2.1,1.7-1.5,2.3-3.9,1.7-6.8l-2,.4ZM151.9,137.4h0s1.8.9,1.8.9h0s-1.8-.9-1.8-.9Z"/>
  </g>
  <path class="cls-33" d="M100.3,31.3c5.2-.1,10.4-.7,15.5-1.7,5.1-1,10.2-2.4,15.4-2.9,13-1.3,26.2.6,38.9,3.5,7.6,2,14.8,5.3,22,8.3,9.6,4,19.7,6.7,29.8,9.5-10.1-2.5-20.3-5.1-30-9-7.3-2.9-14.3-6.3-21.9-8.2-12.6-2.9-25.7-4.8-38.7-3.6-5.2.4-10.3,1.8-15.4,2.7-5.1.9-10.4,1.4-15.6,1.4h0Z"/>
  <g class="cls-25">
    <path class="cls-31" d="M100.3,31.3v-1s-.6,0-.6,0l-.3.5.9.5ZM115.8,29.6l.2,1h0s-.2-1-.2-1ZM131.2,26.7v1c0,0,0,0,0,0v-1ZM170.1,30.2l.2-1h0s0,0,0,0l-.2,1ZM192,38.6l.4-.9h0s-.4.9-.4.9ZM221.8,48l-.2,1,.5-1.9-.3,1ZM191.8,39l.4-.9h0s-.4.9-.4.9ZM169.9,30.8l.2-1h0s0,0,0,0l-.2,1ZM131.2,27.2v1c0,0,0,0,0,0v-1ZM115.8,29.9l.2,1h0s-.2-1-.2-1ZM100.3,31.3l-.9-.5-.7,1.4h1.6s0-1,0-1ZM100.3,32.3c5.3-.1,10.5-.7,15.7-1.7l-.4-2c-5,1-10.2,1.5-15.4,1.7v2ZM116,30.6c5.2-1,10.1-2.4,15.3-2.9l-.2-2c-5.3.5-10.5,1.9-15.5,2.9l.4,2ZM131.3,27.7c12.9-1.3,25.9.6,38.6,3.5l.5-1.9c-12.7-3-26-4.9-39.2-3.6l.2,2ZM169.8,31.2c7.5,1.9,14.6,5.3,21.8,8.3l.8-1.8c-7.2-3-14.4-6.4-22.1-8.4l-.5,1.9ZM191.6,39.5c9.7,4,19.9,6.8,29.9,9.5l.5-1.9c-10.1-2.8-20.1-5.5-29.7-9.5l-.8,1.8ZM222.1,47.1c-10.1-2.5-20.2-5.1-29.8-9l-.7,1.9c9.8,3.9,20,6.6,30.1,9.1l.5-1.9ZM192.2,38.1c-7.2-2.9-14.4-6.3-22.1-8.2l-.5,1.9c7.5,1.9,14.5,5.2,21.8,8.1l.7-1.9ZM170.1,29.9c-12.7-2.9-25.9-4.8-39-3.7l.2,2c12.8-1.2,25.8.7,38.4,3.6l.4-1.9ZM131.1,26.2c-5.3.5-10.5,1.8-15.5,2.7l.4,2c5.2-1,10.1-2.3,15.3-2.7l-.2-2ZM115.7,28.9c-5.1.9-10.3,1.4-15.4,1.3v2c5.3,0,10.6-.5,15.8-1.4l-.3-2ZM101.1,31.7h0s-1.8-.9-1.8-.9h0s1.8.9,1.8.9Z"/>
  </g>
  <path class="cls-33" d="M143.3,20c22-2.5,42.5,8,62.3,16.2,2.9,1.2,5.7,2.3,8.6,3.4-3-.9-5.9-2-8.8-3.1-20-7.7-40.2-18.1-62.2-16.5Z"/>
  <g class="cls-48">
    <path class="cls-31" d="M143.3,20v-1c-.1,0,0,2,0,2v-1ZM205.6,36.2l.4-.9h0s-.4.9-.4.9ZM214.3,39.6l-.3,1,.7-1.9-.3.9ZM205.5,36.5l-.4.9h0s.4-.9.4-.9ZM143.4,21c10.8-1.2,21.3.7,31.6,4,10.3,3.3,20.3,8,30.2,12.1l.8-1.8c-9.8-4.1-20-8.8-30.4-12.1-10.4-3.4-21.2-5.4-32.4-4.1l.2,2ZM205.3,37.1c2.9,1.2,5.8,2.3,8.7,3.4l.7-1.9c-2.9-1.1-5.8-2.2-8.6-3.4l-.8,1.8ZM214.6,38.7c-2.9-.9-5.8-2-8.7-3.1l-.7,1.9c2.9,1.1,5.8,2.2,8.8,3.1l.6-1.9ZM205.9,35.6c-9.9-3.8-20-8.4-30.4-11.8-10.4-3.4-21.1-5.6-32.2-4.8v2c11-.8,21.4,1.3,31.6,4.7,10.3,3.3,20.2,7.8,30.3,11.7l.7-1.9Z"/>
  </g>
  <path class="cls-33" d="M137.5,12.1c15-1.2,30.4,2,43.6,9.1-13.6-6.3-28.6-9.4-43.6-9.1Z"/>
  <g class="cls-44">
    <path class="cls-31" d="M137.5,12.1v-1c0,0,0,2,0,2v-1ZM181.1,21.3l-.4.9.9-1.8-.5.9ZM137.5,13.1c14.8-1.2,30,2,43.1,9l.9-1.8c-13.4-7.2-29-10.5-44.2-9.2l.2,2ZM181.5,20.3c-13.8-6.4-28.9-9.5-44.1-9.2v2c14.9-.3,29.8,2.8,43.2,9l.8-1.8Z"/>
  </g>
  <path class="cls-33" d="M136,26.5c1.2-.3,2.3-.7,3.5-1.1.5-.2,1.2-.4,1.2-1-.1-2-2.6-2.1-4.2-2.3-1.2-.1-2.4-.3-3.6-.4v-.5c1,.2,2,.3,2.9.2,1,0,1.9-.2,2.9-.4,1.4-.3,2.8-.5,3.8-1.6.9-1.1.5-2.6-.4-3.6-2.2-2.1-5.4-1.3-8.2-1.9l-1.1-.2c1.2-.2,2.5-.4,3.6-.8,2-.7,3.5-3.3,1.4-4.8-.4-.2-.8-.4-1.2-.3,1.1-.2,2.2.8,2.4,1.8.2,1.6-1,3.1-2.4,3.7-.8.4-1.7.6-2.5.7v-.4c2.8.5,6.3-.3,8.6,1.9,1.7,1.6,1.5,4.4-.7,5.4-.9.5-1.9.6-2.9.8-1.9.4-4,.6-5.9.1v-.5c1.3.2,2.5.3,3.7.5,1.2.2,2.5.3,3.5,1.1.8.6,1.3,1.9.3,2.5-1.4.7-2.9,1-4.4,1.3h0Z"/>
  <g class="cls-1">
    <path class="cls-31" d="M136,26.5l-.2-1-2.6.7,2.4,1.2.4-.9ZM139.5,25.4l-.4-.9h0s.4.9.4.9ZM140.7,24.4h1c0,.1,0,0,0,0h0c0,0-1,0-1,0ZM136.6,22.1v-1c.1,0,.1,0,.1,0v1ZM132.9,21.7l-1-.2-.2,1h1.1c0,.1.1-.9.1-.9ZM133.1,21.1l.2-1-1-.3-.2,1,1,.2ZM135.9,21.3v-1c0,0,0,0,0,0v1ZM138.7,20.9l.2,1h0s-.2-1-.2-1ZM142.5,19.4l.8.7h0s0,0,0,0l-.8-.6ZM142,15.8l.7-.7h0s0,0,0,0l-.7.7ZM133.8,13.9l.2-1h0s-.2,1-.2,1ZM132.7,13.6l-.2-1v2s.2-1,.2-1ZM136.3,12.8l-.3-.9h0s0,0,0,0l.4.9ZM137.7,8l.6-.8h0s0,0,0,0l-.6.8ZM136.5,7.7l-.2-1,.3,2v-1ZM138.9,9.5l1-.2h0s0,0,0,0l-1,.2ZM136.4,13.1l-.4-.9h0s0,0,0,0l.4.9ZM133.9,13.9h-1s0,1.2,0,1.2l1.2-.2-.2-1ZM133.9,13.4l.2-1-1.2-.2v1.2s1,0,1,0ZM142.5,15.4l.7-.7h0s-.7.7-.7.7ZM141.7,20.7l-.4-.9h0s0,0,0,0l.4.9ZM138.8,21.5l.2,1h0s-.2-1-.2-1ZM132.9,21.7l-1-.2-.2.9.9.2.3-1ZM133,21.1v-1c.1,0-.8-.1-.8-.1l-.2.9,1,.2ZM136.6,21.6l.2-1h0s-.1,1-.1,1ZM140.2,22.7l-.6.8h0s0,0,0,0l.6-.8ZM140.4,25.2l.4.9h0s0,0,0,0l-.5-.9ZM136,26.5l-.4.9.3.2h.3c0,0-.2-1-.2-1ZM136.3,27.4c1.2-.3,2.4-.7,3.6-1.1l-.7-1.9c-1.1.4-2.2.8-3.4,1l.5,1.9ZM139.8,26.3c.2,0,.6-.2,1-.5.4-.2.8-.7.9-1.4l-2-.2c0-.1,0-.1,0,0,0,0-.1,0-.2.1-.1,0-.2,0-.3.1l.7,1.9ZM141.7,24.3c0-.7-.3-1.3-.8-1.8-.4-.4-.9-.7-1.5-.9-1-.3-2.1-.4-2.8-.5l-.3,2c.8.1,1.7.2,2.4.4.3.1.5.3.7.4.1.1.2.3.2.5h2ZM136.7,21.1c-1.2-.1-2.4-.3-3.6-.4l-.3,2c1.2.2,2.4.3,3.6.4l.2-2ZM133.9,21.9v-.5c.1,0-1.9-.4-1.9-.4v.5c-.1,0,1.9.4,1.9.4ZM132.8,22.1c1,.3,2.1.3,3.1.2v-2c-1,0-1.9,0-2.6-.2l-.5,1.9ZM135.9,22.3c1,0,2-.2,3-.4l-.4-2c-.9.2-1.8.3-2.7.4v2ZM138.9,21.9c.6-.1,1.4-.3,2.2-.5.8-.3,1.5-.7,2.2-1.4l-1.5-1.3c-.3.4-.7.6-1.3.8-.6.2-1.2.3-1.9.5l.4,2ZM143.3,20c.7-.8.8-1.8.7-2.6-.1-.9-.6-1.7-1.2-2.3l-1.4,1.4c.3.3.6.8.6,1.2,0,.4,0,.8-.2,1l1.5,1.3ZM142.7,15.1c-1.3-1.3-3-1.6-4.5-1.8-.7,0-1.5,0-2.2-.1-.7,0-1.4-.1-2-.2l-.4,2c.8.2,1.6.2,2.3.3.8,0,1.4,0,2.1.1,1.4.1,2.4.4,3.3,1.2l1.4-1.5ZM134,12.9l-1.1-.2-.4,2,1.1.2.4-2ZM132.9,14.6c1.1-.2,2.6-.4,3.8-.9l-.8-1.8c-1,.4-2.1.6-3.4.8l.4,2ZM136.6,13.7c1.2-.5,2.3-1.5,2.8-2.7.2-.6.3-1.3.2-2-.2-.7-.6-1.4-1.3-1.9l-1.2,1.6c.3.3.5.5.5.7,0,.2,0,.5,0,.8-.3.7-.9,1.3-1.6,1.6l.7,1.9ZM138.3,7.1c-.5-.4-1.2-.6-1.9-.5l.3,2c.2,0,.3,0,.5.1l1.1-1.7ZM136.7,8.6c.2,0,.5,0,.7.2.3.2.4.5.5.8l2-.3c-.1-.8-.6-1.5-1.2-2-.6-.5-1.5-.8-2.4-.6l.4,2ZM137.9,9.6c.2,1-.6,2.1-1.8,2.6l.8,1.8c1.6-.7,3.4-2.5,3-4.7l-2,.3ZM136,12.2c-.7.3-1.5.5-2.3.7l.4,2c.9-.2,1.8-.4,2.7-.8l-.8-1.8ZM134.9,13.9v-.4s-2,0-2,0v.4s2,0,2,0ZM133.7,14.4c.8.1,1.6.2,2.3.2.8,0,1.5,0,2.2.1,1.4.1,2.6.5,3.5,1.3l1.4-1.4c-1.4-1.3-3.1-1.7-4.7-1.9-.8,0-1.6,0-2.3-.1-.7,0-1.4,0-2-.2l-.4,2ZM141.8,16.1c.6.6.9,1.4.8,2.1,0,.7-.4,1.3-1.3,1.6l.8,1.8c1.5-.7,2.3-1.9,2.4-3.3.1-1.3-.4-2.7-1.4-3.7l-1.4,1.4ZM141.3,19.8c-.8.4-1.7.5-2.6.7l.4,2c.9-.2,2.1-.4,3.1-.9l-.9-1.8ZM138.7,20.5c-1.9.4-3.8.6-5.5.2l-.5,1.9c2.2.6,4.4.2,6.4-.1l-.4-2ZM133.9,21.9v-.5c.1,0-1.9-.4-1.9-.4v.5c-.1,0,1.9.4,1.9.4ZM132.9,22.1c1.2.2,2.4.3,3.6.5l.3-2c-1.2-.2-2.4-.4-3.6-.5l-.3,2ZM136.5,22.6c1.3.2,2.3.3,3.1.9l1.2-1.6c-1.3-.9-2.9-1.1-4-1.2l-.3,2ZM139.6,23.5c0,0,.2.2.3.3,0,.1.1.2.1.3,0,.1,0,.1,0,.1,0,0,0,0,0,0,0,0,0,0,0,0l1,1.8c.5-.2.8-.6,1-1.1.2-.4.2-.9,0-1.3-.1-.7-.6-1.5-1.2-1.9l-1.1,1.6ZM140,24.3c-1.2.6-2.6.9-4.2,1.2l.4,2c1.5-.3,3.1-.6,4.6-1.3l-.9-1.8ZM136.5,25.6h0s-.9,1.8-.9,1.8h0s.9-1.8.9-1.8Z"/>
  </g>
  <path class="cls-33" d="M113.9,21.9c2.4.3,4.9-.1,7.1-1.3,1.3-.6,2.7-2.1,1.9-3.5-.5-1-2-1.2-3-1.3-.8-.1-2.9-.4-3.7-.5v-.6c2.1.2,4.2.4,6.1-.6,1.3-.7,2.4-2.1,2.4-3.6,0-.5-.1-1-.4-1.5.3.4.5.9.5,1.5,0,1.6-.9,3.2-2.3,4-1.9,1-4.2.9-6.3.8v-.6c1.5.2,3.5.4,5,.7,3.7.8,2.9,4.5,0,5.7-2.3,1.1-4.9,1.4-7.3.9h0Z"/>
  <g class="cls-34">
    <path class="cls-31" d="M113.9,21.9l-.3-.9.2,1.9v-1ZM121,20.7l-.4-.9h0s0,0,0,0l.5.9ZM123,17.1l.9-.5h0s0,0,0,0l-.9.5ZM119.9,15.8v1c-.1,0-.1,0-.1,0v-1ZM116.3,15.3h-1c0-.1-.1.8-.1.8h1c0,.1.1-.8.1-.8ZM116.3,14.7v-1c0,0-.9,0-.9,0v1c-.1,0,.9.1.9.1ZM122.3,14.1l.4.9h0s-.4-.9-.4-.9ZM124.7,10.5h1s0,0,0,0h0s-1,0-1,0ZM124.3,9l.8-.6-1.6,1.1.9-.5ZM124.9,10.5h1c0,0-1,0-1,0ZM122.6,14.5l.5.9h0s0,0,0,0l-.5-.9ZM116.3,15.3h-1c0-.1-.1.9-.1.9h1c0,0,0-.9,0-.9ZM116.4,14.7l.2-1-1-.2v1c-.1,0,.9.1.9.1ZM121.3,15.4l.2-1h0s-.2,1-.2,1ZM121.2,21.1l-.4-.9h0s0,0,0,0l.4.9ZM113.9,21.9l.2-1h-.3c0,0-.3,0-.3,0l.3.9ZM113.8,22.9c2.7.3,5.3-.1,7.7-1.4l-.9-1.8c-2,1-4.3,1.5-6.5,1.2l-.3,2ZM121.5,21.6c.8-.4,1.6-1,2.1-1.8.5-.8.8-1.9.3-3.1l-1.8.9c.2.3.1.6-.1,1.1-.3.4-.8.9-1.3,1.1l.9,1.8ZM123.8,16.6c-.4-.8-1.2-1.2-1.9-1.4-.7-.2-1.4-.3-1.9-.4l-.3,2c.6,0,1.1.2,1.5.3.4.2.7.3.8.5l1.8-1ZM120.1,14.8c-.8-.1-2.9-.4-3.7-.5l-.3,2c.8.1,2.9.4,3.7.5l.3-2ZM117.3,15.4v-.6c0,0-1.9-.2-1.9-.2v.6c0,0,1.9.2,1.9.2ZM116.3,15.7c2,.2,4.4.4,6.5-.6l-.9-1.8c-1.6.8-3.4.6-5.5.5l-.2,2ZM122.8,15c1.6-.8,2.9-2.5,2.9-4.5h-2c0,1-.8,2.2-1.8,2.7l.9,1.8ZM125.7,10.5c0-.7-.2-1.4-.5-2l-1.7,1c.2.3.2.6.2.9h2ZM123.6,9.6c.2.3.3.6.3.9h2c0-.8-.3-1.6-.7-2.1l-1.6,1.2ZM123.9,10.6c0,1.2-.7,2.4-1.8,3.1l1,1.7c1.7-1,2.9-2.8,2.8-4.9h-2ZM122.1,13.6c-1.6.9-3.6.8-5.7.7v2c1.9.1,4.5.3,6.7-.9l-1-1.8ZM117.3,15.4v-.6c0,0-1.9-.2-1.9-.2v.6c0,0,1.9.2,1.9.2ZM116.2,15.6c1.6.2,3.4.4,4.9.7l.4-2c-1.5-.3-3.6-.5-5-.7l-.3,2ZM121.1,16.4c.8.2,1.2.5,1.4.7.2.3.3.6.3.9,0,.7-.7,1.7-1.9,2.2l.8,1.8c1.7-.7,3-2.2,3.1-3.9,0-.8-.2-1.7-.7-2.4-.6-.7-1.4-1.2-2.5-1.4l-.4,2ZM120.8,20.2c-2.1,1-4.5,1.3-6.7.8l-.4,2c2.7.6,5.5.3,8-.9l-.9-1.8ZM113.6,21h0s.6,1.9.6,1.9h0s-.6-1.9-.6-1.9Z"/>
  </g>
  <path class="cls-33" d="M102.8,25.3c3,0,6-1.3,8.2-3.5.9-.9,2.2-2.2,1.6-3.6-.6-1.3-2.3-1.6-3.7-1.8l-2.6-.3c1.7-.2,4-.3,5.5-1.1,2.4-1.1,3.4-4.8.4-5.7-.5-.1-1.1,0-1.5.2.2-.2.5-.3.7-.3,2.2-.3,3.6,1.8,2.8,3.8-.8,2.2-3.2,3.1-5.3,3.4v-.6c.8,0,1.6.2,2.3.5,1.2.4,2.3,1.6,2,3-.1.8-.7,1.5-1.2,2.1-1.3,1.5-3,2.6-4.8,3.3-1.5.5-3,.7-4.6.6h0Z"/>
  <g class="cls-28">
    <path class="cls-31" d="M102.8,25.3l-.5.9h.2c0,.1.2.1.2.1v-1ZM110.9,21.9l.7.7h0s0,0,0,0l-.7-.7ZM112.6,18.2l.9-.4h0s0,0,0,0l-.9.4ZM108.9,16.5v1c-.1,0-.1,0-.1,0v-1ZM106.3,16.2v-1c-.1,0-.1,2-.1,2v-1ZM111.8,15l-.4-.9h0s0,0,0,0l.5.9ZM112.2,9.4l.3-1h0s0,0,0,0l-.2,1ZM110.7,9.6l-.6-.8,1.1,1.6-.5-.8ZM111.4,9.3l-.2-1h0s0,0,0,0l.2,1ZM114.3,13.1l-.9-.4h0s0,0,0,0l.9.3ZM109,16.5h-1s0,1.1,0,1.1h1.1c0-.1-.1-1.1-.1-1.1ZM109,15.8v-1c.1,0-1-.1-1-.1v1.1s1,0,1,0ZM111.3,16.3l-.4.9h0s0,0,0,0l.3-.9ZM113.3,19.3l-1-.2h0s1,.2,1,.2ZM112.1,21.4l-.8-.6h0s.8.6.8.6ZM107.3,24.7l-.3-.9h0s.3.9.3.9ZM102.8,25.3v-1c0,0-.4,1.9-.4,1.9l.4-.9ZM102.8,26.3c3.3,0,6.5-1.4,8.8-3.8l-1.4-1.4c-1.9,2-4.7,3.1-7.5,3.2v2ZM111.7,22.5c.4-.4,1-1.1,1.5-1.8.5-.7.8-1.8.3-2.9l-1.8.8c.1.3,0,.6-.2,1.1-.3.5-.8,1-1.2,1.5l1.5,1.4ZM113.5,17.8c-.5-1-1.3-1.5-2.1-1.8-.8-.3-1.7-.4-2.4-.5l-.2,2c.7,0,1.3.2,1.9.4.5.2.8.5,1,.8l1.8-.9ZM109,15.5l-2.6-.3-.2,2,2.6.3.2-2ZM106.4,17.2c.4,0,.8-.1,1.3-.2.5,0,1-.1,1.5-.2,1-.2,2.1-.4,3-.9l-.9-1.8c-.6.3-1.4.5-2.4.7-.5,0-1,.1-1.4.2-.5,0-1,.1-1.4.2l.3,2ZM112.2,16c1.5-.7,2.6-2.2,2.8-3.7.1-.8,0-1.6-.4-2.3-.4-.7-1.2-1.3-2.1-1.6l-.6,1.9c.6.2.8.4,1,.7.2.3.2.6.2,1-.1.8-.8,1.7-1.6,2.1l.8,1.8ZM112.4,8.4c-.7-.2-1.5-.1-2.3.3l1.1,1.7c.2-.1.5-.2.7,0l.5-1.9ZM111.3,10.4c.1,0,.2-.1.4-.2l-.5-1.9c-.4,0-.8.3-1.1.5l1.2,1.6ZM111.6,10.3c.7-.1,1.3.2,1.6.6.3.5.5,1.2.2,1.9l1.9.7c.5-1.3.3-2.7-.4-3.7-.7-1-2-1.7-3.5-1.4l.3,2ZM113.3,12.8c-.6,1.6-2.4,2.5-4.5,2.7l.2,2c2.2-.2,5.2-1.3,6.1-4l-1.9-.6ZM110,16.5v-.6s-2,0-2,0v.6s2,0,2,0ZM108.9,16.8c.8,0,1.5.2,2.1.4l.7-1.9c-.9-.4-1.8-.4-2.6-.5l-.2,2ZM111,17.3c.4.1.8.4,1.1.8.3.4.4.7.3,1l2,.4c.2-1-.2-1.9-.7-2.6-.5-.7-1.2-1.2-2-1.5l-.7,1.9ZM112.3,19.1c0,.5-.4,1-1,1.6l1.5,1.3c.5-.6,1.2-1.5,1.4-2.6l-2-.3ZM111.4,20.8c-1.1,1.4-2.7,2.4-4.4,3l.7,1.9c2-.7,3.8-1.9,5.2-3.6l-1.5-1.3ZM107,23.7c-1.3.5-2.8.7-4.1.6l-.2,2c1.7.1,3.4-.1,5-.7l-.7-1.9ZM102.3,26.2h0s.9-1.8.9-1.8h0s-.9,1.8-.9,1.8Z"/>
  </g>
  <path class="cls-33" d="M143.6,27.7c3.4.8,4,5.6,2,8-2,2.6-5.6,3.3-8.8,3.2h-1.9c0,0,1.8-.4,1.8-.4,3-.6,6.1-.4,9,.5,1.2.4,2.9.8,3.1,2.3,0,.9-.7,1.6-1.3,2.1-2.3,2-5.4,3.1-8.4,3.1v-.6c1.7.6,3.2,1.2,4.7,2,.7.4,1.5.8,2.2,1.4,2,2.1.6,5.6-1.7,6.8-1.5.9-3.2,1.3-4.8,1.6l.2-.3c0,.6.7,1,1.4,1.2.7.2,1.5.3,2.3.7,2.1,1,4,3.5,3.4,5.9-.3.9-1.4,1-2.1,1.2l-4.5,1.3v-.3c.7,1,1.7,1.6,2.6,2.3,2.4,1.8,1.7,4.6-1,5.4-1.1.3-2.3.3-3.5.2,1.2,0,2.3,0,3.4-.3,1.6-.4,3-2.3,2-3.9-1-1.6-2.9-2.1-3.9-3.8h.2c0,0,4.5-1.4,4.5-1.4.7-.2,1.6-.3,1.8-1,.4-2.2-1.3-4.4-3.2-5.3-1.1-.5-2.3-.4-3.3-1.2-.4-.3-.6-.7-.6-1.2v-.2c2-.5,4.2-.9,5.8-2.3,1.4-1.3,2.1-3.7.6-5.1-.5-.5-1.2-.9-2-1.3-2-1-4.1-1.8-6.2-2.6h1.7c1.9,0,3.9-.5,5.6-1.3.9-.4,1.7-1,2.4-1.6.6-.5,1.5-1.3.9-2.1-.5-.7-1.6-1-2.5-1.3-2.8-.9-5.8-1.1-8.8-.6v-.4c3,.2,6.5-.5,8.5-2.9,2-2.3,1.4-7-1.8-7.9h0Z"/>
  <g class="cls-4">
    <path class="cls-31" d="M143.6,27.7h-1c0-.1-.1.8-.1.8l.9.2.2-1ZM145.6,35.7l-.8-.6h0s.8.6.8.6ZM136.8,38.9v1s0,0,0,0v-1ZM134.9,38.8l-.2-1,.2,2v-1ZM136.7,38.5l.2,1h0s-.2-1-.2-1ZM145.7,38.9l.3-.9h0s0,0,0,0l-.3,1ZM148.8,41.2h1c0,0,0-.1,0-.1h0s-1,.1-1,.1ZM147.6,43.3l.6.8h0s-.7-.8-.7-.8ZM139.1,46.4l-1-.2-.2,1.2h1.2s0-1,0-1ZM139.2,45.8l.3-.9-1.1-.4-.2,1.2,1,.2ZM143.8,47.8l.4-.9h0s-.4.9-.4.9ZM146,49.2l-.7.7h0s.7-.7.7-.7ZM144.3,56l-.5-.9h0s0,0,0,0l.5.9ZM139.5,57.6l-.8-.6-1.8,2.2,2.8-.6-.2-1ZM139.7,57.3h1s.1-3,.1-3l-1.9,2.3.8.6ZM141.1,58.5l.3-1h0s0,0,0,0l-.3,1ZM143.3,59.2l-.4.9h0s.4-.9.4-.9ZM146.8,65.1l1,.3h0c0,0,0-.1,0-.1l-1-.2ZM144.7,66.3l.3,1h0s0,0,0,0l-.3-1ZM140.2,67.6l-.9-.4-.7,1.9,1.9-.5-.3-1ZM140.3,67.3l.8-.5-1.1-1.7-.7,1.9.9.4ZM142.8,69.6l-.6.8h0s0,0,0,0l.6-.8ZM141.8,75.1l.3,1h0s0,0,0,0l-.3-1ZM138.3,75.2v-1s0,2,0,2v-1ZM141.7,75l-.3-1h0s0,0,0,0l.3,1ZM143.8,71.1l.9-.5h0s-.8.5-.8.5ZM139.9,67.3l-.3-1-1.2.4.6,1.1.9-.5ZM140.1,67.2l-.3-1h0s.3,1,.3,1ZM144.6,65.9l.3,1h0s0,0,0,0l-.3-.9ZM146.3,65l1,.3h0c0,0,0-.1,0-.1l-1-.2ZM143.1,59.7l.4-.9h0s-.4.9-.4.9ZM139.8,58.5l.6-.8h0s0,0,0,0l-.6.8ZM139.1,57.3h1s0,0,0,0h0s-1,0-1,0ZM139.1,57.1l-.2-1-.8.2v.9c0,0,1.1,0,1.1,0ZM144.9,54.8l.7.7h0s-.7-.7-.7-.7ZM145.5,49.6l-.7.7h0s0,0,0,0l.7-.7ZM143.5,48.4l-.5.9h0s.4-.9.4-.9ZM137.4,45.8v-1l-.3,1.9.3-.9ZM139.1,45.8v-1s0,0,0,0v1ZM144.7,44.4l.4.9h0s-.5-.9-.5-.9ZM147.2,42.8l.6.8h0s-.6-.8-.6-.8ZM148,40.7l.8-.6h0s0,0,0,0l-.8.6ZM145.6,39.5l.3-.9h0s0,0,0,0l-.3,1ZM136.8,38.9h-1c0,0,0,1.2,0,1.2l1.1-.2-.2-1ZM136.8,38.5v-1s-1.1,0-1.1,0v1.1c0,0,1.1,0,1.1,0ZM145.4,35.5l-.8-.6h0s.8.6.8.6ZM143.6,27.7l.3-1-1.1-.3-.2,1.1h1ZM143.3,28.7c1.2.3,2,1.3,2.3,2.6.3,1.4,0,2.8-.8,3.8l1.6,1.2c1.2-1.5,1.6-3.6,1.2-5.4-.4-1.9-1.6-3.6-3.7-4.2l-.5,1.9ZM144.8,35.1c-1.7,2.2-4.9,2.9-8,2.8v2c3.2.1,7.2-.6,9.5-3.6l-1.6-1.2ZM136.8,37.9h-1.9c0,0,0,1.9,0,1.9h1.9c0,0,0-1.9,0-1.9ZM135.1,39.8l1.8-.4-.4-2-1.8.4.4,2ZM136.9,39.5c2.8-.6,5.8-.4,8.5.4l.6-1.9c-3.1-.9-6.4-1.1-9.5-.5l.4,2ZM145.4,39.9c.7.2,1.2.4,1.7.7.5.3.6.5.7.8l2-.3c-.2-1.2-.9-1.8-1.7-2.3-.7-.4-1.6-.6-2.1-.8l-.7,1.9ZM147.8,41.3c0,.1,0,.2-.2.5-.2.2-.4.5-.7.7l1.3,1.5c.3-.2.7-.6,1-1,.3-.5.7-1.1.6-1.9l-2,.2ZM146.9,42.5c-2.2,1.8-5,2.9-7.8,2.9v2c3.3,0,6.6-1.2,9.1-3.4l-1.3-1.5ZM140.1,46.6v-.6c.1,0-1.9-.4-1.9-.4v.6c-.1,0,1.9.4,1.9.4ZM138.9,46.7c1.5.6,3,1.2,4.5,1.9l.9-1.8c-1.5-.7-3.1-1.4-4.7-2l-.7,1.9ZM143.4,48.7c.7.4,1.4.7,1.9,1.2l1.4-1.4c-.8-.8-1.7-1.3-2.4-1.6l-.9,1.8ZM145.3,49.9c.7.7.8,1.7.5,2.7-.3,1.1-1.1,2-2,2.5l.9,1.8c1.4-.7,2.5-2.1,2.9-3.7.5-1.5.3-3.3-1-4.7l-1.4,1.4ZM143.8,55.1c-1.3.8-2.8,1.1-4.5,1.5l.4,2c1.6-.3,3.4-.7,5.1-1.7l-1-1.7ZM140.3,58.2l.2-.3-1.6-1.3-.2.3,1.6,1.3ZM138.7,57.3c0,.7.4,1.3.8,1.6.4.3.9.5,1.3.6l.6-1.9c-.3,0-.5-.2-.6-.3,0,0,0,0,0,0,0,0,0,0,0,0h-2ZM140.8,59.5c.4.1.9.2,1.2.3.4,0,.7.2,1,.3l.8-1.8c-.4-.2-.9-.3-1.3-.4-.4-.1-.7-.2-1.1-.3l-.6,1.9ZM142.9,60.1c.9.4,1.7,1.1,2.3,2,.6.9.8,1.9.6,2.8l2,.4c.3-1.5-.1-3-.9-4.2-.8-1.2-1.9-2.2-3.2-2.8l-.8,1.8ZM145.8,64.8s0,.1-.3.2c-.1,0-.3.1-.5.2-.2,0-.4.1-.6.2l.6,1.9c.2,0,.3,0,.6-.2.2,0,.5-.1.7-.2.5-.2,1.2-.6,1.4-1.5l-1.9-.6ZM144.4,65.4l-4.5,1.3.5,1.9,4.5-1.3-.5-1.9ZM141.1,67.9v-.3c0,0-1.8-.7-1.8-.7v.3c0,0,1.8.7,1.8.7ZM139.4,67.9c.4.6.9,1.1,1.4,1.5.2.2.5.4.7.6.2.2.4.3.6.5l1.3-1.5c-.2-.2-.5-.4-.7-.6-.2-.2-.4-.3-.6-.5-.4-.3-.7-.7-1-1l-1.7,1.1ZM142.2,70.4c1,.7,1.2,1.5,1,2.1-.1.6-.7,1.3-1.8,1.6l.6,1.9c1.6-.5,2.8-1.7,3.1-3.1.3-1.5-.4-3-1.8-4.1l-1.2,1.6ZM141.5,74.1c-.9.3-1.9.2-3.1.1v2c1,0,2.4.2,3.7-.2l-.6-1.9ZM138.3,76.2c1.1,0,2.5,0,3.8-.3l-.6-1.9c-.9.3-1.9.3-3.1.2v2ZM142,75.9c1-.3,2-1,2.6-2,.6-1,.8-2.2,0-3.4l-1.7,1c.2.4.2.9,0,1.3-.3.5-.8.9-1.4,1.1l.5,1.9ZM144.6,70.5c-.6-1-1.5-1.6-2.2-2.1-.7-.5-1.3-1-1.7-1.6l-1.7,1c.6,1,1.5,1.7,2.2,2.2.8.6,1.3,1,1.7,1.6l1.7-1.1ZM140.2,68.3h.2c0,0-.6-2-.6-2h-.2c0,0,.6,2,.6,2ZM140.4,68.2l4.5-1.3-.6-1.9-4.5,1.3.6,1.9ZM144.9,66.9c.1,0,.3,0,.5-.1.2,0,.4-.1.6-.2.4-.2,1.1-.5,1.3-1.3l-1.9-.5c0-.2.2-.2,0,0-.1,0-.3,0-.4.1-.2,0-.4.1-.6.2l.7,1.9ZM147.3,65.1c.2-1.4-.2-2.7-.9-3.8-.7-1.1-1.8-2-2.9-2.5l-.8,1.8c.8.3,1.5,1,2,1.8.5.8.7,1.6.6,2.4l2,.3ZM143.5,58.8c-.6-.3-1.4-.4-1.9-.5-.5-.1-.9-.3-1.3-.5l-1.2,1.6c.7.5,1.4.7,2,.9.7.2,1.1.2,1.5.4l.8-1.8ZM140.4,57.7c-.1,0-.2-.3-.2-.4h-2c0,.8.4,1.6,1.1,2l1.2-1.6ZM140.1,57.2v-.2s-2,.1-2,.1v.2s2-.1,2-.1ZM139.3,58c2-.4,4.4-.9,6.2-2.6l-1.4-1.5c-1.3,1.2-3.2,1.6-5.3,2.1l.4,2ZM145.6,55.5c.8-.8,1.5-1.9,1.7-3,.2-1.2,0-2.5-1-3.5l-1.4,1.4c.4.4.6,1,.5,1.7-.1.7-.5,1.4-1.1,1.9l1.4,1.5ZM146.2,48.9c-.7-.7-1.5-1.1-2.3-1.5l-.9,1.8c.7.4,1.3.7,1.7,1.1l1.4-1.4ZM144,47.5c-2-1-4.2-1.9-6.3-2.6l-.7,1.9c2.1.8,4.2,1.6,6.1,2.5l.9-1.8ZM137.4,46.8h1.7s0-2,0-2h-1.7s0,2,0,2ZM139.1,46.8c2.1,0,4.2-.5,6.1-1.4l-.9-1.8c-1.6.8-3.4,1.2-5.2,1.2v2ZM145.2,45.3c.9-.5,1.8-1.1,2.6-1.7l-1.3-1.5c-.7.6-1.4,1.1-2.2,1.5l.9,1.8ZM147.8,43.6c.3-.2.8-.7,1.1-1.2.2-.3.3-.6.3-1.1,0-.4-.2-.9-.4-1.2l-1.6,1.2c0,0,0,0,0,0,0,0,0,0,0,0,0,0-.1.2-.3.3-.1.1-.3.3-.4.4l1.3,1.5ZM148.8,40.1c-.4-.5-1-.8-1.5-1.1-.5-.2-1-.4-1.5-.5l-.6,1.9c.5.2.9.3,1.3.5.4.2.6.3.7.5l1.6-1.2ZM145.9,38.5c-3-.9-6.2-1.2-9.2-.6l.4,2c2.7-.5,5.6-.3,8.3.5l.6-1.9ZM137.8,38.8v-.4s-2,.1-2,.1v.4s2-.1,2-.1ZM136.7,39.5c3.2.2,7-.5,9.4-3.3l-1.5-1.3c-1.7,2.1-4.8,2.7-7.7,2.6v2ZM146.1,36.2c1.2-1.4,1.6-3.5,1.3-5.3-.3-1.8-1.5-3.6-3.6-4.2l-.5,1.9c1.1.3,1.9,1.3,2.1,2.6.2,1.3,0,2.7-.8,3.6l1.5,1.3ZM142.6,27.5h0s2,.3,2,.3h0s-2-.3-2-.3Z"/>
  </g>
  <path class="cls-33" d="M107.7,99.5c1.7.1,3.4.9,5,.2,1.6-.8,1.5-3,.4-4.2-1.1-1.3-3-2.1-4.4-3,2.2.6,6.1,2.5,7.4-.3.9-2.6-1.8-4.5-3.5-6l1.2.3c1.7.4,3.5.2,4.9-.9,1.3-1,2-3,1.1-4.4-.6-.9-1.7-1.6-2.7-1.4l-.2-.6c1.7-.6,3.4,0,5-.6,1.7-.6,1.8-2.5.5-3.6-.9-.8-2.2-1.1-3.4-1.5l.5-.3c1.5-.9,3.2-1.9,3.8-3.7.6-1.8-.9-3.5-2.7-3.9-1.2-.3-2.4-.1-3.6.2,1.2-.4,2.4-.6,3.7-.3,1.9.3,3.6,2.2,3,4.1-.6,1.9-2.3,3-3.9,4v-.4c1,.3,2.2.6,3.1,1.4,2.4,2.3.6,4.8-2.4,4.9-1.1,0-2.3,0-3.3.3l-.2-.6c1.3-.3,2.7.5,3.4,1.6,1.1,1.7.3,4.1-1.2,5.3-1.5,1.2-3.6,1.4-5.4,1l.3-.5c1.2,1.1,2.6,2.4,2.9,4.1.4,2-1,3.6-3,3.6-1.2,0-2.2-.3-3.3-.7l.2-.4c1,.6,2,1.2,2.7,2.2,1.2,1.3,1.2,3.8-.6,4.6-1.7.7-3.4-.2-5.1-.4h0Z"/>
  <g class="cls-2">
    <path class="cls-31" d="M107.7,99.5l-.6-.8-2.2,1.6,2.7.2v-1ZM112.8,99.6l.4.9h0s0,0,0,0l-.4-.9ZM113.1,95.4l-.8.6h0s0,0,0,0l.7-.7ZM108.7,92.4l.3-1-.8,1.8.5-.9ZM116.1,92.1l.9.4h0s0,0,0,0l-1-.3ZM112.6,86.1l.2-1-.9,1.7.7-.8ZM113.8,86.3l.2-1h0s-.2,1-.2,1ZM118.7,85.5l-.6-.8h0s.6.8.6.8ZM119.8,81l-.9.5h0s0,0,0,0l.8-.5ZM117.1,79.7l-1,.3.2.9.9-.2-.2-1ZM116.9,79.1l-.3-.9-.9.3.2.9,1-.3ZM121.9,78.4l-.3-.9h0s0,0,0,0l.4.9ZM122.4,74.8l.7-.7h0s-.7.7-.7.7ZM119,73.3l-.5-.9-2.1,1.2,2.3.7.3-1ZM119.4,73.1l.5.9h0s-.5-.9-.5-.9ZM123.2,69.4l1,.3h0s-1-.3-1-.3ZM120.5,65.5l-.2,1h0s0,0,0,0l.2-1ZM116.9,65.7l-.3-1,.5,1.9-.2-1ZM120.5,65.3l-.2,1h0s0,0,0,0l.2-1ZM123.5,69.5l-1-.3h0s1,.3,1,.3ZM119.6,73.5h-1c0,.1.2,1.7.2,1.7l1.3-.8-.5-.9ZM119.6,73l.3-1-1.4-.4.2,1.5h1ZM122.7,74.4l.7-.7h0s0,0,0,0l-.7.8ZM120.4,79.3v-1s0,0,0,0h0s0,1,0,1ZM117.1,79.7l-1,.3.3,1,1-.4-.3-.9ZM116.9,79.1l-.2-1-1.1.2.3,1,1-.3ZM120.3,80.7l-.9.5h0s0,0,0,0l.8-.5ZM119.1,86l-.6-.8h0s.6.8.6.8ZM113.7,86.9l-.9-.5-.6,1.1,1.2.3.2-1ZM113.9,86.4l.7-.8-1-.8-.6,1.1.9.5ZM116.8,90.5h-1c0,.1,0,.2,0,.2h0s1-.2,1-.2ZM113.8,94.1v-1s0,0,0,0h0s0,1,0,1ZM110.5,93.4l-.9-.4-.5,1,1,.4.3-.9ZM110.7,93l.5-.9-1-.6-.5,1,.9.4ZM113.4,95.2l-.8.6h0s0,0,0,0l.8-.7ZM112.8,99.8l.4.9h0s0,0,0,0l-.4-.9ZM107.7,99.5v-1c.1,0-.3,0-.3,0l-.3.2.6.8ZM107.7,100.5c.4,0,.7,0,1.1.2.4,0,.9.2,1.3.2.9.1,2,.2,3-.3l-.8-1.8c-.5.2-1.2.2-2,.1-.4,0-.8-.1-1.2-.2-.4,0-.9-.2-1.4-.2v2ZM113.2,100.5c1.2-.6,1.8-1.7,1.8-2.8,0-1.1-.4-2.2-1.1-3l-1.5,1.3c.4.4.6,1,.6,1.6,0,.5-.2.9-.6,1.1l.9,1.8ZM113.9,94.8c-.6-.8-1.5-1.4-2.3-1.9-.4-.3-.8-.5-1.2-.7-.4-.2-.8-.4-1.1-.6l-1.1,1.7c.4.2.8.5,1.2.7.4.2.8.4,1.2.7.8.5,1.4.9,1.8,1.5l1.5-1.3ZM108.5,93.3c.5.2,1.1.4,1.9.6.7.2,1.5.5,2.3.6.8.1,1.7.1,2.5-.2.8-.3,1.5-.9,2-1.9l-1.8-.8c-.2.5-.5.7-.8.8-.4.1-.9.2-1.5,0-.6,0-1.3-.3-2-.5-.6-.2-1.4-.5-1.9-.6l-.6,1.9ZM117.1,92.4c.6-1.7,0-3.2-.9-4.3-.8-1.1-2.1-2-2.9-2.7l-1.3,1.5c.9.8,1.9,1.6,2.6,2.5.7.8.9,1.6.6,2.5l1.9.6ZM112.4,87.1l1.2.3.4-1.9-1.2-.3-.4,1.9ZM113.6,87.3c1.9.4,4.1.3,5.7-1.1l-1.3-1.6c-1,.8-2.6,1-4,.7l-.4,1.9ZM119.3,86.3c.8-.6,1.4-1.6,1.7-2.6.3-1,.2-2.2-.4-3.2l-1.7,1.1c.3.4.3,1,.2,1.6-.2.6-.5,1.2-1,1.5l1.2,1.6ZM120.6,80.5c-.7-1.2-2.2-2.1-3.8-1.8l.4,2c.5-.1,1.3.2,1.7.9l1.7-1ZM118,79.4l-.2-.6-1.9.5.2.6,1.9-.5ZM117.2,80c.7-.2,1.3-.2,2.2-.2.8,0,1.8,0,2.8-.4l-.8-1.9c-.6.2-1.2.3-2.1.3-.8,0-1.8,0-2.8.3l.7,1.9ZM122.2,79.4c1.2-.4,1.9-1.3,2-2.4.1-1-.4-2.1-1.2-2.8l-1.4,1.5c.4.4.6.9.5,1.2,0,.3-.2.6-.7.8l.7,1.9ZM123.1,74.1c-.6-.5-1.3-.9-1.9-1.1-.6-.2-1.3-.4-1.9-.6l-.6,1.9c.6.2,1.2.3,1.8.5.5.2,1,.4,1.3.7l1.4-1.5ZM119.4,74.2l.5-.3-1-1.7-.5.3,1,1.7ZM119.9,73.9c1.5-.9,3.5-2.1,4.2-4.2l-1.9-.6c-.4,1.3-1.7,2.2-3.3,3.1l1,1.7ZM124.1,69.7c.4-1.3,0-2.5-.6-3.4-.7-.9-1.7-1.6-2.8-1.8l-.4,2c.6.1,1.2.5,1.6,1,.4.5.5,1,.3,1.6l1.9.6ZM120.7,64.5c-1.4-.3-2.8-.1-4.1.2l.5,1.9c1.1-.3,2.2-.4,3.1-.2l.5-1.9ZM117.2,66.6c1.1-.3,2.2-.5,3.2-.3l.4-2c-1.5-.3-2.9,0-4.1.4l.6,1.9ZM120.4,66.3c.7.1,1.4.5,1.8,1.1.4.5.6,1.2.4,1.8l1.9.6c.4-1.3,0-2.6-.7-3.6-.7-.9-1.8-1.6-3-1.8l-.3,2ZM122.5,69.2c-.4,1.4-1.8,2.4-3.4,3.4l1,1.7c1.5-.9,3.6-2.3,4.3-4.5l-1.9-.6ZM120.6,73.3v-.4c0,0-2,.3-2,.3v.4c0,0,2-.3,2-.3ZM119.3,74c1.1.3,2,.6,2.8,1.2l1.3-1.5c-1.1-1-2.5-1.3-3.6-1.6l-.5,1.9ZM122,75.2c.5.5.7.9.8,1.2,0,.3,0,.6-.1.9-.3.5-1.1,1.1-2.3,1.1v2c1.8,0,3.3-.8,4.1-2.1.4-.7.5-1.4.3-2.3-.2-.8-.6-1.6-1.3-2.2l-1.4,1.4ZM120.3,78.3c-.3,0-.5,0-.8,0-.3,0-.6,0-.9,0-.6,0-1.2,0-1.9.3l.7,1.9c.4-.1.8-.2,1.3-.2.3,0,.5,0,.8,0,.3,0,.6,0,.9,0v-2ZM118.1,79.4l-.2-.6-1.9.5.2.6,1.9-.5ZM117.1,80c.8-.2,1.8.3,2.3,1.2l1.7-1c-.9-1.4-2.6-2.5-4.4-2.1l.4,2ZM119.5,81.2c.7,1.2.3,2.9-1,3.9l1.2,1.6c1.8-1.4,2.9-4.3,1.4-6.6l-1.7,1.1ZM118.5,85.2c-1.2,1-3,1.2-4.6.8l-.5,1.9c2,.5,4.5.3,6.3-1.2l-1.2-1.6ZM114.6,87.4l.3-.5-1.8-.9-.3.5,1.8.9ZM113.3,87.2c1.3,1.1,2.4,2.2,2.6,3.5l2-.3c-.3-2.2-2-3.7-3.2-4.7l-1.3,1.5ZM115.8,90.7c.2,1.3-.7,2.4-2,2.4v2c2.6,0,4.5-2.2,4-4.7l-2,.4ZM113.8,93.1c-1,0-1.9-.2-2.9-.6l-.7,1.9c1.1.4,2.3.7,3.6.7v-2ZM111.4,93.8l.2-.4-1.8-.8-.2.4,1.8.8ZM110.2,93.9c1,.6,1.9,1.1,2.5,1.9l1.6-1.2c-.9-1.1-2-1.8-3-2.4l-1,1.7ZM112.7,95.8c.4.5.6,1.1.6,1.8,0,.6-.3,1-.8,1.3l.8,1.8c1.3-.6,1.9-1.8,2-3,0-1.1-.3-2.4-1.1-3.2l-1.5,1.3ZM112.5,98.9c-.6.2-1.2.2-2,0-.4,0-.8-.2-1.2-.3-.4,0-.9-.2-1.4-.2l-.2,2c.4,0,.7.1,1.2.2.4,0,.9.2,1.3.3.9.2,2,.2,3.1-.2l-.7-1.9ZM107.1,98.7h0s1.2,1.6,1.2,1.6h0s-1.2-1.6-1.2-1.6Z"/>
  </g>
  <path class="cls-33" d="M109.3,117.5c1.6.8,3.6,1,5.2.2,1.5-.8,2.5-2.7,1.9-4.4-.5-1.3-1.7-2.4-2.7-3.4.8,0,1.8,0,2.6,0,1.8-.1,3.3-1.4,2.7-3.3-.6-2.3-1.9-4.5-3.8-6,2,1.4,3.6,3.5,4.3,5.9.8,2.2-1,3.9-3.1,4.1-.6,0-1.3,0-1.9,0l.2-.6c.4.4.9.9,1.3,1.4,2,2.2,1.3,5.3-1.4,6.6-1.7.8-3.9.4-5.4-.6h0Z"/>
  <g class="cls-50">
    <path class="cls-31" d="M109.3,117.5l.4-.9-2.1-1,.7,2.3.9-.3ZM114.5,117.7l.5.9h0l-.5-.9ZM116.4,113.3l-.9.3h0s0,0,0,0l.9-.3ZM113.7,109.9v-1s-2.5,0-2.5,0l1.8,1.8.7-.7ZM116.3,109.9v-1c0,0,0,0,0,0h0s.1,1,.1,1ZM119,106.6l-1,.2h0s0,0,0,0l1-.3ZM115.3,100.6l.6-.8-1.2,1.6.6-.8ZM119.5,106.5l-1,.3h0s0,0,0,0l.9-.3ZM116.4,110.6v-1c0,0,0,0,0,0h0s.1,1,.1,1ZM114.5,110.6l-.9-.4-.6,1.4h1.5s0-1,0-1ZM114.8,110l.7-.7-1-1-.6,1.3.9.4ZM116.1,111.4l-.8.6h0s0,0,0,0l.7-.7ZM114.7,118.1l.4.9h0s0,0,0,0l-.4-.9ZM109.3,117.5l-.9.3v.3c.1,0,.4.2.4.2l.5-.8ZM108.8,118.4c1.8.9,4.2,1.2,6.2.2l-.9-1.8c-1.3.7-2.9.5-4.3-.2l-.9,1.8ZM115,118.6c1.8-1,3.2-3.3,2.4-5.6l-1.9.7c.4,1.1-.3,2.5-1.5,3.1l.9,1.8ZM117.4,113c-.3-.8-.8-1.6-1.4-2.2-.5-.6-1.2-1.2-1.6-1.6l-1.4,1.4c.6.5,1.1,1,1.5,1.5.5.5.8,1,1,1.5l1.9-.7ZM113.7,110.9c.8,0,1.9,0,2.8,0l-.2-2c-.7,0-1.6,0-2.5,0v2ZM116.4,110.9c1.1,0,2.2-.5,2.9-1.3.8-.8,1.1-2,.7-3.3l-1.9.6c.2.6,0,1-.2,1.3-.3.3-.9.6-1.6.7l.2,2ZM120,106.4c-.6-2.5-2.1-4.9-4.1-6.5l-1.3,1.5c1.7,1.4,2.9,3.4,3.4,5.5l1.9-.5ZM114.7,101.4c1.8,1.2,3.2,3.2,3.9,5.3l1.9-.6c-.7-2.6-2.4-4.9-4.7-6.4l-1.1,1.7ZM118.6,106.8c.3.8,0,1.4-.3,1.8-.4.5-1.1.8-2,.9l.2,2c1.3-.1,2.5-.7,3.3-1.6.8-1,1.2-2.3.7-3.8l-1.9.6ZM116.3,109.6c-.6,0-1.1,0-1.7,0v2c.6,0,1.2,0,2,0l-.2-2ZM115.5,111l.2-.6-1.8-.8-.2.6,1.8.8ZM114.1,110.8c.4.4.9.8,1.2,1.3l1.6-1.3c-.4-.6-.9-1-1.4-1.5l-1.4,1.4ZM115.3,112.1c1.5,1.7,1,4.1-1.1,5.1l.9,1.8c3.2-1.6,4.1-5.5,1.7-8.2l-1.5,1.3ZM114.3,117.2c-1.4.6-3.1.4-4.5-.5l-1.1,1.7c1.8,1.1,4.3,1.6,6.4.6l-.9-1.8ZM110.2,117.2h0s-1.9.6-1.9.6h0s1.9-.6,1.9-.6Z"/>
  </g>
  <path class="cls-33" d="M121.7,114c1.1.4,2.4.6,3.5.3,2.2-.4,4.1-3,2.9-5.2-.5-1-1.6-1.7-2.7-1.6l-2.3.2c2.7-1.2,6.2-2,7.6-4.8.9-2.1,0-4.8-1.9-6.1,2.2,1,3.3,4,2.4,6.3-1,2.4-3.5,3.5-5.7,4.4l-.2-.6c.7,0,1.4.1,1.9.5,2.5,1.6,2.1,5.1-.3,6.6-1.6,1-3.8.9-5.4,0Z"/>
  <g class="cls-45">
    <path class="cls-31" d="M121.7,114l.4-.9-.8,1.8.5-.9ZM125.3,114.3l-.2-1h0s0,0,0,0l.2,1ZM128.2,109.1l-.9.5h0s.9-.5.9-.5ZM125.5,107.5v1h.1v-1ZM123.2,107.8l-.4-.9.5,1.9v-1ZM130.8,103l.9.4h0s0,0,0,0l-.9-.4ZM128.9,96.9l.4-.9-.9,1.8.5-.9ZM131.2,103.2l.9.4h0s-.9-.4-.9-.4ZM125.6,107.5l-1,.2.3,1.1,1.1-.4-.4-.9ZM125.4,106.9v-1c0,0-1.2.1-1.2.1l.3,1.1,1-.2ZM127.4,107.4l.5-.8h0s-.5.8-.5.8ZM127.1,114l-.5-.8h0s.5.8.5.8ZM121.4,115c1.3.5,2.7.7,4.1.3l-.5-1.9c-.9.2-2,.1-2.9-.3l-.7,1.9ZM125.5,115.3c1.4-.3,2.7-1.2,3.4-2.4.7-1.2,1-2.8.2-4.2l-1.8,1c.4.7.3,1.5-.2,2.2-.5.8-1.2,1.3-2.1,1.5l.4,2ZM129,108.6c-.7-1.2-2.1-2.3-3.7-2.1l.2,2c.6,0,1.3.3,1.7,1.1l1.8-.9ZM125.4,106.6l-2.3.2.2,2,2.3-.2-.2-2ZM123.6,108.7c.6-.3,1.3-.5,2.1-.8.7-.3,1.5-.6,2.2-1,1.5-.7,2.9-1.8,3.8-3.5l-1.8-.9c-.6,1.1-1.6,1.9-2.9,2.6-.6.3-1.3.6-2.1.9-.7.3-1.5.6-2.2.9l.8,1.8ZM131.7,103.4c1.2-2.6.1-5.9-2.3-7.3l-1,1.7c1.6.9,2.2,3.2,1.5,4.8l1.8.8ZM128.4,97.8c1.7.8,2.6,3.1,1.9,5l1.8.8c1.1-2.8-.1-6.3-2.9-7.5l-.8,1.8ZM130.3,102.8c-.8,1.9-2.9,2.9-5.1,3.8l.8,1.8c2.1-.9,5-2.1,6.2-4.9l-1.8-.8ZM126.6,107.3l-.2-.6-1.9.5.2.6,1.9-.5ZM125.5,107.9c.4,0,.9,0,1.3.3l1-1.7c-.7-.5-1.6-.7-2.6-.6l.2,2ZM126.8,108.2c.9.6,1.3,1.5,1.2,2.4,0,.9-.6,1.9-1.5,2.5l1.1,1.7c1.5-.9,2.3-2.5,2.4-4,.1-1.6-.6-3.2-2.2-4.2l-1.1,1.7ZM126.6,113.1c-1.2.8-3,.7-4.4,0l-.9,1.8c1.9,1,4.4,1.2,6.4-.1l-1.1-1.7Z"/>
  </g>
  <path class="cls-33" d="M166,59.1c-.9-3.2-6.4-3.6-9.2-3.9-1.2-.1-2.4-.2-3.6-.2,3.3-.7,12.5-.4,12.8,4.2Z"/>
  <g class="cls-15">
    <path class="cls-31" d="M166,59.1l-1,.3,2-.3h-1ZM156.8,55.1v-1c.1,0,.1,0,.1,0h0s0,1,0,1ZM153.2,54.9l-.2-1,.2,2v-1ZM167,58.8c-.6-2.2-2.7-3.2-4.6-3.8-1.9-.6-4.1-.7-5.5-.9l-.3,2c1.5.2,3.4.4,5.2.9,1.8.5,2.9,1.3,3.2,2.3l1.9-.5ZM156.9,54.1c-1.2-.1-2.4-.2-3.7-.2v2c1.1,0,2.3,0,3.5.2l.2-2ZM153.4,55.9c1.5-.3,4.5-.4,7.1.1,1.3.3,2.4.7,3.2,1.2.8.5,1.2,1.2,1.2,1.9h2c-.1-1.7-1-2.8-2.1-3.6-1.1-.8-2.5-1.2-4-1.5-2.9-.6-6.1-.5-7.9-.1l.4,2Z"/>
  </g>
  <path class="cls-33" d="M207.6,53.7c-4.5.2-9-.4-13.5-1-4.5-.7-8.9-1.6-13.2-2.9,8.9,1.6,17.7,3.1,26.7,3.9Z"/>
  <g class="cls-14">
    <path class="cls-31" d="M207.6,53.7v1s0-2,0-2v1ZM194.1,52.6l-.2,1h0s.1-1,.1-1ZM180.9,49.7l.2-1-.5,1.9.3-1ZM207.6,52.7c-4.4.1-8.9-.4-13.3-1l-.3,2c4.5.7,9.1,1.2,13.7,1v-2ZM194.3,51.6c-4.4-.7-8.8-1.6-13.1-2.9l-.6,1.9c4.4,1.3,8.9,2.2,13.4,2.9l.3-2ZM180.7,50.7c8.9,1.6,17.8,3.2,26.8,4l.2-2c-8.9-.8-17.8-2.3-26.6-3.9l-.4,2Z"/>
  </g>
  <path class="cls-33" d="M181.5,52.4c6.4,1.6,12.5,4.1,18.9,5.7,6.4,1.7,12.8,2.9,19.3,4.2-6.5-.8-13.1-1.8-19.4-3.5-6.4-1.7-12.5-4.2-18.7-6.3Z"/>
  <g class="cls-16">
    <path class="cls-31" d="M181.5,52.4l.2-1-.6,1.9.3-.9ZM200.4,58.1l.3-1h0s-.3,1-.3,1ZM219.7,62.3v1c-.1,0,.2-2,.2-2l-.2,1ZM200.3,58.8l.3-1h0s-.3,1-.3,1ZM181.3,53.4c3.2.8,6.3,1.8,9.4,2.8,3.1,1,6.3,2.1,9.5,2.9l.5-1.9c-3.1-.8-6.2-1.8-9.4-2.9-3.1-1-6.3-2-9.5-2.9l-.5,1.9ZM200.2,59.1c6.4,1.7,12.9,2.9,19.3,4.2l.4-2c-6.5-1.3-12.9-2.4-19.2-4.1l-.5,1.9ZM219.8,61.3c-6.5-.8-13-1.8-19.3-3.5l-.5,1.9c6.4,1.7,13,2.8,19.6,3.5l.2-2ZM200.5,57.8c-6.3-1.7-12.3-4.2-18.7-6.3l-.6,1.9c6.1,2.1,12.4,4.7,18.8,6.4l.5-1.9Z"/>
  </g>
  <path class="cls-33" d="M178.2,56.1c5.9,3.3,11.9,6.2,18.2,8.6,2.1.7,4.2,1.7,6.4,2.1-2.3,0-4.4-.9-6.5-1.6-6.4-2.2-12.5-5.2-18-9.1h0Z"/>
  <g class="cls-11">
    <path class="cls-31" d="M178.2,56.1l.5-.9-.4-.2h-.4c0,.1.3,1.1.3,1.1ZM196.4,64.7l-.4.9h0s0,0,0,0l.3-.9ZM202.8,66.7v1s.1-2,.1-2v1ZM196.2,65.1l-.3.9h0s0,0,0,0l.3-1ZM178.2,56.1l-.3-.9-1.9.6,1.6,1.1.6-.8ZM177.7,56.9c5.9,3.3,12,6.2,18.3,8.7l.7-1.9c-6.2-2.4-12.2-5.3-18.1-8.5l-1,1.7ZM196.1,65.6c.5.2,1,.4,1.5.6.5.2,1.1.4,1.6.6,1.1.4,2.2.7,3.4.9l.3-2c-1-.1-2-.4-3-.8-.5-.2-1-.4-1.6-.6-.5-.2-1.1-.4-1.6-.6l-.7,1.9ZM202.8,65.7c-2.1,0-4-.8-6.3-1.5l-.6,1.9c2,.6,4.4,1.6,6.8,1.6v-2ZM196.6,64.2c-6.3-2.1-12.3-5.1-17.8-8.9l-1.2,1.6c5.6,4,11.8,7,18.3,9.2l.6-1.9ZM178.5,57h0s-.6-1.9-.6-1.9h0s.6,1.9.6,1.9Z"/>
  </g>
  <path class="cls-33" d="M149.3,89.7c11.2,8.1,16.4,21.6,24.6,32.4,3.5,4.5,7.6,9.1,13.1,10.9,3.7,1.1,7.7,1,11.5,1.9,10.1,2.2,12.1,7.2,19.5,12.5,4.3,3,9.7,3.2,14.8,4.2,2.6.5,5,1.4,7.4,2.6,2.3,1.1,5.2,1.8,7.4.2-1,.8-2.4,1.1-3.7,1-2.6-.2-4.9-1.8-7.3-2.5-1.2-.4-2.5-.7-3.8-.9-10.5-1.6-13-1.4-21-9.1-3.9-3.8-7.9-6.2-13.3-7.3-2.5-.6-5.1-.8-7.7-1.1-5.6-.6-9.8-3.4-13.5-7.4-10.6-11.4-15.3-27.6-27.9-37.2h0Z"/>
  <g class="cls-10">
    <path class="cls-31" d="M149.3,89.7l.6-.8-2.5-1.8,1,2.9.9-.3ZM173.9,122.1l-.8.6h0s.8-.6.8-.6ZM187,133l-.3,1h0s.3-1,.3-1ZM198.5,134.9l-.2,1h0s0,0,0,0l.2-1ZM218,147.4l-.6.8h0s.6-.8.6-.8ZM232.7,151.6l-.2,1h0s0,0,0,0l.2-1ZM240.1,154.2l-.4.9h0s0,0,0,0l.4-.9ZM247.5,154.4l.6.8-1.2-1.6.6.8ZM243.8,155.4v-1c0,0,0,0,0,0v1ZM236.4,152.8l-.3.9h0s0,0,0,0l.3-1ZM232.7,151.9l.2-1h0s0,0,0,0l-.2,1ZM211.7,142.8l-.7.7h0s.7-.7.7-.7ZM198.4,135.5l-.2,1h0s0,0,0,0l.2-1ZM190.7,134.4v-1c.1,0,.1,0,.1,0h0s-.1,1-.1,1ZM177.2,127l.7-.7h0s-.7.7-.7.7ZM149.3,89.7l-1,.3v.3c0,0,.3.2.3.2l.6-.8ZM148.7,90.6c5.5,4,9.5,9.2,13.2,14.9,3.7,5.6,7.1,11.8,11.2,17.2l1.6-1.2c-4.1-5.3-7.3-11.3-11.1-17.1-3.7-5.8-7.9-11.3-13.7-15.5l-1.2,1.6ZM173.1,122.7c3.5,4.5,7.7,9.4,13.6,11.2l.6-1.9c-5.3-1.6-9.2-6-12.7-10.5l-1.6,1.2ZM186.7,133.9c2,.6,4,.8,5.9,1,2,.2,3.8.4,5.6.9l.5-1.9c-2-.5-4-.7-5.9-.9-1.9-.2-3.8-.5-5.6-1l-.6,1.9ZM198.3,135.8c4.9,1.1,7.8,2.8,10.3,4.9,1.3,1.1,2.5,2.2,3.9,3.5,1.4,1.3,2.9,2.6,4.8,4l1.2-1.6c-1.8-1.3-3.3-2.6-4.6-3.8-1.4-1.2-2.6-2.5-4-3.6-2.8-2.3-5.9-4.1-11.2-5.3l-.4,2ZM217.4,148.2c2.3,1.6,4.9,2.5,7.5,3,1.3.3,2.6.5,3.9.7,1.3.2,2.6.4,3.8.6l.4-2c-1.3-.2-2.6-.4-3.9-.6-1.3-.2-2.5-.4-3.8-.7-2.5-.5-4.7-1.3-6.7-2.7l-1.2,1.6ZM232.6,152.6c2.4.4,4.8,1.3,7.1,2.5l.9-1.8c-2.4-1.2-4.9-2.2-7.6-2.7l-.3,2ZM239.7,155.1c2.3,1.1,5.7,2.1,8.4.1l-1.2-1.6c-1.7,1.2-4.1.7-6.4-.3l-.9,1.8ZM246.8,153.6c-.8.6-1.9.8-3,.8v2c1.3.1,3-.2,4.2-1.2l-1.2-1.6ZM243.8,154.4c-1.1,0-2.2-.5-3.4-1-1.1-.5-2.4-1.1-3.7-1.5l-.6,1.9c1.2.4,2.2.9,3.5,1.5,1.2.5,2.6,1,4.1,1.1v-2ZM236.7,151.9c-1.3-.4-2.6-.7-3.9-1l-.4,2c1.2.2,2.5.5,3.6.9l.6-1.9ZM232.8,150.9c-5.3-.8-8.4-1.2-11.2-2.2-2.8-1-5.3-2.8-9.2-6.6l-1.4,1.4c4,3.9,6.8,5.9,9.9,7,3.1,1.2,6.5,1.5,11.6,2.3l.3-2ZM212.4,142.1c-4-3.9-8.2-6.5-13.8-7.6l-.4,2c5.1,1.1,9,3.4,12.8,7.1l1.4-1.4ZM198.6,134.5c-2.6-.6-5.3-.8-7.8-1.1l-.3,2c2.7.3,5.1.5,7.6,1.1l.4-1.9ZM190.8,133.4c-5.3-.5-9.3-3.2-12.9-7.1l-1.5,1.4c3.8,4.2,8.3,7.1,14.2,7.7l.2-2ZM177.9,126.3c-5.2-5.6-9-12.4-13.1-19.1-4.1-6.7-8.5-13.3-14.9-18.2l-1.2,1.6c6.1,4.7,10.4,11,14.5,17.7,4,6.6,7.9,13.6,13.3,19.4l1.5-1.4ZM150.2,89.4h0s-1.9.6-1.9.6h0s1.9-.6,1.9-.6Z"/>
  </g>
  <path class="cls-33" d="M158.4,87.7c0-.2-.4-.2-.5,0-.2.2-.2.7-.2,1-.1,1-.2,2.3.9,2.8.5.2,1.1.3,1.5-.1,0,.3-.4.5-.7.6-.7.2-1.4,0-1.9-.6-.6-.8-.6-1.9-.3-2.8.1-.4.3-1.2.9-1.1.2,0,.4.1.3.3h0Z"/>
  <g class="cls-23">
    <path class="cls-31" d="M158.4,87.7l-.9.4.3.9.9-.3-.3-.9ZM158,87.7l-.7-.7h0s0,0,0,0l.8.6ZM157.8,88.6l-1-.2h0s0,0,0,0h1ZM158.6,91.5l-.5.9h0s0,0,0,0l.4-.9ZM160.1,91.3l1,.3-1.7-1,.7.7ZM159.5,92l.3,1h0s-.3-1-.3-1ZM157.6,91.4l-.8.6h0s0,0,0,0l.8-.7ZM157.3,88.5l-1-.3h0s0,0,0,0l1,.3ZM158.1,87.4v-1c0,0,0,0,0,0h0s0,1,0,1ZM158.4,87.7l.3.9.6-.2v-.6c0,0-.9-.1-.9-.1ZM159.4,87.4c-.2-.5-.7-.8-1.1-.8-.4,0-.8,0-1,.4l1.5,1.4c-.2.2-.4.2-.6.2-.2,0-.5-.2-.6-.5l1.9-.7ZM157.2,87c-.3.3-.3.8-.4,1,0,.1,0,.2,0,.3,0,0,0,.1,0,.2l2,.4c0-.1,0-.2,0-.3,0,0,0-.2,0-.2,0,0,0,0,0,0,0,0,0,0,0,0s0,0,0,0c0,0,0,0,0,0l-1.6-1.3ZM156.8,88.5c0,.5-.1,1.2,0,1.9.1.7.5,1.5,1.4,1.9l.9-1.8c-.2,0-.3-.2-.3-.5,0-.3,0-.8,0-1.3l-2-.2ZM158.2,92.4c.6.3,1.8.6,2.7-.4l-1.4-1.4s0,0,0,0c0,0,0,0,0,0,0,0-.2,0-.3,0l-.9,1.8ZM159.2,91s0,0,0,0c0,0,0,0,0,0,0,0,0,0,0,0,0,0,0,0,0,0l.6,1.9c.6-.2,1.2-.6,1.4-1.3l-1.9-.6ZM159.2,91c-.3,0-.6,0-.8-.3l-1.5,1.3c.7.8,1.8,1.2,2.9.9l-.6-1.9ZM158.4,90.8c-.3-.4-.4-1.1-.1-1.9l-1.9-.6c-.3,1-.5,2.5.5,3.7l1.6-1.3ZM158.2,88.8c0,0,0-.1,0-.2,0,0,0-.1,0-.2,0-.1,0-.2,0-.2,0,0,0,0,0,0,0,0,0,0-.1,0,0,0-.1,0-.1,0v-2c-.8,0-1.2.5-1.4.9-.2.3-.3.8-.3.9l1.9.6ZM158,88.4c-.1,0-.2,0-.3-.1-.1,0-.3-.3-.2-.7l2,.3c0-.5-.2-.9-.4-1.1-.2-.2-.5-.3-.8-.3l-.2,2ZM158.1,86.8h0s.6,1.9.6,1.9h0s-.6-1.9-.6-1.9Z"/>
  </g>
  <path class="cls-33" d="M164.4,95c-.3-.2-.6,0-.7.2-.1.2-.1.5-.1.8,0,.6,0,1.2.1,1.8.1.8.1,1.8,1,1.9.3,0,.6,0,.7-.3,0,.2,0,.3-.2.4-.3.2-.7.3-1,.2-1.3-.6-1.3-2.8-1.1-4,0-.3.1-.7.4-.9.2-.2.8-.3.9,0h0Z"/>
  <g class="cls-22">
    <path class="cls-31" d="M164.4,95l.9.5.4-.7-.7-.5-.6.8ZM163.7,95.2l.9.5h0s0,0,0,0l-.9-.5ZM163.6,95.9h-1s0,0,0,0h0s1,0,1,0ZM163.7,97.7h-1c0,.1,0,.1,0,.1h0s1-.1,1-.1ZM164.8,99.7v1c-.1,0-.1,0-.1,0h0s.1-1,.1-1ZM165.5,99.3h1s-1.9-.5-1.9-.5l.9.5ZM165.2,99.8l.7.8h0s0,0,0,0l-.7-.7ZM164.2,99.9l-.4.9h0s0,0,0,0l.3-1ZM163.1,95.9h-1c0-.1,0-.1,0-.1h0s1,.1,1,.1ZM163.5,95l.7.7h0s-.7-.7-.7-.7ZM164.4,95l-.9.4.9,1.8.9-1.8-.9-.5ZM165,94.2c-.4-.3-.9-.3-1.3-.2-.3.1-.7.4-.8.7l1.8,1c0,0-.1.1-.1.2,0,0,0,0-.1,0-.1,0-.3,0-.5,0l1.2-1.6ZM162.9,94.7c-.3.5-.3,1.1-.3,1.3h2c0-.1,0-.2,0-.2,0,0,0,0,0-.1,0,0,0,0,0,0l-1.7-1ZM162.6,96c0,.6,0,1.2.1,1.9l2-.2c0-.5-.1-1.1-.1-1.7h-2ZM162.7,97.9c0,.3.1.9.3,1.4,0,.3.2.6.5.9.3.3.6.5,1.1.5l.3-2s0,0,0,0c0,0,0,0,0,0,0-.1,0-.2,0-.4,0,0,0-.2,0-.3,0-.1,0-.2,0-.3l-2,.3ZM164.6,100.6c.5,0,1.3,0,1.7-.9l-1.8-.9s0,0,0-.1c0,0,0,0,.1,0,0,0,.1,0,.1,0l-.2,2ZM164.5,99.3c0-.1,0-.2,0-.2,0,0,0,0,0,0l1.4,1.5c.3-.3.5-.7.5-1.2h-2ZM164.6,99s0,0,0,0c0,0,0,0,0,0,0,0,0,0,0,0l-.6,1.9c.6.2,1.4.1,2-.4l-1.3-1.5ZM164.6,99c-.2,0-.4-.3-.5-1-.1-.7,0-1.4,0-2l-2-.2c0,.6-.1,1.6,0,2.5.2.9.6,2,1.7,2.5l.8-1.8ZM164.1,96c0-.1,0-.2,0-.3,0,0,0,0,0,0l-1.4-1.4c-.5.5-.6,1.2-.7,1.5l2,.3ZM164.2,95.7c0,0-.2,0-.2,0,0,0-.1,0-.2,0-.1,0-.2-.1-.3-.3l1.8-.9c-.3-.6-.9-.8-1.3-.8-.4,0-.9.2-1.2.5l1.4,1.4ZM165.3,95.5h0s-1.8-.9-1.8-.9h0s1.8.9,1.8.9Z"/>
  </g>
  <path class="cls-33" d="M168.5,102.3c-.1,1.1-.3,3.5.8,4.2.4.1,1-.1,1-.6.2.3,0,.6-.2.8-.5.5-1.4.3-1.7-.2-.8-1.2-.7-2.9.1-4.1h0Z"/>
  <g class="cls-41">
    <path class="cls-31" d="M168.5,102.3l-.3-.9-.6.2v.7c0,0,.9,0,.9,0ZM169.4,106.5l-.5.9h0s0,0,0,0l.3-.9ZM170.4,105.8l.8-.6-2.2-2.8.4,3.5h1ZM170.2,106.7l-.7-.7h0s0,0,0,0l.7.7ZM168.4,106.4l-.8.6h0s.8-.6.8-.6ZM168.6,102.3l.8.5,1.5-2.4-2.7.9.3.9ZM167.6,102.2c0,.6-.1,1.5,0,2.5,0,.5.1,1,.3,1.4.2.5.5.9,1,1.2l1-1.7s0,0-.2-.3c0-.2-.2-.5-.2-.8,0-.7,0-1.5,0-2.1l-2-.2ZM169.1,107.4c.5.2,1.1,0,1.5-.1.4-.2.9-.8.8-1.5l-2,.2c0,0,0-.2,0-.3,0,0,0-.1.1-.1,0,0,0,0,0,0,0,0,0,0,.1,0l-.7,1.9ZM169.6,106.4c-.1-.2-.1-.4-.1-.4,0,0,0,0,0-.1l1.4,1.5c.3-.2.4-.6.5-.9,0-.4,0-.8-.2-1.3l-1.6,1.2ZM169.5,106s0,0,0,0c0,0,0,0,0,0,0,0,0,0,0,0,0,0,0,0,0,0l-1.6,1.1c.6.9,2.2,1.5,3.3.4l-1.4-1.4ZM169.3,105.9c-.5-.8-.5-2.1.1-3l-1.7-1.1c-.9,1.4-1.2,3.6,0,5.2l1.7-1.1ZM168.2,101.4h0s.6,1.9.6,1.9h0s-.6-1.9-.6-1.9Z"/>
  </g>
  <path class="cls-33" d="M173.3,112.2c.2,1.3.3,3.2,2,3.3.4,0,.9-.1,1.2-.6,0,.3-.1.6-.3.8-.7.6-1.8.5-2.5-.3-.8-.9-.7-2.2-.4-3.2h0Z"/>
  <g class="cls-26">
    <path class="cls-31" d="M173.3,112.2l1-.2v-.5c0,0-.5-.2-.5-.2l-.5.9ZM175.4,115.5v1c0,0,0,0,0,0v-1ZM176.5,114.9h1c0,0-.3-3.6-.3-3.6l-1.6,3.2.9.5ZM176.2,115.7l.6.8h0s0,0,0,0l-.7-.8ZM173.7,115.4l-.8.6h0s0,0,0,0l.8-.7ZM173.3,112.2l.4-.9-1-.5-.4,1.1,1,.3ZM172.4,112.4c0,.5.2,1.5.5,2.3.2.4.4.9.8,1.2.4.4,1,.6,1.6.6v-2c-.1,0-.2,0-.3-.1,0,0-.2-.2-.3-.4-.2-.5-.3-1.1-.4-1.9l-2,.4ZM175.3,116.5c.6,0,1.6-.1,2.1-1.1l-1.8-.9s0,0,0,0c0,0,0,0,0,0,0,0,0,0,0,0,0,0,0,0,0,0,0,0-.1,0-.2,0v2ZM175.5,115s0,0,0,0c0,0,0,0,0,0s0,0,0,0c0,0,0,0,0,0l1.3,1.5c.4-.4.7-.9.7-1.6h-2ZM175.6,114.9c-.3.2-.8.2-1.1-.1l-1.5,1.3c1,1.1,2.7,1.3,3.9.4l-1.3-1.6ZM174.5,114.8c-.4-.5-.5-1.3-.2-2.2l-1.9-.6c-.4,1.2-.5,2.8.6,4.1l1.5-1.3ZM172.9,113.1h0s.9-1.8.9-1.8h0s-.9,1.8-.9,1.8Z"/>
  </g>
  <path class="cls-33" d="M180.5,120.7c-.2.9-.5,1.9,0,2.7.2.4.5.6.9.6.4,0,.9-.3.9-.8.3.6-.3,1.2-.8,1.3-.6.2-1.3-.3-1.5-.8-.6-1,0-2.2.6-3h0Z"/>
  <g class="cls-18">
    <path class="cls-31" d="M180.5,120.7l-.3-.9-.6.2v.6c-.1,0,.9.2.9.2ZM180.4,123.4l.9-.5h0s-.9.5-.9.5ZM181.3,124v1c0,0,0,0,0,0v-1ZM182.2,123.2l.9-.4-1.6-3.4-.3,3.8h1ZM181.4,124.5l-.2-1h0s0,0,0,0l.3,1ZM179.8,123.7l.9-.5h0s0,0,0,0l-.9.5ZM180.5,120.7l.8.7,2.3-2.7-3.4,1.1.3.9ZM179.5,120.5c0,.2,0,.4-.1.7,0,.2-.1.5-.1.8,0,.6,0,1.2.3,1.9l1.8-1c0-.2-.1-.4,0-.7,0-.2,0-.4.1-.6,0-.2.1-.5.1-.7l-2-.3ZM179.5,123.9c.3.5.9,1.2,1.8,1.1v-2c0,0,0,0,0,0,0,0,0,0,0,0,0,0,0,0,0,0,0,0,0,0,0,0l-1.8,1ZM181.4,125c.7,0,1.7-.5,1.8-1.7l-2-.2s0,0,0,0c0,0,0,0,0,0,0,0,0,0,0,0,0,0,0,0,0,0v2ZM181.3,123.6s0,0,0,0,0,0,0,0c0,0,0,0,0,0s0,0,0,0c0,0,0,0,0,0l.5,1.9c.5-.1,1-.4,1.3-.9.3-.4.5-1.1.2-1.8l-1.8.8ZM181.1,123.5s0,0,0,0c0,0,0,0-.1,0-.1,0-.2-.2-.2-.2l-1.8.9c.2.4.6.8,1,1.1.5.3,1,.4,1.7.2l-.6-1.9ZM180.7,123.2c-.3-.5,0-1.2.5-1.9l-1.5-1.3c-.8.9-1.6,2.5-.8,4.2l1.8-1ZM180.1,119.7h0s.6,1.9.6,1.9h0s-.6-1.9-.6-1.9Z"/>
  </g>
  <path class="cls-33" d="M187.1,126.2c.4.6.6,1.4,1.1,1.8.4.4,1.2.6,1.7,0,0,.2-.1.4-.3.6-.5.4-1.4.4-1.9-.1-.6-.6-.8-1.5-.6-2.3h0Z"/>
  <g class="cls-24">
    <path class="cls-31" d="M187.1,126.2l.9-.5-.4-.7-.8.3.3,1ZM188.1,128.1l-.7.7h0s0,0,0,0l.7-.8ZM189.9,128.1h1s0-2.5,0-2.5l-1.7,1.9.7.7ZM189.6,128.7l.6.8h0s0,0,0,0l-.7-.8ZM187.7,128.6l-.7.7h0s0,0,0,0l.7-.7ZM187.1,126.2l-.3-.9-.6.2v.6c0,0,.9.2.9.2ZM186.2,126.7c.2.3.2.5.5.9.2.4.4.8.8,1.1l1.4-1.5c-.1-.1-.2-.3-.4-.6-.1-.2-.3-.7-.5-1l-1.7,1ZM187.5,128.8c.4.3.9.6,1.4.6.6,0,1.2-.1,1.7-.7l-1.5-1.3s0,0,0,0c0,0,0,0,0,0,0,0,0,0,0,0s0,0-.1,0c0,0-.1,0-.1,0l-1.3,1.5ZM188.9,128.1c0,0,0-.2,0-.2,0,0,0,0,0,0l1.3,1.5c.3-.3.6-.8.6-1.3h-2ZM188.9,127.9c-.1,0-.4.1-.6,0l-1.4,1.5c.8.8,2.2.9,3.2.2l-1.3-1.6ZM188.4,127.8c-.3-.3-.4-.8-.3-1.4l-2-.3c-.2,1,0,2.3.9,3.2l1.4-1.4ZM187.4,127.2h0s-.6-1.9-.6-1.9h0s.6,1.9.6,1.9Z"/>
  </g>
  <path class="cls-33" d="M197.7,130.4c0,.7.7,1.3,1.4,1.1.2,0,.4-.2.6-.4.1.7-.7,1.3-1.4,1.1-.7-.2-1.1-1.2-.6-1.7Z"/>
  <g class="cls-7">
    <path class="cls-31" d="M197.7,130.4h1c0,0-.2-2.3-.2-2.3l-1.5,1.6.7.7ZM199.1,131.4l-.3-.9h0s.3.9.3.9ZM199.7,131l1-.2-.4-2.1-1.4,1.6.8.6ZM198.3,132.1l.3-.9h0s0,0,0,0l-.3,1ZM196.7,130.5c0,.6.3,1.2.8,1.6.5.4,1.2.6,1.9.3l-.6-1.9s0,0,0,0c0,0,0,0,0,0,0,0,0,0,0,0,0,0,0,0,0-.2l-2,.2ZM199.4,132.4c.4-.1.8-.3,1.1-.7l-1.5-1.3s0,0,0,0c0,0,0,0,0,0l.6,1.9ZM198.7,131.2s0,0,0,0c0,0,0,0,0,0,0,0,0,0,0,0,0,0,0,0,0,0,0,0,0,0,0,0l-.6,1.9c.7.2,1.4,0,1.9-.3.5-.4,1-1,.8-1.9l-2,.3ZM198.5,131.1s0,0,0,0c0,0,0,0,0,0,0,0,0,0,0,0,0,0,0,0,0,0,0,0,0,0,0,0l-1.4-1.4c-.6.6-.6,1.4-.4,2,.2.6.7,1.1,1.4,1.3l.5-1.9Z"/>
  </g>
  <path class="cls-33" d="M208.1,131.1c-1.1,1.2-.4,3,1.3,3-.8.6-2,0-2.3-.8-.4-.9.1-2,1-2.2Z"/>
  <g class="cls-38">
    <path class="cls-31" d="M208.1,131.1l.7.7,2-2.2-3,.6.2,1ZM209.4,134.1l.6.8,2.4-1.8h-3s0,1,0,1ZM207.1,133.4l.9-.4h0s0,0,0,0l-.9.4ZM207.3,130.5c-.8.9-1,2-.6,3,.4,1,1.4,1.6,2.6,1.6v-2c-.4,0-.7-.2-.8-.4,0-.2,0-.5.2-.9l-1.5-1.3ZM208.8,133.3c0,0-.2,0-.4,0-.2,0-.4-.2-.4-.4l-1.8.8c.3.7.9,1.2,1.6,1.5.7.2,1.5.2,2.2-.3l-1.2-1.6ZM208,132.9c0-.1,0-.3,0-.5,0-.2.2-.3.3-.3l-.4-2c-.9.2-1.4.8-1.7,1.4-.3.6-.3,1.5,0,2.2l1.8-.8Z"/>
  </g>
  <path class="cls-33" d="M217.8,139.8c0,1-.6,2.3.5,2.9.3.2.6.3,1,0,0,.2-.3.4-.5.4-.7.2-1.5-.3-1.7-1-.3-.9.1-1.8.7-2.4Z"/>
  <g class="cls-6">
    <path class="cls-31" d="M217.8,139.8h1c0,0,.2-2.9.2-2.9l-2,2.2.7.7ZM218.3,142.8l-.5.9h0s0,0,0,0l.5-.9ZM219.3,142.8l.9.3.9-2.6-2.4,1.4.5.9ZM218.8,143.2l.2,1h0s0,0,0,0l-.3-1ZM217.1,142.2l-1,.3h0s0,0,0,0l1-.3ZM216.8,139.7c0,.2,0,.4-.1.7,0,.3,0,.6,0,1,0,.7.2,1.6,1.2,2.2l1-1.7c-.1,0-.2-.2-.2-.5,0-.2,0-.4,0-.7,0-.2,0-.6.1-.9l-2-.2ZM217.8,143.6c.4.2,1.2.5,2,0l-1-1.7s0,0,0,0c0,0,0,0,0,0,0,0,0,0,0,0,0,0,0,0,0,0,0,0,0,0,0,0l-1,1.7ZM218.4,142.5c0,0,0-.1.1-.2,0,0,0,0,0,0l.6,1.9c.5-.1.9-.5,1.2-1.1l-1.9-.7ZM218.6,142.3c-.2,0-.4,0-.5-.3l-1.9.6c.4,1.2,1.7,2,2.9,1.7l-.5-1.9ZM218.1,142c-.1-.4,0-1,.5-1.5l-1.5-1.3c-.7.8-1.3,2-.9,3.4l1.9-.6Z"/>
  </g>
  <path class="cls-33" d="M226,145.7c.1.8.5,1.5,1.1,1.9h-.3c.3-.2.5-.5.6-1,.4.5.1,1.2-.4,1.6-1-.3-1.6-1.6-1-2.5Z"/>
  <g class="cls-27">
    <path class="cls-31" d="M226,145.7l1-.2-.4-2.5-1.4,2.1.8.6ZM227.1,147.7v1c0,0,2.7-.2,2.7-.2l-2.2-1.6-.6.8ZM226.8,147.7l-.6-.8.6,1.8v-1ZM227.4,146.7l.8-.6-1.4-2-.4,2.4,1,.2ZM227.1,148.3l-.3.9.5.2.4-.3-.6-.8ZM225,145.9c.2,1,.6,1.9,1.5,2.6l1.2-1.6c-.4-.3-.6-.7-.7-1.3l-2,.3ZM227.1,146.7h-.3s.2,2,.2,2h.3s-.2-2-.2-2ZM227.4,148.5c.5-.4.9-1,1-1.7l-2-.3c0,.2-.1.3-.2.4l1.1,1.7ZM226.6,147.2s0,0,0,0c0,0,0,0,0,.1,0,0,0,0,0,0l1.2,1.6c.4-.3.7-.8.9-1.3.1-.5,0-1.1-.3-1.7l-1.6,1.2ZM227.4,147.3c-.2,0-.4-.3-.5-.5-.1-.2,0-.4,0-.5l-1.7-1.1c-.5.8-.5,1.7-.2,2.4.3.7.9,1.3,1.7,1.6l.6-1.9Z"/>
  </g>
  <path class="cls-33" d="M38.9,77.5c2.3-.4,4.6-.7,6.9-.5,2.3.2,4.6,1.1,6.3,2.8.8.9,1.5,2,1.6,3.2-.2,1.1-2.2,1.7-3.1,1.8-1.2.1-2.4-.3-3.5-.7-1.1-.3-2.2-.6-3.3-.8-2.2-.4-4.5-.5-6.8-.3-2.3.2-4.5.7-6.7,1.3-2.2.6-4.5,1.2-6.8,1-2.3-.2-4.5-.8-6.7-1.6,2.2.6,4.4,1.2,6.7,1.3,3.5.3,6.7-1.4,10-2,3.4-.7,6.9-.9,10.4-.3,1.1.2,2.3.5,3.4.9,1.5.6,3.2,1,4.8.3.4-.2,1-.4,1.1-.9,0-1-.7-2.1-1.4-2.8-3.2-3.6-8.4-3.2-12.7-2.6h0Z"/>
  <g class="cls-9">
    <path class="cls-31" d="M38.9,77.5l-.5.9h.3c0,.1.3,0,.3,0l-.2-1ZM45.8,77v1c0,0,0,0,0,0v-1ZM52,79.8l.7-.7h0s0,0,0,0l-.7.7ZM53.6,83.1h1c0,.1,0,0,0,0h0c0,0-1,0-1,0ZM50.4,84.8v-1c0,0,0,0,0,0h0s.1,1,.1,1ZM47,84.2l.3-1h0s-.3,1-.3,1ZM43.7,83.4l.2-1h0s-.2,1-.2,1ZM36.9,83.1v1c0,0,0,0,0,0v-1ZM30.2,84.4l-.3-1h0s0,0,0,0l.3,1ZM23.4,85.3v-1c0,0,0,0,0,0h0s0,1,0,1ZM16.7,83.7l.3-1-.6,1.9.3-.9ZM23.4,85v-1c0,0,0,0,0,0h0s0,1,0,1ZM33.4,83l.2,1h0s0,0,0,0l-.2-1ZM43.8,82.7l.2-1h0s0,0,0,0l-.2,1ZM47.2,83.6l.4-.9h0s0,0,0,0l-.3,1ZM51.9,83.8l.4.9h0s0,0,0,0l-.5-.9ZM53,83l1,.2h0c0-.1,0-.3,0-.3h-1ZM51.6,80.2l.8-.6h0s0,0,0,0l-.7.7ZM38.9,77.5v-1c-.1,0-3.4.4-3.4.4l3,1.5.5-.9ZM39.1,78.5c2.3-.4,4.4-.7,6.6-.5l.2-2c-2.4-.2-4.9.2-7.1.5l.3,2ZM45.7,78c2.1.2,4.2,1,5.6,2.5l1.5-1.4c-1.8-2-4.4-2.9-6.9-3.1l-.2,2ZM51.3,80.5c.8.9,1.3,1.7,1.3,2.6h2c0-1.7-1-3-1.8-3.9l-1.5,1.3ZM52.6,82.9s0,0-.1.2c-.1.1-.3.2-.6.4-.5.2-1.2.4-1.5.4l.2,2c.6,0,1.5-.2,2.2-.6.4-.2.8-.4,1.1-.7.3-.3.6-.8.7-1.3l-2-.3ZM50.3,83.8c-.9,0-1.9-.2-3.1-.6l-.6,1.9c1,.3,2.4.9,3.9.7l-.2-2ZM47.3,83.2c-1.1-.4-2.3-.6-3.4-.8l-.4,2c1.1.2,2.1.4,3.2.8l.6-1.9ZM43.9,82.4c-2.3-.4-4.7-.5-7-.3l.2,2c2.2-.2,4.4-.1,6.5.3l.4-2ZM36.8,82.1c-2.3.2-4.6.7-6.9,1.3l.5,1.9c2.2-.6,4.3-1,6.5-1.2l-.2-2ZM30,83.4c-2.2.6-4.3,1.1-6.4.9l-.2,2c2.5.2,5-.4,7.2-1l-.6-1.9ZM23.5,84.3c-2.2-.2-4.3-.8-6.4-1.5l-.7,1.9c2.2.8,4.5,1.4,6.9,1.6l.2-2ZM16.4,84.7c2.2.6,4.5,1.2,6.9,1.3v-2c-2.1,0-4.2-.6-6.4-1.2l-.5,1.9ZM23.4,86c1.9.1,3.7-.2,5.4-.7,1.7-.5,3.3-1,4.9-1.3l-.4-2c-1.7.3-3.5.9-5,1.3-1.6.4-3.2.7-4.7.6v2ZM33.7,84c3.3-.7,6.7-.9,10-.3l.3-2c-3.6-.6-7.2-.4-10.7.3l.4,2ZM43.6,83.7c1.1.2,2.2.5,3.2.8l.6-1.9c-1.1-.4-2.3-.7-3.5-.9l-.4,2ZM46.8,84.5c1.5.6,3.6,1.2,5.6.2l-.9-1.8c-1.1.6-2.4.3-4-.3l-.7,1.9ZM52.4,84.7c0,0,.1,0,.3-.1.1,0,.3-.1.4-.2.3-.2.7-.5.9-1.1l-1.9-.4c0-.1.1-.2,0,0,0,0-.1,0-.2.1,0,0-.2.1-.4.2l1,1.8ZM54,82.9c0-1.4-.9-2.6-1.6-3.4l-1.5,1.3c.6.7,1.1,1.6,1.1,2.2h2ZM52.4,79.5c-1.8-2-4.2-2.9-6.6-3.2-2.4-.3-4.9,0-7,.2l.2,2c2.2-.3,4.5-.5,6.6-.2,2.1.3,3.9,1,5.3,2.5l1.5-1.3ZM38.5,78.4h0s.9-1.8.9-1.8h0s-.9,1.8-.9,1.8Z"/>
  </g>
  <path class="cls-31" d="M138.5,146.1c0-1.7-.7-3.3-1.7-4.7,1.7.7,2.6,3.1,1.7,4.7Z"/>
  <path class="cls-31" d="M149,141.1c-.5-1.5-.9-2.9-1.1-4.5,1,1.2,1.5,2.9,1.1,4.5Z"/>
  <path class="cls-31" d="M141.5,139.8c1,.5,1.6,1.8,1.3,2.9-.6-.9-1-1.9-1.3-2.9Z"/>
  <path class="cls-31" d="M135.4,146.3c.8.1,1.4.9,1.6,1.7,0,.3,0,.5,0,.8-.2-.2-.3-.4-.4-.6-.4-.6-.8-1.2-1.1-1.8Z"/>
  <path class="cls-31" d="M143.9,137.2c.9,1.2,1.3,2.6,1.3,4-.9-1.2-1.3-2.6-1.3-4Z"/>
</svg>