<svg width="160" height="362" viewBox="0 0 160 362" fill="none" xmlns="http://www.w3.org/2000/svg">
<path d="M328.787 74.4781C322.087 78.7012 315.136 82.4431 308.368 86.5483C301.569 90.6771 294.979 95.1173 288.625 99.8406C276.086 109.165 264.461 119.602 253.903 130.946C251.324 133.716 249.397 136.971 247.579 140.246C245.687 143.667 243.844 147.48 244.679 151.264C245.534 155.124 248.923 157.908 251.279 161.145C253.631 164.387 254.688 169.435 251.423 171.842C248.592 173.923 245.726 172.366 242.742 171.62C237.209 170.242 231.26 169.728 225.559 169.327C220.875 168.997 217.338 164.802 216.256 160.437C215.268 156.445 216.058 151.962 216.142 147.895C216.389 135.83 217.017 122.948 214.018 111.137C211.982 102.979 208.697 94.6973 202.136 89.1199C199.661 87.0154 196.637 85.1657 195.56 82.1741C202.946 84.8307 211.75 87.3504 218.252 83.0801C215.406 82.712 212.689 81.4946 210.579 79.6402C213.02 79.1684 215.283 77.8991 216.903 76.0965C209.388 74.6102 202.333 71.0523 196.815 65.9562C200.723 65.39 204.878 66.6687 207.699 69.3112C204.112 63.6252 196.77 60.3364 189.903 61.3414C191.603 60.0108 193.707 59.1567 195.886 58.9161C189.206 57.8261 181.988 60.9639 178.456 66.4847C178.075 67.0793 177.71 67.721 177.087 68.0796C176.534 68.4005 175.857 68.4429 175.21 68.4713C169.414 68.7261 163.599 68.4618 157.854 67.688C155.314 67.3435 152.785 66.9047 150.22 66.8622C145.067 66.782 139.9 68.3863 135.784 71.3496C135.784 71.3496 152.75 70.6229 162.419 88.9359C162.419 88.9359 148.723 83.552 143.407 87.7043C143.407 87.7043 150.013 87.7043 153.397 93.244C156.781 98.7837 168.377 107.244 174.661 108.325C180.946 109.405 188.03 112.477 187.225 120.017C186.267 129.006 184.31 137.873 183.456 146.885C182.062 161.494 183.801 178.387 188.841 192.335C188.841 192.335 170.798 171.87 168.219 166.793C165.64 161.716 163.224 151.868 161.129 145.253C159.034 138.637 157.261 136.023 162.098 136.943C166.929 137.868 171.603 137.712 173.377 133.867C173.377 133.867 169.029 133.097 168.224 131.71C167.419 130.323 172.092 130.328 174.024 127.709C174.024 127.709 165.645 124.783 164.681 121.556C164.681 121.556 167.745 121.556 169.834 120.942C169.834 120.942 159.845 118.786 158.555 115.096C157.266 111.401 146.149 106.48 142.123 114.789C142.123 114.789 134.712 106.942 128.754 113.407C128.754 113.407 112.643 99.4065 102.332 104.79C102.332 104.79 117.796 113.251 121.664 130.946C121.664 130.946 108.453 122.485 101.042 126.638C101.042 126.638 109.579 130.177 113.606 137.717C117.633 145.257 124.559 150.179 130.681 152.798C136.802 155.412 141.313 188.494 153.234 202.65C153.234 202.65 120.854 191.877 118.117 186.649C115.38 181.416 114.574 182.034 120.048 182.648C125.523 183.261 128.749 177.877 133.26 180.803C133.26 180.803 129.875 176.188 125.849 176.188C121.822 176.188 128.586 173.725 131.97 174.956C131.97 174.956 126.17 170.648 123.27 171.573C120.37 172.498 126.491 167.878 126.491 167.878L119.08 167.265C119.08 167.265 118.917 157.724 113.28 157.11C107.643 156.497 100.716 155.879 100.716 155.879C100.716 155.879 99.4266 152.647 97.1737 153.416C97.1737 153.416 94.7578 134.801 92.0207 132.489C89.2837 130.181 83.3204 125.104 83.3204 125.104C83.3204 125.104 85.7364 146.951 83.3204 152.491C80.9045 158.031 80.4203 163.877 80.4203 163.877C80.4203 163.877 77.036 158.337 75.2673 152.491C73.4986 146.645 67.0512 137.259 64.3141 137.104C64.3141 137.104 67.0512 151.566 65.2825 156.181C63.5138 160.796 63.3507 172.337 74.3039 180.798C77.8068 183.506 81.9519 185.639 85.351 188.409C86.1563 189.07 86.9468 189.23 87.3865 190.197C88.1572 191.887 86.349 195.275 90.2817 195.308C91.0623 195.312 91.9615 195.095 92.5494 195.586C92.9792 195.945 93.0533 196.539 93.2164 197.063C93.7845 198.894 95.8793 200.173 97.8605 199.894C97.0552 201.192 98.0927 202.961 99.5403 203.561C100.988 204.16 102.653 203.938 104.214 203.707C102.263 204.636 103.186 207.821 105.242 208.52C107.297 209.218 109.535 208.298 111.477 207.35C111.274 209.015 112.203 210.761 113.73 211.582C115.256 212.403 117.302 212.262 118.69 211.233C118.858 212.266 119.026 213.295 119.199 214.328C121.076 214.706 123.038 214.706 124.915 214.328C125.152 217.966 130.32 220.293 133.413 218.16C132.484 220.859 133.902 223.964 136.298 225.653C138.694 227.342 141.851 227.786 144.811 227.479C147.241 232.358 149.845 237.728 154.618 240.866C159.751 244.24 166.386 245.896 172.255 247.665C172.255 247.665 162.424 254.191 160.971 254.654C159.524 255.116 149.05 250.19 140.349 254.04L136.807 254.965L131.007 254.658L133.907 256.503L134.228 258.967L128.428 259.891L125.528 262.354L131.007 262.048L126.817 268.819L132.296 266.049L130.685 271.282L135.838 269.126L136.481 273.741L138.739 270.357C138.739 270.357 141.318 272.358 144.86 270.051C148.402 267.743 160.65 262.666 169.993 266.049C169.993 266.049 166.45 266.356 166.124 269.588C166.124 269.588 168.11 268.357 169.612 268.715C169.612 268.715 165.907 270.664 165.961 274.562C165.961 274.562 169.4 271.178 171.01 271.999C171.01 271.999 168.001 276.152 168.431 279.28C168.431 279.28 173.105 275.486 175.304 275.897C175.304 275.897 174.232 282.102 175.842 283.588C175.842 283.588 178.421 277.435 181.855 277.228C181.855 277.228 192.596 276.713 195.98 273.943C199.364 271.174 205.752 269.069 211.982 270.046C218.212 271.023 221.434 273.174 223.904 272.919C223.904 272.919 229.758 275.383 231.097 277.841C231.097 277.841 230.667 271.277 229.166 269.635C229.166 269.635 229.378 263.378 223.528 263.124C217.674 262.869 216.439 261.482 216.439 261.482C216.439 261.482 223.849 258.66 233.731 257.994C243.612 257.329 247.317 255.994 247.371 253.073C247.426 250.147 246.942 246.302 246.942 246.302C246.942 246.302 266.704 252.252 294.628 246.457C294.628 246.457 293.501 254.408 297.098 257.74C300.695 261.071 303.437 265.639 303.437 265.639C303.437 265.639 282.924 266.408 280.241 264.1C277.558 261.793 264.486 261.161 261.877 261.486C256.507 262.152 252.801 266.818 252.534 269.692C252.534 269.692 248.236 270.565 247.218 274.717C247.218 274.717 249.689 273.382 250.978 273.896C250.978 273.896 247.648 276.869 246.897 280.361C246.897 280.361 250.657 277.128 253.34 276.874C253.34 276.874 249.313 279.436 249.797 283.131C249.797 283.131 254.145 279.799 256.67 280.361C256.67 280.361 253.933 284.773 255.81 287.745C255.81 287.745 258.493 282.871 260.642 284.051C262.791 285.23 266.225 283.895 268.591 281.691C270.953 279.488 280.137 277.586 283.897 279.898C287.657 282.206 291.629 286.363 293.887 286.155C296.145 285.948 297.325 290.463 297.325 290.463C297.325 290.463 299.045 286.514 298.185 284.409C297.325 282.305 296.95 277.846 294.964 277.128C292.978 276.411 301.031 276.411 304.469 279.691C307.908 282.975 322.404 282.819 324.77 280.304C323.639 281.507 323.362 286.127 322.74 287.741C320.314 294.049 316.44 299.948 311.623 304.841C301.273 315.363 286.802 321.762 272.41 325.504C250.281 331.256 225.92 333.105 203.05 333.591C179.859 334.087 156.332 331.831 134.43 324.187C112.07 316.383 89.2787 302.51 72.1449 286.736C62.6146 277.964 54.5318 267.54 49.3541 255.857C43.7861 243.291 43.1439 230.343 42.8227 216.914C42.5905 207.184 42.6004 197.12 44.8286 187.574C44.8286 187.574 46.7603 194.652 53.5289 196.803C53.5289 196.803 44.6705 174.956 53.85 162.645C53.85 162.645 29.5228 191.264 23.5645 195.265C23.5645 195.265 36.6125 190.801 38.7072 186.649C38.7072 186.649 27.9121 234.807 37.0966 262.656C46.2811 290.506 82.0408 337.739 146.965 351.895C211.888 366.051 278.423 368.821 333.841 323.89C389.259 278.964 358.326 232.033 356.074 229.419C353.816 226.804 336.583 197.417 314.509 192.646C314.509 192.646 317.409 183.723 337.546 188.801C337.546 188.801 315.156 168.185 351.721 164.49C351.721 164.49 333.678 157.257 348.337 149.721L367.185 147.258C367.185 147.258 353.653 142.794 351.395 142.643C349.137 142.487 344.468 126.793 366.538 121.409C388.607 116.025 332.384 123.566 332.384 123.566C332.384 123.566 337.057 117.875 341.084 116.488C341.084 116.488 301.293 117.413 334.799 100.025C334.799 100.025 307.058 104.333 316.114 91.1017C324.009 79.56 328.797 74.4922 328.797 74.4922L328.787 74.4781Z" stroke="#9FA5BE" stroke-miterlimit="10"/>
<path d="M194.636 225.714C180.733 222.94 160.437 214.923 153.234 202.636C154.523 204.146 155.926 205.533 157.428 206.807C161.934 210.639 167.137 213.635 172.463 216.306C179.626 219.901 187.096 222.86 194.636 225.714Z" fill="#9FA5BE"/>
<path d="M147.261 69.9957C148.328 68.0517 151.441 68.5613 152.434 70.326C150.576 70.8639 149.099 70.3591 147.261 69.9957Z" fill="#9FA5BE"/>
<path d="M142.419 115.398C144.366 117.724 147.236 118.559 149.909 119.852C154.44 122.018 158.911 125.656 159.884 130.615C158.822 128.94 157.606 127.478 156.198 126.194C154.084 124.264 151.638 122.683 149.109 121.282C146.549 119.852 143.397 118.305 142.424 115.403L142.419 115.398Z" fill="#9FA5BE"/>
<path d="M147.676 115.105C150.364 117.672 154.672 118.115 156.574 121.447C153.293 120.159 148.279 119.087 147.676 115.105Z" fill="#9FA5BE"/>
<path d="M316.268 210.79C324.484 216.91 332.241 223.629 339.128 231.108C342.547 234.864 345.758 238.837 348.312 243.216C350.254 246.476 351.652 250.1 352.205 253.828C353.322 259.991 353.569 266.295 352.966 272.528C351.509 288.34 344.661 301.316 332.374 311.957C324.731 318.822 316.154 324.626 307.316 329.93C298.462 335.224 289.322 340.212 279.545 343.817C272.223 346.558 264.57 348.597 256.759 349.592C212.907 354.401 167.009 352.485 125.419 337.376C105.741 330.241 89.1161 317.383 74.0869 303.614C70.3123 300.16 66.434 296.8 63.0744 292.964C52.9216 281.479 46.6372 267.253 43.1393 252.719C40.8024 243.004 39.6858 233.043 39.6611 223.096C39.7204 225.582 39.839 228.064 40.0218 230.546C41.7708 252.639 48.6134 275.222 63.8402 292.341C67.2047 296.121 71.0929 299.429 74.8626 302.826C87.1843 313.792 100.173 324.338 115.355 331.468C118.626 333.039 122.623 334.724 125.992 336.007C167.335 350.923 212.961 352.584 256.532 347.997C269.367 346.393 281.649 341.948 293.047 336.177C310.408 326.891 329.849 315.472 341.756 300.014C347.695 291.94 350.936 282.225 351.963 272.443C352.615 266.299 352.403 260.066 351.39 253.965C350.886 250.275 349.597 246.797 347.719 243.532C345.259 239.181 342.122 235.19 338.767 231.41C331.989 223.874 324.351 217.046 316.268 210.794V210.79Z" fill="#9FA5BE"/>
<path d="M132.914 127.775C132.37 129.615 133.022 133.631 135.221 134.155C136.491 134.442 137.835 134.329 138.161 132.899C138.595 130.965 137.005 128.978 137.108 126.827C137.108 125.77 137.489 124.883 136.767 124.047C136.071 123.255 135.241 122.495 134.416 121.745C135.473 122.188 136.441 122.759 137.39 123.453C137.627 123.642 137.874 123.892 138.042 124.198C138.506 124.972 138.432 126.029 138.506 126.784C138.783 128.936 140.512 130.852 139.9 133.319C139.243 136.056 136.026 136.537 133.798 135.117C131.713 133.489 131.54 129.828 132.914 127.775Z" fill="#9FA5BE"/>
<path d="M137.449 126.85C136.891 127.109 136.841 127.515 136.673 127.987C136.565 128.416 136.352 128.992 136.397 129.388C136.664 129.941 137.296 130.002 138.077 130.356C136.837 131.587 134.48 130.931 134.608 129.063C134.692 127.869 136.14 125.986 137.454 126.85H137.449Z" fill="#9FA5BE"/>
<path d="M148.541 137.169C153.738 146.361 153.462 157.261 157.083 166.944C160.867 177.707 166.925 187.607 174.044 196.657C176.736 200.13 179.632 203.423 182.922 206.382C190.708 213.568 196.751 215.012 207.057 217.051C202.546 216.489 197.991 215.895 193.628 214.413C184.943 211.308 178.273 204.461 172.695 197.634C164.311 187.229 157.444 175.484 154.277 162.612C152.271 154.09 152.271 145.243 148.541 137.165V137.169Z" fill="#9FA5BE"/>
<path d="M91.0478 161.347C91.6901 164.967 91.0675 168.704 92.4707 172.148C92.6831 172.583 92.9746 172.988 93.5477 173.182C93.2661 173.281 92.9252 173.262 92.6139 173.158C91.695 172.833 91.117 171.997 90.6921 171.205C89.1259 168.095 89.5854 164.4 91.0527 161.343L91.0478 161.347Z" fill="#9FA5BE"/>
<path d="M93.5028 159.036C96.3139 162.509 98.4334 167.35 96.4128 171.682C95.3703 174.116 93.6312 176.084 93.0927 178.708C92.8753 177.844 92.9395 176.924 93.1075 176.042C93.6016 173.583 95.143 171.172 95.3752 168.803C95.7606 165.505 94.3476 162.273 93.4978 159.036H93.5028Z" fill="#9FA5BE"/>
<path d="M95.1533 163.348C93.6761 163.763 92.4508 164.815 92.4014 166.193C92.8115 166.934 94.0318 166.599 94.8322 166.552C94.0614 167.84 92.0605 168.458 90.9687 167.062C89.5013 164.768 92.9795 161.88 95.1533 163.348Z" fill="#9FA5BE"/>
<path d="M101.027 156.468C106.709 160.606 112.144 167.194 110.889 174.413C110.157 171.02 108.784 167.986 106.941 165.066C105.118 162.121 102.875 159.45 101.027 156.468Z" fill="#9FA5BE"/>
<path d="M112.05 163.211C114.372 163.905 115.36 166.481 115.503 168.605C115.676 170.601 115.321 172.743 115.716 174.616C115.973 175.876 116.674 177.013 118.033 177.481C116.417 177.768 114.906 176.395 114.372 175.022C112.707 171.077 115.306 166.552 112.05 163.211Z" fill="#9FA5BE"/>
<path d="M104.55 179.184C112.593 192.132 125.948 200.687 139.45 207.826C147.528 212.408 156.302 215.423 164.914 219.023C158.936 217.249 152.938 215.532 147.123 213.196C130.498 205.92 112.401 195.666 104.55 179.189V179.184Z" fill="#9FA5BE"/>
<path d="M156.307 260.84C152.874 261.906 149 262.529 145.843 263.987C144.351 264.751 142.938 266.035 141.036 266.78C140.092 267.153 139.178 267.299 138.363 267.611C137.558 267.903 136.772 268.366 136.352 269.192C136.362 268.729 136.56 268.267 136.856 267.875C137.676 266.733 139.312 266.195 140.428 265.577C141.91 264.747 143.19 263.435 144.988 262.482C146.767 261.571 148.679 261.264 150.621 261C152.503 260.755 154.41 260.66 156.312 260.84H156.307Z" fill="#9FA5BE"/>
<path d="M153.076 257.537C149.43 258.745 145.774 259.726 142.158 260.91C138.556 262.09 135.177 263.477 132.286 265.95C135.69 259.641 146.209 257.419 153.081 257.537H153.076Z" fill="#9FA5BE"/>
<path d="M134.243 258.863C136.916 257.381 139.801 256.532 142.889 256.348C140.858 258.683 137.291 259.712 134.243 258.863Z" fill="#9FA5BE"/>
<path d="M78.9683 99.4486C94.9824 99.4486 107.964 87.1406 107.964 71.9579C107.964 56.7753 94.9824 44.4673 78.9683 44.4673C62.9542 44.4673 49.9722 56.7753 49.9722 71.9579C49.9722 87.1406 62.9542 99.4486 78.9683 99.4486Z" stroke="#9FA5BE" stroke-miterlimit="10"/>
<path d="M82.8312 43.8494C86.4822 37.6963 90.1333 2 90.1333 2L89.0612 45.6944" stroke="#9FA5BE" stroke-miterlimit="10"/>
<path d="M106.032 62.3135C110.755 61.3886 114.194 58.2083 118.922 55.3393C123.645 52.4657 134.174 55.1364 138.684 51.4418C143.195 47.7471 152.004 44.26 152.004 44.26C145.023 44.1562 139.332 48.0538 135.893 49.5921C132.454 51.1303 119.248 48.8748 114.629 52.0552C110.009 55.2355 101.309 58.9255 102.816 54.9288C104.323 50.9322 135.68 21.488 135.68 21.488L98.3052 50.2102C98.3052 50.2102 99.0562 41.2873 102.386 36.8754C105.716 32.4635 111.086 23.6444 111.62 18.4115C112.159 13.1785 118.71 6.10059 118.71 6.10059C118.71 6.10059 110.331 11.0221 108.829 16.9723C107.327 22.9225 105.178 27.4334 100.667 31.331C96.1561 35.2286 93.0435 45.2793 90.5732 46.7184" stroke="#9FA5BE" stroke-miterlimit="10"/>
<path d="M80.04 44.26C80.04 44.26 79.8276 39.2347 77.461 36.0543C75.0994 32.874 74.9908 28.7735 75.0994 22.309C75.2081 15.8445 73.7013 17.798 69.7291 14.3062C65.7569 10.8192 65.6482 2.81641 65.6482 2.81641C65.6482 2.81641 64.1462 5.99675 65.7569 10.8192C67.3675 15.6416 71.2359 16.255 71.0185 20.0488C70.8061 23.8426 69.9464 35.9458 71.6608 39.7443C73.3801 43.5381 72.7329 45.0763 72.7329 45.0763" stroke="#9FA5BE" stroke-miterlimit="10"/>
<path d="M69.7293 45.081C67.1503 42.3111 50.8267 3.43445 50.8267 3.43445C50.8267 3.43445 49.7546 3.33064 50.8267 6.6148C51.7901 9.56393 62.1208 38.6778 63.1929 47.3129C63.3164 48.3226 62.2789 49.0918 61.2859 48.7237C57.9312 47.4827 51.138 44.6516 49.5372 41.5939C47.3881 37.4887 42.1264 28.5658 39.4437 27.6457C32.3836 25.2203 27.4134 24.8758 26.7712 18.619C26.7712 18.619 23.9797 22.7242 33.431 28.2591C42.8823 33.7987 39.7697 38.9279 43.3121 43.236C46.8545 47.5441 56.5232 50.6206 56.202 53.801" stroke="#9FA5BE" stroke-miterlimit="10"/>
<path d="M54.4825 55.3391L13.0264 35.6436L51.0439 61.0816" stroke="#9FA5BE" stroke-miterlimit="10"/>
<path d="M50.1843 62.724C50.1843 62.724 43.4157 61.9029 39.8733 63.1345C36.331 64.366 31.2817 66.1072 26.5536 63.3374C21.8305 60.5676 17.211 60.9781 14.5234 62.724C11.8407 64.4699 4 63.9555 4 63.9555C4 63.9555 10.7686 66.3148 17.3197 64.9795C23.8709 63.6441 21.4006 66.7254 27.8431 68.2636C34.2856 69.8019 41.5877 67.2397 45.4562 67.8531L49.3246 68.4665" stroke="#9FA5BE" stroke-miterlimit="10"/>
<path d="M49.9718 71.9585L5.29443 84.4723L50.1892 78.3192C50.1892 78.3192 50.1892 81.2919 46.968 81.9101C43.7467 82.5282 37.0869 91.8616 33.2234 93.1923C29.3549 94.5276 25.4914 92.475 22.0528 96.2688C18.6142 100.063 12.4928 106.117 10.4524 106.117C10.4524 106.117 16.0352 105.602 22.2652 99.7559C28.4953 93.9095 32.1463 102.422 39.236 95.8583C46.3257 89.2947 51.5874 86.1144 53.4105 87.445C55.2335 88.7757 53.3018 91.4464 51.2613 93.5981C49.2209 95.7545 23.7672 125.397 23.7672 125.397C23.7672 125.397 57.8125 94.7258 60.4952 94.8296C63.1779 94.9334 62.3232 98.01 60.2828 98.7272C58.2423 99.4444 53.944 102.625 54.4826 112.166C55.0211 121.707 47.9314 119.244 47.1804 125.194C46.4295 131.144 45.6785 136.783 43.4207 138.633C43.4207 138.633 50.0805 133.711 50.9402 126.322C51.5726 120.881 57.9212 121.499 58.7808 115.96C59.6405 110.42 61.3598 104.677 65.0109 103.238C65.0109 103.238 68.2321 101.082 67.5899 98.9301C67.5899 98.9301 69.9514 99.133 69.2005 101.289C68.4495 103.446 59.5368 145.805 59.5368 145.805L75.0007 102.313C75.0007 102.313 76.1815 102.21 76.0728 104.366C75.9641 106.522 75.3218 112.878 76.5026 117.701C77.6834 122.523 75.7516 124.472 74.5709 130.215C73.3901 135.957 79.0816 147.551 78.6517 151.963C78.6517 151.963 78.8642 140.784 78.0095 134.933C77.1498 129.087 81.4481 128.983 81.8779 122.83C82.3078 116.677 82.5202 100.879 82.5202 100.879C82.5202 100.879 83.4886 100.058 83.8097 101.7C84.1308 103.342 92.0258 132.47 92.0258 132.47" stroke="#9FA5BE" stroke-miterlimit="10"/>
<path d="M94.1108 134.937L90.4597 101.497C90.4597 101.497 90.8895 109.396 95.1829 110.934C99.4812 112.472 102.594 112.472 103.775 115.242C104.955 118.012 104.634 120.984 109.787 125.09" stroke="#9FA5BE" stroke-miterlimit="10"/>
<path d="M115.592 127.449C115.592 127.449 108.72 121.706 108.503 118.937C108.246 115.619 107.213 113.605 105.82 110.731C104.422 107.857 98.7301 106.527 95.7263 103.757C92.7175 100.987 94.4368 96.7827 94.4368 96.7827C94.4368 96.7827 96.0474 96.3722 97.1195 97.297C98.1916 98.2219 103.992 103.247 103.992 103.247" stroke="#9FA5BE" stroke-miterlimit="10"/>
<path d="M110.222 102.625L101.413 93.1873C101.413 93.1873 102.055 90.6251 103.345 92.1634C104.634 93.7016 108.285 96.9858 115.375 97.4954C122.465 98.0097 123.216 106.215 127.726 107.754C132.237 109.292 135.029 106.933 138.359 109.396C141.688 111.859 142.227 113.501 142.227 113.501C142.227 113.501 141.688 107.244 136.857 106.319C132.025 105.394 128.907 104.677 125.903 99.8547C122.895 95.0323 115.592 92.1634 110.869 90.1108C106.146 88.0582 105.069 85.5998 105.716 84.5711C106.364 83.5425 154.475 99.3404 154.475 99.3404L108.078 78.6209C108.078 78.6209 108.72 77.597 109.906 77.6961C111.092 77.7952 115.489 79.442 119.678 78.8238C123.868 78.2057 128.912 78.2104 131.279 79.2344C133.64 80.2583 136.758 83.0281 143.309 82.929C149.86 82.8299 156.629 82.929 156.629 82.929C156.629 82.929 150.399 80.5697 144.816 80.3668C139.233 80.1639 139.445 75.5444 132.786 74.3128C126.126 73.0813 109.59 75.1339 108.404 71.8497C107.223 68.5656 159.42 62.6201 159.42 62.6201L107.441 63.2335" stroke="#9FA5BE" stroke-miterlimit="10"/>
<path d="M112.598 107.438C113.942 105.829 116.961 107.825 115.849 109.589C115.133 109.174 114.713 109.018 114.135 108.636C113.562 108.249 113.26 107.928 112.598 107.433V107.438Z" fill="#9FA5BE"/>
<path d="M88.6958 134.282C90.672 133.952 92.0159 136.674 90.4843 137.915C89.4221 136.74 88.9725 135.811 88.6958 134.282Z" fill="#9FA5BE"/>
<path d="M61.0483 60.4972C63.5828 56.0428 70.6429 56.5146 74.1457 59.6384C74.6447 60.1291 75.0499 60.7472 75.1289 61.4126C74.4471 60.2518 73.2268 59.7139 72.0262 59.2703C68.3999 57.9349 64.0571 57.8123 61.0483 60.5019V60.4972Z" fill="#9FA5BE"/>
<path d="M73.2372 73.1711C72.5307 72.4162 70.9844 73.157 71.4191 74.1432C71.8094 75.0869 72.8865 75.3087 73.7609 75.7947C74.6749 76.2618 75.0455 77.3565 76.004 77.7388C77.2193 78.3144 78.8497 78.1729 79.8279 77.2527C80.3121 76.8092 80.7172 75.9693 81.3348 75.5116C82.15 74.8604 83.5729 74.3933 83.726 73.341C83.726 73.0107 83.4988 72.6757 83.2221 72.7417C82.0413 73.0956 81.3941 72.251 81.3595 71.2365C81.1323 68.2968 80.3516 65.1684 81.1915 62.1956C82.0561 59.8175 84.7339 58.7888 87.0609 58.2462C90.0549 57.6563 93.7257 57.5572 96.0181 59.7986C95.2128 59.1663 94.2593 58.7699 93.2662 58.5623C89.9561 57.9725 84.3337 59.0153 82.4613 61.9031C82.0265 62.6722 81.987 63.6631 81.9524 64.5502C81.9277 66.4613 82.2439 68.4053 82.4662 70.3919C82.5057 70.7033 82.5156 71.4819 82.6688 71.6989C82.6638 71.6895 82.6292 71.6989 82.6885 71.6942C83.8693 71.3262 84.9217 72.2463 84.8722 73.3835C84.7537 74.7047 83.5778 75.3794 82.5897 75.9268C81.5967 76.3845 81.3249 77.1961 80.5097 77.9417C79.1956 79.0694 77.1403 79.211 75.6334 78.3899C74.6354 77.9417 74.2748 76.8139 73.4448 76.2571C72.6197 75.7192 71.4191 75.2851 71.1227 74.2234C70.7176 73.0249 72.4616 72.2133 73.2422 73.1617L73.2372 73.1711Z" fill="#9FA5BE"/>
<path d="M85.3411 68.4759C86.2156 66.5885 88.4487 65.4088 90.6078 65.423C92.7865 65.4466 94.743 66.4564 96.319 67.787C95.3062 67.5416 94.3527 67.2161 93.4041 66.9801C90.5781 66.1261 87.6286 66.6215 85.3362 68.4759H85.3411Z" fill="#9FA5BE"/>
<path d="M88.874 66.768C88.7505 67.1833 88.4491 67.7778 88.7307 68.1034C88.9382 68.3205 89.4323 68.4903 89.7732 68.4762C90.7366 68.4951 91.2603 67.5561 90.702 66.6973C91.0281 66.7303 91.3245 66.9851 91.4925 67.2918C91.8581 67.9571 91.5962 68.8867 90.9095 69.2972C88.9432 70.5193 86.3197 68.0043 88.874 66.768Z" fill="#9FA5BE"/>
<path d="M72.6391 68.4759C70.3467 66.6262 67.4021 66.1261 64.5712 66.9801C63.6226 67.2161 62.6691 67.5416 61.6562 67.787C63.2372 66.4564 65.1887 65.4466 67.3675 65.423C69.5265 65.4088 71.7547 66.5838 72.6342 68.4759H72.6391Z" fill="#9FA5BE"/>
<path d="M69.1115 66.768C71.6707 68.009 69.0424 70.5193 67.076 69.2972C66.3893 68.8867 66.1274 67.9619 66.4931 67.2918C66.6561 66.9804 66.9525 66.7303 67.2835 66.6973C66.7253 67.5561 67.249 68.4903 68.2124 68.4762C68.5533 68.4903 69.0473 68.3205 69.2548 68.1034C69.5315 67.7825 69.2351 67.188 69.1115 66.768Z" fill="#9FA5BE"/>
<path d="M72.5895 88.4453C71.0233 89.7382 71.5668 92.0456 73.1329 93.0554C74.6942 94.1548 76.6803 94.2539 78.5922 94.3625C79.5804 94.4332 80.5339 94.4615 81.3886 94.2351C83.7798 93.532 87.3321 91.168 85.5387 88.4453C86.3736 89.0918 86.5811 90.2667 86.3193 91.2387C85.677 93.2725 83.6711 94.5229 81.7147 95.2684C80.6278 95.594 79.5211 95.5515 78.5132 95.4996C76.4678 95.3675 74.1556 95.1505 72.5401 93.7396C70.8356 92.4844 70.4552 89.4834 72.5895 88.4453Z" fill="#9FA5BE"/>
<path d="M69.7388 82.599C72.4017 83.3398 74.6497 81.0324 77.3472 81.424C77.8017 81.4523 78.3699 81.726 78.7454 81.8298C78.7899 81.8298 78.9282 81.7685 79.1406 81.693C81.8184 80.7351 84.3085 82.6603 86.9566 82.5659C86.2649 82.8396 85.4744 82.8774 84.7235 82.8443C82.9943 82.7736 81.2157 82.1271 79.5754 82.7311C79.442 82.7688 79.2592 82.8915 78.9381 82.9481C78.5922 83.0095 78.2662 82.9057 78.0735 82.8255C77.7227 82.665 77.53 82.5895 77.1792 82.5329C74.7683 82.2073 71.9966 84.1467 69.7487 82.6084L69.7388 82.599Z" fill="#9FA5BE"/>
<path d="M75.02 85.7036C77.4952 86.317 79.7926 86.0434 82.2876 85.7178C80.4694 87.6099 76.7295 87.8364 75.02 85.7036Z" fill="#9FA5BE"/>
</svg>
