<svg width="373" height="362" viewBox="0 0 373 362" fill="none" xmlns="http://www.w3.org/2000/svg">
<path d="M329.163 74.7698C322.464 78.993 315.513 82.7348 308.744 86.84C301.946 90.9688 295.355 95.409 289.002 100.132C276.462 109.456 264.837 119.894 254.279 131.237C251.7 134.007 249.774 137.263 247.955 140.538C246.063 143.959 244.22 147.772 245.055 151.556C245.91 155.416 249.299 158.2 251.656 161.437C254.008 164.678 255.065 169.727 251.799 172.134C248.968 174.215 246.103 172.657 243.119 171.912C237.585 170.534 231.637 170.02 225.935 169.619C221.252 169.288 217.714 165.094 216.632 160.729C215.644 156.737 216.435 152.254 216.519 148.187C216.766 136.121 217.393 123.239 214.394 111.429C212.359 103.27 209.073 94.9891 202.512 89.4117C200.037 87.3072 197.013 85.4575 195.936 82.4659C203.322 85.1224 212.127 87.6422 218.628 83.3718C215.783 83.0038 213.065 81.7864 210.956 79.932C213.396 79.4601 215.659 78.1908 217.28 76.3883C209.765 74.9019 202.71 71.3441 197.191 66.248C201.099 65.6818 205.254 66.9605 208.075 69.6029C204.488 63.917 197.147 60.6281 190.279 61.6332C191.979 60.3025 194.084 59.4485 196.262 59.2078C189.583 58.1178 182.365 61.2557 178.832 66.7765C178.452 67.371 178.086 68.0127 177.464 68.3714C176.91 68.6922 176.233 68.7347 175.586 68.763C169.791 69.0178 163.976 68.7536 158.23 67.9797C155.691 67.6353 153.161 67.1964 150.597 67.154C145.444 67.0737 140.276 68.6781 136.161 71.6414C136.161 71.6414 153.126 70.9147 162.795 89.2276C162.795 89.2276 149.1 83.8437 143.784 87.9961C143.784 87.9961 150.389 87.9961 153.774 93.5357C157.158 99.0754 168.753 107.536 175.038 108.616C181.322 109.697 188.407 112.769 187.602 120.309C186.643 129.298 184.687 138.164 183.832 147.177C182.439 161.786 184.178 178.678 189.217 192.627C189.217 192.627 171.174 172.162 168.595 167.085C166.016 162.008 163.6 152.16 161.506 145.544C159.411 138.929 157.637 136.315 162.474 137.235C167.306 138.16 171.98 138.004 173.753 134.158C173.753 134.158 169.406 133.389 168.6 132.002C167.795 130.615 172.469 130.619 174.4 128.001C174.4 128.001 166.021 125.075 165.058 121.847C165.058 121.847 168.121 121.847 170.211 121.234C170.211 121.234 160.221 119.078 158.932 115.388C157.642 111.693 146.526 106.771 142.499 115.081C142.499 115.081 135.089 107.234 129.13 113.698C129.13 113.698 113.019 99.6983 102.708 105.082C102.708 105.082 118.172 113.543 122.041 131.237C122.041 131.237 108.829 122.777 101.419 126.929C101.419 126.929 109.956 130.468 113.982 138.009C118.009 145.549 124.936 150.471 131.057 153.089C137.178 155.704 141.689 188.786 153.611 202.942C153.611 202.942 121.23 192.169 118.493 186.941C115.756 181.708 114.951 182.326 120.425 182.939C125.899 183.553 129.125 178.169 133.636 181.094C133.636 181.094 130.252 176.48 126.225 176.48C122.199 176.48 128.962 174.016 132.347 175.248C132.347 175.248 126.546 170.94 123.646 171.865C120.746 172.79 126.867 168.17 126.867 168.17L119.457 167.557C119.457 167.557 119.294 158.016 113.656 157.402C108.019 156.789 101.093 156.171 101.093 156.171C101.093 156.171 99.8031 152.938 97.5502 153.708C97.5502 153.708 95.1343 135.093 92.3972 132.78C89.6601 130.473 83.6969 125.396 83.6969 125.396C83.6969 125.396 86.1128 147.243 83.6969 152.783C81.281 158.322 80.7968 164.169 80.7968 164.169C80.7968 164.169 77.4125 158.629 75.6438 152.783C73.8751 146.936 67.4277 137.551 64.6906 137.395C64.6906 137.395 67.4277 151.858 65.6589 156.473C63.8902 161.087 63.7272 172.629 74.6804 181.09C78.1832 183.798 82.3284 185.931 85.7275 188.701C86.5328 189.361 87.3233 189.522 87.763 190.489C88.5337 192.178 86.7255 195.566 90.6581 195.599C91.4387 195.604 92.3379 195.387 92.9258 195.878C93.3557 196.236 93.4298 196.831 93.5928 197.355C94.161 199.186 96.2558 200.464 98.2369 200.186C97.4316 201.484 98.4691 203.253 99.9167 203.852C101.364 204.452 103.029 204.23 104.59 203.999C102.639 204.928 103.563 208.113 105.618 208.812C107.673 209.51 109.911 208.59 111.853 207.641C111.651 209.307 112.579 211.053 114.106 211.874C115.633 212.695 117.678 212.553 119.066 211.525C119.234 212.558 119.402 213.587 119.575 214.62C121.453 214.998 123.414 214.998 125.291 214.62C125.529 218.258 130.696 220.584 133.789 218.452C132.86 221.151 134.278 224.256 136.674 225.945C139.071 227.634 142.228 228.078 145.187 227.771C147.618 232.65 150.221 238.02 154.994 241.158C160.127 244.531 166.762 246.188 172.632 247.957C172.632 247.957 162.8 254.483 161.348 254.945C159.9 255.408 149.426 250.482 140.726 254.332L137.183 255.257L131.383 254.95L134.283 256.795L134.604 259.258L128.804 260.183L125.904 262.646L131.383 262.34L127.194 269.111L132.673 266.341L131.062 271.574L136.215 269.417L136.857 274.032L139.115 270.649C139.115 270.649 141.694 272.65 145.236 270.342C148.779 268.035 161.026 262.958 170.369 266.341C170.369 266.341 166.827 266.648 166.501 269.88C166.501 269.88 168.487 268.648 169.989 269.007C169.989 269.007 166.283 270.956 166.338 274.853C166.338 274.853 169.776 271.47 171.387 272.291C171.387 272.291 168.378 276.443 168.808 279.572C168.808 279.572 173.482 275.778 175.68 276.189C175.68 276.189 174.608 282.394 176.219 283.88C176.219 283.88 178.798 277.727 182.231 277.519C182.231 277.519 192.972 277.005 196.356 274.235C199.741 271.465 206.129 269.361 212.359 270.338C218.589 271.314 221.81 273.466 224.28 273.211C224.28 273.211 230.135 275.674 231.474 278.133C231.474 278.133 231.044 271.569 229.542 269.927C229.542 269.927 229.754 263.67 223.905 263.415C218.05 263.161 216.815 261.773 216.815 261.773C216.815 261.773 224.226 258.952 234.107 258.286C243.988 257.621 247.694 256.286 247.748 253.365C247.802 250.439 247.318 246.593 247.318 246.593C247.318 246.593 267.08 252.544 295.004 246.749C295.004 246.749 293.878 254.7 297.475 258.031C301.071 261.363 303.813 265.93 303.813 265.93C303.813 265.93 283.3 266.7 280.617 264.392C277.935 262.085 264.862 261.452 262.253 261.778C256.883 262.443 253.178 267.11 252.911 269.984C252.911 269.984 248.613 270.857 247.595 275.009C247.595 275.009 250.065 273.674 251.355 274.188C251.355 274.188 248.025 277.161 247.274 280.652C247.274 280.652 251.033 277.42 253.716 277.165C253.716 277.165 249.69 279.728 250.174 283.422C250.174 283.422 254.521 280.091 257.046 280.652C257.046 280.652 254.309 285.064 256.186 288.037C256.186 288.037 258.869 283.163 261.018 284.342C263.167 285.522 266.601 284.187 268.968 281.983C271.329 279.78 280.514 277.878 284.273 280.19C288.033 282.497 292.005 286.655 294.263 286.447C296.521 286.239 297.702 290.755 297.702 290.755C297.702 290.755 299.421 286.806 298.561 284.701C297.702 282.597 297.326 278.137 295.34 277.42C293.354 276.703 301.407 276.703 304.846 279.982C308.285 283.267 322.78 283.111 325.147 280.596C324.015 281.799 323.739 286.419 323.116 288.032C320.69 294.341 316.817 300.239 312 305.133C301.649 315.655 287.178 322.054 272.787 325.795C250.658 331.547 226.296 333.397 203.426 333.883C180.235 334.379 156.708 332.123 134.807 324.479C112.446 316.674 89.6552 302.802 72.5214 287.027C62.991 278.255 54.9083 267.832 49.7306 256.149C44.1626 243.583 43.5203 230.635 43.1992 217.206C42.967 207.476 42.9769 197.411 45.2051 187.866C45.2051 187.866 47.1368 194.944 53.9054 197.095C53.9054 197.095 45.047 175.248 54.2265 162.937C54.2265 162.937 29.8992 191.556 23.9409 195.557C23.9409 195.557 36.9889 191.093 39.0837 186.941C39.0837 186.941 28.2886 235.099 37.4731 262.948C46.6576 290.798 82.4173 338.031 147.341 352.187C212.265 366.343 278.799 369.112 334.217 324.182C389.636 279.256 358.703 232.324 356.45 229.71C354.192 227.096 336.959 197.709 314.885 192.938C314.885 192.938 317.785 184.015 337.923 189.092C337.923 189.092 315.532 168.477 352.097 164.782C352.097 164.782 334.054 157.548 348.713 150.013L367.561 147.55C367.561 147.55 354.029 143.086 351.771 142.935C349.513 142.779 344.845 127.085 366.914 121.701C388.983 116.317 332.76 123.858 332.76 123.858C332.76 123.858 337.434 118.167 341.46 116.78C341.46 116.78 301.669 117.704 335.176 100.316C335.176 100.316 307.435 104.624 316.491 91.3935C324.386 79.8518 329.173 74.784 329.173 74.784L329.163 74.7698Z" stroke="#9FA5BE" stroke-miterlimit="10"/>
<path d="M164.885 258.625C168.25 257.918 171.584 257.049 174.746 255.761C175.794 255.336 176.817 254.85 177.76 254.27C179.692 253.015 181.836 252.109 183.946 251.217C190.314 248.575 196.875 246.409 203.589 244.701C208.075 243.606 212.626 242.592 217.457 242.714L217.739 242.724L217.976 242.922C218.446 243.295 226.375 249.924 226.607 250.104L225.634 250.717C222.561 252.642 219.434 254.435 216.104 255.936C214.147 256.823 212.018 257.564 209.81 257.663C205.966 258.172 202.216 259.347 198.545 260.541C193.713 261.037 184.158 261.971 179.321 262.414C176.984 261.541 174.598 260.735 172.182 260.041C169.796 259.394 167.375 258.696 164.88 258.625H164.885ZM164.885 258.625C167.39 258.526 169.88 259.078 172.306 259.626C174.741 260.201 177.143 260.881 179.524 261.641L179.331 261.617C183.748 261.041 194.405 259.612 198.135 259.206C201.86 257.88 205.65 256.672 209.597 256.082C210.007 256.044 210.921 255.936 211.331 255.865C216.094 254.61 220.476 251.845 224.631 249.301L224.542 250.651L216.825 244.172L217.344 244.375C212.887 244.243 208.332 245.177 203.975 246.168C197.354 247.744 190.714 249.759 184.346 252.137C182.217 252.954 180.102 253.765 178.15 254.893C177.128 255.454 176.051 255.898 174.964 256.285C171.708 257.436 168.304 258.158 164.88 258.63L164.885 258.625Z" fill="#9FA5BE"/>
<path d="M195.012 226.006C181.109 223.231 160.814 215.214 153.61 202.927C154.9 204.437 156.303 205.824 157.805 207.098C162.311 210.93 167.513 213.926 172.839 216.597C180.003 220.192 187.473 223.151 195.012 226.006Z" fill="#9FA5BE"/>
<path d="M189.212 192.617C195.655 200.276 204.578 205.575 213.876 209.5C215.97 210.435 218.347 211.265 220.466 212.157C218.199 211.789 215.664 211.242 213.461 210.548C203.995 207.688 193.649 201.356 189.212 192.617Z" fill="#9FA5BE"/>
<path d="M240.441 214.313C245.258 215.908 247.506 221.221 247.165 225.808C246.982 228.912 246.211 231.918 245.065 234.844C244.729 235.726 243.914 236.981 243.41 237.694C243.361 237.741 243.435 238.104 243.544 238.43C244.556 241.219 245.53 244.13 247.318 246.574C246.691 246.102 246.177 245.503 245.688 244.899C244.24 243.054 243.173 240.997 242.224 238.878C242.012 238.368 241.785 237.788 241.997 237.175C242.061 237 242.165 236.816 242.269 236.66C243.603 234.674 244.156 232.333 244.719 230.031C246.256 224.458 246.063 217.819 240.446 214.318L240.441 214.313Z" fill="#9FA5BE"/>
<path d="M171.298 81.5172C172.889 81.1539 174.504 80.7859 176.154 81.2153C178.674 81.8334 180.789 83.8718 181.372 86.3161C181.767 87.8779 181.401 89.3549 181.51 90.8554C181.554 91.5585 181.713 92.2521 182.113 92.9174C181.411 92.5163 180.947 91.7802 180.65 91.0394C180.107 89.6474 180.176 88.0667 179.726 86.736C179.094 84.858 177.587 83.3103 175.695 82.4798C174.351 81.8523 172.765 81.8617 171.293 81.5125L171.298 81.5172Z" fill="#9FA5BE"/>
<path d="M171.406 85.5467C172.147 86.2073 172.775 86.8396 173.432 87.4766C174.079 88.1325 174.707 88.7507 175.369 89.4868C173.061 90.3739 170.389 87.7078 171.406 85.542V85.5467Z" fill="#9FA5BE"/>
<path d="M176.154 82.2866C174.909 83.4663 176.085 85.5802 177.696 85.6982C178.249 85.7501 178.882 85.684 179.593 85.3065C179.509 86.104 178.773 86.7929 177.884 87.0288C175.922 87.6328 173.877 85.7265 174.287 83.8438C174.415 83.018 175.226 82.0696 176.149 82.2819L176.154 82.2866Z" fill="#9FA5BE"/>
<path d="M177.454 68.6071C179.089 68.022 180.887 68.4136 182.552 68.7204C184.301 69.145 185.719 70.2209 187.073 71.2448C189.677 73.2785 192.073 75.5671 193.896 78.2897C192.458 77.4168 191.139 76.4589 189.82 75.501C188.511 74.5384 187.221 73.5617 185.941 72.5755C184.642 71.5846 183.471 70.5559 182.113 69.9991C180.591 69.4517 179.109 68.7392 177.454 68.6118V68.6071Z" fill="#9FA5BE"/>
<path d="M192.962 73.3114C195.853 75.2035 198.318 77.4354 201.5 78.818C202.517 79.2804 203.58 79.6532 204.77 79.9929C199.805 81.333 194.795 77.5345 192.962 73.3066V73.3114Z" fill="#9FA5BE"/>
<path d="M147.638 70.287C148.705 68.3429 151.817 68.8525 152.81 70.6173C150.953 71.1552 149.476 70.6503 147.638 70.287Z" fill="#9FA5BE"/>
<path d="M195.338 92.0303C194.612 96.9754 196.094 101.807 197.838 106.413C199.622 111.051 201.262 115.845 201.899 120.79C202.64 125.726 202.542 130.765 202.146 135.715C201.647 141.887 200.822 147.936 201.168 154.066C201.415 157.704 201.959 161.375 202.645 164.961C203.574 169.76 204.967 174.498 207.265 178.815C210.832 185.218 216.286 190.871 223 194.344C225.268 195.5 227.748 196.279 230.288 196.642C227.699 196.453 225.14 195.816 222.793 194.75C215.684 191.541 209.893 185.973 206.025 179.438C202.26 172.775 200.733 165.301 199.77 157.893C199.449 155.43 199.266 152.891 199.301 150.4C199.395 142.921 200.798 135.668 200.887 128.246C200.931 123.367 200.412 118.478 199.177 113.736C198.579 111.362 197.759 109.027 197.008 106.658C195.521 101.958 194.217 96.9235 195.338 92.0161V92.0303Z" fill="#9FA5BE"/>
<path d="M142.796 115.689C144.742 118.016 147.613 118.851 150.286 120.144C154.816 122.31 159.287 125.948 160.261 130.907C159.198 129.232 157.983 127.769 156.575 126.486C154.46 124.556 152.015 122.975 149.485 121.574C146.926 120.144 143.774 118.596 142.801 115.694L142.796 115.689Z" fill="#9FA5BE"/>
<path d="M148.052 115.396C150.74 117.963 155.048 118.407 156.95 121.738C153.67 120.45 148.655 119.379 148.052 115.396Z" fill="#9FA5BE"/>
<path d="M259.388 142.944C267.93 134.408 278.765 128.354 289.298 122.352C299.965 116.487 310.908 111.098 322.108 106.214C309.075 113.754 295.326 120.804 282.263 128.278C274.353 132.766 266.483 137.296 259.388 142.949V142.944Z" fill="#9FA5BE"/>
<path d="M272.238 128.849C278.355 124.192 284.945 120.167 291.679 116.388C298.458 112.684 305.394 109.225 312.667 106.479C299.797 114.005 285.474 121.923 272.238 128.849Z" fill="#9FA5BE"/>
<path d="M265.939 145.285C274.674 139.773 284.417 135.517 294.15 131.851C306.733 127.17 319.653 123.324 332.563 119.568C321.397 124.296 306.269 129.237 294.782 133.413C285.03 136.961 275.287 140.83 265.939 145.29V145.285Z" fill="#9FA5BE"/>
<path d="M274.698 146.464C286.59 141.283 299.347 137.537 312 134.423C324.702 131.398 337.666 128.911 350.605 127.033C338.194 130.209 324.904 133.04 312.439 136.084C299.792 139.118 287.084 142.572 274.698 146.464Z" fill="#9FA5BE"/>
<path d="M292.786 135.498C299.041 132.945 305.76 130.841 312.252 128.892C318.773 127.019 325.562 125.16 332.241 123.919C325.987 126.476 319.272 128.581 312.776 130.525C306.254 132.393 299.466 134.252 292.786 135.498Z" fill="#9FA5BE"/>
<path d="M281.279 149.46C292.712 146.455 304.455 144.619 316.239 143.397C325.729 142.463 335.581 142.029 345.111 142.444C347.33 142.552 349.548 142.741 351.761 142.92C328.126 143.378 304.633 146.096 281.279 149.46Z" fill="#9FA5BE"/>
<path d="M282.648 153.179C294.051 150.805 305.651 149.394 317.276 148.507C328.901 147.738 340.68 147.436 352.241 149.078C329.316 148.602 305.498 151.187 282.648 153.183V153.179Z" fill="#9FA5BE"/>
<path d="M281.462 145.591C281.29 149.357 276.887 150.626 273.617 151.046V150.602C275.914 150.852 278.241 150.786 280.504 150.409L280.662 150.381L280.795 150.484C282.283 151.678 281.497 153.905 280.128 154.887C278.74 155.802 276.981 155.783 275.41 155.821C274.373 155.821 273.34 155.764 272.337 155.736V154.674C274.185 154.594 276.053 154.674 277.885 154.925C279.526 155.033 280.005 155.915 280.212 157.364C280.321 158.383 280.445 159.87 279.358 160.469C279.007 160.639 278.572 160.667 278.251 160.71L275.85 161.012L271.048 161.611L270.84 160.172C273.572 159.856 277.574 158.709 279.684 161.026C281.433 163.055 280.138 165.796 277.629 166.49C275.652 167.113 273.607 166.664 271.7 166.513C270.816 166.447 269.971 166.476 269.23 166.702L269.348 165.164C270.875 165.839 272.658 165.532 274.417 165.872C277.441 166.358 279.926 169.628 276.981 171.869C275.642 172.766 273.918 172.855 272.406 172.558C270.727 172.228 269.121 171.732 267.481 172.081L267.451 170.435C269.645 170.84 271.759 171.468 273.755 172.464C274.595 172.959 275.114 173.846 275.183 174.837C275.114 177.154 272.821 178.546 270.751 179.192C267.906 179.839 264.828 178.914 262.11 178.985L262.298 177.503C264.462 178.305 265.944 179.919 266.868 181.858C268.044 184.515 265.786 186.322 263.173 186.454L260.806 186.596C259.754 186.662 257.738 186.789 256.695 186.893C256.666 186.893 256.305 186.936 256.261 186.95C256.276 186.95 256.29 186.94 256.305 186.936C256.444 186.86 256.493 186.86 256.621 186.629C256.686 186.492 256.681 186.327 256.646 186.223L256.246 185.831C258.049 186.426 259.773 187.233 261.389 188.2C264.353 189.776 262.204 191.867 259.927 192.65C257.768 193.49 255.292 193.589 253.074 192.914L253.311 192.268C254.645 192.829 255.999 193.513 256.834 194.717C258.356 196.949 255.905 199.105 253.514 198.77C251.379 198.496 249.537 197.335 247.575 196.571C248.889 197.057 250.199 197.581 251.513 198.043C252.783 198.473 254.26 198.737 255.485 198.09C257.733 196.878 256.77 194.745 254.887 193.754C254.309 193.414 253.682 193.141 253.044 192.905L253.282 192.258C255.693 192.891 258.351 192.551 260.5 191.352C261.088 191.027 262.189 190.295 261.596 189.621C259.843 188.375 257.629 187.535 255.549 186.87L255.446 186.568C255.411 186.464 255.406 186.294 255.47 186.157C255.539 186.011 255.648 185.926 255.638 185.94C255.806 185.798 256.028 185.775 256.236 185.742C256.76 185.662 257.792 185.577 258.336 185.52L260.702 185.322C261.903 185.19 263.968 185.256 264.951 184.548C266.814 183.34 264.719 181.004 263.558 179.971C263.029 179.513 262.397 179.122 261.863 178.961L257.446 177.626L262.051 177.48C265.668 177.277 269.462 178.966 272.426 176.517C273.143 175.913 273.592 175.281 273.404 174.606C273.345 174.512 273.325 174.412 273.266 174.318L273.123 174.125C273.049 174.011 272.98 173.95 272.851 173.879C270.015 172.421 266.048 171.902 262.896 171.355L267.095 170.444C268.093 170.227 269.131 170.241 270.079 170.378C271.789 170.581 273.36 171.293 275.015 170.873C277.856 170.1 276.127 167.858 274.062 167.523C272.327 167.212 270.351 167.49 268.582 166.66L266.606 165.744L268.701 165.121C271.818 164.083 275.287 166.23 278.093 164.48C279.294 163.682 278.938 161.922 277.624 161.427C276.453 161.016 275.109 161.139 273.829 161.248C272.915 161.337 272.006 161.479 271.063 161.616L270.855 160.176C272.752 159.95 277.031 159.568 278.74 159.308C278.809 159.237 278.918 158.879 278.938 158.558C278.972 157.808 278.928 156.916 278.543 156.335C278.212 156.109 277.525 156.109 277.11 156.019C275.544 155.807 273.958 155.708 272.372 155.736V154.674C274.768 154.693 279.145 155.613 280.46 153.24C280.889 152.532 280.993 151.593 280.316 151.018L280.608 151.098C278.261 151.404 275.875 151.386 273.543 151.041L271.927 150.805L273.538 150.598C276.769 150.291 281.092 149.248 281.453 145.586L281.462 145.591Z" fill="#9FA5BE"/>
<path d="M279.422 164.154C289.664 162.847 300.192 162.55 310.523 162.748C320.873 163.045 331.327 163.847 341.51 165.65C332.394 165.254 319.465 164.645 310.478 164.456C301.684 164.211 288.33 164.187 279.422 164.149V164.154Z" fill="#9FA5BE"/>
<path d="M279.422 160.341C300.874 158.803 322.553 159.445 343.861 162.276C323.052 161.828 300.222 161.134 279.422 160.341Z" fill="#9FA5BE"/>
<path d="M277.377 169.826C293.863 170.454 316.773 173.992 330.982 182.104C314.125 175.705 295.138 173.12 277.377 169.826Z" fill="#9FA5BE"/>
<path d="M274.274 174.516C283.627 174.129 293.073 175.3 302.188 177.267C309.589 178.89 316.921 181.269 323.764 184.435C325.261 185.185 326.94 186.039 328.403 186.827C326.817 186.28 325.063 185.638 323.492 185.043C307.643 179.537 291.023 176.276 274.274 174.516Z" fill="#9FA5BE"/>
<path d="M265.465 179.542C276.872 179.91 288.003 183.439 298.151 188.304C298.645 188.559 301.437 190.045 301.99 190.338C303.467 191.121 305.004 192.15 306.451 193.009C307.484 193.613 309.712 195.255 310.715 195.944C312.578 197.274 314.302 198.794 316.051 200.261C314.065 199.091 312.207 197.774 310.211 196.633C296.551 188.413 281.363 182.42 265.465 179.542Z" fill="#9FA5BE"/>
<path d="M267.184 182.208C281.961 183.991 298.527 189.819 310.172 198.798C311.936 200.101 313.512 201.63 315.083 203.135C300.938 192.848 284.11 186.908 267.184 182.208Z" fill="#9FA5BE"/>
<path d="M258.162 199.44C260.04 200.365 261.883 201.393 263.898 202.021C267.9 203.347 272.03 203.72 276.265 203.545C282.198 203.441 289.525 203.408 295.424 203.569C299.683 203.668 303.942 203.828 308.21 204.159C303.956 204.541 299.693 204.753 295.434 204.904C289.54 205.135 282.183 205.187 276.25 205.159C269.649 205.291 263.241 203.588 258.162 199.44Z" fill="#9FA5BE"/>
<path d="M255.801 202.314C261.176 207.273 270.87 208.236 278.038 208.288C288.201 208.071 298.715 207.778 308.858 208.264C299.891 209.217 290.518 209.623 281.492 209.93C280.247 209.925 277.485 210.001 276.29 209.901C269.427 209.614 260.139 207.854 255.801 202.314Z" fill="#9FA5BE"/>
<path d="M316.644 211.081C324.86 217.201 332.617 223.92 339.504 231.399C342.923 235.155 346.134 239.129 348.689 243.507C350.63 246.768 352.028 250.392 352.582 254.12C353.698 260.282 353.945 266.586 353.343 272.819C351.885 288.632 345.038 301.608 332.75 312.248C325.107 319.114 316.531 324.918 307.692 330.221C298.839 335.516 289.698 340.503 279.921 344.108C272.599 346.85 264.946 348.888 257.135 349.884C213.283 354.692 167.385 352.776 125.796 337.667C106.117 330.533 89.4925 317.675 74.4634 303.906C70.6888 300.452 66.8104 297.092 63.4509 293.256C53.298 281.771 47.0137 267.544 43.5157 253.011C41.1789 243.295 40.0623 233.334 40.0376 223.387C40.0969 225.874 40.2155 228.356 40.3983 230.838C42.1472 252.93 48.9899 275.514 64.2167 292.633C67.5812 296.413 71.4694 299.72 75.239 303.118C87.5608 314.084 100.549 324.63 115.732 331.76C119.002 333.331 122.999 335.016 126.369 336.299C167.711 351.215 213.337 352.875 256.908 348.289C269.744 346.685 282.026 342.24 293.424 336.469C310.785 327.183 330.226 315.764 342.133 300.305C348.071 292.232 351.312 282.516 352.34 272.734C352.992 266.591 352.779 260.358 351.767 254.256C351.263 250.566 349.973 247.089 348.096 243.824C345.635 239.473 342.498 235.481 339.144 231.701C332.365 224.166 324.727 217.338 316.644 211.086V211.081Z" fill="#9FA5BE"/>
<path d="M212.734 220.928C210.225 228.511 212.097 237.335 218.07 242.969L216.746 244.12C210.985 237.868 209.553 228.606 212.739 220.928H212.734Z" fill="#9FA5BE"/>
<path d="M133.29 128.066C132.747 129.907 133.399 133.922 135.597 134.446C136.867 134.734 138.211 134.62 138.537 133.191C138.972 131.256 137.381 129.27 137.485 127.118C137.485 126.061 137.865 125.174 137.144 124.339C136.447 123.546 135.617 122.786 134.792 122.036C135.849 122.479 136.818 123.05 137.766 123.744C138.003 123.933 138.251 124.183 138.419 124.49C138.883 125.263 138.809 126.32 138.883 127.075C139.16 129.227 140.889 131.143 140.276 133.611C139.619 136.347 136.403 136.829 134.175 135.408C132.09 133.781 131.917 130.119 133.29 128.066Z" fill="#9FA5BE"/>
<path d="M137.826 127.141C137.267 127.401 137.218 127.807 137.05 128.279C136.941 128.708 136.729 129.284 136.773 129.68C137.04 130.232 137.672 130.293 138.453 130.647C137.213 131.879 134.856 131.223 134.985 129.354C135.069 128.161 136.516 126.278 137.831 127.141H137.826Z" fill="#9FA5BE"/>
<path d="M148.917 137.461C154.115 146.653 153.838 157.553 157.459 167.235C161.244 177.998 167.301 187.898 174.42 196.948C177.113 200.421 180.008 203.715 183.299 206.673C191.085 213.86 197.127 215.304 207.433 217.342C202.922 216.781 198.367 216.186 194.005 214.705C185.319 211.6 178.649 204.753 173.072 197.925C164.687 187.521 157.82 175.776 154.653 162.904C152.647 154.382 152.647 145.534 148.917 137.456V137.461Z" fill="#9FA5BE"/>
<path d="M91.4243 161.639C92.0665 165.258 91.444 168.995 92.8471 172.44C93.0596 172.874 93.3511 173.28 93.9242 173.473C93.6426 173.572 93.3017 173.554 92.9904 173.45C92.0715 173.124 91.4934 172.289 91.0685 171.496C89.5024 168.387 89.9619 164.692 91.4292 161.634L91.4243 161.639Z" fill="#9FA5BE"/>
<path d="M93.8792 159.327C96.6904 162.8 98.8099 167.641 96.7892 171.973C95.7468 174.408 94.0077 176.375 93.4692 178.999C93.2518 178.135 93.316 177.215 93.484 176.333C93.978 173.874 95.5195 171.463 95.7517 169.094C96.1371 165.796 94.7241 162.564 93.8743 159.327H93.8792Z" fill="#9FA5BE"/>
<path d="M95.5298 163.64C94.0525 164.055 92.8273 165.107 92.7779 166.485C93.1879 167.226 94.4083 166.891 95.2086 166.844C94.4379 168.132 92.437 168.75 91.3451 167.353C89.8778 165.06 93.3559 162.172 95.5298 163.64Z" fill="#9FA5BE"/>
<path d="M101.404 156.76C107.085 160.898 112.52 167.485 111.265 174.705C110.534 171.312 109.16 168.278 107.318 165.357C105.495 162.413 103.252 159.742 101.404 156.76Z" fill="#9FA5BE"/>
<path d="M112.427 163.503C114.749 164.197 115.737 166.773 115.88 168.897C116.053 170.893 115.697 173.035 116.092 174.908C116.349 176.168 117.051 177.305 118.41 177.772C116.794 178.06 115.282 176.687 114.749 175.314C113.084 171.369 115.682 166.844 112.427 163.503Z" fill="#9FA5BE"/>
<path d="M104.927 179.475C112.97 192.423 126.324 200.978 139.827 208.117C147.904 212.699 156.679 215.714 165.29 219.315C159.312 217.54 153.314 215.823 147.499 213.487C130.874 206.211 112.777 195.957 104.927 179.48V179.475Z" fill="#9FA5BE"/>
<path d="M294.249 247.046C296.907 245.168 300.869 245.739 303.453 247.438C306.116 249.005 308.112 251.015 311.244 251.656C310.483 251.873 309.658 251.869 308.853 251.76C303.112 250.656 301.076 245.994 294.249 247.046Z" fill="#9FA5BE"/>
<path d="M317.172 240.369C312.928 244.286 310.883 249.995 311.767 255.507C312.207 259.263 313.837 262.863 313.872 266.699C313.778 271.772 308.714 272.994 304.312 272.862C296.318 272.843 288.537 271.196 280.82 269.408C278.908 268.926 277.095 267.968 275.296 267.284C273.567 266.605 271.685 266.491 269.733 266.463C265.84 266.421 261.902 266.425 258.128 267.416C256.25 267.898 254.457 268.686 252.851 269.771C254.338 268.539 256.097 267.581 257.98 266.963C261.734 265.685 265.781 265.472 269.723 265.34C270.716 265.307 271.724 265.302 272.747 265.397C275.775 265.59 278.374 267.275 281.245 267.959C288.804 269.521 296.56 271.102 304.312 271.186C312.489 271.271 313.254 268.214 311.565 261.244C310.987 258.479 310.379 255.601 310.547 252.737C310.809 247.966 313.304 243.281 317.177 240.365L317.172 240.369Z" fill="#9FA5BE"/>
<path d="M266.636 268.473C263.202 269.922 258.938 271.37 255.47 272.739C254.23 273.206 252.985 273.687 251.651 274.103C253.509 272.111 255.94 270.724 258.509 269.743C261.088 268.794 263.859 268.228 266.641 268.473H266.636Z" fill="#9FA5BE"/>
<path d="M273.858 271.54C270.953 272.427 266.833 273.423 263.879 274.216C260.904 274.994 256.863 276.164 253.879 276.83C256.72 274.81 260.015 273.484 263.399 272.569C266.798 271.691 270.336 271.21 273.858 271.54Z" fill="#9FA5BE"/>
<path d="M275.558 274.376C272.737 276.089 269.699 277.33 266.532 278.302C264.956 278.774 263.331 279.156 261.7 279.411C260.09 279.675 258.548 279.86 257.101 280.695C258.024 279.312 259.803 278.619 261.349 278.109C262.906 277.609 264.442 277.132 265.994 276.67C269.141 275.75 272.268 274.82 275.558 274.381V274.376Z" fill="#9FA5BE"/>
<path d="M170.67 266.336C171.357 266.076 171.866 265.383 172.35 264.916C173.491 263.811 174.919 262.995 176.485 262.575C177.271 262.368 178.086 262.254 178.946 262.339C178.338 262.924 177.706 263.368 177.083 263.797C175.823 264.632 174.559 265.35 173.18 266.001C172.484 266.336 171.446 266.765 170.67 266.341V266.336Z" fill="#9FA5BE"/>
<path d="M156.684 261.131C153.25 262.197 149.377 262.82 146.22 264.278C144.728 265.043 143.315 266.326 141.412 267.072C140.469 267.445 139.555 267.591 138.74 267.902C137.934 268.195 137.149 268.657 136.729 269.483C136.739 269.021 136.936 268.558 137.233 268.167C138.053 267.025 139.688 266.487 140.805 265.869C142.287 265.038 143.566 263.726 145.365 262.773C147.143 261.862 149.055 261.556 150.997 261.292C152.879 261.046 154.786 260.952 156.689 261.131H156.684Z" fill="#9FA5BE"/>
<path d="M153.453 257.828C149.807 259.036 146.151 260.018 142.534 261.202C138.932 262.382 135.553 263.769 132.663 266.241C136.067 259.933 146.585 257.71 153.458 257.828H153.453Z" fill="#9FA5BE"/>
<path d="M134.619 259.154C137.292 257.673 140.177 256.823 143.265 256.639C141.235 258.975 137.667 260.004 134.619 259.154Z" fill="#9FA5BE"/>
<path d="M171.712 272.078C172.355 267.152 177.073 267.28 181.05 266.614C183.268 266.161 185.259 265.255 187.493 264.609C185.245 266.713 182.3 268.365 179.113 268.639C175.808 268.955 173.565 269.129 171.708 272.083L171.712 272.078Z" fill="#9FA5BE"/>
<path d="M169.312 269.021C171.609 268.058 172.652 265.704 175.082 264.84C176.579 264.213 178.091 264.859 179.593 264.59C178.719 265.751 176.935 265.657 175.774 266.322C173.832 267.327 171.841 269.757 169.312 269.021Z" fill="#9FA5BE"/>
<path d="M175.651 275.858C174.895 275.155 175.112 273.885 175.804 273.159C177.217 271.658 179.603 271.998 181.357 271.833C182.182 271.762 182.997 271.55 183.807 271.276C187.118 270.172 190.438 267.784 194.153 267.808C188.62 270.077 185.379 274.381 178.684 273.31C177.083 273.154 175.048 274.003 175.651 275.862V275.858Z" fill="#9FA5BE"/>
<path d="M79.3447 99.7403C95.3588 99.7403 108.341 87.4324 108.341 72.2497C108.341 57.067 95.3588 44.759 79.3447 44.759C63.3306 44.759 50.3486 57.067 50.3486 72.2497C50.3486 87.4324 63.3306 99.7403 79.3447 99.7403Z" stroke="#9FA5BE" stroke-miterlimit="10"/>
<path d="M83.2075 44.1409C86.8586 37.9878 90.5097 2.2915 90.5097 2.2915L89.4376 45.9859" stroke="#9FA5BE" stroke-miterlimit="10"/>
<path d="M106.409 62.6047C111.132 61.6799 114.57 58.4995 119.299 55.6306C124.022 52.757 134.55 55.4277 139.061 51.733C143.572 48.0383 152.381 44.5513 152.381 44.5513C145.4 44.4475 139.708 48.3451 136.269 49.8833C132.831 51.4216 119.625 49.1661 115.005 52.3464C110.386 55.5268 101.686 59.2168 103.192 55.2201C104.699 51.2234 136.057 21.7793 136.057 21.7793L98.6817 50.5015C98.6817 50.5015 99.4326 41.5786 102.763 37.1667C106.093 32.7548 111.463 23.9357 111.996 18.7027C112.535 13.4698 119.086 6.39185 119.086 6.39185C119.086 6.39185 110.707 11.3134 109.205 17.2635C107.703 23.2137 105.554 27.7247 101.043 31.6223C96.5325 35.5199 93.42 45.5705 90.9497 47.0097" stroke="#9FA5BE" stroke-miterlimit="10"/>
<path d="M80.4165 44.5515C80.4165 44.5515 80.204 39.5262 77.8375 36.3458C75.4759 33.1655 75.3672 29.065 75.4759 22.6005C75.5846 16.136 74.0777 18.0895 70.1055 14.5977C66.1333 11.1107 66.0246 3.10791 66.0246 3.10791C66.0246 3.10791 64.5227 6.28826 66.1333 11.1107C67.7439 15.9331 71.6124 16.5465 71.395 20.3403C71.1826 24.1341 70.3229 36.2373 72.0373 40.0358C73.7566 43.8296 73.1094 45.3678 73.1094 45.3678" stroke="#9FA5BE" stroke-miterlimit="10"/>
<path d="M70.1057 45.3725C67.5267 42.6026 51.2032 3.72595 51.2032 3.72595C51.2032 3.72595 50.1311 3.62214 51.2032 6.9063C52.1666 9.85544 62.4973 38.9693 63.5694 47.6044C63.6929 48.6141 62.6554 49.3833 61.6623 49.0152C58.3077 47.7742 51.5144 44.9431 49.9137 41.8854C47.7645 37.7802 42.5029 28.8573 39.8201 27.9372C32.7601 25.5118 27.7899 25.1673 27.1476 18.9105C27.1476 18.9105 24.3562 23.0157 33.8075 28.5506C43.2588 34.0902 40.1462 39.2194 43.6886 43.5275C47.231 47.8356 56.8996 50.9121 56.5785 54.0925" stroke="#9FA5BE" stroke-miterlimit="10"/>
<path d="M54.859 55.6308L13.4028 35.9353L51.4204 61.3734" stroke="#9FA5BE" stroke-miterlimit="10"/>
<path d="M50.5607 63.0155C50.5607 63.0155 43.7922 62.1944 40.2498 63.426C36.7074 64.6576 31.6582 66.3987 26.9301 63.6289C22.2069 60.8591 17.5875 61.2696 14.8998 63.0155C12.2171 64.7614 4.37646 64.247 4.37646 64.247C4.37646 64.247 11.145 66.6063 17.6962 65.271C24.2474 63.9356 21.7771 67.0169 28.2196 68.5551C34.662 70.0934 41.9642 67.5312 45.8326 68.1446L49.7011 68.758" stroke="#9FA5BE" stroke-miterlimit="10"/>
<path d="M50.3483 72.25L5.6709 84.7638L50.5657 78.6107C50.5657 78.6107 50.5657 81.5834 47.3445 82.2016C44.1232 82.8197 37.4634 92.1531 33.5998 93.4838C29.7314 94.8191 25.8679 92.7665 22.4293 96.5603C18.9906 100.354 12.8693 106.408 10.8288 106.408C10.8288 106.408 16.4117 105.894 22.6417 100.047C28.8717 94.201 32.5228 102.713 39.6125 96.1498C46.7022 89.5862 51.9639 86.4059 53.7869 87.7365C55.61 89.0672 53.6782 91.7379 51.6378 93.8896C49.5973 96.046 24.1436 125.688 24.1436 125.688C24.1436 125.688 58.189 95.0173 60.8717 95.1211C63.5544 95.2249 62.6997 98.3015 60.6592 99.0187C58.6188 99.7359 54.3205 102.916 54.859 112.457C55.3976 121.998 48.3079 119.535 47.5569 125.485C46.8059 131.436 46.055 137.074 43.7971 138.924C43.7971 138.924 50.457 134.003 51.3167 126.613C51.949 121.173 58.2977 121.791 59.1573 116.251C60.017 110.711 61.7363 104.969 65.3873 103.53C65.3873 103.53 68.6086 101.373 67.9663 99.2216C67.9663 99.2216 70.3279 99.4245 69.5769 101.581C68.826 103.737 59.9132 146.096 59.9132 146.096L75.3771 102.605C75.3771 102.605 76.5579 102.501 76.4492 104.657C76.3406 106.814 75.6983 113.17 76.8791 117.992C78.0599 122.815 76.1281 124.763 74.9473 130.506C73.7665 136.249 79.458 147.842 79.0282 152.254C79.0282 152.254 79.2407 141.076 78.3859 135.225C77.5263 129.378 81.8246 129.274 82.2544 123.121C82.6842 116.968 82.8967 101.17 82.8967 101.17C82.8967 101.17 83.865 100.349 84.1862 101.991C84.5073 103.634 92.4023 132.762 92.4023 132.762" stroke="#9FA5BE" stroke-miterlimit="10"/>
<path d="M94.487 135.229L90.8359 101.788C90.8359 101.788 91.2658 109.687 95.5591 111.226C99.8574 112.764 102.97 112.764 104.151 115.534C105.332 118.303 105.01 121.276 110.163 125.381" stroke="#9FA5BE" stroke-miterlimit="10"/>
<path d="M115.969 127.741C115.969 127.741 109.096 121.998 108.879 119.228C108.622 115.911 107.59 113.896 106.196 111.023C104.798 108.149 99.1066 106.818 96.1028 104.049C93.094 101.279 94.8133 97.0744 94.8133 97.0744C94.8133 97.0744 96.4239 96.6639 97.496 97.5888C98.5681 98.5136 104.368 103.539 104.368 103.539" stroke="#9FA5BE" stroke-miterlimit="10"/>
<path d="M110.599 102.916L101.79 93.4791C101.79 93.4791 102.432 90.9169 103.721 92.4551C105.011 93.9934 108.662 97.2775 115.752 97.7872C122.841 98.3015 123.592 106.507 128.103 108.045C132.614 109.584 135.405 107.224 138.735 109.688C142.065 112.151 142.603 113.793 142.603 113.793C142.603 113.793 142.065 107.536 137.233 106.611C132.401 105.686 129.284 104.969 126.28 100.146C123.271 95.324 115.969 92.4551 111.246 90.4025C106.523 88.3499 105.446 85.8915 106.093 84.8629C106.74 83.8342 154.851 99.6321 154.851 99.6321L108.454 78.9127C108.454 78.9127 109.097 77.8888 110.282 77.9878C111.468 78.0869 115.865 79.7337 120.055 79.1156C124.244 78.4975 129.289 78.5022 131.655 79.5261C134.017 80.5501 137.134 83.3199 143.685 83.2208C150.237 83.1217 157.005 83.2208 157.005 83.2208C157.005 83.2208 150.775 80.8615 145.192 80.6586C139.609 80.4557 139.822 75.8362 133.162 74.6046C126.502 73.373 109.966 75.4256 108.78 72.1415C107.6 68.8573 159.797 62.9119 159.797 62.9119L107.817 63.5253" stroke="#9FA5BE" stroke-miterlimit="10"/>
<path d="M112.975 107.729C114.318 106.12 117.337 108.116 116.225 109.881C115.509 109.465 115.089 109.31 114.511 108.927C113.938 108.54 113.637 108.22 112.975 107.724V107.729Z" fill="#9FA5BE"/>
<path d="M89.0723 134.573C91.0485 134.243 92.3923 136.966 90.8608 138.207C89.7985 137.032 89.3489 136.102 89.0723 134.573Z" fill="#9FA5BE"/>
<path d="M61.4248 60.7884C63.9593 56.334 71.0194 56.8059 74.5222 59.9296C75.0212 60.4204 75.4263 61.0385 75.5054 61.7038C74.8236 60.543 73.6033 60.0051 72.4027 59.5616C68.7763 58.2262 64.4336 58.1035 61.4248 60.7931V60.7884Z" fill="#9FA5BE"/>
<path d="M73.6137 73.4626C72.9072 72.7077 71.3608 73.4485 71.7956 74.4347C72.1859 75.3784 73.2629 75.6002 74.1374 76.0862C75.0514 76.5533 75.422 77.6481 76.3804 78.0303C77.5958 78.6059 79.2262 78.4644 80.2044 77.5442C80.6886 77.1007 81.0937 76.2608 81.7113 75.8031C82.5265 75.1519 83.9493 74.6848 84.1025 73.6325C84.1025 73.3022 83.8752 72.9672 83.5986 73.0332C82.4178 73.3871 81.7706 72.5425 81.736 71.528C81.5087 68.5883 80.7281 65.4599 81.568 62.4871C82.4326 60.109 85.1104 59.0803 87.4374 58.5377C90.4313 57.9478 94.1022 57.8487 96.3946 60.0901C95.5893 59.4578 94.6358 59.0614 93.6427 58.8538C90.3325 58.264 84.7102 59.3068 82.8377 62.1946C82.403 62.9637 82.3634 63.9546 82.3288 64.8417C82.3041 66.7528 82.6203 68.6968 82.8427 70.6834C82.8822 70.9948 82.8921 71.7734 83.0452 71.9904C83.0403 71.981 83.0057 71.9904 83.065 71.9857C84.2458 71.6177 85.2981 72.5378 85.2487 73.675C85.1301 74.9962 83.9543 75.671 82.9662 76.2183C81.9731 76.676 81.7014 77.4876 80.8862 78.2332C79.572 79.3609 77.5167 79.5025 76.0099 78.6814C75.0119 78.2332 74.6512 77.1054 73.8212 76.5486C72.9961 76.0107 71.7956 75.5766 71.4992 74.5149C71.094 73.3164 72.838 72.5048 73.6187 73.4532L73.6137 73.4626Z" fill="#9FA5BE"/>
<path d="M85.7178 68.7674C86.5923 66.88 88.8254 65.7003 90.9845 65.7145C93.1632 65.7381 95.1197 66.7479 96.6957 68.0785C95.6829 67.8331 94.7294 67.5076 93.7808 67.2716C90.9548 66.4176 88.0053 66.913 85.7129 68.7674H85.7178Z" fill="#9FA5BE"/>
<path d="M89.2505 67.0593C89.1269 67.4745 88.8256 68.0691 89.1072 68.3947C89.3147 68.6117 89.8087 68.7816 90.1496 68.7674C91.113 68.7863 91.6367 67.8473 91.0785 66.9885C91.4045 67.0216 91.701 67.2764 91.8689 67.5831C92.2345 68.2484 91.9727 69.178 91.286 69.5885C89.3196 70.8106 86.6962 68.2956 89.2505 67.0593Z" fill="#9FA5BE"/>
<path d="M73.0156 68.7674C70.7231 66.9177 67.7786 66.4176 64.9476 67.2716C63.9991 67.5076 63.0455 67.8331 62.0327 68.0785C63.6137 66.7479 65.5652 65.7381 67.744 65.7145C69.903 65.7003 72.1312 66.8753 73.0106 68.7674H73.0156Z" fill="#9FA5BE"/>
<path d="M69.4878 67.0593C72.047 68.3003 69.4186 70.8106 67.4523 69.5885C66.7655 69.178 66.5037 68.2531 66.8693 67.5831C67.0323 67.2716 67.3287 67.0216 67.6598 66.9885C67.1015 67.8473 67.6252 68.7816 68.5886 68.7674C68.9295 68.7816 69.4235 68.6117 69.631 68.3947C69.9077 68.0738 69.6113 67.4793 69.4878 67.0593Z" fill="#9FA5BE"/>
<path d="M72.9659 88.7368C71.3998 90.0297 71.9432 92.3371 73.5094 93.3469C75.0706 94.4463 77.0567 94.5454 78.9687 94.654C79.9568 94.7247 80.9104 94.7531 81.7651 94.5266C84.1563 93.8235 87.7085 91.4595 85.9151 88.7368C86.7501 89.3833 86.9576 90.5582 86.6957 91.5302C86.0535 93.564 84.0476 94.8144 82.0911 95.5599C81.0042 95.8855 79.8975 95.8431 78.8897 95.7911C76.8443 95.659 74.5321 95.442 72.9165 94.0311C71.212 92.776 70.8316 89.7749 72.9659 88.7368Z" fill="#9FA5BE"/>
<path d="M70.1152 82.8905C72.7782 83.6313 75.0261 81.3239 77.7237 81.7155C78.1782 81.7438 78.7464 82.0175 79.1219 82.1213C79.1663 82.1213 79.3047 82.06 79.5171 81.9845C82.1949 81.0266 84.6849 82.9518 87.3331 82.8574C86.6414 83.1311 85.8509 83.1689 85.0999 83.1358C83.3707 83.0651 81.5921 82.4186 79.9519 83.0226C79.8185 83.0603 79.6357 83.183 79.3145 83.2396C78.9687 83.301 78.6426 83.1972 78.4499 83.117C78.0992 82.9565 77.9065 82.881 77.5557 82.8244C75.1447 82.4988 72.3731 84.4382 70.1251 82.8999L70.1152 82.8905Z" fill="#9FA5BE"/>
<path d="M75.3965 85.9951C77.8717 86.6085 80.1691 86.3349 82.664 86.0093C80.8459 87.9014 77.1059 88.1279 75.3965 85.9951Z" fill="#9FA5BE"/>
<path d="M340.966 255.856C343.16 267.11 335.64 276.457 325.517 281.346L324.732 279.807C327.158 278.755 329.48 277.481 331.599 275.938C338.081 271.404 342.172 263.59 340.966 255.856Z" fill="#9FA5BE"/>
</svg>
