<svg width="74" height="74" viewBox="0 0 74 74" fill="none" xmlns="http://www.w3.org/2000/svg">
<path d="M18.8369 3.56323C36.1723 22.0305 52.757 41.4057 68.335 61.3977C50.9996 42.9133 34.4149 23.538 18.8369 3.56323Z" fill="#9FA5BE"/>
<path d="M7.14917 15.298C23.0002 32.8745 38.0834 51.3589 52.1428 70.4258C36.2747 52.8322 21.2086 34.3649 7.14917 15.298Z" fill="#9FA5BE"/>
<path d="M5.34058 49.6459C20.0996 34.365 35.797 19.8207 52.1428 6.27002C37.3838 21.5509 21.6864 36.0781 5.34058 49.6459Z" fill="#9FA5BE"/>
<path d="M66.5435 17.114C51.8015 32.9773 36.1041 48.1212 19.7412 62.2886C34.5002 46.4252 50.1806 31.2813 66.5435 17.114Z" fill="#9FA5BE"/>
<path d="M33.1865 5.65319C35.7459 4.48828 38.3906 4.47115 40.9499 5.65319C38.3906 6.83523 35.7459 6.8181 33.1865 5.65319Z" fill="#9FA5BE"/>
<path d="M18.5127 19.872C20.6284 18.7071 22.8124 18.69 24.9282 19.872C22.8124 21.054 20.6284 21.0369 18.5127 19.872Z" fill="#9FA5BE"/>
<path d="M7.71216 33.9366C9.62315 32.7032 11.6365 32.6518 13.6158 33.7653C11.7048 34.9987 9.6914 35.0501 7.71216 33.9366Z" fill="#9FA5BE"/>
<path d="M32.009 34.7932C34.2271 33.6283 36.5306 33.6112 38.7658 34.7932C36.5476 35.9752 34.2442 35.9581 32.009 34.7932Z" fill="#9FA5BE"/>
<path d="M47.3652 19.5466C49.7369 18.3131 52.1939 18.2446 54.6168 19.3752C52.2451 20.6087 49.7881 20.6601 47.3652 19.5466Z" fill="#9FA5BE"/>
<path d="M57.3127 35.29C59.855 34.0565 62.4827 33.988 65.0761 35.1186C62.5338 36.3521 59.9062 36.4035 57.3127 35.29Z" fill="#9FA5BE"/>
<path d="M44.823 48.1725C47.4677 47.059 50.1635 47.1104 52.757 48.3438C50.1124 49.4745 47.4165 49.406 44.823 48.1725Z" fill="#9FA5BE"/>
<path d="M18.1714 48.1725C20.9355 46.8363 24.1091 46.9734 26.9415 48.1725C24.0067 49.3203 21.1061 49.1833 18.1714 48.1725Z" fill="#9FA5BE"/>
<path d="M31.4973 61.2264C34.0055 60.0615 36.5819 60.0444 39.0901 61.2264C36.5819 62.4085 34.0055 62.3913 31.4973 61.2264Z" fill="#9FA5BE"/>
</svg>
