<svg width="262" height="253" viewBox="0 0 262 253" fill="none" xmlns="http://www.w3.org/2000/svg">
<path d="M37.8567 94.7433C39.6199 104.156 37.8567 113.826 35.1399 123.049C34.0286 126.815 32.7074 130.639 30.043 133.704C28.188 135.836 24.3555 138.727 21.0699 138.407C16.9792 138.007 18.8299 135.259 16.953 132.316C13.1642 126.376 8.24674 131.501 5.73986 135.452C2.39299 140.728 -0.901386 147.614 2.30986 153.531C2.97049 154.745 4.05549 155.959 5.54736 156.086C6.46611 156.165 7.34986 155.817 8.23799 155.595C10.7317 154.978 13.3699 155.362 15.9555 155.394C25.0424 155.504 29.4961 151.28 35.9405 146.649C42.7305 141.769 47.858 135.349 51.4892 128.258C54.3942 122.583 56.3805 116.567 57.9467 110.488C58.428 108.621 58.5242 103.429 59.9986 102.1C61.5824 100.672 66.233 101.534 68.4555 101.411C68.7749 103.765 70.5599 105.912 72.9705 106.85C75.3811 107.787 78.3342 107.467 80.4386 106.051C84.503 114.811 84.8442 124.734 89.2149 133.372C93.9486 142.73 103.473 149.999 114.476 152.645" stroke="#9FA5BE" stroke-width="2" stroke-miterlimit="10"/>
<path d="M61.718 84.6579C60.738 80.0266 68.0005 79.2554 71.4568 79.6588C77.6299 80.3786 81.5937 84.6144 83.033 89.9339C84.1399 94.0313 83.8643 98.3146 83.873 102.531C83.8905 110.381 84.503 118.228 86.5505 125.857" stroke="#9FA5BE" stroke-width="2" stroke-miterlimit="10"/>
<path d="M60.9831 38.5542C58.7343 39.1395 56.4506 39.7368 54.4818 40.8758C52.5131 42.0148 50.8637 43.7907 50.5487 45.8868C50.4437 46.5789 50.4875 47.2948 50.2818 47.9711C49.8706 49.3395 48.545 50.2927 47.3681 51.23C38.3643 58.3926 34.2737 70.6255 37.1656 81.1458" stroke="#9FA5BE" stroke-width="2" stroke-miterlimit="10"/>
<path d="M5.89316 142.397C6.05504 143.924 5.91066 145.53 6.19066 147.001C6.25629 147.325 6.39629 147.847 6.58441 147.895C6.58441 147.887 6.58004 147.891 6.58441 147.891C6.61504 147.891 6.63254 147.887 6.66316 147.867C7.06129 147.642 7.32816 146.957 7.51629 146.435C8.68004 143.481 9.88316 140.574 11.5063 137.778C11.2132 140.938 10.3032 143.983 9.16566 146.961C8.95129 147.535 8.62754 148.29 8.07191 148.781C7.27566 149.595 5.69629 149.564 5.16254 148.535C4.87379 148.005 4.84316 147.555 4.82129 147.123C4.82129 145.415 5.32879 143.908 5.88879 142.401L5.89316 142.397Z" fill="#9FA5BE"/>
<path d="M17.1457 139.831C17.0276 145.609 14.1401 151.3 9.36694 155.148" stroke="#9FA5BE" stroke-width="2" stroke-miterlimit="10"/>
<path d="M19.5342 149.311C19.8886 149.936 20.1686 150.169 20.4749 150.667C20.7724 151.173 20.8249 151.51 21.2055 152.127C20.383 152.621 19.3374 152.119 18.9305 151.415C18.5061 150.719 18.6286 149.655 19.5342 149.311Z" fill="#9FA5BE"/>
<path d="M22.225 146.158C22.7456 146.847 23.2093 147.337 23.7387 147.918C24.2725 148.5 24.7143 148.998 25.3618 149.599C23.24 150.703 20.6281 147.827 22.225 146.158Z" fill="#9FA5BE"/>
<path d="M26.5868 143.07C28.1531 144.24 29.4174 144.972 31.2374 145.791C29.3474 147.424 25.7206 145.296 26.5868 143.07Z" fill="#9FA5BE"/>
<path d="M32.178 139.581C33.8361 141.879 36.7017 141.915 39.2217 143.026C37.7342 143.627 36.1198 143.722 34.5798 143.18C33.0705 142.65 31.6224 141.092 32.178 139.581Z" fill="#9FA5BE"/>
<path d="M36.0762 136.484C38.4605 136.627 40.5037 137.09 42.6693 138.007C40.5562 139.324 37.2399 138.549 36.0762 136.484Z" fill="#9FA5BE"/>
<path d="M39.865 133.095C42.07 132.802 43.9775 132.873 46.1431 133.36C44.5856 135.049 41.2475 134.902 39.865 133.095Z" fill="#9FA5BE"/>
<path d="M42.7131 128.883C45.1106 128.903 47.0181 128.661 49.3238 128.08C48.615 130.599 44.1306 131.137 42.7131 128.883Z" fill="#9FA5BE"/>
<path d="M45.4082 124.311C46.432 124.212 47.3945 124.161 48.3526 124.089C49.3151 124.03 50.2645 123.947 51.3013 123.911C50.4613 126.059 46.5982 126.312 45.4082 124.307V124.311Z" fill="#9FA5BE"/>
<path d="M46.0774 119.332C48.6805 119.458 50.8374 119.225 53.3443 118.572C52.3774 121.198 47.683 121.685 46.0774 119.332Z" fill="#9FA5BE"/>
<path d="M48.2344 115.412C49.2844 115.131 50.3475 114.914 51.3494 114.677C52.3556 114.447 53.3925 114.174 54.4688 113.961C53.8431 116.278 50.0238 117.16 48.2344 115.412Z" fill="#9FA5BE"/>
<path d="M48.8687 109.911C51.0387 109.788 52.6749 109.499 54.7443 108.894C54.4555 111.331 50.1374 112.07 48.8687 109.911Z" fill="#9FA5BE"/>
<path d="M64.6669 32.242C64.7588 30.8657 63.49 29.5328 61.9719 29.4142C61.5738 29.3825 61.145 29.43 60.8213 29.6436C60.34 29.956 60.1913 30.5374 60.1169 31.0674C59.85 32.9737 60.1169 34.9354 60.8869 36.727C61.2413 37.5536 62.195 38.487 63.0175 38.0005C63.3194 37.8225 63.4725 37.4982 63.5907 37.1937C64.2732 35.4258 64.4307 33.4878 64.0369 31.6488" fill="#9FA5BE"/>
<path d="M97.733 40.6464C96.3286 40.4803 95.0643 41.4888 94.3774 42.6121C93.533 43.9884 93.2574 45.693 93.8699 47.1682C94.4824 48.6435 96.0705 49.8062 97.8118 49.83C100.096 49.8616 102.02 47.9355 102.292 45.8829C102.563 43.8302 101.504 41.7894 100.012 40.2272" fill="#9FA5BE"/>
<path d="M41.1206 57.7003C37.8044 57.9337 33.7794 55.6556 31.6619 53.5515C25.0381 46.9664 22.2163 37.9846 19.5956 29.6355C18.2875 37.4704 17.7756 45.9223 20.4838 53.4131C22.505 59.0055 28.2319 69.3677 36.1856 69.9649" stroke="#9FA5BE" stroke-width="2" stroke-miterlimit="10"/>
<path d="M90.7506 67.323C87.2593 62.486 75.7093 64.7721 70.4987 66.1444C69.3481 66.4727 68.2018 66.8287 67.0687 67.236C65.9793 67.6197 64.75 68.0508 64.4218 69.17C64.2906 67.1411 68.3112 65.745 70.0262 64.9856C75.3856 62.7945 88.1781 60.9278 90.7506 67.323Z" fill="#9FA5BE"/>
<path d="M72.3887 58.804C75.4118 54.3308 81.2437 51.5702 87.0449 51.4555C89.9237 51.3883 92.5881 52.0092 95.4274 51.8431C98.1487 51.7087 100.879 51.0798 103.644 50.5182C101.128 51.6928 98.4637 52.6816 95.5674 53.0692C92.7499 53.4963 89.8493 52.9664 87.0843 53.0336C81.5893 53.1443 76.3655 55.3117 72.3887 58.8V58.804Z" fill="#9FA5BE"/>
<path d="M61.7051 75.7552C64.0107 72.3697 68.692 70.8035 72.7476 69.7356C77.5776 68.5649 82.0182 69.9729 84.8445 73.7342C86.5638 75.9727 87.4301 78.5118 88.1038 81.0351C86.752 78.7373 85.5226 76.384 83.7595 74.4856C79.6076 69.9255 74.747 70.4594 69.0682 72.1878C66.4038 72.9788 63.7657 73.9042 61.7051 75.7552Z" fill="#9FA5BE"/>
<path d="M94.1762 95.7795C94.3424 101.384 95.9393 106.921 98.7787 111.884C100.161 114.273 102.06 116.65 103.814 118.814C105.643 121.032 107.765 123.144 109.852 125.165L109.747 125.292C108.364 124.592 107.069 123.757 105.84 122.844C104.094 121.491 102.327 119.783 100.979 118.094C100.179 117.069 99.1943 115.503 98.5468 114.376C96.7705 111.2 95.3749 107.751 94.6355 104.267C94.0537 101.463 93.8087 98.6034 94.0012 95.7755H94.1762V95.7795Z" fill="#9FA5BE"/>
<path d="M96.6612 123.943C96.0662 126.459 97.3962 128.851 98.8749 130.892C100.835 133.728 103.657 135.879 106.177 138.276C106.837 138.861 107.511 139.451 108.172 140.088L108.08 140.222C104.339 139.166 101.369 136.627 99.3475 133.657C97.3481 130.841 95.1781 127.309 96.4906 123.892L96.6568 123.939L96.6612 123.943Z" fill="#9FA5BE"/>
<path d="M98.1794 84.8201C98.7963 90.2938 100.787 95.6173 103.928 100.308C105.455 102.566 107.489 104.785 109.353 106.806C111.296 108.878 113.514 110.836 115.684 112.715L115.588 112.845C114.183 112.236 112.862 111.489 111.593 110.662C109.791 109.436 107.94 107.858 106.505 106.284C105.648 105.323 104.576 103.848 103.863 102.78C101.894 99.7701 100.279 96.4755 99.2907 93.1098C98.5075 90.3966 98.0482 87.6163 98.0088 84.8319L98.1838 84.824L98.1794 84.8201Z" fill="#9FA5BE"/>
<path d="M104.444 88.0355C106.054 90.6973 108.084 93.1256 110.438 95.2613L111.344 96.0247C112.932 97.2033 114.502 98.4412 115.999 99.7147C116.633 100.229 117.254 100.743 117.849 101.313L117.762 101.451C114.809 100.767 112.166 99.1294 110.237 97.0095L109.401 96.1117C107.196 93.7347 105.446 91.0057 104.282 88.0988L104.44 88.0355H104.444Z" fill="#9FA5BE"/>
<path d="M108.964 82.8425C111.016 85.0692 113.396 87.0428 116.091 88.605C116.97 89.0717 117.95 89.5582 118.781 90.0842C119.971 90.8159 121.166 91.5317 122.272 92.382L122.211 92.5284C119.98 92.3979 117.797 91.6148 116.029 90.3848C115.526 90.009 114.822 89.4593 114.341 89.0756C112.136 87.3275 110.25 85.2393 108.824 82.9374L108.968 82.8465L108.964 82.8425Z" fill="#9FA5BE"/>
<path d="M114.673 80.4457C116.712 81.3989 118.908 82.0554 121.174 82.2888C122.684 82.3244 124.171 82.5538 125.633 82.9018C125.891 82.9651 126.153 83.0204 126.424 83.1193L126.446 83.2775C124.779 84.1674 122.671 84.2623 120.864 83.6612C119.578 83.2973 118.304 82.8702 117.149 82.2532C116.231 81.7627 115.356 81.217 114.577 80.5723L114.678 80.4418L114.673 80.4457Z" fill="#9FA5BE"/>
<path d="M102.204 72.3181C105 72.5277 107.463 72.9035 110.171 73.5639C107.752 75.142 103.902 74.5329 102.204 72.3181Z" fill="#9FA5BE"/>
<path d="M105.665 65.7806C108.268 65.5749 111.869 65.5156 114.489 65.4049C117.123 65.31 120.689 65.0806 123.318 65.0845C120.601 66.3224 117.578 66.8485 114.568 66.9829C111.554 67.0818 108.491 66.7931 105.665 65.7806Z" fill="#9FA5BE"/>
<path d="M109.493 62.0708C111.409 61.5645 113.256 61.3391 115.181 61.0622C117.114 60.817 118.948 60.552 120.947 60.5402C117.863 62.7827 113.164 63.4036 109.493 62.0708Z" fill="#9FA5BE"/>
<path d="M103.963 68.7586C105.862 68.4976 107.66 68.5767 109.528 68.6875C111.396 68.8338 113.186 69.0078 115.014 69.5338C111.554 70.8232 107.166 70.5068 103.959 68.7586H103.963Z" fill="#9FA5BE"/>
<path d="M118.204 36.7626C115.071 38.9774 110.565 40.4922 106.684 38.9181C104.742 38.1706 103.189 36.996 101.491 36.4897C99.8288 35.9598 97.9519 36.0666 96.1626 36.5253C90.8907 37.7316 85.5619 41.9674 86.8919 47.3186C87.2638 48.9797 88.2963 50.5815 89.9807 51.5544C88.0688 50.8821 86.6907 49.2684 86.0607 47.5203C84.6301 43.7512 86.7038 39.7605 90.1207 37.4745C93.4676 35.2716 97.9782 33.7726 102.056 35.0857C103.985 35.766 105.508 36.9762 107.258 37.8028C110.714 39.4323 114.866 38.2932 118.204 36.7626Z" fill="#9FA5BE"/>
<path d="M60.2656 25.028C65.7038 22.6985 70.6212 29.3232 70.385 33.7172C69.755 32.6612 69.1119 31.7002 68.4381 30.751C66.5044 28.0418 64.1944 25.1348 60.2656 25.0241V25.028Z" fill="#9FA5BE"/>
<path d="M60.5413 38.9774C61.4994 37.8858 63.3544 37.9966 64.8463 38.3446C66.3381 38.6927 67.9919 39.1633 69.3481 38.4989C70.6913 37.8384 71.1638 36.3473 71.7763 35.0817C73.1894 32.1669 76.0288 29.8413 79.38 28.8605" stroke="#9FA5BE" stroke-width="2" stroke-miterlimit="10"/>
<path d="M107.748 34.5003C109.161 33.4562 110.412 32.8946 112.197 32.5347C112.236 34.4529 109.397 35.6987 107.748 34.5003Z" fill="#9FA5BE"/>
<path d="M99.7937 33.2307C100.542 32.0521 101.784 31.5735 103.237 31.9334C103.04 33.3968 101.08 34.1285 99.7937 33.2307Z" fill="#9FA5BE"/>
<path d="M70.4856 30.8103C70.7088 29.4537 70.315 28.3898 69.6588 27.2824C68.9544 26.1434 67.9481 25.1902 67.27 23.9404C68.9063 24.3082 70.3106 25.1586 71.1813 26.4993C72.0388 27.8124 72.065 29.956 70.4856 30.8063V30.8103Z" fill="#9FA5BE"/>
<path d="M63.8357 25.3682C63.5601 22.9912 63.7045 20.5786 64.2601 18.2412C62.1076 17.1971 61.9457 14.2664 63.302 12.4313C65.0782 9.8882 75.4645 4.59242 75.482 10.4617C81.4538 7.36885 82.3857 14.6659 84.967 13.3053C82.5826 5.4823 93.1526 2.99064 91.1445 12.3126C93.8657 9.64694 97.2388 7.53101 100.953 6.16257C99.9732 1.7804 107.393 1.23065 107.205 5.69983C107.052 6.94566 106.015 8.03725 106.05 9.29099C106.194 11.7036 109.896 13.0562 112.359 13.333C116.681 13.0285 119.136 8.48812 119.949 5.21732C120.947 3.35846 125.759 0.554345 127.877 2.36179C129.469 3.72232 128.568 6.79142 130.594 7.54683C131.727 7.96606 132.948 7.28184 134.002 6.71627C138.001 4.75062 143.784 3.0737 147.945 5.39134C153.646 12.1228 158.432 -2.52266 166.036 8.69378C169.584 10.2046 173.744 4.11782 179.432 5.9569C181.449 6.48688 183.326 8.24686 183.579 10.1769C183.798 11.842 181.256 13.2065 183.278 14.8359C186.576 10.3509 196.726 7.79203 199.763 13.5624C200.187 17.0389 200.266 20.4639 205.328 19.0006C213.522 14.6421 217.359 19.1746 220.653 25.906C224.796 27.9152 228.209 24.5495 232.256 30.2882C236.093 35.7224 231.171 41.8883 240.988 42.7821C248.321 44.5105 251.602 51.5109 250.578 57.8508C270.309 95.6054 259.302 154.519 216.309 175.552C174.239 195.838 123.384 175.161 79.2182 186.804C55.0201 190.973 41.7857 215.988 50.3213 236.06C55.4182 246.474 72.3057 248.396 80.0276 239.335C73.0101 254.044 48.6763 255.661 39.3751 242.008C28.4638 225.991 32.1563 205.061 44.6601 190.882C72.0738 159.795 122.649 163.988 161.433 167.033C159.718 164.897 156.415 164.597 153.549 164.11C122.588 158.162 116.795 117.03 135.358 97.2942C129.977 96.8631 124.556 96.8829 119.179 97.3456" stroke="#9FA5BE" stroke-width="2" stroke-miterlimit="10"/>
<path d="M124.915 31.1899C127.312 29.0265 130.865 28.4728 134.094 28.1485C136.552 27.9349 139.304 27.6462 141.671 28.6706C146.151 30.6125 146.086 36.1535 143.246 39.3017C140.035 42.9759 135.17 45.1907 130.169 46.0885C128.371 46.3179 126.709 46.7055 124.854 46.1557C121.533 45.0839 119.516 39.3373 123.108 37.5891C124.657 36.7823 126.805 37.866 126.669 39.5429C126.66 39.9345 126.315 40.3695 126.188 40.6227C126.149 40.7611 126.302 40.9272 126.455 41.0142C126.997 41.299 127.785 40.9747 128.415 40.8204C130.309 40.2469 132.453 39.9108 134.067 38.9101C135.345 38.1191 136.264 36.5529 135.603 35.1647C136.474 36.5371 135.651 38.3169 134.365 39.2542C133.061 40.239 131.407 40.682 129.867 41.2278C128.879 41.5086 127.829 42.0662 126.744 42.0544C125.842 42.0425 124.897 41.3266 125.059 40.4289C125.147 39.9622 125.422 39.7961 125.457 39.452C125.449 38.7124 124.438 38.2536 123.742 38.6768C122.522 39.3333 122.557 40.7453 122.933 41.9001C123.607 44.024 125.107 45.1986 127.496 44.8703C131.429 44.55 135.266 43.2765 138.508 41.2396C140.971 39.6814 143.347 37.4982 143.701 34.7257C144.073 31.8385 142.262 29.4576 138.959 29.0423C137.423 28.7932 135.796 28.8565 134.159 28.9158C130.944 29.0384 127.54 29.3152 124.919 31.186L124.915 31.1899Z" fill="#9FA5BE"/>
<path d="M63.3806 16.6751L73.1062 11.8816L64.3387 18L63.3806 16.6751Z" fill="#9FA5BE"/>
<path d="M67.4932 21.5159C72.0519 17.4857 77.7525 14.4285 84 12.7318L84.4288 14.2664C78.3169 15.3856 72.4413 17.8773 67.4975 21.5159H67.4932Z" fill="#9FA5BE"/>
<path d="M152.801 16.7145C157.255 13.0087 164.929 14.8241 164.596 20.9187C164.5 22.5245 163.971 23.9957 163.24 25.3761C163.258 23.8455 163.398 22.3505 163.218 20.9543C162.711 15.9315 157.308 15.2947 152.797 16.7145H152.801Z" fill="#9FA5BE"/>
<path d="M174.383 22.2594C176.518 20.7605 179.235 19.926 181.939 19.7163C185.268 19.3525 188.029 20.3887 188.799 23.5725C189.171 25.2652 188.768 26.9026 188.173 28.4728C188.033 26.8631 188.037 25.2494 187.473 23.9087C186.489 21.504 184.656 21.1045 182.022 21.2074C179.419 21.2351 176.956 21.6424 174.383 22.2555V22.2594Z" fill="#9FA5BE"/>
<path d="M195.672 29.509C202.939 26.175 210.997 32.1075 206.408 38.9655C204.396 42.0742 200.856 43.8618 198.537 46.6936C199.43 44.5065 201.311 42.7228 202.899 40.9588C204.382 39.3017 205.804 37.3954 205.988 35.2755C206.202 33.1991 204.781 31.3284 202.825 30.2961C200.703 29.1966 198.091 29.1215 195.672 29.513V29.509Z" fill="#9FA5BE"/>
<path d="M212.748 42.3589C213.679 40.8006 215.775 39.9543 217.726 40.0096C222.377 40.0571 224.582 44.546 223.388 48.1688C222.867 49.8774 221.856 51.3526 220.618 52.6064C221.231 51.0165 221.839 49.474 222.04 47.9276C222.333 45.7246 221.786 43.3477 219.796 42.0307C217.718 40.7492 214.743 40.9035 212.752 42.3589H212.748Z" fill="#9FA5BE"/>
<path d="M225.881 55.2404C227.697 53.1363 231.551 54.5799 232.439 56.8699C233.38 59.1361 232.361 61.6633 230.488 63.1979C230.777 62.1261 231.044 61.1215 231.136 60.1446C231.232 59.1717 231.149 58.2502 230.803 57.4315C230.064 55.8257 227.959 54.5483 225.877 55.2404H225.881Z" fill="#9FA5BE"/>
<path d="M231.652 69.1383C235.134 66.7337 241.771 68.7547 241.776 73.1052C241.723 76.3681 238.149 78.3851 235.091 79.0852C237.488 77.3806 240.852 75.1341 239.868 72.1916C238.56 69.4547 234.797 68.4976 231.647 69.1383H231.652Z" fill="#9FA5BE"/>
<path d="M235.498 91.7294C238.013 90.009 242.226 89.3485 244.046 92.3741C245.263 94.6245 243.202 97.1082 241.019 97.9704C241.981 96.5743 243.018 95.2177 242.743 93.6555C241.789 90.9068 238.061 91.5672 235.493 91.7294H235.498Z" fill="#9FA5BE"/>
<path d="M236.854 109.175C237.72 108.823 238.792 109.262 239.387 109.887C241.456 111.971 239.575 115.195 236.849 115.804C237.506 114.554 238.328 113.47 238.507 112.181C238.604 111.03 238.179 109.804 236.854 109.175Z" fill="#9FA5BE"/>
<path d="M227.513 132.81C228.629 131.58 230.799 132.62 231.394 133.862C232.601 136.125 230.269 138.533 227.916 139.032C228.712 137.746 229.81 136.611 229.968 135.223C230.073 134.127 228.97 132.613 227.513 132.81Z" fill="#9FA5BE"/>
<path d="M165.589 43.5375C166.403 40.8441 170.082 39.4955 172.97 40.1322C174.939 40.4882 176.317 42.1532 176.802 43.8183C178.242 47.9355 176.142 52.99 171.837 54.8489C174.974 52.1278 176.361 47.979 175.131 44.285C174.847 43.3912 174.396 42.5764 173.736 42.0623C171.342 40.4249 167.256 41.2278 165.589 43.5375Z" fill="#9FA5BE"/>
<path d="M183.054 52.7289C184.306 51.5938 185.815 50.6209 187.613 50.1344C190.339 49.4344 193.598 50.0948 195.558 52.0526C197.706 54.1013 197.378 57.3167 195.934 59.6067C195.038 61.1056 193.865 62.391 192.714 63.6092C189.21 67.2557 185.224 70.57 180.749 73.208C184.524 69.8185 188.138 66.3895 191.446 62.6481C193.436 60.3542 195.882 57.8309 195.344 54.7776C194.692 51.839 190.877 50.435 187.81 50.8819C186.143 51.1152 184.546 51.8588 183.059 52.721L183.054 52.7289Z" fill="#9FA5BE"/>
<path d="M199.408 70.2299C200.633 69.5101 201.911 68.8417 203.35 68.4027C209.182 66.7534 212.857 70.5226 211.553 75.6878C210.232 81.1972 205.069 84.9386 199.841 87.3551C204.05 84.029 208.648 80.4338 209.838 75.3635C210.923 71.0802 208.447 68.4145 203.556 69.1541C202.169 69.3558 200.799 69.8225 199.408 70.2299Z" fill="#9FA5BE"/>
<path d="M205.375 92.738C207.659 92.0617 210.017 91.5555 212.48 91.4566C215.757 91.2944 222.517 92.3267 221.366 96.5744C220.312 99.8768 216.462 101.941 213.307 103.266C215.105 101.823 216.934 100.442 218.312 98.805C218.955 98.0259 219.555 97.1874 219.743 96.254C219.914 95.3839 219.708 94.7788 218.842 94.3003C217.94 93.8098 216.895 93.4143 215.823 93.1612C212.419 92.3544 208.924 92.6945 205.371 92.7341L205.375 92.738Z" fill="#9FA5BE"/>
<path d="M211.155 116.314C212.485 114.451 215.648 113.522 217.573 115.329C219.293 117.085 218.181 119.774 217.328 121.645C216.685 122.871 215.814 123.998 214.686 124.872C215.211 123.623 215.683 122.428 216.033 121.218C216.353 120.071 216.663 118.774 216.72 117.627C216.733 117.081 216.619 116.654 216.335 116.326C215.049 114.949 212.748 115.574 211.155 116.318V116.314Z" fill="#9FA5BE"/>
<path d="M183.081 163.391C180.193 165.637 176.387 166.638 172.738 167.377C169.015 168.148 165.13 167.891 161.367 167.832L161.468 166.254C165.182 166.566 168.879 167.081 172.576 166.586C176.256 166.112 180.018 165.408 183.081 163.391Z" fill="#9FA5BE"/>
<path d="M134.763 96.527C145.189 83.8116 166.666 84.6105 179.598 93.6596C192.789 102.958 197.059 118.604 200.104 132.751C196.486 117.2 190.912 99.1096 173.95 91.4685C161.665 85.888 144.642 86.7185 136.168 97.4683L134.763 96.523V96.527Z" fill="#9FA5BE"/>
<path d="M94.9551 17.8813C95.0688 14.7845 99.0588 12.2771 102.309 13.2737C101.513 13.5071 100.796 13.7404 100.118 14.0291C98.0263 14.9071 96.3726 16.2123 94.9551 17.8813Z" fill="#9FA5BE"/>
<path d="M105.433 18.4033C108.797 16.8529 112.564 16.0461 116.344 16.0856C112.98 17.6439 109.209 18.4349 105.433 18.4033Z" fill="#9FA5BE"/>
<path d="M113.326 27.9349C116.008 25.9297 119.109 24.4544 122.316 23.264C125.541 22.117 128.927 21.2825 132.396 21.061C130.782 21.6424 129.172 22.1645 127.571 22.7024C122.767 24.2883 118.059 26.1511 113.33 27.9309L113.326 27.9349Z" fill="#9FA5BE"/>
<path d="M108.548 23.5528C112.258 20.5905 117.101 18.7198 122.036 18.3599C120.129 19.2735 117.342 20.3018 115.356 21.0888C113.343 21.8403 110.609 22.9358 108.548 23.5528Z" fill="#9FA5BE"/>
<path d="M112.175 45.6021C113.256 46.8439 113.015 48.8293 111.654 49.826C111.274 48.3587 111.453 46.9586 112.175 45.6021Z" fill="#9FA5BE"/>
<path d="M119.381 51.6927C119.722 53.7691 119.586 55.7862 118.952 57.8072C117.766 55.9404 117.95 53.4132 119.381 51.6927Z" fill="#9FA5BE"/>
<path d="M127.089 51.6691C127.391 53.7573 128.1 55.5015 129.356 57.2773C126.761 56.8422 125.422 53.5161 127.089 51.6691Z" fill="#9FA5BE"/>
<path d="M134.781 51.2815C135.922 53.1641 137.222 55.2088 138.709 56.8739L140.28 58.6537C136.955 57.6847 134.531 54.4297 134.781 51.2815Z" fill="#9FA5BE"/>
<path d="M143.741 47.5519C146.23 49.2921 148.601 50.882 151.156 52.5471C147.914 52.4482 144.782 50.3283 143.741 47.5519Z" fill="#9FA5BE"/>
<path d="M149.537 40.943C153.055 41.9159 156.354 43.2962 159.434 45.1116C155.741 44.8506 152.14 43.3279 149.537 40.943Z" fill="#9FA5BE"/>
<path d="M148.488 31.6763C151.887 31.4588 155.33 32.0758 158.375 33.464C154.976 33.6855 151.537 33.0566 148.488 31.6763Z" fill="#9FA5BE"/>
<path d="M141.776 25.4433C145.937 24.1184 150.994 25.0636 154.227 27.7768C150.128 26.5626 146.072 25.7953 141.776 25.4433Z" fill="#9FA5BE"/>
<path d="M137.139 18.9452C140.354 16.8727 144.913 16.4614 148.514 17.9327C144.651 18.1265 140.967 18.4468 137.139 18.9452Z" fill="#9FA5BE"/>
<path d="M126.192 14.1555C129.552 12.5933 133.319 11.7786 137.095 11.8102C133.735 13.3764 129.968 14.1793 126.192 14.1555Z" fill="#9FA5BE"/>
<path d="M134.028 62.9565C135.494 64.3289 136.233 66.255 136.001 68.1534C134.527 66.785 133.805 64.855 134.028 62.9565Z" fill="#9FA5BE"/>
<path d="M143.316 63.4432C144.401 64.685 144.979 66.1958 145.267 67.7304C145.526 69.2729 145.499 70.8707 144.896 72.3538C144.664 71.5865 144.519 70.843 144.375 70.1074C144.016 68.0191 143.482 65.5512 143.321 63.4392L143.316 63.4432Z" fill="#9FA5BE"/>
<path d="M151.716 57.7875C153.895 61.8216 154.057 66.8049 152.128 70.9419C152.237 66.5083 152.11 62.2052 151.716 57.7875Z" fill="#9FA5BE"/>
<path d="M160.514 69.0751C161.367 71.804 160.514 74.976 158.357 77.0405C158.839 74.2957 159.543 71.7131 160.514 69.0751Z" fill="#9FA5BE"/>
<path d="M168.214 76.0913C167.506 77.7524 166.289 79.1723 164.885 80.3944C163.463 81.5967 161.831 82.625 159.954 83.1748C160.597 82.4945 161.28 81.8973 161.949 81.2961C163.883 79.6469 166.132 77.5982 168.21 76.0953L168.214 76.0913Z" fill="#9FA5BE"/>
<path d="M83.9868 96.4597C83.943 97.575 83.9037 98.6864 83.8599 99.8017C83.733 103.183 83.6061 106.561 83.4793 109.942C83.4574 110.603 83.4312 111.263 83.4049 111.924C83.4049 111.263 83.1862 110.642 82.8187 110.073C82.228 109.159 81.2524 108.396 80.2111 107.882C78.4699 107.028 74.7424 107.85 72.9355 107.115C70.4243 106.094 68.7049 104.283 67.3924 102.1C67.2393 101.846 67.0905 101.585 66.9462 101.32C66.8062 101.063 66.6705 100.802 66.5393 100.533C66.6487 100.533 66.7537 100.529 66.863 100.529C66.9899 100.525 67.1168 100.525 67.248 100.522C72.498 100.403 78.2205 99.6356 82.7443 98.4491C82.9587 97.6067 83.348 95.2653 82.5255 91.334C81.6768 87.2643 79.6468 85.2709 78.9074 84.6619C73.3599 85.7258 67.6505 86.1885 61.9237 86.0936C61.7093 86.0896 61.4949 86.0857 61.2805 86.0778C61.2455 85.8128 61.2237 85.5478 61.2105 85.2868C61.1974 85.0218 61.1974 84.7607 61.2149 84.4997C61.2543 83.7562 61.4162 83.0284 61.7355 82.3403C61.8274 82.1227 61.9412 81.9131 62.0724 81.7035L62.0855 81.8498C62.1862 81.7866 62.2868 81.7272 62.3918 81.6679C62.4837 81.6125 62.5799 81.5572 62.6762 81.5097C66.5612 79.3859 71.6668 79.2474 75.753 81.0628C76.9168 81.5809 77.993 82.2493 78.9512 83.0364C81.5324 85.1365 83.2955 88.0751 83.8249 91.1877C84.118 92.9279 84.0524 94.6997 83.9868 96.4597Z" fill="#9FA5BE"/>
<path d="M84.6911 93.9482V93.9719C84.6999 94.5493 84.6911 95.1268 84.6692 95.7042C84.643 96.5308 84.6124 97.3574 84.5817 98.184C84.5424 99.1688 84.503 100.158 84.468 101.142C84.3323 104.785 84.1967 108.428 84.0567 112.074C84.0305 112.833 82.7267 112.837 82.7442 112.074C82.788 110.46 81.3967 109.092 79.8786 108.396C79.2792 108.119 78.5661 108.079 77.9055 108.06C77.083 108.032 76.2605 108.06 75.438 108.048C74.0248 108.028 72.8261 107.814 71.6011 107.158C70.4548 106.541 69.4355 105.722 68.5911 104.789C67.8386 103.958 67.2086 103.057 66.6617 102.111C66.5086 101.854 66.3642 101.589 66.2242 101.324C66.0842 101.063 65.953 100.802 65.8305 100.537C66.0667 100.537 66.303 100.537 66.5392 100.533C66.6486 100.533 66.7536 100.529 66.863 100.529C66.9899 100.525 67.1167 100.525 67.248 100.521C67.3792 100.782 67.5192 101.043 67.6592 101.301C67.808 101.562 67.9611 101.823 68.123 102.08C68.8755 103.274 69.7899 104.382 70.9492 105.279C71.8636 105.991 72.988 106.66 74.2042 106.798C75.6261 106.96 77.0655 106.79 78.4874 106.905C79.9486 107.016 81.1211 107.542 82.1973 108.447C82.4336 108.645 82.6567 108.859 82.858 109.088C82.9674 106.181 83.0767 103.27 83.1861 100.363C83.1905 100.233 83.1949 100.106 83.1992 99.9756C83.2124 99.6988 83.2211 99.4219 83.2299 99.1451C83.2824 97.8399 83.3348 96.5387 83.3698 95.2335C83.4136 93.6436 83.3917 92.0379 83.0111 90.4757C82.3942 87.9682 80.9723 85.6426 78.9423 83.8431C78.9161 83.8154 78.8855 83.7917 78.8549 83.764C78.623 83.5623 78.3867 83.3685 78.1417 83.1905C73.7624 79.8881 67.2567 79.4293 62.4486 82.3441C62.0898 83.0481 61.9105 83.7719 61.858 84.5115C61.8405 84.7725 61.8361 85.0375 61.8492 85.2985C61.858 85.5635 61.8842 85.8285 61.9236 86.0935C61.7092 86.0895 61.4948 86.0856 61.2805 86.0777C61.0617 86.0737 60.8474 86.0698 60.6286 86.0618C60.598 85.8008 60.5761 85.5358 60.5674 85.2708C60.5586 85.0059 60.5586 84.7448 60.5674 84.4838C60.6242 83.4792 60.8823 82.4944 61.4161 81.5571C61.4423 81.3752 61.5649 81.2526 61.7224 81.1893C61.8449 81.1181 61.9892 81.0983 62.1249 81.1181C65.078 79.4451 68.6786 78.8874 72.1086 79.3976C78.2948 80.3112 83.1817 85.0296 84.3542 90.5231C84.5948 91.6543 84.678 92.8012 84.6867 93.9482H84.6911Z" fill="#9FA5BE"/>
<path d="M83.3875 91.1876C82.2631 85.8167 79.1394 83.8075 79.1394 83.8075C79.0738 83.8194 79.0081 83.8313 78.9425 83.8431C73.3819 84.9308 67.6288 85.4014 61.8494 85.2986C61.635 85.2986 61.425 85.2946 61.2106 85.2867C60.9963 85.2828 60.7819 85.2749 60.5675 85.2709C40.6394 84.6302 20.545 77.1987 6.89502 64.4714C11.9788 75.1104 20.2256 84.559 30.7431 91.1837C41.0856 97.6936 53.6288 101.411 66.2244 101.324C66.4431 101.328 66.6619 101.324 66.8806 101.32H66.9463C67.1825 101.316 67.4188 101.309 67.6594 101.301C72.7125 101.158 78.435 100.431 83.23 99.1451C83.3044 99.1254 83.3831 99.1056 83.4575 99.0858C83.4575 99.0858 84.5075 96.5585 83.3875 91.1876ZM82.7444 98.449C78.2206 99.6355 72.4981 100.403 67.2481 100.521C67.1169 100.525 66.99 100.525 66.8632 100.529C66.7538 100.529 66.6488 100.533 66.5394 100.533C66.3032 100.537 66.0669 100.537 65.8307 100.537C53.7556 100.541 41.5231 97.0055 31.2463 90.535C22.2469 84.8675 14.8706 77.1394 9.70377 68.0112C23.2706 79.0022 41.9694 85.4805 60.6288 86.0619C60.8475 86.0698 61.0619 86.0738 61.2806 86.0777C61.495 86.0856 61.7094 86.0896 61.9238 86.0935C67.6507 86.1885 73.36 85.7257 78.9075 84.6618C79.6469 85.2709 81.6769 87.2642 82.5257 91.334C83.3481 95.2652 82.9588 97.6066 82.7444 98.449Z" fill="#9FA5BE"/>
<path d="M84.6912 93.972V93.9482C84.6081 93.086 84.468 92.1171 84.2449 91.0413C83.0724 85.4252 79.7824 83.2539 79.6424 83.1629L79.3274 82.9612L78.9512 83.0363C78.6843 83.0877 78.4131 83.1392 78.1418 83.1906C72.8218 84.1833 67.3443 84.6104 61.8581 84.5116C61.6437 84.5116 61.4293 84.5076 61.2149 84.4997C61.0006 84.4957 60.7862 84.4878 60.5718 84.4839C40.7618 83.8432 20.9212 76.4117 7.52493 63.9217L4.19556 60.817L6.0943 64.7839C11.3881 75.8659 19.7399 85.2195 30.2443 91.8323C40.8099 98.4846 53.4056 102.119 65.8218 102.119C66.1018 102.119 66.3818 102.119 66.6618 102.111C66.7406 102.115 66.8193 102.111 66.898 102.111C67.0643 102.107 67.2262 102.104 67.3924 102.1C67.6331 102.096 67.8781 102.088 68.1231 102.08C73.3249 101.902 78.7237 101.15 83.1993 99.9757C83.3699 99.9322 83.5405 99.8887 83.7112 99.8412L83.8599 99.8017L84.1268 99.7265L84.2756 99.3627C84.293 99.3231 84.4506 98.9316 84.5818 98.1841C84.7437 97.2942 84.8662 95.8981 84.6912 93.972ZM82.7443 98.4491C78.2206 99.6356 72.498 100.403 67.2481 100.521C67.1168 100.525 66.9899 100.525 66.8631 100.529C66.7537 100.529 66.6487 100.533 66.5393 100.533C66.3031 100.537 66.0668 100.537 65.8306 100.537C53.7556 100.541 41.5231 97.0055 31.2462 90.5351C22.2468 84.8675 14.8706 77.1394 9.70368 68.0112C23.2706 79.0022 41.9693 85.4805 60.6287 86.0619C60.8474 86.0698 61.0618 86.0738 61.2806 86.0777C61.4949 86.0857 61.7093 86.0896 61.9237 86.0936C67.6506 86.1885 73.3599 85.7258 78.9074 84.6619C79.6468 85.2709 81.6768 87.2643 82.5256 91.334C83.348 95.2653 82.9587 97.6066 82.7443 98.4491Z" fill="#9FA5BE"/>
</svg>
