<svg width="425" height="135" viewBox="0 0 425 135" fill="none" xmlns="http://www.w3.org/2000/svg">
<path d="M106.301 2.59265L118.469 14.8706" stroke="#9FA5BE" stroke-width="2" stroke-miterlimit="10" stroke-linecap="round"/>
<path d="M117.342 1.49622L104.327 14.8706" stroke="#9FA5BE" stroke-width="2" stroke-miterlimit="10" stroke-linecap="round"/>
<path d="M112.814 19.7736L111.119 8.59204" stroke="#9FA5BE" stroke-width="2" stroke-miterlimit="10" stroke-linecap="round"/>
<path d="M229.903 5.20093L226.117 42.8631" stroke="#9FA5BE" stroke-width="3" stroke-miterlimit="10" stroke-linecap="round"/>
<path d="M217.615 31.2491L220.135 34.0693L234.942 14.6135L238.082 15.5536" stroke="#9FA5BE" stroke-width="3" stroke-miterlimit="10" stroke-linecap="round"/>
<path d="M220.445 15.2443H222.965L233.986 33.4387L237.461 33.1293" stroke="#9FA5BE" stroke-width="3" stroke-miterlimit="10" stroke-linecap="round"/>
<path d="M17.7372 132.741L11.6459 95.3827" stroke="#9FA5BE" stroke-width="2" stroke-miterlimit="10" stroke-linecap="round"/>
<path d="M22.8643 104.4L19.7007 102.328L10.4338 124.954L7.15704 124.858" stroke="#9FA5BE" stroke-width="2" stroke-miterlimit="10" stroke-linecap="round"/>
<path d="M24.2729 120.593L21.8392 121.245L6.48412 106.523L3.20775 107.721" stroke="#9FA5BE" stroke-width="2" stroke-miterlimit="10" stroke-linecap="round"/>
<path d="M298.921 74.0078C297.901 71.7332 297.105 69.4068 296.499 67.0288C296.205 65.857 295.288 64.7024 295.807 63.5306C296.396 62.0314 297.312 61.0147 298.921 60.0325C299.146 59.8946 299.406 59.9118 299.613 60.0325C301.222 61.0147 302.139 62.0314 302.727 63.5306C303.246 64.7024 302.329 65.857 302.035 67.0288C301.43 69.4068 300.634 71.7332 299.613 74.0078C299.492 74.3008 299.042 74.3008 298.921 74.0078Z" fill="#9FA5BE"/>
<path d="M304.371 78.6089C306.17 77.4543 308.055 76.5238 310.01 75.7828C310.962 75.4209 311.861 74.4387 312.864 74.8867C314.214 75.4037 315.079 76.2825 315.996 77.7645C316.117 77.9885 316.134 78.2298 316.048 78.4538C315.356 80.0564 314.629 81.0386 313.366 81.7624C312.432 82.3483 311.394 81.5039 310.408 81.2799C308.367 80.8319 306.36 80.177 304.405 79.2982C304.128 79.1776 304.094 78.764 304.353 78.6089H304.371Z" fill="#9FA5BE"/>
<path d="M294.839 79.4705C292.901 80.5906 290.895 81.5039 288.819 82.2277C287.815 82.5723 286.829 83.5373 285.774 83.0893C284.373 82.5551 283.456 81.6762 282.522 80.1598C282.401 79.9358 282.383 79.6773 282.487 79.4705C283.248 77.8679 284.061 76.8857 285.393 76.1964C286.397 75.6277 287.469 76.4893 288.507 76.7133C290.652 77.1958 292.746 77.8851 294.804 78.7812C295.081 78.9018 295.116 79.3154 294.839 79.4705Z" fill="#9FA5BE"/>
<path d="M300.115 85.2605C301.118 87.518 301.879 89.8271 302.45 92.1879C302.727 93.3425 303.627 94.497 303.108 95.6516C302.502 97.1163 301.568 98.1158 299.959 99.0636C299.734 99.1842 299.475 99.1842 299.267 99.0636C297.676 98.0813 296.759 97.0646 296.188 95.5827C295.686 94.4281 296.62 93.2908 296.914 92.1362C297.537 89.7926 298.368 87.5007 299.423 85.2605C299.544 84.9676 299.994 84.9848 300.115 85.2605Z" fill="#9FA5BE"/>
<path d="M299.682 81.3488C300.58 81.3488 301.308 80.6236 301.308 79.729C301.308 78.8344 300.58 78.1091 299.682 78.1091C298.784 78.1091 298.056 78.8344 298.056 79.729C298.056 80.6236 298.784 81.3488 299.682 81.3488Z" fill="#9FA5BE"/>
<path d="M292.763 73.5081C293.804 73.5081 294.648 72.6671 294.648 71.6298C294.648 70.5924 293.804 69.7515 292.763 69.7515C291.721 69.7515 290.877 70.5924 290.877 71.6298C290.877 72.6671 291.721 73.5081 292.763 73.5081Z" fill="#9FA5BE"/>
<path d="M306.602 73.5081C307.643 73.5081 308.488 72.6671 308.488 71.6298C308.488 70.5924 307.643 69.7515 306.602 69.7515C305.561 69.7515 304.716 70.5924 304.716 71.6298C304.716 72.6671 305.561 73.5081 306.602 73.5081Z" fill="#9FA5BE"/>
<path d="M308.332 90.7404C309.373 90.7404 310.218 89.8994 310.218 88.8621C310.218 87.8247 309.373 86.9838 308.332 86.9838C307.291 86.9838 306.446 87.8247 306.446 88.8621C306.446 89.8994 307.291 90.7404 308.332 90.7404Z" fill="#9FA5BE"/>
<path d="M291.033 90.7404C292.074 90.7404 292.918 89.8994 292.918 88.8621C292.918 87.8247 292.074 86.9838 291.033 86.9838C289.991 86.9838 289.147 87.8247 289.147 88.8621C289.147 89.8994 289.991 90.7404 291.033 90.7404Z" fill="#9FA5BE"/>
<path d="M401.314 37.3008C401.929 39.6509 402.433 42.2672 402.874 44.6578C403.14 46.3075 403.355 47.9398 403.778 49.5606C404.277 52.2348 403.303 54.828 401.546 56.9639C401.407 57.1202 401.163 57.1202 401.024 56.9697C399.679 55.4879 399.007 53.8903 398.618 52.0843C398.218 50.4288 398.879 48.7907 399.082 47.1642C399.239 45.7287 399.563 43.6796 399.807 42.2383C400.108 40.5944 400.398 38.9563 400.792 37.3124C400.845 37.0461 401.256 37.0403 401.314 37.3066V37.3008Z" fill="#9FA5BE"/>
<path d="M380.043 25.753C381.823 24.96 383.493 24.8326 385.273 25.0468C386.907 25.2031 388.177 26.3492 389.586 27.0554C392.421 28.4735 395.291 30.0943 397.957 31.8076C398.183 31.9466 398.056 32.3286 397.789 32.2997C395.453 32.1318 392.914 31.7729 390.6 31.4256C389.018 31.1478 387.464 30.8294 385.847 30.7136C383.238 30.3258 381.214 28.5604 379.869 26.245C379.771 26.0656 379.852 25.834 380.038 25.753H380.043Z" fill="#9FA5BE"/>
<path d="M401.471 29.5328C401.053 27.0322 400.769 24.2654 400.532 21.7359C400.445 20.1904 400.294 18.0602 400.039 16.5495C399.801 14.7667 400.335 13.088 401.129 11.4731C401.564 10.6453 402.08 9.82338 402.885 9.01879C403.019 8.88566 403.239 8.88566 403.372 9.01879C404.074 9.92178 404.486 10.8421 404.804 11.7278C405.373 13.4353 405.668 15.1718 405.187 16.9084C404.961 17.7535 404.683 18.5928 404.515 19.4379C404.265 20.7113 403.697 23.2582 403.378 24.5143C402.943 26.2045 402.514 27.8889 401.981 29.5733C401.906 29.8338 401.494 29.8106 401.459 29.5386L401.471 29.5328Z" fill="#9FA5BE"/>
<path d="M404.735 33.2084C407.164 33.2837 409.808 33.5384 412.219 33.7873C413.872 34.0015 415.501 34.2561 417.176 34.3024C419.878 34.5803 422.087 36.2473 423.634 38.528C423.745 38.7016 423.675 38.9389 423.495 39.0316C421.698 39.9056 419.982 40.0966 418.133 39.9577C416.434 39.8709 415.054 38.7769 413.553 38.1286C412.225 37.5787 410.353 36.6815 409.042 36.0447C407.552 35.2923 406.062 34.5513 404.601 33.712C404.364 33.5847 404.474 33.1911 404.741 33.2084H404.735Z" fill="#9FA5BE"/>
<path d="M401.395 35.0665C402.407 35.0665 403.227 34.2475 403.227 33.2373C403.227 32.2271 402.407 31.4082 401.395 31.4082C400.384 31.4082 399.563 32.2271 399.563 33.2373C399.563 34.2475 400.384 35.0665 401.395 35.0665Z" fill="#9FA5BE"/>
</svg>
