<svg width="353" height="382" viewBox="0 0 353 382" fill="none" xmlns="http://www.w3.org/2000/svg">
<g clip-path="url(#clip0_65_9)">
<path d="M279.545 314.36C264.395 295.472 242.037 283.245 222.626 268.266C204.173 253.07 185.195 237.811 170.151 219.478C154.633 199.718 146.252 176.118 134.895 154.191C130.098 144.902 124.769 135.466 117.968 127.274C116.287 125.238 114.27 123.451 112.17 121.796C101.989 113.812 108.499 107.949 120.976 105.478C116.853 101.493 105.287 89.0982 110.199 84.3506C103.116 85.5337 95.8 85.4203 88.7654 84.0142C90.486 92.293 76.8741 94.4648 75.7239 86.0929C66.9792 90.8791 55.8154 91.4263 46.6472 87.5085C52.9686 97.4304 58.2971 107.896 62.6049 118.745C74.5054 108.004 80.7191 124.271 68.5984 128.014C77.1237 125.384 76.4998 136.983 74.2431 144.986C80.5609 139.075 89.6692 134.199 99.0315 135.843C98.8777 128.459 102.956 122.875 106.811 116.429" stroke="#9FA5BE" stroke-width="2" stroke-miterlimit="10" stroke-linecap="round"/>
<path d="M273.473 307.937C255.214 297.978 225.679 270.8 212.431 294.85C210.309 298.727 212.745 305.892 220.111 301.816" stroke="#9FA5BE" stroke-width="2" stroke-miterlimit="10" stroke-linecap="round"/>
<path d="M269.567 303.088C260.391 296.678 218.768 248.126 243.95 245.732C246.387 247.026 246.14 251.082 243.538 252.112" stroke="#9FA5BE" stroke-width="2" stroke-miterlimit="10" stroke-linecap="round"/>
<path d="M273.922 308.216C266.481 295.425 262.673 275.52 268.761 261.719C277.632 259.58 287.264 274.786 282.013 281.952C293.055 279.566 304.702 279.85 315.579 282.722C312.758 278.967 311.807 274.012 313.011 269.542C300.795 268.782 303.946 250.959 315.298 256.441C312.202 248.04 310.913 239.021 311.513 230.129C303.49 230.95 295.392 231.155 287.321 230.754C290.332 243.364 270.395 237.324 277.256 222.772C269.132 223.999 260.663 223.137 253.027 220.286C258.245 228.205 262.121 239.947 257.666 248.344C261.36 246.058 271.078 251.45 268.826 260.567" stroke="#9FA5BE" stroke-width="2" stroke-miterlimit="10" stroke-linecap="round"/>
<path d="M232.886 276.799C219 272.419 203.644 265.624 188.833 267.62C179.418 272.335 186.692 280.312 195.38 278.141C194.343 285.63 197.236 293.508 202.956 298.743C196.756 298.173 190.319 299.922 185.391 303.539C187.588 294.255 172.003 285.483 171.518 299.371C165.03 292.607 148.64 290.714 140.672 297.003C150.094 291.079 152.462 278.416 149.162 270.366C157.006 275.885 163.601 263.756 153.956 263.669C156.158 258.018 156.164 251.619 153.983 245.98C160.965 251.685 170.656 254.288 179.807 252.915C176.201 259.312 178.145 267.995 184.14 272.423" stroke="#9FA5BE" stroke-width="2" stroke-miterlimit="10" stroke-linecap="round"/>
<path d="M188.755 241.14C171.726 232.895 156.39 218.621 137.225 215.488C138.27 219.187 140.714 222.514 144.026 224.71C139.603 230.109 136.087 237.837 140.544 243.173C137.157 238.106 131.113 237.603 123.935 237.524C130.149 234.495 123.503 227.51 118.071 229.345C114.387 229.894 108.902 234.122 109.573 237.587C108.635 232.844 95.6534 231.474 89.1048 236.701C95.9649 230.384 98.5353 223.392 94.438 215.253C102.974 217.217 115.896 204.494 100.851 202.939C105.245 197.949 110.88 190.879 107.688 185.18C114.694 194.968 122.9 201.12 131.435 197.019C125.769 200.492 130.023 210.604 135.769 213.898" stroke="#9FA5BE" stroke-width="2" stroke-miterlimit="10" stroke-linecap="round"/>
<path d="M158.471 202.13C149.367 184.817 124.912 146.799 103.102 146.34C96.9051 148.483 97.4089 157.472 103.798 158.924" stroke="#9FA5BE" stroke-width="2" stroke-miterlimit="10" stroke-linecap="round"/>
<path d="M174.169 224.703C160.936 221.28 135.07 167.214 123.683 188.296" stroke="#9FA5BE" stroke-width="2" stroke-miterlimit="10" stroke-linecap="round"/>
<path d="M239.306 280.096C222.448 261.53 208.291 236.339 206.637 211.313C210.179 199.738 203.311 200.321 196.311 207.897C198.706 199.053 195.287 189.053 187.876 183.254C193.265 184.247 199.193 181.09 201.128 176.22C216.091 189.691 213.193 167.886 213.193 167.886C213.193 167.886 218.9 174.662 239.522 160.09C236.454 167.485 236.606 181.463 241.8 187.665C229.71 186.463 234.002 203.235 244.914 199.299C241.28 204.66 244.961 211.582 248.571 216.899C241.325 213.353 232.062 213.779 225.162 217.972C224.177 217.46 223.295 206.554 209.86 204.096" stroke="#9FA5BE" stroke-width="2" stroke-miterlimit="10" stroke-linecap="round"/>
<path d="M178.497 209.347C182.29 210.578 185.061 205.098 181.011 203.788C163.591 212.139 194.338 239.399 200.176 249.519" stroke="#9FA5BE" stroke-width="2" stroke-miterlimit="10" stroke-linecap="round"/>
<path d="M168.628 241.118C179.976 234.162 191.597 245.082 201.104 250.281" stroke="#9FA5BE" stroke-width="2" stroke-miterlimit="10" stroke-linecap="round"/>
<path d="M180.734 127.897C176.525 130.902 167.406 126.454 172.939 118.607C167.939 117.949 163.235 115.639 159.774 112.168C157.924 121.525 152.338 128.218 143.774 132.577C156.695 138.843 171.127 152.319 164.301 167.006C168.89 167.867 172.72 168.246 176.143 171.081C179.028 173.225 181.923 175.386 184.791 177.54C184.412 172.798 187.393 167.968 191.941 165.939C177.111 165.12 186.263 145.481 196.838 155.331C193.479 146.765 199.034 136.016 208.269 133.217C198.544 132.276 189.211 128.011 182.389 121.385C183.121 124.686 182.242 126.788 180.707 127.891L180.734 127.897Z" stroke="#9FA5BE" stroke-width="2" stroke-miterlimit="10" stroke-linecap="round"/>
<path d="M149.063 185.881C145.03 172.166 148.55 155.522 161.338 146.924" stroke="#9FA5BE" stroke-width="2" stroke-miterlimit="10" stroke-linecap="round"/>
<path d="M157.885 77.1081C152.823 70.7022 143.422 67.6999 135.247 69.8747C139.193 61.9766 138.735 52.2622 134.091 44.7512C140.885 48.8515 149.79 49.6285 157.303 46.7865C149.512 57.7528 171.106 57.3226 167.085 44.5426C174.677 47.7025 183.617 47.8903 191.392 45.0585C186.035 51.6699 185.2 61.2819 189.373 68.591C186.507 65.2971 179.581 67.577 179.473 71.8628C179.366 76.1485 186.189 78.6561 189.206 75.4495C186.464 82.2728 186.047 89.9033 187.989 96.9439C176.768 88.4338 164.913 88.7239 159.191 100.266C163.798 91.2399 158.275 84.2316 157.964 77.6564" stroke="#9FA5BE" stroke-width="2" stroke-miterlimit="10" stroke-linecap="round"/>
<path d="M147.319 181.645C142.009 167.359 135.379 153.116 133.339 137.982C133.106 116.777 139.938 90.5446 158.073 76.5016" stroke="#9FA5BE" stroke-width="2" stroke-miterlimit="10" stroke-linecap="round"/>
</g>
<defs>
<clipPath id="clip0_65_9">
<rect width="204.521" height="331.397" fill="white" transform="matrix(0.877205 -0.480117 0.52015 0.854075 0.271484 98.9619)"/>
</clipPath>
</defs>
</svg>
