<svg width="212" height="252" viewBox="0 0 212 252" fill="none" xmlns="http://www.w3.org/2000/svg">
<path d="M105.5 16.8835C162.79 47.0748 190.276 113.823 209.793 173.909C207.902 173.688 206.011 173.464 204.123 173.243C206.281 187.305 204.407 201.962 198.773 215.025C197.056 213.803 196.019 211.681 196.101 209.576L191.202 211.658L190.599 207.385C188.28 208.196 185.44 206.476 185.074 204.048C178.416 208.861 174.225 198.589 175.922 192.905C173.84 194.596 170.509 194.467 168.562 192.622C167.629 198.407 161.014 193.637 158.365 191.571C159.923 194.322 156.734 197.673 153.581 197.933C149.532 198.134 141.349 194.629 136.651 196.319C134.051 197.254 131.178 196.108 130.075 193.574C119.479 169.28 99.8338 160.922 83.5883 145.668C64.3645 127.459 54.2206 101.218 34.7695 83.2525C24.2961 73.5796 10.9992 66.1043 4.66374 53.3312C-10.824 11.398 44.9233 -6.23121 76.5281 5.61275C86.962 8.37689 96.592 12.1887 105.504 16.8835H105.5Z" stroke="#9FA5BE" stroke-width="2.04" stroke-miterlimit="10"/>
<path d="M145.951 196.655C145.328 197.333 145.062 198.262 144.735 199.103C144.436 199.969 144.172 200.845 143.925 201.725C143.451 203.491 143.016 205.267 142.65 207.052C141.171 214.215 140.156 221.453 139.767 228.767C139.734 231.409 138.98 240.66 142.63 239.833C148.386 238.937 155.611 241.695 160.424 237.277L160.497 237.204C160.796 236.697 161.096 236.081 161.597 235.834C161.706 235.797 161.768 235.771 161.887 235.84C162.131 235.962 162.391 236.338 162.579 236.717C163.488 238.792 163.897 241.144 163.913 243.414C164.088 242.492 164.075 241.543 164.038 240.607C163.923 238.95 163.794 237.194 162.954 235.702C162.381 234.7 161.333 234.585 160.513 235.366C160.105 235.741 159.828 236.16 159.551 236.575L159.66 236.44C158.599 237.346 157.261 237.833 155.871 238.071C151.387 238.759 146.897 237.333 142.34 237.926L142.159 237.972C142.169 237.945 142.294 237.965 142.337 237.975C142.363 237.985 142.383 238.008 142.39 238.001C142.235 237.758 142.05 237.231 141.984 236.773C141.546 234.196 141.658 231.491 141.731 228.849C141.876 225.245 142.146 221.634 142.502 218.04C143.032 212.637 143.645 207.224 144.551 201.863C144.706 200.971 144.867 200.078 145.071 199.198C145.299 198.332 145.44 197.403 145.951 196.651V196.655Z" fill="#9FA5BE"/>
<path d="M139.734 200.414C137.573 212.324 135.84 224.375 134.232 236.367L135.263 235.531C132.792 235.274 131.017 233.28 129.267 231.636C124.711 227.169 118.662 224.777 112.801 222.576C107.866 220.774 101.84 218.537 96.9377 221.644C94.1571 224.009 94.9643 228.055 93.3598 231.03C95.1752 228.474 94.9511 224.22 97.4385 222.382C100.499 220.728 104.12 221.268 107.289 222.306C110.571 223.413 113.852 224.823 117.038 226.214C120.217 227.66 123.334 229.218 125.976 231.373C128.094 233.05 129.768 235.231 132.209 236.558C133.326 237.198 134.71 237.474 136.024 237.52C136.446 234.213 136.799 230.892 137.178 227.577C138.169 218.58 139.095 209.444 139.731 200.414H139.734Z" fill="#9FA5BE"/>
<path d="M103.695 244.429C103.316 241.681 101.751 238.94 101.755 236.203L101.458 236.848C103.227 235.629 105.283 234.937 107.418 234.631C114.116 233.715 120.916 235.827 127.66 235.517C120.899 234.015 114.145 231.6 107.108 232.7C104.578 233.116 102.1 234.19 100.193 235.923C100.414 239.105 102.436 241.625 103.695 244.429Z" fill="#9FA5BE"/>
<path d="M135.26 239.066C129.261 238.028 122.761 238.532 117.361 241.54L117.054 241.714C116.326 243.408 116.03 245.226 115.878 247.025C115.737 248.696 115.704 250.33 115.572 252C116.28 250.488 116.692 248.837 117.12 247.239C117.532 245.697 117.954 244.146 118.639 242.732L118.224 243.177C123.548 240.614 129.478 240.018 135.26 239.066Z" fill="#9FA5BE"/>
<path d="M113.793 191.884C116.046 191.772 118.359 191.12 120.224 189.779C122.355 188.306 123.406 185.684 120.837 183.981C119.314 182.992 117.496 182.679 115.75 182.472C114.346 182.287 112.969 181.898 111.664 181.319C106.182 178.94 102.107 174.186 96.6083 171.646C95.498 171.152 94.3647 170.687 93.1523 170.466C89.6172 170.232 86.2238 171.056 82.8304 171.807C79.1866 172.624 64.9936 176.808 70.8316 181.892C72.2153 183.427 75.3452 185.005 76.7454 182.719C75.1705 184.695 72.5184 182.916 71.3324 181.391C66.6969 177.131 80.5637 174.11 83.2192 173.51C86.0558 172.927 89.0374 172.417 91.9036 172.361C92.4374 172.374 92.8064 172.361 93.2973 172.512C94.1407 172.753 94.9709 173.069 95.7715 173.445C99.8073 175.355 103.036 178.367 106.901 180.752C109.513 182.402 112.475 183.707 115.611 183.931C125.983 184.508 120.323 190.794 113.793 191.881V191.884Z" fill="#9FA5BE"/>
<path d="M96.6315 165.623C86.415 160.783 75.3881 157.654 64.2459 155.842C61.8475 155.449 58.8988 155.084 56.4806 154.84C54.8037 154.425 52.481 154.893 51.8682 157.196C51.3839 158.938 51.8551 160.754 52.738 162.246C52.1977 160.727 52.0033 158.945 52.6194 157.462C53.2882 155.868 54.7971 155.664 56.2961 156.171C58.6715 156.599 61.5575 157.166 63.9263 157.627C74.9368 159.821 85.7989 162.658 96.6348 165.617L96.6315 165.623Z" fill="#9FA5BE"/>
<path d="M55.3013 179.273C52.8271 178.735 51.16 176.199 51.2292 173.767C51.249 172.993 51.4697 172.255 51.8651 171.646L51.7333 171.814C56.316 167.91 62.2528 166.193 68.16 165.501C74.2088 164.796 80.3268 165.112 86.4185 165.593C83.4566 164.714 80.3894 164.114 77.3189 163.762C68.0875 162.757 57.3999 163.917 50.6164 170.924C48.7781 174.308 51.4203 179.226 55.3013 179.279V179.273Z" fill="#9FA5BE"/>
<path d="M118.777 40.8283C121.367 44.3832 123.805 48.083 125.643 52.0101C126.319 53.4235 126.589 54.9884 127.149 56.4347C127.933 58.3983 128.935 60.2103 129.992 62.0717C130.282 62.6087 130.585 63.126 130.961 63.6432L131.458 63.6399C133.043 60.9219 133.049 57.4593 131.979 54.5535C131.521 53.4268 130.826 52.4087 130.121 51.4303C128.43 49.0351 126.589 46.7026 124.451 44.7588C122.764 43.1938 120.998 41.7508 119.123 40.4725L118.777 40.8283Z" fill="#9FA5BE"/>
<path d="M99.893 54.1943C102.212 58.9385 105.629 63.0435 107.971 67.7284C108.528 68.8354 108.894 70.005 109.151 71.1218C109.658 73.405 110.274 75.3026 110.475 77.6681C110.594 78.8706 110.61 80.1588 110.686 81.648L111.134 81.8654C113.625 80.0303 114.906 76.8972 114.87 73.8135C114.913 70.6935 113.094 68.0085 111.371 65.6561C110.541 64.5096 109.655 63.4455 108.749 62.4275C106.024 59.4656 103.013 56.8564 100.305 53.911L99.893 54.1878V54.1943Z" fill="#9FA5BE"/>
<path d="M94.1342 74.7031C94.0222 79.3353 96.6809 83.6709 99.0102 87.4168C100.127 89.2058 100.825 91.2517 102.104 92.8726L103.883 95.2513C104.492 96.0749 105.089 96.9546 105.807 98.0319H106.304C108.258 94.7275 107.029 90.1513 104.585 87.486C102.259 85.081 99.9063 82.6694 97.8175 80.1688C96.4668 78.5215 95.3235 76.726 94.6284 74.6339L94.1342 74.7031Z" fill="#9FA5BE"/>
<path d="M79.3679 89.8876C79.5063 92.5398 80.4189 95.1787 80.9855 97.676C81.1272 98.269 81.1338 98.895 81.1404 99.4583C81.1272 100.602 81.6247 101.297 82.1518 102.262C82.422 102.753 82.702 103.333 82.9689 104.242L83.3873 104.512C85.2981 104.147 86.3227 102.071 86.3886 100.335C86.5369 98.6677 85.453 97.396 84.659 96.1374C83.9342 94.9316 83.1138 93.8609 82.2803 92.833C81.4402 91.8051 80.6165 90.8167 79.8456 89.7361L79.3712 89.8876H79.3679Z" fill="#9FA5BE"/>
<path d="M58.9122 91.5021C58.026 95.8871 58.7343 100.43 60.286 104.621C60.6122 105.586 60.9482 106.575 61.5083 107.438C62.3814 108.729 63.6135 109.744 64.9709 110.492C65.9527 110.989 66.997 111.355 68.1106 111.431L68.4368 111.055C67.936 108.756 67.0695 106.532 65.8242 104.565C65.1356 103.534 64.0715 102.578 63.4257 101.508C61.5511 98.4437 60.1674 95.0866 59.4097 91.4988L58.9122 91.5021Z" fill="#9FA5BE"/>
<path d="M86.682 122.316C87.1828 123.551 87.7956 124.718 88.438 125.877C89.3901 127.65 90.6552 129.175 91.6733 130.905C92.4343 132.091 93.6994 132.671 95.0667 132.984C95.7948 133.129 96.5723 133.201 97.5145 133.043L97.8242 132.654C97.7188 131.007 97.2411 129.768 96.4174 128.536C95.7256 127.436 94.3979 127.083 93.3897 126.375C92.3717 125.65 91.3372 124.929 90.2797 124.204C89.2155 123.486 88.1711 122.731 87.0675 122L86.682 122.313V122.316Z" fill="#9FA5BE"/>
<path d="M119.298 163.357C119.637 161.515 119.011 159.479 117.638 158.201C116.755 157.463 115.76 156.616 114.821 155.947C113.371 154.982 111.737 154.148 110.073 153.68L109.935 153.944C111.243 155.008 112.429 156.155 113.496 157.43C113.984 158 114.567 158.715 114.946 159.357L115.335 160.059C115.839 161.021 116.633 161.752 117.47 162.437C117.954 162.826 118.435 163.179 119.021 163.482L119.291 163.357H119.298Z" fill="#9FA5BE"/>
<path d="M127.953 161.225C128.516 159.469 128.404 157.657 127.834 155.947C127.317 154.685 126.467 153.526 125.815 152.333C124.589 150.313 123.1 148.36 121.443 146.686L121.199 146.857C121.907 148.37 122.569 149.892 123.162 151.434C123.465 152.254 123.884 153.371 124.157 154.198C124.335 154.735 124.52 155.529 124.645 156.089C124.852 157.047 125.261 157.924 125.755 158.767C126.289 159.683 126.875 160.543 127.663 161.294L127.953 161.225Z" fill="#9FA5BE"/>
<path d="M137.626 153.727C138.436 151.664 138.064 149.17 136.749 147.394C135.88 146.33 134.842 145.164 133.817 144.248L132.987 143.586L132.124 142.98C130.941 142.222 129.683 141.612 128.368 141.237L128.236 141.504C129.844 142.663 131.215 144.034 132.368 145.605C132.885 146.31 133.481 147.21 133.837 148.004L134.186 148.867C134.615 150.043 135.31 151.061 136.025 152.092C136.423 152.672 136.822 153.226 137.329 153.769L137.622 153.723L137.626 153.727Z" fill="#9FA5BE"/>
<path d="M149.074 179.641C148.248 176.554 145.632 173.405 142.736 172.044C143.556 175.134 146.185 178.274 149.074 179.641Z" fill="#9FA5BE"/>
<path d="M169.609 192.596C167.471 186.873 163.88 181.803 159.35 177.958C163.422 182.28 166.305 187.595 167.708 193.189L169.609 192.596Z" fill="#9FA5BE"/>
<path d="M176.248 194.299C180.119 187.614 176.284 179.701 172.604 173.883C168.763 168.012 164.012 162.796 158.78 158.158C161.287 160.582 163.633 163.165 165.817 165.873C170.647 172.024 176.66 180.683 176.113 188.771C175.948 190.385 175.437 191.924 174.571 193.232L176.251 194.299H176.248Z" fill="#9FA5BE"/>
<path d="M177.118 169.867C181.41 180.607 183.816 192.148 184.145 203.679L186.132 203.58C185.13 191.911 182.06 180.449 177.118 169.87V169.867Z" fill="#9FA5BE"/>
<path d="M188.724 171.527C190.065 177.5 190.717 183.611 190.945 189.72C191.129 195.775 190.918 201.919 189.755 207.856L191.716 208.199C192.579 202.031 192.46 195.828 191.94 189.66C191.38 183.539 190.395 177.444 188.728 171.53L188.724 171.527Z" fill="#9FA5BE"/>
<path d="M197.228 176.891C197.916 182.389 197.64 187.944 197.228 193.452C196.78 198.961 196.078 204.446 195.205 209.895L197.178 210.156C198.134 199.119 199.066 187.875 197.224 176.891H197.228Z" fill="#9FA5BE"/>
<path d="M88.3193 84.5504C90.2401 100.506 103.257 113.309 117.657 119.196L118.573 119.568L118.811 118.643C120.287 112.231 115.486 105.375 111.503 100.776C114.027 104.782 116.564 109.036 117.371 113.744C117.615 115.259 117.588 116.794 117.173 118.185L118.323 117.631C104.489 111.283 92.2827 99.5703 88.3193 84.5471V84.5504Z" fill="#9FA5BE"/>
<path d="M117.806 65.4158C122.27 72.0115 127.152 78.3041 131.699 84.8339C133.221 86.9985 134.713 89.1795 136.087 91.4165C136.769 92.5366 137.435 93.6634 137.998 94.8099C138.413 95.7159 138.914 96.6548 138.917 97.6267C138.897 97.7618 138.874 97.719 138.93 97.6761C138.084 97.7585 137.184 97.2874 136.357 96.9382C132.845 95.2382 129.594 92.9748 126.371 90.7411C123.37 88.626 120.181 86.2835 117.216 84.0795L118.445 87.2324C119.871 90.8762 122.428 93.838 124.8 96.813C127.047 99.6331 129.251 102.658 129.804 106.255C130.111 107.517 129.346 108.515 128.213 107.392C126.5 106.127 124.77 104.878 123.044 103.626C117.868 99.867 112.666 96.1442 107.411 92.4971C110.693 95.2217 114.004 97.9101 117.331 100.579C120.655 103.247 123.993 105.903 127.343 108.535L127.268 108.469C127.62 108.815 128.055 109.148 128.632 109.299C129.851 109.668 131.106 108.71 131.346 107.537C131.613 106.525 131.264 105.56 131.119 104.565C129.396 97.5444 122.843 93.0769 120.267 86.5273L118.768 87.664C120.899 89.2585 123.041 90.8399 125.235 92.3554C128.348 94.4079 135.306 99.5277 138.855 99.5145C140.851 99.4025 140.976 97.4587 140.387 95.9663C139.672 94.0027 138.565 92.2599 137.454 90.5401C134.489 86.0661 131.201 81.8919 127.884 77.7407C124.615 73.6621 121.084 69.478 117.796 65.4125L117.806 65.4158Z" fill="#9FA5BE"/>
<path d="M147.114 65.7155C152.422 77.3189 164.925 84.7844 168.012 97.5475C168.14 97.9659 168.344 98.3679 168.308 98.7435C168.301 98.7237 168.318 98.7369 168.328 98.7006C168.354 98.6809 168.364 98.6578 168.387 98.6479C167.995 98.727 167.415 98.5919 166.924 98.4601C165.55 98.0615 164.154 97.3993 162.776 96.7404C160.019 95.3896 157.334 93.828 154.639 92.2861C150.801 90.0392 144.337 86.1483 140.479 84.0859C139.78 83.7367 139.092 83.3414 138.341 83.1239C139.731 83.8191 140.96 84.8042 142.248 85.6706C145.971 88.2865 150.023 91.1528 153.835 93.5941C156.863 95.4588 165.682 101.415 168.941 100.539C170.611 100.035 170.446 98.1966 169.893 96.938C169.725 96.0222 168.908 93.6567 168.295 92.3355C166.931 89.3078 165.04 86.5536 162.948 84.0036C157.831 77.7472 151.42 72.6242 147.111 65.7155H147.114Z" fill="#9FA5BE"/>
<path d="M118.609 117.417C128.012 130.098 139.602 143.062 155.607 146.768L156.754 147.032L156.622 145.902C156.102 141.398 154.415 137.036 151.753 133.376C150.87 132.17 149.891 131.04 148.807 130.029C151.492 133.495 153.443 137.517 154.382 141.79C154.701 143.194 154.909 144.62 154.995 146.05L156.006 145.187C140.548 140.894 129.524 128.437 118.609 117.417Z" fill="#9FA5BE"/>
<path d="M145.118 99.2904C147.364 102.779 149.822 106.387 150.88 110.429C152.184 116.317 144.755 111.546 142.716 110.083C140.446 108.482 138.341 106.641 136.311 104.72L135.142 105.955C142.854 113.668 155.159 118.458 159.34 128.981C159.877 130.431 160.223 131.946 160.378 133.488L160.47 132.997C160.47 132.997 160.536 132.934 160.523 132.951C160.513 132.958 160.417 132.977 160.289 132.961C159.983 132.918 159.67 132.806 159.38 132.648C154.033 129.834 148.794 126.744 143.76 123.4C140.871 121.489 138.044 119.483 135.263 117.411C132.489 115.328 129.762 113.177 127.086 110.95C135.761 119.536 145.641 126.905 156.237 132.961C156.388 133.037 158.75 134.384 158.866 134.414C160.045 134.994 161.627 135.056 162.249 133.616C162.052 130.101 160.773 126.655 158.783 123.769C153.054 115.503 143.48 111.408 136.321 104.73L135.151 105.965C137.27 107.883 139.5 109.685 141.902 111.273C143.721 112.459 145.645 113.569 147.77 114.155C150.952 115.058 152.688 113.418 151.733 110.212C150.418 106.084 147.72 102.641 145.118 99.2838V99.2904Z" fill="#9FA5BE"/>
<path d="M167.554 101.929C168.832 104.904 171.227 107.352 172.215 110.459C172.993 113.072 171.25 113.652 169.593 113.997C164.45 112.874 160.665 109.069 155.996 106.776L152.975 105.273L155.291 107.751C156.504 109.049 157.943 110.1 159.439 110.989C162.385 112.729 165.603 113.918 168.532 115.595C169.965 116.416 171.313 117.355 172.443 118.491L172.337 118.366C174.189 121.173 176.093 123.954 177.375 127.024C177.638 127.667 177.846 128.444 177.773 128.853C177.793 128.846 177.757 128.853 177.701 128.869C177.042 128.925 176.353 128.662 175.708 128.434C173.253 127.479 170.861 126.115 168.519 124.843C166.13 123.532 163.742 122.188 161.241 120.982L160.352 122.735C166.269 125.95 172.723 127.802 177.691 132.282C179.253 133.719 180.531 135.425 181.315 137.356L181.249 137.086C181.351 138.43 181.457 139.856 180.814 140.98C178.554 144.159 167.455 134.852 164.19 133.995L160.816 132.793L163.393 135.277C170.641 142.281 179.562 147.53 189.179 150.521C192.414 151.529 195.729 152.27 199.076 152.745C199.415 151.051 199.01 149.243 198.005 147.882C198.915 149.259 199.214 151.002 198.839 152.57L198.99 152.468C195.726 151.842 192.52 150.962 189.397 149.862C180.063 146.564 171.464 141.187 164.477 134.18L163.679 135.462C165.448 136.17 167.178 137.422 168.829 138.469C172.318 140.594 181.358 147.467 183.041 140.252C183.275 139.039 183.226 137.913 183.134 136.783L183.078 136.644C180.36 129.96 173.392 126.708 167.27 123.875C165.234 122.942 163.205 122.043 161.281 121.012L160.391 122.761C164.038 124.504 167.59 126.619 171.224 128.477C173.21 129.416 175.365 130.698 177.665 130.734C181.127 130.381 179.095 126.194 178.139 124.425C176.811 121.957 175.279 119.677 173.724 117.414C171.194 114.857 167.834 113.431 164.648 111.994C161.62 110.637 158.523 109.26 156.174 106.898L155.469 107.873C157.766 108.93 159.914 110.383 162.164 111.708C164.447 113.045 166.882 114.277 169.53 114.712C172.011 114.317 173.616 112.946 172.673 110.308C171.547 107.174 169.013 104.865 167.55 101.923L167.554 101.929Z" fill="#9FA5BE"/>
<path d="M156.359 143.853C172.186 154.086 187.575 164.958 204.024 174.229L204.97 172.476C188.283 163.834 172.492 153.496 156.359 143.853Z" fill="#9FA5BE"/>
<path d="M61.6793 25.8611C70.5351 29.6498 72.4953 43.2333 69.3886 51.3742C67.6293 55.8713 63.5638 58.9451 59.35 61.0668C54.9551 63.1753 49.9177 64.3087 45.0879 63.0073C49.753 65.1619 55.3406 64.4042 59.9859 62.4835C64.7399 60.4771 69.3128 57.0507 71.2401 52.1023C74.6533 43.431 71.8167 28.5033 61.6793 25.8611Z" fill="#9FA5BE"/>
<path d="M74.3635 19.2787C82.3001 25.6668 86.3821 35.2936 86.9323 45.3255C87.578 55.3311 85.4958 65.3103 82.1683 74.769C84.6162 70.3181 86.4084 65.4915 87.5714 60.5069C91.1954 45.8164 88.4906 27.4624 74.3635 19.282V19.2787Z" fill="#9FA5BE"/>
<path d="M75.1279 65.7253C71.5863 68.3182 68.7167 73.1974 68.1929 77.5594C69.8533 75.8759 71.069 73.9815 72.2584 71.9949C73.4082 69.9852 74.4657 67.9986 75.1279 65.7286V65.7253Z" fill="#9FA5BE"/>
<path d="M63.3069 73.2239C60.2561 74.6603 58.1542 78.5314 58.6352 81.8754C59.8179 80.5971 60.5987 79.2496 61.4092 77.7869C62.1834 76.3043 62.8819 74.914 63.3069 73.2239Z" fill="#9FA5BE"/>
<path d="M52.9917 76.9336C50.6295 78.3239 50.1814 82.0665 52.1647 83.9642C52.9554 81.5954 53.2025 79.421 52.9917 76.9336Z" fill="#9FA5BE"/>
<path d="M45.3023 43.1346C44.5709 47.2759 38.9603 46.1689 35.926 47.3549C32.8917 48.3334 32.5853 51.0284 33.208 53.4301C33.6791 55.4925 34.9804 57.1233 35.5273 59.1099C35.5932 59.3504 35.6525 59.6601 35.6097 59.8413C35.5965 59.8809 35.6262 59.7919 35.6394 59.7985C35.3165 59.871 34.9442 59.7787 34.5192 59.6832L34.6148 59.7128C27.09 56.8762 20.1187 47.3945 24.9749 39.616C26.7902 36.8189 30.0617 34.9674 31.3861 31.742C33.0037 28.3651 31.2807 24.0492 28.1245 22.3327C26.6188 21.4432 24.7475 21.1467 23.064 21.6343C22.5138 21.799 21.9933 22.0362 21.509 22.3228C24.5795 20.8535 28.2958 22.3624 29.887 25.2583C31.6463 28.2168 30.6184 31.4059 28.2727 33.6858C26.777 35.2342 24.876 36.5718 23.4791 38.6342C22.807 39.6489 22.2766 40.746 21.9208 41.9189C19.5421 50.3266 26.3619 58.6751 33.9987 61.3931C34.5588 61.5446 35.2374 61.6402 35.8963 61.5347C36.5223 61.4326 37.1483 60.9121 37.2735 60.2993C37.5107 59.2483 37.0626 58.3061 36.6706 57.4034C36.0413 55.957 35.0266 54.6063 34.6016 53.1303C32.7138 47.154 38.9801 48.1588 42.6667 46.528C44.0965 45.991 45.3188 44.7193 45.3023 43.1313V43.1346Z" fill="#9FA5BE"/>
<path d="M56.6288 35.6823C54.4054 35.6823 52.6029 33.8798 52.6029 31.6563C52.6029 29.4329 54.4054 27.6304 56.6288 27.6304C58.8523 27.6304 60.6548 29.4329 60.6548 31.6563C60.6548 33.8798 58.8523 35.6823 56.6288 35.6823Z" fill="#9FA5BE"/>
<path d="M22.2731 32.4602C20.0496 32.4602 18.2472 30.6578 18.2472 28.4343C18.2472 26.2108 20.0496 24.4083 22.2731 24.4083C24.4966 24.4083 26.2991 26.2108 26.2991 28.4343C26.2991 30.6578 24.4966 32.4602 22.2731 32.4602Z" fill="#9FA5BE"/>
</svg>
