<?xml version="1.0" encoding="UTF-8"?><svg id="Layer_2" xmlns="http://www.w3.org/2000/svg" viewBox="0 0 800 950"><defs><style>.cls-1{fill:none;}.cls-1,.cls-2{stroke-width:0px;}.cls-2{fill:#5372c0;}</style></defs><path class="cls-1" d="M397.38,872.18c7.33,4.76,12.92,10.75,17.59,18.86,1.02,1.76,1.93,3.55,2.79,5.33-.79-4.63-2.24-8.92-4.32-12.76-5.76-10.68-17.55-17.57-32.06-19.2.97.34,1.93.7,2.87,1.07,4.74,1.87,9.15,4.12,13.12,6.7Z"/><path class="cls-1" d="M485.41,806.94c17.14-24.07,51.85-61,70.56-76.04-9.51,3.83-25.35,11.95-44.84,28.55-19.41,16.54-30.53,33.42-39.46,46.97-5.99,9.08-11.15,16.92-17.35,22.57-8.62,7.85-19.74,16.31-27.79,22.14,18.09-7.75,42.84-21.67,58.88-44.2Z"/><path class="cls-1" d="M607.61,766.62c-.26,1.22.23,1.4.55,1.52,1.53.56,4.59-.48,5.28-1.78.95-1.79,2.62-2.94,3.95-3.87.58-.41,1.45-1.01,1.65-1.33-.25-.95-2.16-3.25-3.84-4.87l-2.82-2.71,3.91.13c2.6.09,4.21-1.12,4.69-2.36.45-1.18-.04-2.5-1.36-3.61-3.71-3.11-12.09.25-18.31,4.68-.63.45-1.32.88-2.05,1.28,1.41.67,2.62,1.65,3.3,2.24,2.84,2.51,5.87,6.81,5.06,10.69Z"/><path class="cls-1" d="M497.12,853.33c10.89-1.98,21.65-5.21,32.05-8.33,8.47-2.54,17.23-5.17,26.06-7.13,22.59-5.01,45.63-6.48,68.61-4.36-19.17-8.75-44.86-8.46-59.44-7.36-17.33,1.31-34.23,5.64-50.57,9.83-8.16,2.09-16.35,4.71-24.27,7.23-11.17,3.56-22.71,7.25-34.4,9.55-7.39,1.46-15.01,2.39-22.43,3.25,2.43.46,4.73.85,6.83.95,19.98.9,39.35-.33,57.56-3.64Z"/><path class="cls-1" d="M589.06,784.78c.73-.98,1.46-2.31.79-3.11-1.54-1.82-8.52-2.01-15.7,1.07,4.76,2.48,12.38,5.43,14.91,2.04Z"/><path class="cls-1" d="M560.08,754.75c-.17-.22-.4-.42-.94-.42-.08,0-.17,0-.27.01-.78.08-1.36.43-1.83,1.12-2.26,3.29-1.15,11.97.11,18.09,2.58-7.56,4.68-16.48,2.92-18.81Z"/><path class="cls-1" d="M381.55,838.39c1.63-4.08,2.83-8.58,3.58-13.43-.53,1.4-1.08,2.8-1.68,4.2-4.02,9.39-8.82,16.33-15.09,21.84-3.42,3-7.21,5.61-11.28,7.77-1.31.7-2.66,1.35-4.03,1.95,12.83-1.43,23.36-9.5,28.5-22.32Z"/><path class="cls-1" d="M66.92,558.6c-.14-.28-.28-.58-.42-.88l-24.39-33.38c6.37,14.65,17.89,27.43,24.8,34.26Z"/><path class="cls-2" d="M632.38,711.37c-7.43-1.96-7.91-4.2-7.94-4.4.12-.76-.35-1.5-1.11-1.69-.8-.21-1.62.28-1.82,1.08-.21.82-.71,5.06,10.11,7.91,10.43,2.75,25.25-6.29,25.87-6.68l2.28-1.41-2.39-1.21c-.17-.08-4.21-2.08-18.7-5.19-18.5-3.97-29.58,9.61-38.23,22.92-.13-5.74-2.23-11.4-4.48-15.87-.37-1.64-.84-3.23-1.44-4.69-.15-.36-.3-.73-.46-1.1-.94-2.2-1.82-4.28-1.25-6.13.11-.35.26-.7.4-1.06.57-1.39,1.36-3.31.09-4.99-.23-.3-.48-.52-.68-.7-.1-.09-.24-.21-.28-.27-.05-.09-.08-.19-.12-.28-.1-.28-.24-.66-.52-1.02-1.05-1.39-3.03-1.49-5.06-.25-1.94,1.19-3.27,2.4-4.18,3.79-.7,1.06-1.13,2.25-1.25,3.45-1.81-.54-3.67-.86-5.57-.93-.54-.02-1.67-.07-2.58.69-.5.41-.84,1-1.04,1.74-.57,2.2.39,4.33,1.93,5.84-3.4,1.2-4.45,3.06-4.58,3.33l-.45.89.64.76c.44.52,10.92,12.76,18.96,9.35,1.9-.81,3.53-1.6,4.86-2.37l.28.4,3.11,4.44c.55,2.48.8,5.02.55,7.51-.09.92-.25,1.84-.49,2.74-.04.15-.05.3-.04.44l-.27.43c-4.63,7.39-9.66,14.67-14.97,21.61-6.84,8.96-14.25,17.49-22.12,25.57,2.31-6.38,6.19-18.87,3.01-23.11-.63-.84-1.82-1.79-3.9-1.59-1.65.16-3.04,1-4.01,2.41-4.29,6.26.29,23.43.83,25.36l.22.8c-21.1,20.84-45.45,38.4-71.86,51.67-15.54,7.8-31.84,14.13-48.6,18.91,17.37-8.34,38.38-21.72,52.7-41.83,21.75-30.55,65.76-75.04,78.05-81l1.21-.58-.86-2.55-1.32.28c-2.44.52-24.69,5.88-55.74,32.35-19.73,16.82-30.98,33.89-40.02,47.61-5.87,8.91-10.95,16.61-16.87,22.01-13.48,12.29-33.15,26.07-37.22,28.67h0s0,0,0,0c-17.12,3.56-34.59,5.55-52.14,5.91,9.54-3.71,17.17-11.29,21.41-21.87,2.18-5.44,3.62-11.57,4.28-18.24.17-1.71.2-3.46.23-5.14.02-.87.03-1.74.07-2.61l.45-11.15-3.39,10.67c-1.57,4.93-3.19,10.04-5.29,14.94-3.89,9.09-8.31,15.5-14.31,20.76-3.24,2.84-6.84,5.32-10.71,7.37-1.89,1-3.86,1.91-5.85,2.7-.35.14-.78.33-1.26.55-1.12.5-3.18,1.44-4.02,1.35l-.05.44c-17.22-.77-34.16-3.07-50.66-6.85,18.24-5.77,39.6-16.24,55.41-33.77l1.46-1.61-2.02-.79c-14.79-5.76-63.46-24.43-68.67-22.72-.59.2-1.51.47-2.72.84-2.95.89-7.39,2.23-12.96,4.1.63-2.51.22-5.23-1.17-7.45-2.99-4.76-5.96-10.52-5.39-17.21.19-2.28-.52-4.63-1.95-6.44-7.18-9.08-27.67-23.32-39.36-23.73-2.22-.07-4.44.78-6.22,2.41-2.31,2.12-5.65,4.27-8.03,5.7.28-3.61-1.15-7.02-4.21-9.99-7.73-7.51-23.17-9.97-31.28-7.07-1.61.57-3.01,1.72-4.16,3.4-2.08,3.04-8.11,6.24-11.35,7.96-.56.3-1.05.56-1.45.78-.3.16-.59.34-.86.54-4.66,3.28-7.86,6.03-10.03,8.4-7.39-9.04-14.17-18.46-20.33-28.23,15.92-7.97,17.08-31.91,9.87-51.82-1.04-2.71-1.75-4.36-3.34-4.12-1.6.24-1.7,1.78-1.93,5.48-.26,4.11-.65,10.33-2.9,14.64-4.27,8.16-7.64,16.13-5.72,29.2-5.08-8.59-9.68-17.43-13.8-26.48l.35.15-.91-1.37c-10.17-22.62-17.29-46.56-21.17-71.31,4.55-.5,17.69-2.06,22.23-4.09,6.22-2.78,8.98-9.13,10.91-25.17,1.12-9.32,3.34-15.62,4.67-19.39,1.24-3.54,1.99-5.67.06-6.69-1.9-1-3.32,1.01-5.11,3.56-2.07,2.95-4.91,6.99-8.82,8.24-1.22.39-2.59.64-4.05.9-7.13,1.28-16,2.86-18.99,22.38-.86,5.6-1.53,9.47-2.05,12.17-1.55-12.19-2.34-24.56-2.29-37.05.07-21.18,2.47-41.85,6.97-61.77,2.95,2.95,9.19,8.11,16.76,8.11,3.16,0,6.56-.9,10.05-3.24,14.08-9.45,24.19-19.81,24.29-19.92l1.58-1.63-2.13-.81c-.34-.13-32.13-11.92-48.51,9.06,2.84-10.97,6.31-21.69,10.4-32.11.25-.05.5-.14.7-.31l1.91.34c.54.09,6.32,1.08,13.7,1.08,9.89,0,22.64-1.77,29.48-9.8l25.23-29.63-3.36.09c-1.47.04-36.07,1.02-44.72,7.46-5.39,4.01-13.55,14.08-18.94,21.09,11.03-25.33,25.66-48.79,43.35-69.65,1.87,1.03,17.28,9.27,30.81,9.27,3.48,0,6.84-.55,9.81-1.9,14.16-6.46,37.63-13.25,37.86-13.32l2.88-.83-2.39-1.81c-.46-.35-11.37-8.51-26.66-11.92-10.77-2.41-25.27-2.66-39.46,6.37,13.99-14.4,29.54-27.32,46.42-38.49,2.62,3.81,14.67,20.58,24.49,21.7.77.09,1.69.13,2.75.13,5.13,0,13.36-.96,21.97-1.96,12.86-1.49,28.88-3.35,33.11-1.52l5.15,2.23-3.35-4.5c-.85-1.14-21.1-28.04-39.84-29.27-10.59-.7-23.24,2.64-32.28,5.7,14.39-8.51,29.65-15.8,45.64-21.7l-.22.16.36,1.05c.07.2,6.36,17.87,22.33,17.87,1.7,0,3.52-.2,5.45-.65,17.63-4.07,21.5-3.19,21.59-3.18l4.4,1.55-2.67-3.83c-.47-.68-11.75-16.61-27.98-19.35-.92-.16-1.84-.26-2.76-.33,9.77-2.78,19.78-5.07,30-6.81.11-.02.21-.05.31-.09l.36-.06c.94-.16,23.09-3.93,32.37-8.23,9.63-4.46,19.9-30.36,20.33-31.46l2.59-6.58-5.04,4.97c-5.7,5.63-10.14,5.49-16.29,5.29-4.96-.16-10.59-.34-18.17,2.39-15.59,5.61-17.33,25.68-17.51,30.93-16.33,2.82-32.31,7.07-47.78,12.65,6.48-4.62,11.42-9.76,12.71-11.77,6.76-10.61,8.14-23.98,9.48-36.91.4-3.9.79-7.59,1.31-11.18l.51-3.48-2.87,2.05c-.82.58-1.66,1.25-2.55,1.96-.87.69-1.76,1.4-2.61,2.01-24.05,17.23-37.19,32.91-39.05,46.59-.89,6.52.82,12.56,5.06,17.94-20.33,8.95-39.59,20.27-57.35,33.71,1.05-1.37,2.15-2.76,3.28-4.19,8.36-10.59,17.84-22.6,16.28-36.59-.72-6.46-2.32-12.81-3.87-18.96-2.22-8.84-4.52-17.98-4.11-27.31l-3-.13c-.49,10.98-7.63,21.96-14.54,32.57-12.41,19.08-25.24,38.81,1.08,58.37-14.41,11.41-27.78,24.24-39.86,38.37-3.94,4.61-7.72,9.35-11.35,14.18,3.78-7.7,13.47-28.82,12.56-41.27-1.1-14.95-14.27-43.87-14.83-45.1l-1.15-2.52-1.48,2.35c-.22.35-22.04,35.23-22.1,54.39-.05,16.52,22.33,34.74,23.29,35.5l.79.64c-7.01,9.7-13.37,19.8-19.07,30.24,8.51-25.27-14.8-42.3-15.06-42.48l-6.61-4.7,4.51,6.78s2.72,4.3-2.48,15.63c-6.13,13.37,13.11,31.81,13.94,32.59l1.06,1c-7.57,15.09-13.77,30.83-18.56,47.01l-.06-.26c-.95-4.29-.19-8.47.63-12.9.56-3.05,1.14-6.21,1.15-9.49.06-19.69-11.48-47.65-30.23-58.48l-2.12-1.23-.13,2.45c-.69,13.33-1.93,24.79-3.78,35.04-4.77,26.39,8.28,33.37,26.35,43.03,1.92,1.03,3.91,2.09,5.94,3.21l1.6.88c-5.83,20.33-9.41,41.35-10.6,62.68-2.38-4.29-9.69-18.26-11.5-31.26-1.56-11.16-16.19-25.88-26.87-36.63-4.61-4.65-8.97-9.03-9.62-10.65-.63-1.6-1.64-1.65-2.18-1.54-1.41.29-2.86.59-1.95,31.82l.02.21c3.73,21.54,11.8,36.6,23.98,44.79,11.65,7.82,23.22,6.7,26.34,6.21.29.42.76.65,1.24.65.12,0,.23-.02.35-.05-.16,3.78-.26,7.56-.27,11.35-.12,35.73,6.31,70.47,18.7,102.87-5.78-8.91-13.29-20.68-15.33-24.79-3.63-7.32-32.6-20.93-35.9-22.46l-4.87-2.26,2.99,4.46c.11.17,11.34,16.96,12.27,24.57,1.03,8.45,11.67,21.18,19.63,23.48,6.88,1.99,26.31,10.02,26.5,10.1l.12.05c5.55,12.55,12.01,24.71,19.37,36.39-18.62-13.12-39.59-2.74-39.83-2.62l-1.76.9,1.34,1.46c8.5,9.2,19.59,11.58,28.81,11.58,8.4,0,15.24-1.98,17.18-2.6,4.74,6.95,9.8,13.71,15.18,20.27-2.88,4.11-2.35,6.99-1.32,9.72.76,2.02,1.22,3.23-8.51,7-1.33.51-2.5,1.32-3.38,2.32-4.41,4.99-4.58,13.33-4.74,21.4-.13,6.59-.26,12.82-2.65,16.32-1.84,2.25-1.65,7.45-.64,11.63.63,2.61,2.6,8.88,7.21,10.75,4.17,1.59,7.7,4.81,11.12,7.93,4.68,4.27,9.5,8.66,16,8.88-4.36,11.1,3.45,15.69,10.38,19.76,1.51.89,3.07,1.8,4.49,2.77.67.45,1.59,1.42,1.93,2.03,3.76,6.62,12.82,5,20.1,3.7,1.39-.25,2.71-.49,3.89-.65,1.68-.23,3.28.15,4.51,1.08,3.26,2.45,8.07,3.52,13.19,3.52,3.14,0,6.39-.41,9.48-1.14,1.29,2.55,2.66,4.54,4.09,5.7,8.46,6.88,39.86,22.67,74.48,22.67,6.95,0,14.03-.64,21.08-2.11l1.93-.4-.9-1.75c-.12-.24-12.15-23.61-14.08-29.48-.07-.22-4.59-12.94-9.69-24.03,19.99,4.45,40.61,6.78,61.59,6.85.31,0,.61,0,.91,0,4.12,0,8.25-.09,12.37-.27v.04h0c1.13-.08,3.48.7,5.03,1.22.56.19,1.06.35,1.46.47,2.35.69,4.67,1.49,6.91,2.37,4.55,1.79,8.78,3.95,12.58,6.42,7.01,4.55,12.14,10.06,16.63,17.84,2.41,4.19,4.27,8.55,6.1,12.82l3.29,7.71-.41-8.37c-.04-.74-.05-1.48-.06-2.23-.03-1.46-.05-2.96-.25-4.46-.74-5.78-2.41-11.11-4.95-15.83-5.25-9.73-15.03-16.53-27.22-19.49,9.05-1.01,18.05-2.44,26.95-4.3.04,0,.08.02.12.02.18,0,.36-.03.54-.09l.35-.13s.05-.02.07-.03c.79-.17,1.58-.33,2.37-.51h0s.01,0,.02,0c3.48-.46,7.71.34,11.79,1.11,2.82.53,5.73,1.08,8.35,1.2,4.28.19,8.53.29,12.76.29,15.7,0,30.95-1.33,45.48-3.97,11.06-2.01,21.89-5.26,32.37-8.4,8.42-2.52,17.12-5.13,25.85-7.07,24.75-5.49,50.06-6.67,75.22-3.48l6.62.84-5.63-3.59c-19.15-12.22-47.5-12.94-67.92-11.41-17.59,1.33-34.62,5.7-51.09,9.92-8.24,2.11-16.47,4.74-24.43,7.28-11.09,3.54-22.55,7.19-34.07,9.46-4.6.91-9.31,1.61-14.01,2.22,15.33-4.66,30.25-10.59,44.53-17.76,25.48-12.8,49.07-29.58,69.72-49.41l15.28-.97c2.06,1.26,9.28,5.42,15.14,5.42,2.47,0,4.71-.74,6.21-2.75,2.64-3.53,1.55-5.8.67-6.84-3.07-3.64-12.74-3.1-21.16,1.17l-.09-.06-12.75.81c7.11-7.05,13.86-14.47,20.19-22.23.13.02.27.03.41.01.46-.05,8.67-1.05,15.84-3.67.38.29.9.38,1.39.22.75-.26,2.58.41,4.61,2.2,2.81,2.48,4.54,5.77,4.1,7.82-.5,2.36.42,4.21,2.46,4.95.63.23,1.33.33,2.05.33,2.71,0,5.8-1.46,6.9-3.52.61-1.15,1.89-2.04,3.02-2.82,1.53-1.06,3.26-2.27,2.91-4.24-.24-1.34-1.47-3.03-2.66-4.4,2.09-.64,3.72-2.02,4.43-3.88.93-2.42.09-5.03-2.24-6.98-5.3-4.45-15.15-.33-21.98,4.54-4.91,3.5-14.08,5.37-18.57,6.11.99-1.26,2-2.5,2.97-3.78,5.36-7.02,10.45-14.37,15.12-21.84l.38-.61c8.7-13.91,19.52-31.21,38.57-27.12,7.77,1.67,12.45,3,15.08,3.86-4.62,2.4-14.03,6.55-20.74,4.78ZM557.04,755.47c.47-.69,1.05-1.04,1.83-1.12.1,0,.19-.01.27-.01.54,0,.77.2.94.42,1.75,2.33-.34,11.25-2.92,18.81-1.26-6.12-2.37-14.8-.11-18.09ZM454.32,829.01c6.2-5.65,11.36-13.49,17.35-22.57,8.94-13.56,20.06-30.43,39.46-46.97,19.49-16.61,35.33-24.73,44.84-28.55-18.71,15.04-53.42,51.96-70.56,76.04-16.04,22.53-40.79,36.45-58.88,44.2,8.05-5.83,19.18-14.29,27.79-22.14ZM340.63,268.39c1.23,0,2.4.04,3.54.07,4.81.15,9.12.29,13.79-2.45-3.93,8.74-10.82,21.88-16.55,24.53-6.9,3.19-21.92,6.21-28.46,7.42.32-.53.71-1.15,1.15-1.82,3.39-5.14,10.2-13.78,19.65-17.65,1.05-.43,2.12-.8,3.23-1.1.8-.22,1.27-1.04,1.06-1.84-.21-.8-1.04-1.27-1.84-1.06-11.7,3.15-19.94,13.03-24.11,19.2,1.12-7.43,4.53-19.26,15.01-23.02,5.33-1.92,9.68-2.29,13.52-2.29ZM240.72,301.11c1.74-12.83,14.47-27.82,37.83-44.56.77-.55,1.55-1.16,2.32-1.77-.3,2.49-.57,5.03-.84,7.67-1.3,12.58-2.65,25.59-9.03,35.6-1.59,2.49-11.25,12.12-21.88,16.69,4.68-5.5,12.35-15.44,15.55-24.95.26-.79-.16-1.64-.94-1.9-.79-.27-1.64.16-1.9.94-.98,2.92-2.44,5.92-4.11,8.81-1.81,3.13-3.86,6.13-5.85,8.81-3.06,4.12-5.96,7.44-7.53,9.18-3.09-4.42-4.32-9.3-3.61-14.52ZM281.89,311.73c11.28,1.9,20.27,11.11,24.07,15.62-3.24.15-9.11.89-19.57,3.31-15.19,3.51-22.17-10.23-23.86-14.24,6.22-4.22,12.73-5.8,19.36-4.68ZM245.59,334.14c13.74.9,29.17,17.79,35.12,24.93-6.9-.55-18.77.83-30.33,2.17-10.21,1.19-19.85,2.3-24.03,1.83-6.91-.79-16.48-12.22-21.19-18.75,4.64.08,14.16.33,23.41,1.12,2.15.18,4.28.39,6.34.64,5.55.66,10.52,1.57,13.6,2.82.18.07.37.11.56.11.59,0,1.16-.35,1.39-.94.31-.77-.06-1.64-.83-1.95-8.39-3.39-28.82-4.4-39.93-4.7,8.66-3.22,23.91-8.05,35.89-7.27ZM182.02,299.39c4.84-7.44,9.79-15.04,12.63-22.85.8,5.73,2.21,11.33,3.59,16.82,1.52,6.05,3.09,12.3,3.79,18.56,1.43,12.76-7.26,23.76-15.65,34.4-1.41,1.78-2.74,3.49-4.03,5.19-.14-.68-.28-1.45-.43-2.3-1.12-6.55-2.21-17.56,1.36-24.71.4-.8.85-1.56,1.37-2.25.5-.66.37-1.6-.29-2.1-.66-.5-1.6-.37-2.1.29-6.3,8.35-4.44,23.45-3.03,30.78-19.87-16.97-9.33-33.19,2.8-51.82ZM216.85,389.05c-6.89,2.08-23.93,7.41-35.23,12.56-10.49,4.79-27.36-2.13-34.59-5.58,6.59-1.67,14.39-3.44,21.08-4.62,1.13-.2,2.23-.38,3.29-.54,5.19-.79,9.33-1.08,11.11-.49.79.26,1.64-.16,1.9-.94.26-.79-.16-1.64-.94-1.9-5.64-1.9-26.2,2.83-36.03,5.29,12.94-12.89,28.51-17.43,46.38-13.47,10.48,2.32,18.99,7.1,23.04,9.68ZM125.52,326.15c3.29,7.52,12.55,29.59,13.42,41.49.82,11.1-7.84,30.54-11.78,38.73-1.55-10.89-4.02-31.12-3.16-36.19.14-.82-.41-1.59-1.23-1.73-.81-.13-1.59.41-1.73,1.23-1.08,6.34,2.35,31.47,3.15,37.09-6.2-5.72-18.86-18.78-18.82-30.22.04-13.73,12.45-37.68,20.15-50.4ZM90.47,419.41c2.88-6.27,3.57-10.71,3.48-13.69,6.41,6.02,18.7,21.13,8.39,41.44-4.21-4.41-16.25-18.22-11.88-27.75ZM129.66,501.43c-3.42,3.29-11.62,10.79-22.07,17.81-10.78,7.23-20.54-1.74-23.62-5.09.26-.12.49-.32.65-.59,11.93-20.04,37.32-14.41,45.04-12.13ZM159.25,441.2l-20.84,24.47c-8.38,9.84-27.79,9.1-36.28,8.24,7.94-4.92,26.89-16.42,32.95-18.13.8-.23,1.26-1.05,1.04-1.85-.23-.8-1.06-1.26-1.85-1.04-7.43,2.1-31.52,17.08-36.45,20.17,4.45-5.99,15.45-20.37,21.82-25.11,5.9-4.39,28.13-6.24,39.62-6.75ZM77.4,494.28c-17.58-9.4-29.2-15.61-24.81-39.85,1.76-9.71,2.97-20.49,3.69-32.88,16.58,11.1,26.68,36.45,26.62,54.56,0,3.02-.56,6.04-1.1,8.96-.46,2.5-.92,5.05-1.06,7.66-.6-1.04-1.25-2.2-1.95-3.47-4.4-8.03-10.38-20.3-12.68-31.38-.43-2.04-.73-4.05-.87-5.97-.06-.83-.77-1.44-1.61-1.39-.83.06-1.45.78-1.39,1.61,1.12,15.15,11.16,34.03,16.25,42.74-.36-.19-.73-.39-1.09-.58ZM66.92,558.6c-6.92-6.83-18.43-19.61-24.8-34.26-.74-1.71-1.43-3.43-2.02-5.18-.26-.78-1.11-1.21-1.9-.95-.79.26-1.21,1.11-.95,1.9,6.84,20.42,24.28,37.78,30.88,43.82-4.5.25-13.09-.25-21.64-5.99-11.46-7.7-19.09-22.06-22.68-42.7-.29-10.16-.33-21.18.02-26.4,1.67,2.07,4.49,4.94,8.61,9.08,9.8,9.86,24.6,24.76,26.02,34.93,1.26,9.05,4.96,18.34,8.04,24.87.14.3.28.59.42.88ZM99.34,584.07c1.56-.28,3.03-.54,4.44-1,4.74-1.52,8-6.01,10.18-9.12-.02.05-.04.11-.06.16-1.36,3.88-3.65,10.38-4.81,20.02-2.01,16.62-4.77,20.83-9.16,22.79-3.06,1.37-10.95,2.56-16.6,3.28,7.77-5.61,21.65-17.71,25.88-34.92.2-.8-.29-1.62-1.1-1.81-.81-.2-1.62.3-1.81,1.1-.28,1.15-.62,2.27-.99,3.37-5.15,15.26-18.39,26.07-24.98,30.68-.03.02-.05.04-.08.06.65-2.99,1.45-7.6,2.55-14.74,2.67-17.4,9.73-18.66,16.55-19.88ZM73.16,658.02c2.74,5.53,14.58,23.73,19.97,31.94-6.24-2.53-17.31-6.93-22.32-8.38-6.25-1.81-16.54-13.16-17.49-20.96-.7-5.79-6.36-15.69-9.91-21.43,12.22,5.97,27.63,14.56,29.75,18.82ZM79.41,730.21c5.92-2.38,24.28-7.92,39.53,7.17-6.65,1.72-26.27,5.35-39.53-7.17ZM118.13,726.2c-3.11-14.58.15-22.5,4.72-31.23,2.39-4.57,2.9-10.64,3.18-14.97,5.91,17.49,5.02,38.73-7.9,46.21ZM223.95,890.37c-1.05-.85-2.07-2.3-3.07-4.18,3.01-.96,5.76-2.25,7.93-3.79,4.1-2.91,6.1-6.53,5.79-10.4,1.74-.05,4.3-.76,7.85-3.23.18-.13.36-.23.53-.33.25-.15.5-.27.73-.37,4.72-1.88,7.67-2.24,9.83-2.5,1.04-.12,1.91-.27,2.68-.5,6.39,2.78,12.73,6.4,18.39,11.17,2.72,2.29,6.15,5.4,9.47,8.42,2.08,1.89,4.1,3.72,5.87,5.29,1.68,1.48,3.14,2.72,4.21,3.54.27.21.59.3.9.3.45,0,.9-.21,1.2-.59.5-.66.37-1.6-.29-2.1-2.11-1.6-5.88-5.03-9.88-8.66-3.34-3.03-6.79-6.17-9.55-8.5-5.4-4.54-11.32-8.08-17.32-10.86.56-.69,1.09-1.58,1.65-2.74.22-.46.44-.95.67-1.5.2-.47.4-.97.61-1.5.62-1.59,1.31-3.51,2.12-5.83.16-.46.29-.92.37-1.38.06-.33.12-.67.19-1.01.17-.95.35-1.95.52-3,.32-1.95.62-4.03.9-6.16,9.41,1.88,15.69,3.84,17.18,4.32,1.22.4,3.32,3.72,5.69,8.33.1.2.2.4.31.6.13.25.25.49.38.75.22.44.44.88.66,1.34.23.46.45.94.68,1.42,4.16,8.74,8.62,19.88,10.58,25.84,1.71,5.18,10.47,22.49,13.35,28.14-40.49,7.57-81.4-12.42-91.12-20.33ZM197.09,882.22c-1.52-1.14-3.39-1.74-5.37-1.74-.44,0-.89.03-1.35.09-1.25.17-2.6.41-4.02.67-6.35,1.14-14.25,2.55-16.96-2.22-.65-1.15-1.96-2.42-2.86-3.03-1.5-1.02-3.11-1.96-4.65-2.87-7.3-4.29-13.07-7.68-8.53-17.41.09-.19.14-.39.16-.59,4.64-5.05,10.02-8.06,15.24-10.96,8.84-4.91,17.97-9.98,22.25-24.89,6.34,2.75,11.24,8.52,15.6,15.26.3.46.6.93.9,1.4.32.51.63,1.03.95,1.55,1.69,2.8,3.31,5.7,4.92,8.59,1.33,2.39,2.68,4.8,4.07,7.16.31.53.62,1.05.94,1.57.32.53.65,1.06.97,1.58.37.6.75,1.19,1.13,1.77,3.23,4.93,6.79,9.31,11.01,12.35l-.23.07c1.36,4.33-1.53,7.5-4.2,9.39-2.11,1.5-4.7,2.68-7.48,3.54-.48.15-.96.28-1.45.41-.48.13-.96.24-1.44.34-7.39,1.63-15.45,1.08-19.6-2.03ZM118.63,818.64l.09-.12c2.94-4.23,3.07-10.93,3.22-18.02.15-7.52.31-15.3,3.99-19.47.57-.65,1.34-1.17,2.22-1.51h0c5.41-2.09,8.39-3.72,9.8-5.4.08.01.15.02.24.02.05,0,.09,0,.14,0,5.98,0,12.37,8.22,18.55,16.16,5.04,6.48,10.26,13.18,15.68,15.98l.18.09.19.04c2.49.54,5.57,3.17,8.28,5.48,2.69,2.29,5.11,4.35,7.31,4.88,0,.04.01.08.02.13-3.75,14.92-12.25,19.64-21.24,24.63-5.38,2.99-10.93,6.08-15.85,11.38-6.07.47-10.62-3.67-15.43-8.06-3.62-3.3-7.37-6.72-12.04-8.5-2.26-.92-4.33-4.24-5.4-8.67-1.11-4.57-.68-8.19.06-9.04ZM150.58,751.67c.19-.13.38-.25.58-.36.39-.21.87-.47,1.41-.76,3.71-1.97,9.92-5.26,12.42-8.91.79-1.15,1.69-1.91,2.69-2.27,7.11-2.54,21.51-.08,28.18,6.4,3.05,2.96,4.01,6.29,2.85,9.89-.06.18-.08.36-.08.54-.09.13-.17.27-.22.42-3.17,9.83-3.86,19.63-4.53,29.12-.53,7.44-1.04,14.58-2.64,21.59-.24,1.05-.5,2.09-.79,3.13-.32,1.15-.68,2.3-1.08,3.45-1.41-.2-4.24-2.62-6.2-4.29-3.06-2.61-6.23-5.31-9.39-6.08-4.79-2.55-9.74-8.91-14.53-15.07-6.73-8.64-13.09-16.8-20.26-17.27-.03-.78-.24-1.6-.59-2.53-.57-1.5-1.25-3.3.53-6.25.45-.74,1.05-1.56,1.85-2.46,1.93-2.18,5.01-4.87,9.82-8.27ZM216.32,748.49c10.73.38,30.43,14.14,37.11,22.59.97,1.22,1.45,2.8,1.32,4.33-.64,7.56,2.59,13.88,5.84,19.06,1.09,1.73,1.31,3.89.6,5.79-.17.44-.32.87-.47,1.29-.23.63-.43,1.23-.62,1.82-.2.61-.37,1.2-.51,1.77-.4,1.54-.61,2.96-.58,4.36-1.25-.19-2.5-.39-3.75-.6-1.34-.22-2.69-.45-4.06-.65-1.01-.15-2.03-.29-3.07-.4-1.1-.12-2.22-.22-3.36-.28-6.31-.33-13.33.45-22.1,4.29-7.7,2.59-13.74,2.49-19.06,2.41-.85-.01-1.69-.02-2.52-.03-1.69,0-3.34.04-4.99.22-.37.04-.75.09-1.12.15.17-.18.35-.36.54-.55.65-.66,1.37-1.38,2.16-2.15.72-.7,1.5-1.44,2.33-2.2.72.2,1.46.25,2.14.25.47,0,.92-.03,1.31-.05l.45-.02c1-.05,2.14-.21,3.09-1.01,1.91-1.63,2.61-4.02,1.86-6.42,1.45-1.04,2.95-2.04,4.48-2.96.6.15,1.22.23,1.83.23,1.82,0,3.59-.64,4.69-1.82.86-.92,2.05-2.95.44-6.22-.37-.74-.9-1.39-1.56-1.89h0c-.62-.47-1.33-.79-2.07-.93-1.88-.34-4.38.37-5.93,1.71-1.1.94-1.74,2.25-1.78,3.6-.03,1.05.25,2.02.77,2.85-1.08.69-2.15,1.41-3.19,2.16-.87-.66-1.88-1.09-2.96-1.18-2.38-.22-4.74.97-6.01,3-1.09,1.73-1.31,4.2-.58,6.02-.96.89-1.86,1.75-2.68,2.55-.25.24-.49.48-.72.72.09-.35.18-.7.26-1.05,1.91-7.74,2.47-15.61,3.02-23.28.66-9.28,1.34-18.88,4.38-28.34,1.82-1.01,7.45-4.24,10.98-7.49,1.2-1.1,2.65-1.66,4.09-1.62ZM345.53,820.11c-15.55,16.45-36.08,26.25-53.48,31.64-2.81-5.43-5.58-9.62-7.7-10.31-1.54-.5-8.02-2.52-17.75-4.45.33-2.91.6-5.82.76-8.52.09-1.47.14-2.87.16-4.17,4.82-1.03,9.63-1.8,14.23-2.17,3.97-.31,8.36-.22,12.24-.14.63.01,1.23.03,1.83.04,3.12.06,5.81.07,7.75-.22.82-.12,1.39-.88,1.27-1.7-.12-.82-.88-1.39-1.7-1.27-2.06.3-5.32.23-9.08.15-3.94-.08-8.41-.18-12.54.15-4.63.37-9.45,1.14-14.28,2.15-.29-1.13-.77-2.2-1.44-3.13-4.24-5.92-4.62-8.55-2.72-14.26,6.56-2.26,11.76-3.82,15.06-4.81,1.24-.37,2.18-.66,2.77-.85,3.46-.75,35.48,10.56,64.63,21.86ZM223.12,856.71c-.35-.54-.7-1.08-1.05-1.63-.34-.53-.67-1.07-1-1.62-1.71-2.82-3.38-5.81-5.08-8.86-1.43-2.56-2.86-5.13-4.35-7.64-.28-.47-.56-.95-.85-1.42-.29-.48-.59-.95-.88-1.42-4.28-6.83-9.08-12.91-15.33-16.43,1.81-.35,3.66-.45,5.6-.47,1.09,0,2.2,0,3.36.03.72.01,1.45.02,2.19.03,5.05.04,10.77-.19,17.94-2.61l.12-.05c4.88-2.15,9.21-3.28,13.17-3.79,1.58-.2,3.1-.29,4.58-.32,1.26-.02,2.48.01,3.68.09,3.32.21,6.45.72,9.53,1.24,1.46.24,2.92.49,4.38.7.11.02.21.02.32.01.61,2.17,1.84,4.49,3.89,7.35.44.61.74,1.31.94,2.04.13.48.2.97.22,1.48,0,.07.02.14.02.21,0,.43,0,.88-.02,1.34-.03,1.31-.1,2.72-.2,4.18-.16,2.32-.38,4.79-.67,7.27-.06.5-.12,1-.18,1.51-.06.49-.12.98-.18,1.47-.25,1.97-.53,3.9-.82,5.72-.17,1.04-.34,2.05-.51,3-.09.5-.18.98-.27,1.45-.06.31-.15.63-.26.95-1,2.86-1.77,5.01-2.42,6.64-.21.52-.4.98-.59,1.39-.24.52-.46.98-.67,1.36-.51.91-.98,1.48-1.51,1.85-.63.44-1.34.6-2.28.73-.25.03-.51.07-.79.1-.67.08-1.47.18-2.38.33-2.04.34-4.69.95-8.21,2.36-.61.24-1.22.58-1.86,1.03-.34.24-.67.45-.98.65-3.02,1.91-4.79,2.11-5.62,2.04-.1-.28-.29-.53-.55-.71-2.84-1.97-5.36-4.61-7.69-7.68-.94-1.24-1.86-2.54-2.76-3.9ZM205.98,803.34c.09.29.17.7.15,1.15-.03.66-.29,1.42-1.08,2.1-.26.22-.8.28-1.29.3l-.47.03s-.08,0-.13,0c-2,.11-2.91,0-3.34-.89-.17-.36-.25-.83-.25-1.33,0-.75.19-1.55.54-2.12.63-1,1.75-1.62,2.92-1.62.1,0,.19,0,.29.01h0c.21.02.41.07.61.14.92.32,1.72,1.16,2.06,2.22ZM211.95,794.25c.01-.49.29-1.02.73-1.4.74-.63,2-1.07,2.98-1.07.17,0,.32.01.47.04.27.05.55.17.79.36.29.22.52.51.68.83,0,.01,0,.03.02.04.6,1.24.62,2.19.04,2.81-.82.88-2.72,1.14-4.15.55-.56-.23-.96-.55-1.22-.94-.23-.35-.34-.75-.33-1.22ZM357.09,858.76c4.07-2.16,7.86-4.77,11.28-7.77,6.27-5.5,11.06-12.44,15.09-21.84.6-1.39,1.15-2.79,1.68-4.2-.74,4.85-1.94,9.35-3.58,13.43-5.14,12.82-15.67,20.88-28.5,22.32,1.37-.6,2.72-1.25,4.03-1.95ZM413.45,883.6c2.07,3.84,3.52,8.13,4.32,12.76-.85-1.78-1.77-3.57-2.79-5.33-4.68-8.11-10.27-14.1-17.59-18.86-3.97-2.58-8.38-4.83-13.12-6.7-.94-.37-1.9-.73-2.87-1.07,14.51,1.63,26.29,8.52,32.06,19.2ZM455.17,852.78c11.69-2.3,23.24-5.99,34.4-9.55,7.92-2.53,16.11-5.14,24.27-7.23,16.34-4.19,33.24-8.53,50.57-9.83,14.58-1.1,40.27-1.39,59.44,7.36-22.98-2.11-46.02-.65-68.61,4.36-8.84,1.96-17.59,4.59-26.06,7.13-10.4,3.12-21.15,6.34-32.05,8.33-18.22,3.31-37.59,4.54-57.56,3.64-2.1-.09-4.4-.49-6.83-.95,7.42-.86,15.04-1.79,22.43-3.25ZM589.84,781.67c.68.8-.05,2.14-.79,3.11-2.53,3.38-10.15.43-14.91-2.04,7.18-3.08,14.16-2.89,15.7-1.07ZM601.31,752.41c6.22-4.44,14.6-7.79,18.31-4.68,1.32,1.11,1.82,2.42,1.36,3.61-.47,1.24-2.08,2.45-4.69,2.36l-3.91-.13,2.82,2.71c1.69,1.62,3.59,3.92,3.84,4.87-.2.32-1.07.92-1.65,1.33-1.34.93-3,2.09-3.95,3.87-.7,1.3-3.75,2.34-5.28,1.78-.32-.12-.81-.29-.55-1.52.82-3.88-2.21-8.18-5.06-10.69-.68-.6-1.89-1.57-3.3-2.24.73-.4,1.42-.83,2.05-1.28ZM593.19,708.18l.09.46.26.25c.03.08.06.19.08.31l-.64.42c-.11.07-.24.15-.36.22-1.32.84-3.07,1.73-5.26,2.65-4.52,1.92-11.43-4.11-14.63-7.55.8-.64,2.4-1.53,5.35-1.87l6.55-.77-6.24-2.14c-.27-.09-.54-.19-.81-.32-1.59-.73-3.05-2.46-2.65-4.01.02-.08.04-.14.06-.18.07-.01.22-.03.53-.02,2.35.09,4.64.61,6.8,1.53l3.08,1.3-1.07-3.17c-.14-.4-.19-.84-.15-1.31.06-.75.34-1.53.79-2.22.66-1.01,1.69-1.92,3.24-2.88.5-.31.93-.42,1.13-.43.03.06.04.12.07.19.09.24.2.54.39.84.26.41.57.68.82.91.11.1.23.2.28.26.24.32-.15,1.28-.47,2.04-.18.44-.36.89-.49,1.32-.36,1.17-.37,2.33-.2,3.45.19,1.24.61,2.44,1.08,3.58.16.39.32.78.48,1.15.15.35.3.71.44,1.05.59,1.45,1.05,3.03,1.4,4.68.01.07.04.14.05.21Z"/><path class="cls-2" d="M398.73,76.72c-8.68,10.14-10.82,18.59-8.92,22.74.84,1.83,2.45,2.83,4.41,2.73,3.63-.17,9.22-4.54,14.38-15.76.79,9.79,5.1,16.73,9.89,19.01,1.06.51,2.12.76,3.12.76,1.46,0,2.79-.53,3.82-1.58,3.48-3.55,2.8-11.51-1.81-22.19,11.41,6.97,19.01,7.33,22.23,5.25,1.59-1.03,2.31-2.68,1.96-4.55-.65-3.49-5.32-8.26-16.07-11.72,9.36-2,15.16-6.9,16.54-10.56.72-1.91.38-3.69-.95-4.89-3.19-2.88-11.34-1.61-22.7,3.44,4.14-7.99,4.81-18.39,2.66-22.53-1.12-2.15-2.7-2.34-3.56-2.26-3.73.35-7.89,7.44-12.38,21.12-4.41-11.8-11.06-17.32-16.13-17.51-2.72-.11-4.87,1.3-5.78,3.75-1.56,4.2.48,11.6,10.01,20.69-5.18-.82-11.99-1.1-16.6-.25-3.39.62-5.55,1.75-6.59,3.43-2.54,2.38-2.28,4.34-1.6,5.57,2.52,4.59,16.33,5.64,24.08,5.3ZM378.44,67.91l.19-.17.12-.23c.27-.5,1.18-1.44,4.21-2.06,5.8-1.19,14.71-.27,19.08.76-1.15,2.05-1.81,4.27-1.8,6.36,0,.38.04.74.09,1.1-6.55.63-21.4-.67-23.05-3.69-.33-.6.58-1.55,1.16-2.07ZM392.24,43.03c.58-1.56,1.88-1.83,2.86-1.8,4.25.16,10.41,5.92,14.3,18.09-.24.11-.48.2-.72.33-1.61.84-3.09,2.02-4.34,3.39-11.64-9.94-13.15-17.19-12.1-20.01ZM424,37.61c.26-.04.56.54.62.66,1.83,3.52.95,15.7-4.81,23.13-.66-.56-1.36-1.11-2.14-1.64-1.19-.85-2.57-1.28-4.04-1.33,6.42-20.2,10.21-20.8,10.37-20.82ZM445.31,58.2c.15.14.56.51.15,1.6-1.4,3.71-9.2,8.86-20.45,9.45-.44-1.8-1.34-3.64-2.78-5.41,14.99-7.29,21.57-7.02,23.08-5.65ZM444.22,85.17c-2.32,1.49-9.75.84-21.09-6.59.23-.3.45-.61.65-.93.87-1.44,1.41-3.11,1.54-4.88,13.36,3.11,19.02,8.16,19.54,10.92.12.66-.07,1.12-.63,1.48ZM419.78,102.74c-3.52-1.68-8.38-8.38-8.31-19.73.72.11,1.43.17,2.11.17,2.37,0,4.52-.65,6.31-1.72,5.68,12.21,5.45,18.95,3.39,21.06-1.04,1.06-2.48.71-3.5.22ZM394.07,99.2c-.74.03-1.21-.27-1.54-.98-1.26-2.77.31-10.39,9.35-20.53.98,1.38,2.36,2.56,4.13,3.44.44.24.88.45,1.32.64-5.35,13.42-10.9,17.32-13.26,17.43ZM410.05,62.31c.06-.03.14-.06.21-.1.63-.31,1.48-.63,2.42-.75.22-.03.45-.06.68-.06.86,0,1.75.21,2.58.81l.04.03c.71.48,1.34.97,1.92,1.47.57.49,1.09,1,1.54,1.51,1.21,1.36,2.01,2.75,2.45,4.12.31.95.45,1.88.44,2.78-.01,1.46-.42,2.82-1.12,3.98-.17.28-.36.54-.56.79-.57.72-1.27,1.35-2.08,1.86-1.84,1.16-4.25,1.7-6.96,1.22-.49-.09-.99-.21-1.49-.37-.11-.03-.21-.06-.32-.1-.46-.15-.92-.34-1.39-.55-.33-.15-.66-.31-1-.49-1.41-.7-2.46-1.58-3.15-2.61-.29-.42-.51-.88-.67-1.35,0-.01,0-.02-.01-.03-.16-.47-.25-.97-.28-1.49-.01-.15-.03-.29-.03-.44-.03-3.74,2.96-8.23,6.81-10.23Z"/><path class="cls-2" d="M215.25,596.96c.37-1.77-.53-3.47-2.48-4.64-4.29-2.58-14.06-2.87-23.02,2.02,6.42-13.04,6.42-21,4.19-24.01-1.01-1.36-2.55-1.93-4.22-1.55-4.07.92-9.33,7.83-12.78,21.22-3.96-11.08-8.82-17.75-13.36-18.15-1.86-.17-3.43.79-4.33,2.59-2.21,4.44-.24,13.58,7.36,23.46-14.01-3.41-21.83-1.09-24.36,2.22-1.3,1.71-1.38,3.74-.21,5.58,2.5,3.96,10.76,6.73,23.94,4.82-9.63,10.25-12.61,18.96-11.13,23.06.58,1.6,1.85,2.58,3.48,2.69,4.58.29,11.01-6.09,17.34-16.96,1.07,13.52,5.47,19.97,9.25,21.38.59.22,1.18.33,1.75.33,1.3,0,2.5-.56,3.46-1.63,2.71-3.06,3.61-10.88-1.82-23.37,10.51,6.37,18.65,8.69,22.23,6.21,1.39-.96,1.94-2.55,1.52-4.35-.95-4.02-6.67-8.91-15.91-11.74,11.6-2.17,18.3-5.36,19.1-9.18ZM208.84,619.77c-1.53,1.06-7.61.78-19.95-6.91,1.18-1.38,1.93-3.02,2.23-4.9,11.09,2.31,17.28,7.5,18.02,10.61.2.84-.14,1.08-.31,1.2ZM185.98,637.9c-2.68-1-6.59-7.2-7.38-20.17.42-.03.83-.07,1.23-.16,1.95-.43,3.65-1,5.1-1.72,5.49,11.96,4.9,19.39,2.96,21.57-.55.62-1.15.77-1.92.48ZM157.68,632.57c-1.04-2.88,1.82-10.88,10.97-20.47.58.98,1.28,1.89,2.13,2.69.88.82,1.87,1.47,2.91,1.96-6.97,12.32-12.81,16.68-15.16,16.54-.37-.02-.66-.16-.86-.72ZM144.59,604.1c-.49-.78-.47-1.46.06-2.16,1.8-2.37,9.33-4.32,22.93-.69-.19.61-.35,1.25-.46,1.95-.21,1.43-.21,2.81-.05,4.12-13.48,2.28-20.81-.55-22.49-3.21ZM161.94,575.78c.45-.9.97-.97,1.38-.94,2.08.18,7.12,4.48,11.81,19.18-1.84.56-3.74,1.55-5.25,3.17-7.92-9.77-9.51-18.26-7.95-21.41ZM190.38,571.71c.52-.12.84,0,1.15.41,1.61,2.17,1.28,10.03-5.62,23.14-1.94-1.28-4.21-1.95-6.35-1.84-.11,0-.23,0-.35,0,3.27-14.65,8.5-21.11,11.17-21.71ZM176.58,614.6c-.49-.11-.97-.26-1.45-.47-.82-.37-1.6-.88-2.3-1.53-.61-.57-1.37-1.46-1.97-2.72-.22-.47-.41-.98-.57-1.55,0-.03-.01-.06-.02-.08-.12-.46-.21-.95-.26-1.48-.1-.93-.09-1.97.08-3.13.08-.57.22-1.08.37-1.56.33-1.03.81-1.88,1.39-2.57,1.19-1.42,2.75-2.19,4.16-2.6,1-.29,1.92-.41,2.57-.45.3-.02.54-.03.7-.03.12,0,.19,0,.22,0h.08s.08,0,.08,0c1.6-.1,3.33.44,4.8,1.48.26.18.51.37.74.58.14.12.28.26.43.41,0,0,.02.02.03.03.32.33.64.72.95,1.16.71,1.05,1.33,2.45,1.57,4.28.04.3.08.6.1.92.01.2,0,.39.01.58,0,.03,0,.05,0,.08,0,.53-.04,1.03-.11,1.5-.23,1.49-.82,2.75-1.82,3.8-.35.37-.74.7-1.19,1.02-.08.05-.15.11-.23.16-.4.27-.84.51-1.31.74-1.23.6-2.7,1.09-4.45,1.47-.23.05-.47.08-.72.1-.49.04-1,.01-1.51-.07-.13-.02-.25-.04-.38-.07ZM212.32,596.34c-.37,1.77-5.32,5.24-21.17,7.6-.32-2.41-1.16-4.27-2.13-5.66,5.27-3.52,10.94-4.8,15.4-4.8,2.97,0,5.4.57,6.81,1.41.57.34,1.21.87,1.09,1.45Z"/><path class="cls-2" d="M93.12,223.06c1.77-.55,3.99-1.82,5.97-3.11-.22.52-.43,1.04-.61,1.54-.34.94-3.32,9.51-2.18,19.43.45,3.92,1.35,5.84,3.01,6.4.3.1.6.15.9.15,1.77,0,3.42-1.71,5.15-3.5l.23-.24c2.26-2.34,4.58-12.32,5.95-19.19,3.21,7.07,9.67,12.74,15.38,15.05,1.06.43,4.29,1.73,6.11-.14,1.61-1.65,1.27-4.72-1.14-10.25-1.37-3.14-5.82-8.53-9.15-12.34,6.94,1.01,16.34-.31,16.47-.33.08-.01,7.6-1.47,8.07-5.25.35-2.86-3.35-4.43-4.56-4.94-4.75-2.01-10.94-2.27-15.9-2.04,6.68-4.54,13.39-11.6,13.96-14.17.2-.92.74-3.37-.86-4.91-1.38-1.33-3.79-1.49-7.58-.49-7.11,1.87-13,7.4-16.46,11.34.19-2.26.36-5.17.42-8.6.12-6.91-2.38-14.79-5.46-17.23-1.16-.92-2.19-.91-2.85-.74-3.82.98-5.47,6.94-5.73,12.18-.17,3.4.29,10.42.65,15.07-2.56-2.83-6.25-6.77-9.01-9.19-4.86-4.25-11.22-4.99-13.89-3-2.37,1.76-.79,4.29.88,6.96.8,1.28,1.8,2.88,2.72,4.77,1.97,4.06,8.46,8.47,12.66,11-4.21.77-10.63,2.09-14.56,3.65-4.47,1.77-8.17,5.21-9,8.36-.34,1.29-.15,2.47.54,3.33,2.39,2.96,16.72,1.41,19.88.43ZM81.81,186.95c1.15-.81,5.9-.81,10.1,2.87,2.94,2.57,7.1,7.1,9.59,9.88-1.52,1.19-2.79,2.86-3.5,5.15-4.25-2.55-10.13-6.61-11.71-9.86-.99-2.03-2.03-3.71-2.88-5.05-.69-1.1-1.53-2.45-1.61-2.98ZM137.82,187.38c.12.11.35.54.01,2.1-.5,1.92-9.82,11.67-17.05,14.88-.83-2.1-2.06-3.57-3.15-4.53-.19-.17-.4-.33-.6-.48,2.96-3.6,8.94-9.85,16.05-11.72,3.81-1,4.66-.33,4.74-.25ZM144.29,210.91c-.12.76-3.38,2.32-5.55,2.65-3.86.6-12.96,1.17-17.69-.08.52-1.42.74-3.01.64-4.78-.02-.33-.07-.63-.1-.95,4.57-.56,13.81-1.25,19.94,1.35,2.55,1.08,2.75,1.81,2.75,1.81ZM130.88,237.36c-.08.09-.85.25-2.84-.55-5.92-2.39-12.71-8.8-14.85-16.47,2.38-.83,4.25-1.95,5.64-3.35,3.2,3.55,8.87,10.11,10.3,13.41,2.6,5.98,1.75,6.95,1.74,6.96ZM100.27,244.45c-.17-.2-.67-1.02-.99-3.87-1.06-9.24,1.71-17.19,2.02-18.06.36-.99.83-2.06,1.3-3.05,1.79,1.21,3.84,1.88,5.84,1.88.23,0,.45-.02.68-.04-1.59,8.37-4.05,18.65-5.68,20.33l-.24.24c-.87.9-2.3,2.38-2.93,2.56ZM103.5,201.94c.87-.66,1.82-1.08,2.72-1.37,1.56-.49,2.96-.55,3.49-.55.12,0,.19,0,.22,0h.08s.08,0,.08,0c.74-.05,1.52.05,2.28.27.49.14.97.33,1.44.56.04.02.08.04.11.06.44.23.86.5,1.26.81.15.12.3.23.44.36,1.29,1.14,2.87,3.25,3.06,6.79.09,1.67-.16,3.11-.78,4.33-.06.12-.12.24-.19.36,0,0,0,0,0,0-.25.44-.56.84-.91,1.22-1,1.07-2.4,1.92-4.23,2.59-.88.32-1.85.6-2.92.84-.02,0-.04,0-.06.01-1.83.4-3.94-.16-5.67-1.47-.24-.18-.47-.37-.69-.57-.15-.14-.3-.29-.46-.47-.04-.05-.09-.1-.13-.15-.29-.34-.6-.74-.89-1.21-.71-1.15-1.31-2.71-1.39-4.74-.02-.48-.01-.99.03-1.52,0-.05.01-.1.02-.15.02-.24.05-.48.08-.72.04-.3.11-.57.18-.84.49-2.09,1.55-3.5,2.8-4.45ZM112.73,197.28c-.92-.22-1.84-.32-2.74-.26-1.12-.04-2.54.09-4.02.49-.36-4.51-.9-12.23-.73-15.68.28-5.61,2-9.04,3.41-9.42,1.38.24,4.77,7.13,4.63,15-.07,4.14-.32,7.53-.55,9.87ZM97.41,210.14c.15,2.23.81,4.26,1.94,6.01-2.26,1.59-5.18,3.44-7.12,4.04-4.02,1.24-15.27,1.57-16.66.55-.05-.06-.08-.29.02-.68.5-1.88,3.19-4.74,7.21-6.33,3.86-1.53,10.54-2.86,14.61-3.59Z"/><path class="cls-2" d="M224.21,795.33c.46.12.93.18,1.39.18,2.35,0,4.62-1.53,5.52-3.91,1.08-2.83-.11-6.38-2.6-7.74-2.12-1.17-4.84-.61-6.34,1.3-1.2,1.53-.96,5.41-.26,7.51.49,1.49,1.26,2.38,2.28,2.65ZM227.09,786.5c1.18.65,1.78,2.61,1.24,4.05-.5,1.33-1.95,2.18-3.21,1.92-.73-.82-1.01-4.63-.56-5.45.59-.75,1.7-.97,2.53-.52Z"/><path class="cls-2" d="M227.93,797.38h0c-1.79-1.22-4.66-1.06-6.15.33-.97.91-4.35,4.85-3.14,7.58.37.83,1.24,1.78,3.3,1.78.19,0,.39,0,.61-.03,1.92-.16,3.37-1.39,4.7-2.65.64-.6,1.6-1.51,2.02-2.82.54-1.68.05-3.24-1.33-4.18ZM226.41,800.65c-.17.54-.66,1.03-1.23,1.57-.94.89-1.93,1.76-2.88,1.83-.54.04-.81,0-.92-.05-.05-.68,1.04-2.78,2.45-4.1.43-.4,1.75-.49,2.41-.04.16.11.34.24.16.79Z"/><path class="cls-2" d="M218.87,807.29c-1.52-3.05-5.31-2.96-8.4-1.51-1.4.65-3.11,3-3.14,4.94-.02,1.1.5,2.01,1.43,2.48.58.29,1.19.38,1.75.38.28,0,.55-.02.79-.05l.52-.05c2.42-.24,5.73-.57,7.05-3.49.41-.92.41-1.85,0-2.69h0ZM210.35,810.57c.14-.65.96-1.85,1.4-2.07,1.23-.57,3.73-1.28,4.44.13,0,.02-.01.06-.04.12-.56,1.25-2.27,1.51-4.61,1.74l-.55.06c-.3.03-.51.03-.64.02Z"/><path class="cls-2" d="M209.69,788.41c.36,0,.77-.03,1.23-.11l.27-.04c5.96-.81,7.53-1.8,8.05-3.05.3-.71.19-1.5-.31-2.16-1.57-2.09-5.06-1.4-6.55-1.1h0c-1.42.28-5.64,2.51-5.22,4.83.14.79.71,1.64,2.52,1.64ZM214.41,784.66c-.51.12-1.12.24-1.88.37.16-.07.32-.12.46-.14.56-.11,1.03-.18,1.42-.23Z"/><path class="cls-2" d="M197.8,791.72c-.33.46-.78,1.08-.99,1.89-.29,1.12.01,2.3.77,2.99.39.36.95.68,1.71.68.61,0,1.34-.2,2.22-.73,1.75-1.06,3.56-2.15,5.12-3.73.55-.56,1.21-1.34,1.39-2.43.24-1.55-.52-2.8-1.93-3.2h0c-1.12-.32-2.34-.02-3.04.33-2.3,1.14-3.68,2.05-5.25,4.2ZM204.37,790.21c.17-.08.43-.14.64-.15-.1.22-.33.47-.51.65-1.3,1.31-2.95,2.31-4.54,3.28-.04.03-.08.05-.12.07.1-.18.24-.38.38-.57,1.27-1.73,2.28-2.35,4.15-3.27ZM205.28,790.08s0,0,0,0l.41-1.44-.4,1.45Z"/><path class="cls-2" d="M180.67,793.75c-3.48-5.61-4.82-11.73-8.11-17.43-.93,6.38,1.62,14.96,8.11,17.43Z"/><path class="cls-2" d="M157.86,809.04c2.21,1.96,3.55,4.75,6.04,6.55,2.53,1.97,6.03,2.65,9.05,1.75-1.5-.25-2.93-.57-4.2-1.18-4.25-1.76-5.64-6.4-8.86-9.34-4.65-4.43-12.23-5.23-17.75-2.25,5.71-.48,11.55.54,15.72,4.46Z"/><path class="cls-2" d="M186.27,858.42c2.09-7.83,5.89-15.25,7.23-23.29-4.81,5.46-9.52,16.04-7.23,23.29Z"/><path class="cls-2" d="M231.47,842.04c.17-.02.35-.04.52-.07-1.64-1.57-3.15-3.04-4.74-4.44-.03-.03-.07-.06-.1-.09-.42-.37-.85-.73-1.29-1.09-.08-.06-.16-.13-.23-.19-.36-.29-.72-.58-1.1-.86-.26-.2-.51-.39-.78-.59-.42-.3-.84-.6-1.28-.9,0,0,0,.02,0,.03,0,.3.03.61.07.91.06.43.16.86.3,1.28.02.07.04.14.06.2.14.4.31.8.51,1.18.16.3.34.59.53.88.09.14.18.28.28.41,1.71,2.23,4.45,3.7,7.24,3.35Z"/><path class="cls-2" d="M291.77,143.83v.85h-2.48v29.79h2.48v.85h-13.72v-.85h2.48v-29.79h-2.48v-.85h13.72Z"/><path class="cls-2" d="M310.35,163.59v2.34c0,5.76,1.03,8.32,4.54,8.32,4.1,0,5.85-3.46,6.34-5.89l.81.09c-.58,2.79-2.07,7.33-9.58,7.33-6.93,0-10.8-3.87-10.8-10.89,0-7.56,4.59-11.43,12.01-11.43,5.49,0,8.23,2.34,8.23,5.71,0,2.79-1.49,4.23-3.73,4.23s-4-1.22-4-3.73c0-.41.04-.99.23-1.62h1.48c.23-.63.31-1.17.31-1.62,0-1.53-.9-2.16-2.16-2.16-2.61,0-3.69,2.61-3.69,9.31Z"/><path class="cls-2" d="M335.28,164.76v-3.46c0-5.71-.5-7.2-2.29-7.2-.81,0-2.12.36-2.12,1.8,0,.36.09.81.27,1.3h1.12c.23.58.36,1.17.36,2.02,0,2.11-1.71,3.51-3.96,3.51-2.79,0-3.87-1.53-3.87-3.73,0-3.78,3.29-5.53,9.4-5.53,7.06,0,9.45,1.98,9.45,8.5v9.13c0,1.85.54,2.34,1.3,2.34.81,0,1.58-.85,1.8-4.63l.68.04c-.23,5.4-1.89,6.93-5.76,6.93-3.65,0-5.67-1.12-6.21-3.33-.72,2.16-2.02,3.33-5.17,3.33s-6.66-.95-6.66-5.44,3.92-5.58,10.35-5.58h1.31ZM335.28,169.66v-4.18h-.31c-1.89,0-2.79,1.35-2.79,4.09v.72c0,3.24.31,3.69,1.17,3.69s1.94-1.44,1.94-4.32Z"/><path class="cls-2" d="M358.82,153.91v4.14c.76-2.25,2.25-4.59,6.7-4.59,4.18,0,6.97,2.07,6.97,7.51v13.54h2.52v.81h-12.73v-.81h1.84v-14.62c0-3.82-.54-4.27-1.67-4.27-1.89,0-3.64,2.83-3.64,6.48v12.42h1.93v.81h-12.78v-.81h2.47v-19.8h-2.47v-.81h10.84Z"/><path class="cls-2" d="M395.72,153.46c7.56,0,11.16,3.55,11.16,10.84s-3.42,11.47-11.43,11.47c-7.56,0-11.38-4.05-11.38-11.07,0-7.38,4.41-11.25,11.65-11.25ZM398.24,162.64c0-4.86-.13-8.37-2.65-8.37-2.75,0-2.88,3.51-2.88,8.59v3.51c0,5.22.09,8.59,2.83,8.59,2.56,0,2.7-2.65,2.7-8.5v-3.82Z"/><path class="cls-2" d="M419.07,153.91v4.14c.76-2.25,2.25-4.59,6.7-4.59,4.19,0,6.98,2.07,6.98,7.51v13.54h2.52v.81h-12.73v-.81h1.84v-14.62c0-3.82-.54-4.27-1.67-4.27-1.89,0-3.64,2.83-3.64,6.48v12.42h1.93v.81h-12.78v-.81h2.47v-19.8h-2.47v-.81h10.84Z"/><path class="cls-2" d="M446.7,141.58v32.94h2.52v.81h-13.36v-.81h2.47v-32.13h-2.66v-.81h11.03Z"/><path class="cls-2" d="M449.18,153.91h13.05v.81h-2.43l4.9,14.94,5.22-14.94h-3.01v-.81h6.34v.81h-2.25l-8.41,24.25c-2.03,5.8-4.37,7.6-7.92,7.6s-5.62-1.71-5.62-4.54c0-2.25,1.44-3.64,3.6-3.64,2.29,0,3.74.99,3.74,3.1,0,.45-.09.99-.27,1.62h-1.57c-.45,1.35-.18,2.38,1.12,2.38,2.52,0,4.32-2.52,6.03-7.38l.99-2.79h-3.96l-7.69-20.61h-1.85v-.81Z"/><path class="cls-2" d="M492.29,141.58v16.47c.76-2.25,2.25-4.59,6.7-4.59,4.19,0,6.97,2.07,6.97,7.51v13.54h2.52v.81h-12.73v-.81h1.84v-14.62c0-3.82-.54-4.27-1.67-4.27-1.89,0-3.64,2.83-3.64,6.48v12.42h1.93v.81h-12.78v-.81h2.47v-32.13h-2.47v-.81h10.84Z"/><path class="cls-2" d="M520.01,153.91v20.61h2.52v.81h-13.36v-.81h2.47v-19.8h-2.66v-.81h11.03ZM515.96,142.44c2.79,0,4.45,1.4,4.45,4.14,0,2.38-1.3,4.23-4.54,4.23-3.64,0-4.5-2.29-4.5-4.19,0-2.2,1.21-4.18,4.59-4.18Z"/><path class="cls-2" d="M542.73,150.81c.14-.72-.13-1.4-1.08-1.4-.58,0-1.93.18-1.93,2.97,0,.72.09,1.62.32,2.7,1.75,1.17,3.42,2.74,3.42,5.71,0,5.13-3.69,7.69-9.18,7.69-1.31,0-2.7-.18-3.65-.36-1.57.99-1.98,1.48-1.98,1.89s.5.63,2.88.63h4.59c5.08,0,10.21,1.21,10.21,7.33,0,5-3.6,8.59-12.69,8.59-7.83,0-11.12-1.89-11.12-4.81,0-2.25,1.89-3.15,3.46-3.6l2.7,1.21c-.27.99-.36,1.75-.36,2.48,0,1.89.95,3.87,5.76,3.87s7.29-1.94,7.29-4.77c0-2.16-.99-3.02-5.71-3.02h-4.37c-5.35,0-6.79-2.21-6.79-4.18,0-2.56,1.62-3.83,5.13-5.94-3.51-.99-5.22-3.1-5.22-6.84,0-4.23,2.93-7.51,9.72-7.51,2.21,0,3.51.31,5,1.12-.18-.81-.27-1.53-.27-2.21,0-3.69,2.56-4.77,4.41-4.77,2.12,0,3.65,1.17,3.65,3.33s-1.35,2.97-2.83,2.97c-1.35,0-2.52-.81-2.61-2.34l1.26-.76ZM531.93,162.42c0,4.23.76,5.17,2.11,5.17,1.21,0,1.98-.72,1.98-5.4v-2.2c0-5.04-.72-5.71-1.94-5.71s-2.16.81-2.16,5.71v2.43Z"/><path class="cls-2" d="M557.76,141.58v16.47c.76-2.25,2.25-4.59,6.7-4.59,4.19,0,6.97,2.07,6.97,7.51v13.54h2.52v.81h-12.73v-.81h1.84v-14.62c0-3.82-.54-4.27-1.67-4.27-1.89,0-3.64,2.83-3.64,6.48v12.42h1.93v.81h-12.78v-.81h2.47v-32.13h-2.47v-.81h10.84Z"/><path class="cls-2" d="M585.48,141.58v32.94h2.52v.81h-13.36v-.81h2.47v-32.13h-2.66v-.81h11.03Z"/><path class="cls-2" d="M587.96,153.91h13.05v.81h-2.43l4.9,14.94,5.22-14.94h-3.01v-.81h6.34v.81h-2.25l-8.41,24.25c-2.03,5.8-4.37,7.6-7.92,7.6s-5.62-1.71-5.62-4.54c0-2.25,1.44-3.64,3.6-3.64,2.29,0,3.74.99,3.74,3.1,0,.45-.09.99-.27,1.62h-1.57c-.45,1.35-.18,2.38,1.12,2.38,2.52,0,4.32-2.52,6.03-7.38l.99-2.79h-3.96l-7.69-20.61h-1.85v-.81Z"/><path class="cls-2" d="M288.22,216.46v12.06h3.19v.81h-14.04v-.81h2.47v-19.8h-2.47v-.81h10.84v4.32c.81-3.19,3.33-4.77,6.03-4.77s4.77,1.4,4.77,4.81c0,2.56-1.35,4.27-3.78,4.27-3.02,0-4.46-1.89-3.51-5.08h1.62c.9-1.84,0-2.29-.94-2.29-2.16,0-4.19,3.24-4.19,7.29Z"/><path class="cls-2" d="M311.21,207.46c7.06,0,10.08,3.55,9.81,10.26h-12.69v1.75c0,5.31.95,8.91,5.31,8.91,3.33,0,5.58-2.12,6.57-5.58l.81.14c-1.04,3.87-3.38,6.84-9.76,6.84-8.01,0-11.61-4.59-11.61-11.11,0-7.78,5.31-11.2,11.56-11.2ZM313.01,216.82v-2.21c0-4.72-.36-6.3-2.21-6.3-1.57,0-2.43,1.53-2.43,6.3v2.21h4.63Z"/><path class="cls-2" d="M331.55,217.59v2.34c0,5.76,1.04,8.32,4.54,8.32,4.09,0,5.85-3.46,6.34-5.89l.81.09c-.58,2.79-2.07,7.33-9.58,7.33-6.93,0-10.8-3.87-10.8-10.89,0-7.56,4.59-11.43,12.01-11.43,5.49,0,8.23,2.34,8.23,5.71,0,2.79-1.48,4.23-3.73,4.23s-4-1.22-4-3.73c0-.41.04-.99.23-1.62h1.48c.22-.63.31-1.17.31-1.62,0-1.53-.9-2.16-2.16-2.16-2.61,0-3.69,2.61-3.69,9.31Z"/><path class="cls-2" d="M356.39,207.46c7.56,0,11.16,3.55,11.16,10.84s-3.42,11.47-11.43,11.47c-7.56,0-11.38-4.05-11.38-11.07,0-7.38,4.41-11.25,11.65-11.25ZM358.91,216.64c0-4.86-.13-8.37-2.65-8.37-2.75,0-2.88,3.51-2.88,8.59v3.51c0,5.22.09,8.59,2.83,8.59,2.56,0,2.7-2.65,2.7-8.5v-3.82Z"/><path class="cls-2" d="M379.65,207.91v4.14c.72-2.25,2.21-4.59,6.34-4.59,3.19,0,5.58,1.4,6.34,4.86.72-2.25,2.56-4.86,6.61-4.86s6.62,2.07,6.62,7.51v13.54h2.52v.81h-12.46v-.81h1.57v-14.62c0-3.82-.5-4.27-1.3-4.27-1.62,0-3.29,2.43-3.29,6.21v12.69h1.62v.81h-11.56v-.81h1.57v-14.62c0-3.82-.5-4.27-1.3-4.27-1.67,0-3.29,2.83-3.29,6.48v12.42h1.62v.81h-12.46v-.81h2.47v-19.8h-2.47v-.81h10.84Z"/><path class="cls-2" d="M419.62,207.91v4.14c.72-2.25,2.2-4.59,6.34-4.59,3.19,0,5.58,1.4,6.34,4.86.72-2.25,2.56-4.86,6.61-4.86s6.62,2.07,6.62,7.51v13.54h2.52v.81h-12.46v-.81h1.58v-14.62c0-3.82-.5-4.27-1.3-4.27-1.62,0-3.29,2.43-3.29,6.21v12.69h1.62v.81h-11.56v-.81h1.58v-14.62c0-3.82-.5-4.27-1.31-4.27-1.67,0-3.28,2.83-3.28,6.48v12.42h1.62v.81h-12.46v-.81h2.47v-19.8h-2.47v-.81h10.84Z"/><path class="cls-2" d="M460.52,207.46c7.07,0,10.08,3.55,9.81,10.26h-12.69v1.75c0,5.31.95,8.91,5.31,8.91,3.33,0,5.58-2.12,6.57-5.58l.81.14c-1.04,3.87-3.38,6.84-9.76,6.84-8.01,0-11.61-4.59-11.61-11.11,0-7.78,5.31-11.2,11.56-11.2ZM462.32,216.82v-2.21c0-4.72-.36-6.3-2.2-6.3-1.58,0-2.43,1.53-2.43,6.3v2.21h4.63Z"/><path class="cls-2" d="M482.88,207.91v4.14c.76-2.25,2.25-4.59,6.7-4.59,4.19,0,6.98,2.07,6.98,7.51v13.54h2.52v.81h-12.73v-.81h1.84v-14.62c0-3.82-.54-4.27-1.67-4.27-1.89,0-3.64,2.83-3.64,6.48v12.42h1.93v.81h-12.78v-.81h2.47v-19.8h-2.47v-.81h10.84Z"/><path class="cls-2" d="M514.47,226.18c-.94,2.25-2.7,3.6-6.21,3.6-5,0-8.14-3.56-8.14-11.11s3.15-11.2,8.91-11.2c2.79,0,4.41.81,5.22,2.21v-13.27h-2.75v-.81h11.25v32.94h2.21v.81h-9.99l-.5-3.15ZM514.38,223.21v-9.81c0-2.43-.94-4.63-2.92-4.63-2.21,0-2.65,2.65-2.65,8.91v2.34c0,6.34.54,7.83,2.47,7.83,1.3,0,3.1-1.26,3.1-4.63Z"/><path class="cls-2" d="M549.93,218.76h-8.91l-3.46,9.72h3.37v.85h-6.88v-.85h2.12l11.47-30.91h3.69l11.34,30.91h2.07v.85h-14.71v-.85h3.2l-3.29-9.72ZM541.43,217.77h8.14l-3.91-11.79-4.23,11.79Z"/><path class="cls-2" d="M576.39,207.91v4.14c.76-2.25,2.25-4.59,6.7-4.59,4.19,0,6.98,2.07,6.98,7.51v13.54h2.52v.81h-12.73v-.81h1.84v-14.62c0-3.82-.54-4.27-1.67-4.27-1.89,0-3.64,2.83-3.64,6.48v12.42h1.93v.81h-12.78v-.81h2.47v-19.8h-2.47v-.81h10.84Z"/><path class="cls-2" d="M605.28,218.76v-3.46c0-5.71-.5-7.2-2.29-7.2-.81,0-2.12.36-2.12,1.8,0,.36.09.81.27,1.3h1.12c.22.58.36,1.17.36,2.02,0,2.11-1.71,3.51-3.96,3.51-2.79,0-3.87-1.53-3.87-3.73,0-3.78,3.28-5.53,9.4-5.53,7.06,0,9.45,1.98,9.45,8.5v9.13c0,1.85.54,2.34,1.31,2.34.81,0,1.57-.85,1.8-4.63l.67.04c-.22,5.4-1.89,6.93-5.76,6.93-3.64,0-5.67-1.12-6.21-3.33-.72,2.16-2.02,3.33-5.17,3.33s-6.66-.95-6.66-5.44,3.91-5.58,10.35-5.58h1.3ZM605.28,223.66v-4.18h-.32c-1.89,0-2.79,1.35-2.79,4.09v.72c0,3.24.32,3.69,1.17,3.69s1.94-1.44,1.94-4.32Z"/><path class="cls-2" d="M623.33,221.95c2.34,0,4,1.17,4,3.83,0,2.38-1.35,4-3.87,4-3.01,0-4-2.07-4-3.87,0-2.21,1.35-3.96,3.87-3.96Z"/><path class="cls-2" d="M423.55,251.83v.85h-2.48v29.79h2.48v.85h-13.72v-.85h2.47v-29.79h-2.47v-.85h13.72Z"/><path class="cls-2" d="M435.97,254.71v7.2h5.94v.81h-5.94v19.8h5.49v.81h-16.33v-.81h2.47v-19.8h-2.61v-.81h2.61v-.18c0-8.19,2.66-13.18,10.75-13.18,5.62,0,7.15,2.83,7.15,5.04,0,2.7-1.62,3.91-3.73,3.91-2.43,0-3.6-1.35-3.6-3.19,0-.67.14-1.4.27-1.93h1.71c.81-2.21-.18-3.06-1.4-3.06-2.43,0-2.79,1.98-2.79,5.4Z"/><path class="cls-2" d="M450.23,261.91h13.05v.81h-2.43l4.9,14.94,5.22-14.94h-3.01v-.81h6.34v.81h-2.25l-8.41,24.25c-2.03,5.8-4.37,7.6-7.92,7.6s-5.62-1.71-5.62-4.54c0-2.25,1.44-3.64,3.6-3.64,2.29,0,3.74.99,3.74,3.1,0,.45-.09.99-.27,1.62h-1.57c-.45,1.35-.18,2.38,1.12,2.38,2.52,0,4.32-2.52,6.03-7.38l.99-2.79h-3.96l-7.69-20.61h-1.85v-.81Z"/><path class="cls-2" d="M485.29,261.46c7.56,0,11.16,3.55,11.16,10.84s-3.42,11.47-11.43,11.47c-7.56,0-11.38-4.05-11.38-11.07,0-7.38,4.41-11.25,11.66-11.25ZM487.81,270.64c0-4.86-.13-8.37-2.66-8.37-2.74,0-2.88,3.51-2.88,8.59v3.51c0,5.22.09,8.59,2.83,8.59,2.57,0,2.7-2.65,2.7-8.5v-3.82Z"/><path class="cls-2" d="M513.77,283.33l-.5-3.28c-.86,2.11-2.29,3.73-6.34,3.73s-6.97-2.07-6.97-7.52v-13.54h-2.52v-.81h10.89v15.43c0,3.83.54,4.41,1.67,4.41,1.8,0,3.2-1.85,3.2-5.27v-13.77h-2.07v-.81h10.44v20.61h2.47v.81h-10.26Z"/><path class="cls-2" d="M526.73,249.72c1.17-.58,2.12-.9,2.92-.9.9,0,1.53.58,1.53,1.67,0,.85-.18,1.89-.41,2.97l-1.8,8.23h-.95l-1.3-11.97Z"/><path class="cls-2" d="M544.15,270.46v12.06h3.19v.81h-14.04v-.81h2.47v-19.8h-2.47v-.81h10.84v4.32c.81-3.19,3.33-4.77,6.03-4.77s4.77,1.4,4.77,4.81c0,2.56-1.35,4.27-3.78,4.27-3.01,0-4.46-1.89-3.51-5.08h1.62c.9-1.84,0-2.29-.95-2.29-2.16,0-4.18,3.24-4.18,7.29Z"/><path class="cls-2" d="M567.14,261.46c7.07,0,10.08,3.55,9.81,10.26h-12.69v1.75c0,5.31.95,8.91,5.31,8.91,3.33,0,5.58-2.12,6.57-5.58l.81.14c-1.04,3.87-3.38,6.84-9.76,6.84-8.01,0-11.61-4.59-11.61-11.11,0-7.78,5.31-11.2,11.56-11.2ZM568.94,270.82v-2.21c0-4.72-.36-6.3-2.2-6.3-1.58,0-2.43,1.53-2.43,6.3v2.21h4.63Z"/><path class="cls-2" d="M387.05,303.58v32.94h2.52v.81h-13.36v-.81h2.47v-32.13h-2.65v-.81h11.02Z"/><path class="cls-2" d="M402.44,315.46c7.56,0,11.16,3.55,11.16,10.84s-3.42,11.47-11.43,11.47c-7.56,0-11.38-4.05-11.38-11.07,0-7.38,4.41-11.25,11.66-11.25ZM404.96,324.64c0-4.86-.13-8.37-2.66-8.37-2.75,0-2.88,3.51-2.88,8.59v3.51c0,5.22.09,8.59,2.83,8.59,2.57,0,2.7-2.65,2.7-8.5v-3.82Z"/><path class="cls-2" d="M426.88,315.46c7.56,0,11.16,3.55,11.16,10.84s-3.42,11.47-11.43,11.47c-7.56,0-11.38-4.05-11.38-11.07,0-7.38,4.41-11.25,11.66-11.25ZM429.39,324.64c0-4.86-.13-8.37-2.66-8.37-2.74,0-2.88,3.51-2.88,8.59v3.51c0,5.22.09,8.59,2.83,8.59,2.57,0,2.7-2.65,2.7-8.5v-3.82Z"/><path class="cls-2" d="M454.01,336.52h2.07l-5.08-10.44-.85.23v10.21h2.07v.81h-12.91v-.81h2.47v-32.13h-2.66v-.81h11.03v21.82l.72-.27,10.12-8.42h-4.23v-.81h8.86v.81h-3.15l-5.35,4.54,7.78,15.25h1.62v.81h-12.51v-.81Z"/><path class="cls-2" d="M478.04,315.91v20.61h2.52v.81h-13.36v-.81h2.47v-19.8h-2.66v-.81h11.03ZM473.99,304.44c2.79,0,4.45,1.4,4.45,4.14,0,2.38-1.3,4.23-4.54,4.23-3.64,0-4.5-2.29-4.5-4.19,0-2.2,1.21-4.18,4.59-4.18Z"/><path class="cls-2" d="M492.39,315.91v4.14c.76-2.25,2.25-4.59,6.7-4.59,4.19,0,6.98,2.07,6.98,7.51v13.54h2.52v.81h-12.73v-.81h1.84v-14.62c0-3.82-.54-4.27-1.67-4.27-1.89,0-3.64,2.83-3.64,6.48v12.42h1.93v.81h-12.78v-.81h2.47v-19.8h-2.47v-.81h10.84Z"/><path class="cls-2" d="M528.48,312.81c.14-.72-.13-1.4-1.08-1.4-.58,0-1.93.18-1.93,2.97,0,.72.09,1.62.32,2.7,1.75,1.17,3.42,2.74,3.42,5.71,0,5.13-3.69,7.69-9.18,7.69-1.31,0-2.7-.18-3.65-.36-1.57.99-1.98,1.48-1.98,1.89s.5.63,2.88.63h4.59c5.08,0,10.21,1.21,10.21,7.33,0,5-3.6,8.59-12.69,8.59-7.83,0-11.12-1.89-11.12-4.81,0-2.25,1.89-3.15,3.46-3.6l2.7,1.21c-.27.99-.36,1.75-.36,2.48,0,1.89.95,3.87,5.76,3.87s7.29-1.94,7.29-4.77c0-2.16-.99-3.02-5.71-3.02h-4.37c-5.35,0-6.79-2.21-6.79-4.18,0-2.56,1.62-3.83,5.13-5.94-3.51-.99-5.22-3.1-5.22-6.84,0-4.23,2.92-7.51,9.72-7.51,2.21,0,3.51.31,5,1.12-.18-.81-.27-1.53-.27-2.21,0-3.69,2.56-4.77,4.41-4.77,2.12,0,3.65,1.17,3.65,3.33s-1.35,2.97-2.83,2.97c-1.35,0-2.52-.81-2.61-2.34l1.26-.76ZM517.68,324.42c0,4.23.76,5.17,2.11,5.17,1.21,0,1.98-.72,1.98-5.4v-2.2c0-5.04-.72-5.71-1.94-5.71s-2.16.81-2.16,5.71v2.43Z"/><path class="cls-2" d="M551.61,308.71v7.2h5.94v.81h-5.94v19.8h5.49v.81h-16.33v-.81h2.47v-19.8h-2.61v-.81h2.61v-.18c0-8.19,2.66-13.18,10.75-13.18,5.62,0,7.15,2.83,7.15,5.04,0,2.7-1.62,3.91-3.73,3.91-2.43,0-3.6-1.35-3.6-3.19,0-.67.14-1.4.27-1.93h1.71c.81-2.21-.18-3.06-1.4-3.06-2.43,0-2.79,1.98-2.79,5.4Z"/><path class="cls-2" d="M569.12,315.46c7.56,0,11.16,3.55,11.16,10.84s-3.42,11.47-11.43,11.47c-7.56,0-11.38-4.05-11.38-11.07,0-7.38,4.41-11.25,11.66-11.25ZM571.64,324.64c0-4.86-.13-8.37-2.66-8.37-2.74,0-2.88,3.51-2.88,8.59v3.51c0,5.22.09,8.59,2.83,8.59,2.57,0,2.7-2.65,2.7-8.5v-3.82Z"/><path class="cls-2" d="M592.38,324.46v12.06h3.19v.81h-14.04v-.81h2.47v-19.8h-2.47v-.81h10.84v4.32c.81-3.19,3.33-4.77,6.03-4.77s4.77,1.4,4.77,4.81c0,2.56-1.35,4.27-3.78,4.27-3.01,0-4.46-1.89-3.51-5.08h1.62c.9-1.84,0-2.29-.95-2.29-2.16,0-4.18,3.24-4.18,7.29Z"/><path class="cls-2" d="M624.02,326.76v-3.46c0-5.71-.5-7.2-2.29-7.2-.81,0-2.12.36-2.12,1.8,0,.36.09.81.27,1.3h1.12c.22.58.36,1.17.36,2.02,0,2.11-1.71,3.51-3.96,3.51-2.79,0-3.87-1.53-3.87-3.73,0-3.78,3.28-5.53,9.4-5.53,7.06,0,9.45,1.98,9.45,8.5v9.13c0,1.85.54,2.34,1.31,2.34.81,0,1.57-.85,1.8-4.63l.67.04c-.22,5.4-1.89,6.93-5.76,6.93-3.64,0-5.67-1.12-6.21-3.33-.72,2.16-2.02,3.33-5.17,3.33s-6.66-.95-6.66-5.44,3.91-5.58,10.35-5.58h1.3ZM624.02,331.66v-4.18h-.32c-1.89,0-2.79,1.35-2.79,4.09v.72c0,3.24.32,3.69,1.17,3.69s1.94-1.44,1.94-4.32Z"/><path class="cls-2" d="M312.57,370.72h-2.47v-.81h2.47v-5.81l8.37-2.07v7.88h5.85v.81h-5.85v15.16c0,2.65.41,4.09,1.98,4.09,2.16,0,3.51-1.98,3.92-5.04l.77.09c-.41,3.51-1.89,6.75-7.38,6.75-4.46,0-7.65-1.31-7.65-6.88v-14.17Z"/><path class="cls-2" d="M340.15,380.76v-3.46c0-5.71-.5-7.2-2.29-7.2-.81,0-2.12.36-2.12,1.8,0,.36.09.81.27,1.3h1.12c.23.58.36,1.17.36,2.02,0,2.11-1.71,3.51-3.96,3.51-2.79,0-3.87-1.53-3.87-3.73,0-3.78,3.29-5.53,9.4-5.53,7.06,0,9.45,1.98,9.45,8.5v9.13c0,1.85.54,2.34,1.3,2.34.81,0,1.58-.85,1.8-4.63l.68.04c-.23,5.4-1.89,6.93-5.76,6.93-3.65,0-5.67-1.12-6.21-3.33-.72,2.16-2.02,3.33-5.17,3.33s-6.66-.95-6.66-5.44,3.92-5.58,10.35-5.58h1.31ZM340.15,385.66v-4.18h-.31c-1.89,0-2.79,1.35-2.79,4.09v.72c0,3.24.31,3.69,1.17,3.69s1.94-1.44,1.94-4.32Z"/><path class="cls-2" d="M363.59,357.58v32.94h2.52v.81h-13.36v-.81h2.47v-32.13h-2.65v-.81h11.02Z"/><path class="cls-2" d="M378.76,369.46c7.06,0,10.08,3.55,9.81,10.26h-12.69v1.75c0,5.31.95,8.91,5.31,8.91,3.33,0,5.58-2.12,6.57-5.58l.81.14c-1.04,3.87-3.38,6.84-9.76,6.84-8.01,0-11.61-4.59-11.61-11.11,0-7.78,5.31-11.2,11.56-11.2ZM380.56,378.82v-2.21c0-4.72-.36-6.3-2.21-6.3-1.57,0-2.43,1.53-2.43,6.3v2.21h4.63Z"/><path class="cls-2" d="M401.12,369.91v4.14c.76-2.25,2.25-4.59,6.7-4.59,4.19,0,6.98,2.07,6.98,7.51v13.54h2.52v.81h-12.73v-.81h1.84v-14.62c0-3.82-.54-4.27-1.67-4.27-1.89,0-3.64,2.83-3.64,6.48v12.42h1.93v.81h-12.78v-.81h2.47v-19.8h-2.47v-.81h10.85Z"/><path class="cls-2" d="M419.94,370.72h-2.48v-.81h2.48v-5.81l8.37-2.07v7.88h5.85v.81h-5.85v15.16c0,2.65.41,4.09,1.98,4.09,2.16,0,3.51-1.98,3.91-5.04l.77.09c-.41,3.51-1.89,6.75-7.38,6.75-4.46,0-7.65-1.31-7.65-6.88v-14.17Z"/><path class="cls-2" d="M447.2,369.46c7.07,0,10.08,3.55,9.81,10.26h-12.69v1.75c0,5.31.95,8.91,5.31,8.91,3.33,0,5.58-2.12,6.57-5.58l.81.14c-1.04,3.87-3.38,6.84-9.76,6.84-8.01,0-11.61-4.59-11.61-11.11,0-7.78,5.31-11.2,11.56-11.2ZM449,378.82v-2.21c0-4.72-.36-6.3-2.2-6.3-1.58,0-2.43,1.53-2.43,6.3v2.21h4.63Z"/><path class="cls-2" d="M473.44,388.18c-.94,2.25-2.7,3.6-6.21,3.6-5,0-8.14-3.56-8.14-11.11s3.15-11.2,8.91-11.2c2.79,0,4.41.81,5.22,2.21v-13.27h-2.75v-.81h11.25v32.94h2.21v.81h-9.99l-.5-3.15ZM473.35,385.21v-9.81c0-2.43-.94-4.63-2.92-4.63-2.21,0-2.65,2.65-2.65,8.91v2.34c0,6.34.54,7.83,2.47,7.83,1.3,0,3.1-1.26,3.1-4.63Z"/><path class="cls-2" d="M503.95,373.47c.99-2.25,2.7-4,6.21-4,5.04,0,8.14,3.55,8.14,11.2s-3.15,11.11-9.27,11.11c-3.06,0-4.18-.81-4.99-2.21v11.65h5.8v.81h-16.65v-.81h2.47v-30.51h-2.38v-.81h10.66v3.55ZM504.04,377.61v8.23c0,2.43.94,4.63,2.92,4.63,2.21,0,2.65-2.65,2.65-8.91v-2.34c0-6.34-.54-7.83-2.07-7.83-1.85,0-3.51,2.29-3.51,6.21Z"/><path class="cls-2" d="M530.5,378.46v12.06h3.19v.81h-14.04v-.81h2.47v-19.8h-2.47v-.81h10.84v4.32c.81-3.19,3.33-4.77,6.03-4.77s4.77,1.4,4.77,4.81c0,2.56-1.35,4.27-3.78,4.27-3.01,0-4.46-1.89-3.51-5.08h1.62c.9-1.84,0-2.29-.95-2.29-2.16,0-4.18,3.24-4.18,7.29Z"/><path class="cls-2" d="M553.72,369.46c7.56,0,11.16,3.55,11.16,10.84s-3.42,11.47-11.43,11.47c-7.56,0-11.38-4.05-11.38-11.07,0-7.38,4.41-11.25,11.66-11.25ZM556.24,378.64c0-4.86-.13-8.37-2.66-8.37-2.74,0-2.88,3.51-2.88,8.59v3.51c0,5.22.09,8.59,2.83,8.59,2.57,0,2.7-2.65,2.7-8.5v-3.82Z"/><path class="cls-2" d="M576.98,362.71v7.2h5.94v.81h-5.94v19.8h5.49v.81h-16.33v-.81h2.47v-19.8h-2.61v-.81h2.61v-.18c0-8.19,2.66-13.18,10.75-13.18,5.62,0,7.15,2.83,7.15,5.04,0,2.7-1.62,3.91-3.73,3.91-2.43,0-3.6-1.35-3.6-3.19,0-.67.14-1.4.27-1.93h1.71c.81-2.21-.18-3.06-1.4-3.06-2.43,0-2.79,1.98-2.79,5.4Z"/><path class="cls-2" d="M594.26,369.46c7.07,0,10.08,3.55,9.81,10.26h-12.69v1.75c0,5.31.95,8.91,5.31,8.91,3.33,0,5.58-2.12,6.57-5.58l.81.14c-1.04,3.87-3.38,6.84-9.76,6.84-8.01,0-11.61-4.59-11.61-11.11,0-7.78,5.31-11.2,11.56-11.2ZM596.06,378.82v-2.21c0-4.72-.36-6.3-2.2-6.3-1.58,0-2.43,1.53-2.43,6.3v2.21h4.63Z"/><path class="cls-2" d="M606.28,383.73h.54c1.66,5.49,4.41,7.06,8.1,7.06,3.33,0,4.59-1.21,4.59-2.92,0-2.02-2.21-2.48-5.62-3.42-3.6-.99-7.6-2.38-7.6-7.38,0-4.59,3.15-7.6,7.92-7.6,1.98,0,3.33.5,4.54,1.04.54.22.72.36,1.26.36.68,0,.99-.36,1.58-1.48h.5v6.88h-.54c-1.62-4.14-3.92-5.85-7.11-5.85-2.97,0-4.19,1.22-4.19,2.61,0,2.07,2.7,2.56,5.67,3.38,3.55.94,7.51,2.38,7.51,7.69s-3.33,7.69-8.41,7.69c-2.16,0-3.69-.45-5.4-1.31-.27-.18-.67-.36-.85-.36-.58,0-1.21.4-1.93,1.67h-.54v-8.05Z"/><path class="cls-2" d="M625.81,383.73h.54c1.66,5.49,4.41,7.06,8.1,7.06,3.33,0,4.59-1.21,4.59-2.92,0-2.02-2.21-2.48-5.62-3.42-3.6-.99-7.6-2.38-7.6-7.38,0-4.59,3.15-7.6,7.92-7.6,1.98,0,3.33.5,4.54,1.04.54.22.72.36,1.26.36.68,0,.99-.36,1.58-1.48h.5v6.88h-.54c-1.62-4.14-3.92-5.85-7.11-5.85-2.97,0-4.19,1.22-4.19,2.61,0,2.07,2.7,2.56,5.67,3.38,3.55.94,7.51,2.38,7.51,7.69s-3.33,7.69-8.41,7.69c-2.16,0-3.69-.45-5.4-1.31-.27-.18-.67-.36-.85-.36-.58,0-1.21.4-1.93,1.67h-.54v-8.05Z"/><path class="cls-2" d="M655.15,369.91v20.61h2.52v.81h-13.36v-.81h2.47v-19.8h-2.66v-.81h11.03ZM651.1,358.44c2.79,0,4.45,1.4,4.45,4.14,0,2.38-1.3,4.23-4.54,4.23-3.64,0-4.5-2.29-4.5-4.19,0-2.2,1.21-4.18,4.59-4.18Z"/><path class="cls-2" d="M670.58,369.46c7.56,0,11.16,3.55,11.16,10.84s-3.42,11.47-11.43,11.47c-7.56,0-11.38-4.05-11.38-11.07,0-7.38,4.41-11.25,11.66-11.25ZM673.1,378.64c0-4.86-.13-8.37-2.66-8.37-2.74,0-2.88,3.51-2.88,8.59v3.51c0,5.22.09,8.59,2.83,8.59,2.57,0,2.7-2.65,2.7-8.5v-3.82Z"/><path class="cls-2" d="M693.94,369.91v4.14c.76-2.25,2.25-4.59,6.7-4.59,4.19,0,6.98,2.07,6.98,7.51v13.54h2.52v.81h-12.73v-.81h1.84v-14.62c0-3.82-.54-4.27-1.67-4.27-1.89,0-3.64,2.83-3.64,6.48v12.42h1.93v.81h-12.78v-.81h2.47v-19.8h-2.47v-.81h10.84Z"/><path class="cls-2" d="M722.83,380.76v-3.46c0-5.71-.5-7.2-2.29-7.2-.81,0-2.12.36-2.12,1.8,0,.36.09.81.27,1.3h1.12c.22.58.36,1.17.36,2.02,0,2.11-1.71,3.51-3.96,3.51-2.79,0-3.87-1.53-3.87-3.73,0-3.78,3.28-5.53,9.4-5.53,7.06,0,9.45,1.98,9.45,8.5v9.13c0,1.85.54,2.34,1.31,2.34.81,0,1.57-.85,1.8-4.63l.67.04c-.23,5.4-1.89,6.93-5.76,6.93-3.64,0-5.67-1.12-6.21-3.33-.72,2.16-2.02,3.33-5.17,3.33s-6.66-.95-6.66-5.44,3.91-5.58,10.35-5.58h1.3ZM722.83,385.66v-4.18h-.32c-1.89,0-2.79,1.35-2.79,4.09v.72c0,3.24.32,3.69,1.17,3.69s1.94-1.44,1.94-4.32Z"/><path class="cls-2" d="M746.27,357.58v32.94h2.52v.81h-13.36v-.81h2.47v-32.13h-2.66v-.81h11.03Z"/><path class="cls-2" d="M292.76,423.91h11.61v.81h-1.84l4.05,15.16,4-15.16h-3.1v-.81h6.07v.81h-1.89l-5.4,20.61h-6.17l-3.91-13.81-4.23,13.81h-6.03l-6.66-20.61h-2.02v-.81h13.63v.81h-2.7l4.14,15.3,3.24-10.53-1.12-4.77h-1.67v-.81Z"/><path class="cls-2" d="M324.85,411.58v16.47c.77-2.25,2.25-4.59,6.7-4.59,4.19,0,6.98,2.07,6.98,7.51v13.54h2.52v.81h-12.73v-.81h1.85v-14.62c0-3.82-.54-4.27-1.67-4.27-1.89,0-3.65,2.83-3.65,6.48v12.42h1.94v.81h-12.78v-.81h2.47v-32.13h-2.47v-.81h10.84Z"/><path class="cls-2" d="M353.74,423.46c7.56,0,11.16,3.55,11.16,10.84s-3.42,11.47-11.43,11.47c-7.56,0-11.38-4.05-11.38-11.07,0-7.38,4.41-11.25,11.65-11.25ZM356.26,432.64c0-4.86-.13-8.37-2.65-8.37-2.75,0-2.88,3.51-2.88,8.59v3.51c0,5.22.09,8.59,2.83,8.59,2.56,0,2.7-2.65,2.7-8.5v-3.82Z"/><path class="cls-2" d="M385.1,411.58v32.94h2.52v.81h-13.36v-.81h2.47v-32.13h-2.65v-.81h11.02Z"/><path class="cls-2" d="M399.32,423.91v20.61h2.52v.81h-13.36v-.81h2.47v-19.8h-2.65v-.81h11.02ZM395.27,412.44c2.79,0,4.46,1.4,4.46,4.14,0,2.38-1.31,4.23-4.54,4.23-3.65,0-4.5-2.29-4.5-4.19,0-2.2,1.21-4.18,4.59-4.18Z"/><path class="cls-2" d="M403.78,437.73h.54c1.66,5.49,4.41,7.06,8.1,7.06,3.33,0,4.59-1.21,4.59-2.92,0-2.02-2.21-2.48-5.62-3.42-3.6-.99-7.6-2.38-7.6-7.38,0-4.59,3.15-7.6,7.92-7.6,1.98,0,3.33.5,4.54,1.04.54.22.72.36,1.26.36.68,0,.99-.36,1.58-1.48h.5v6.88h-.54c-1.62-4.14-3.92-5.85-7.11-5.85-2.97,0-4.19,1.22-4.19,2.61,0,2.07,2.7,2.56,5.67,3.38,3.55.94,7.51,2.38,7.51,7.69s-3.33,7.69-8.41,7.69c-2.16,0-3.69-.45-5.4-1.31-.27-.18-.67-.36-.85-.36-.58,0-1.21.4-1.93,1.67h-.54v-8.05Z"/><path class="cls-2" d="M424.07,424.72h-2.48v-.81h2.48v-5.81l8.37-2.07v7.88h5.85v.81h-5.85v15.16c0,2.65.41,4.09,1.98,4.09,2.16,0,3.51-1.98,3.91-5.04l.77.09c-.41,3.51-1.89,6.75-7.38,6.75-4.46,0-7.65-1.31-7.65-6.88v-14.17Z"/><path class="cls-2" d="M451.34,423.46c7.07,0,10.08,3.55,9.81,10.26h-12.69v1.75c0,5.31.95,8.91,5.31,8.91,3.33,0,5.58-2.12,6.57-5.58l.81.14c-1.04,3.87-3.38,6.84-9.76,6.84-8.01,0-11.61-4.59-11.61-11.11,0-7.78,5.31-11.2,11.56-11.2ZM453.14,432.82v-2.21c0-4.72-.36-6.3-2.2-6.3-1.58,0-2.43,1.53-2.43,6.3v2.21h4.63Z"/><path class="cls-2" d="M473.7,423.91v4.14c.76-2.25,2.25-4.59,6.7-4.59,4.19,0,6.98,2.07,6.98,7.51v13.54h2.52v.81h-12.73v-.81h1.84v-14.62c0-3.82-.54-4.27-1.67-4.27-1.89,0-3.64,2.83-3.64,6.48v12.42h1.93v.81h-12.78v-.81h2.47v-19.8h-2.47v-.81h10.84Z"/><path class="cls-2" d="M491.52,437.73h.54c1.66,5.49,4.41,7.06,8.1,7.06,3.33,0,4.59-1.21,4.59-2.92,0-2.02-2.21-2.48-5.62-3.42-3.6-.99-7.6-2.38-7.6-7.38,0-4.59,3.15-7.6,7.92-7.6,1.98,0,3.33.5,4.54,1.04.54.22.72.36,1.26.36.68,0,.99-.36,1.58-1.48h.5v6.88h-.54c-1.62-4.14-3.92-5.85-7.11-5.85-2.97,0-4.19,1.22-4.19,2.61,0,2.07,2.7,2.56,5.67,3.38,3.55.94,7.51,2.38,7.51,7.69s-3.33,7.69-8.41,7.69c-2.16,0-3.69-.45-5.4-1.31-.27-.18-.67-.36-.85-.36-.58,0-1.21.4-1.93,1.67h-.54v-8.05Z"/><path class="cls-2" d="M512.9,451.68c3.96-3.38,4.5-4.77,4.5-6.48,0-1.35-.77-1.85-1.4-1.94l-2.16,1.94c-1.17-.41-2.7-1.62-2.7-3.51,0-2.16,1.53-3.69,3.82-3.69,2.79,0,4.37,2.25,4.37,5.04,0,3.51-1.75,6.25-5.89,9.31l-.54-.67Z"/><path class="cls-2" d="M540.75,423.91v20.61h2.52v.81h-13.36v-.81h2.47v-19.8h-2.66v-.81h11.03ZM536.7,412.44c2.79,0,4.45,1.4,4.45,4.14,0,2.38-1.3,4.23-4.54,4.23-3.64,0-4.5-2.29-4.5-4.19,0-2.2,1.21-4.18,4.59-4.18Z"/><path class="cls-2" d="M545.21,437.73h.54c1.66,5.49,4.41,7.06,8.1,7.06,3.33,0,4.59-1.21,4.59-2.92,0-2.02-2.21-2.48-5.62-3.42-3.6-.99-7.6-2.38-7.6-7.38,0-4.59,3.15-7.6,7.92-7.6,1.98,0,3.33.5,4.54,1.04.54.22.72.36,1.26.36.68,0,.99-.36,1.58-1.48h.5v6.88h-.54c-1.62-4.14-3.92-5.85-7.11-5.85-2.97,0-4.19,1.22-4.19,2.61,0,2.07,2.7,2.56,5.67,3.38,3.55.94,7.51,2.38,7.51,7.69s-3.33,7.69-8.41,7.69c-2.16,0-3.69-.45-5.4-1.31-.27-.18-.67-.36-.85-.36-.58,0-1.21.4-1.93,1.67h-.54v-8.05Z"/><path class="cls-2" d="M582.55,427.47c.99-2.25,2.7-4,6.21-4,5.04,0,8.14,3.55,8.14,11.2s-3.15,11.11-9.27,11.11c-3.06,0-4.18-.81-4.99-2.21v11.65h5.8v.81h-16.65v-.81h2.47v-30.51h-2.38v-.81h10.66v3.55ZM582.65,431.61v8.23c0,2.43.94,4.63,2.92,4.63,2.21,0,2.65-2.65,2.65-8.91v-2.34c0-6.34-.54-7.83-2.07-7.83-1.84,0-3.51,2.29-3.51,6.21Z"/><path class="cls-2" d="M609.11,432.46v12.06h3.19v.81h-14.04v-.81h2.47v-19.8h-2.47v-.81h10.84v4.32c.81-3.19,3.33-4.77,6.03-4.77s4.77,1.4,4.77,4.81c0,2.56-1.35,4.27-3.78,4.27-3.01,0-4.46-1.89-3.51-5.08h1.62c.9-1.84,0-2.29-.95-2.29-2.16,0-4.18,3.24-4.18,7.29Z"/><path class="cls-2" d="M632.33,423.46c7.56,0,11.16,3.55,11.16,10.84s-3.42,11.47-11.43,11.47c-7.56,0-11.38-4.05-11.38-11.07,0-7.38,4.41-11.25,11.66-11.25ZM634.84,432.64c0-4.86-.13-8.37-2.66-8.37-2.74,0-2.88,3.51-2.88,8.59v3.51c0,5.22.09,8.59,2.83,8.59,2.57,0,2.7-2.65,2.7-8.5v-3.82Z"/><path class="cls-2" d="M656.85,434.76v-3.46c0-5.71-.5-7.2-2.29-7.2-.81,0-2.12.36-2.12,1.8,0,.36.09.81.27,1.3h1.12c.22.58.36,1.17.36,2.02,0,2.11-1.71,3.51-3.96,3.51-2.79,0-3.87-1.53-3.87-3.73,0-3.78,3.28-5.53,9.4-5.53,7.06,0,9.45,1.98,9.45,8.5v9.13c0,1.85.54,2.34,1.31,2.34.81,0,1.57-.85,1.8-4.63l.67.04c-.23,5.4-1.89,6.93-5.76,6.93-3.64,0-5.67-1.12-6.21-3.33-.72,2.16-2.02,3.33-5.17,3.33s-6.66-.95-6.66-5.44,3.91-5.58,10.35-5.58h1.3ZM656.85,439.66v-4.18h-.32c-1.89,0-2.79,1.35-2.79,4.09v.72c0,3.24.32,3.69,1.17,3.69s1.94-1.44,1.94-4.32Z"/><path class="cls-2" d="M678.36,433.59v2.34c0,5.76,1.04,8.32,4.54,8.32,4.09,0,5.85-3.46,6.34-5.89l.81.09c-.58,2.79-2.07,7.33-9.58,7.33-6.93,0-10.8-3.87-10.8-10.89,0-7.56,4.59-11.43,12.01-11.43,5.49,0,8.23,2.34,8.23,5.71,0,2.79-1.48,4.23-3.73,4.23s-4-1.22-4-3.73c0-.41.04-.99.22-1.62h1.49c.22-.63.31-1.17.31-1.62,0-1.53-.9-2.16-2.16-2.16-2.61,0-3.69,2.61-3.69,9.31Z"/><path class="cls-2" d="M693.43,424.72h-2.48v-.81h2.48v-5.81l8.37-2.07v7.88h5.85v.81h-5.85v15.16c0,2.65.41,4.09,1.98,4.09,2.16,0,3.51-1.98,3.91-5.04l.77.09c-.41,3.51-1.89,6.75-7.38,6.75-4.46,0-7.65-1.31-7.65-6.88v-14.17Z"/><path class="cls-2" d="M719.76,423.91v20.61h2.52v.81h-13.36v-.81h2.47v-19.8h-2.66v-.81h11.03ZM715.71,412.44c2.79,0,4.45,1.4,4.45,4.14,0,2.38-1.3,4.23-4.54,4.23-3.64,0-4.5-2.29-4.5-4.19,0-2.2,1.21-4.18,4.59-4.18Z"/><path class="cls-2" d="M721.38,423.91h13.45v.81h-2.83l5.4,14.94,4.86-14.94h-3.01v-.81h6.08v.81h-1.98l-6.66,20.61h-5.13l-8.33-20.61h-1.84v-.81Z"/><path class="cls-2" d="M756.43,423.46c7.07,0,10.08,3.55,9.81,10.26h-12.69v1.75c0,5.31.95,8.91,5.31,8.91,3.33,0,5.58-2.12,6.57-5.58l.81.14c-1.04,3.87-3.38,6.84-9.76,6.84-8.01,0-11.61-4.59-11.61-11.11,0-7.78,5.31-11.2,11.56-11.2ZM758.23,432.82v-2.21c0-4.72-.36-6.3-2.2-6.3-1.58,0-2.43,1.53-2.43,6.3v2.21h4.63Z"/><path class="cls-2" d="M289.48,488.76v-3.46c0-5.71-.5-7.2-2.29-7.2-.81,0-2.12.36-2.12,1.8,0,.36.09.81.27,1.31h1.12c.23.58.36,1.17.36,2.02,0,2.12-1.71,3.51-3.96,3.51-2.79,0-3.87-1.53-3.87-3.73,0-3.78,3.29-5.54,9.4-5.54,7.06,0,9.45,1.98,9.45,8.5v9.13c0,1.84.54,2.34,1.3,2.34.81,0,1.58-.86,1.8-4.63l.68.04c-.23,5.4-1.89,6.93-5.76,6.93-3.65,0-5.67-1.12-6.21-3.33-.72,2.16-2.02,3.33-5.17,3.33s-6.66-.95-6.66-5.45,3.92-5.58,10.35-5.58h1.31ZM289.48,493.66v-4.18h-.31c-1.89,0-2.79,1.35-2.79,4.09v.72c0,3.24.31,3.69,1.17,3.69s1.94-1.44,1.94-4.32Z"/><path class="cls-2" d="M313.01,477.91v4.14c.76-2.25,2.25-4.59,6.7-4.59,4.18,0,6.97,2.07,6.97,7.51v13.54h2.52v.81h-12.73v-.81h1.84v-14.62c0-3.82-.54-4.27-1.67-4.27-1.89,0-3.64,2.83-3.64,6.48v12.42h1.93v.81h-12.78v-.81h2.47v-19.8h-2.47v-.81h10.84Z"/><path class="cls-2" d="M344.6,496.18c-.94,2.25-2.7,3.6-6.21,3.6-4.99,0-8.14-3.55-8.14-11.12s3.15-11.2,8.91-11.2c2.79,0,4.41.81,5.22,2.21v-13.27h-2.74v-.81h11.25v32.94h2.2v.81h-9.99l-.5-3.15ZM344.51,493.21v-9.81c0-2.43-.95-4.63-2.93-4.63-2.2,0-2.65,2.66-2.65,8.91v2.34c0,6.34.54,7.83,2.48,7.83,1.3,0,3.1-1.26,3.1-4.63Z"/><path class="cls-2" d="M375.11,481.47c.99-2.25,2.7-4,6.21-4,5.04,0,8.15,3.55,8.15,11.2s-3.15,11.12-9.27,11.12c-3.06,0-4.19-.81-5-2.21v11.65h5.8v.81h-16.65v-.81h2.47v-30.51h-2.38v-.81h10.66v3.55ZM375.2,485.61v8.23c0,2.43.94,4.64,2.92,4.64,2.21,0,2.66-2.66,2.66-8.91v-2.34c0-6.34-.54-7.83-2.07-7.83-1.84,0-3.51,2.29-3.51,6.21Z"/><path class="cls-2" d="M402.92,488.76v-3.46c0-5.71-.5-7.2-2.29-7.2-.81,0-2.12.36-2.12,1.8,0,.36.09.81.27,1.31h1.12c.23.58.36,1.17.36,2.02,0,2.12-1.71,3.51-3.96,3.51-2.79,0-3.87-1.53-3.87-3.73,0-3.78,3.29-5.54,9.41-5.54,7.06,0,9.45,1.98,9.45,8.5v9.13c0,1.84.54,2.34,1.31,2.34.81,0,1.57-.86,1.8-4.63l.67.04c-.23,5.4-1.89,6.93-5.76,6.93-3.64,0-5.67-1.12-6.21-3.33-.72,2.16-2.03,3.33-5.18,3.33s-6.66-.95-6.66-5.45,3.92-5.58,10.35-5.58h1.31ZM402.92,493.66v-4.18h-.32c-1.89,0-2.79,1.35-2.79,4.09v.72c0,3.24.32,3.69,1.17,3.69s1.94-1.44,1.94-4.32Z"/><path class="cls-2" d="M412.59,477.91h13.05v.81h-2.43l4.9,14.94,5.22-14.94h-3.01v-.81h6.34v.81h-2.25l-8.41,24.25c-2.03,5.8-4.37,7.61-7.92,7.61s-5.62-1.71-5.62-4.54c0-2.25,1.44-3.65,3.6-3.65,2.29,0,3.74.99,3.74,3.11,0,.45-.09.99-.27,1.62h-1.57c-.45,1.35-.18,2.38,1.12,2.38,2.52,0,4.32-2.52,6.03-7.38l.99-2.79h-3.96l-7.69-20.61h-1.85v-.81Z"/><path class="cls-2" d="M436.45,491.73h.54c1.66,5.49,4.41,7.06,8.1,7.06,3.33,0,4.59-1.21,4.59-2.92,0-2.03-2.21-2.47-5.62-3.42-3.6-.99-7.6-2.38-7.6-7.38,0-4.59,3.15-7.6,7.92-7.6,1.98,0,3.33.5,4.54,1.04.54.22.72.36,1.26.36.68,0,.99-.36,1.58-1.48h.5v6.88h-.54c-1.62-4.14-3.92-5.85-7.11-5.85-2.97,0-4.19,1.21-4.19,2.61,0,2.07,2.7,2.57,5.67,3.38,3.55.95,7.51,2.38,7.51,7.69s-3.33,7.7-8.41,7.7c-2.16,0-3.69-.45-5.4-1.3-.27-.18-.67-.36-.85-.36-.58,0-1.21.41-1.93,1.67h-.54v-8.05Z"/><path class="cls-2" d="M475.14,488.76v-3.46c0-5.71-.5-7.2-2.29-7.2-.81,0-2.12.36-2.12,1.8,0,.36.09.81.27,1.31h1.12c.22.58.36,1.17.36,2.02,0,2.12-1.71,3.51-3.96,3.51-2.79,0-3.87-1.53-3.87-3.73,0-3.78,3.28-5.54,9.4-5.54,7.06,0,9.45,1.98,9.45,8.5v9.13c0,1.84.54,2.34,1.31,2.34.81,0,1.57-.86,1.8-4.63l.67.04c-.22,5.4-1.89,6.93-5.76,6.93-3.64,0-5.67-1.12-6.21-3.33-.72,2.16-2.02,3.33-5.17,3.33s-6.66-.95-6.66-5.45,3.91-5.58,10.35-5.58h1.3ZM475.14,493.66v-4.18h-.32c-1.89,0-2.79,1.35-2.79,4.09v.72c0,3.24.32,3.69,1.17,3.69s1.94-1.44,1.94-4.32Z"/><path class="cls-2" d="M489.54,478.72h-2.47v-.81h2.47v-5.8l8.37-2.07v7.88h6.57v-5.8l8.37-2.07v7.88h5.85v.81h-5.85v15.17c0,2.65.41,4.09,1.98,4.09,2.16,0,3.51-1.98,3.92-5.04l.76.09c-.41,3.51-1.89,6.75-7.38,6.75-3.73,0-6.52-.9-7.38-4.41-.9,2.47-2.92,4.41-7.33,4.41s-7.88-1.3-7.88-6.88v-14.17ZM504.48,478.72h-6.57v15.17c0,2.65.45,4.09,2.61,4.09,1.98,0,3.55-1.98,3.96-5.08v-14.17Z"/><path class="cls-2" d="M531.75,477.46c7.07,0,10.08,3.55,9.81,10.26h-12.69v1.75c0,5.31.95,8.91,5.31,8.91,3.33,0,5.58-2.11,6.57-5.58l.81.13c-1.04,3.87-3.38,6.84-9.76,6.84-8.01,0-11.61-4.59-11.61-11.12,0-7.78,5.31-11.2,11.56-11.2ZM533.55,486.82v-2.21c0-4.72-.36-6.3-2.2-6.3-1.58,0-2.43,1.53-2.43,6.3v2.21h4.63Z"/><path class="cls-2" d="M554.12,477.91v4.14c.76-2.25,2.25-4.59,6.7-4.59,4.19,0,6.98,2.07,6.98,7.51v13.54h2.52v.81h-12.73v-.81h1.84v-14.62c0-3.82-.54-4.27-1.67-4.27-1.89,0-3.64,2.83-3.64,6.48v12.42h1.93v.81h-12.78v-.81h2.47v-19.8h-2.47v-.81h10.84Z"/><path class="cls-2" d="M572.93,478.72h-2.48v-.81h2.48v-5.8l8.37-2.07v7.88h5.85v.81h-5.85v15.17c0,2.65.41,4.09,1.98,4.09,2.16,0,3.51-1.98,3.91-5.04l.77.09c-.41,3.51-1.89,6.75-7.38,6.75-4.46,0-7.65-1.3-7.65-6.88v-14.17Z"/><path class="cls-2" d="M599.25,477.91v20.61h2.52v.81h-13.36v-.81h2.47v-19.8h-2.66v-.81h11.03ZM595.2,466.44c2.79,0,4.45,1.39,4.45,4.14,0,2.38-1.3,4.23-4.54,4.23-3.64,0-4.5-2.29-4.5-4.18,0-2.21,1.21-4.18,4.59-4.18Z"/><path class="cls-2" d="M614.69,477.46c7.56,0,11.16,3.55,11.16,10.84s-3.42,11.47-11.43,11.47c-7.56,0-11.38-4.05-11.38-11.07,0-7.38,4.41-11.25,11.66-11.25ZM617.21,486.64c0-4.86-.13-8.37-2.66-8.37-2.74,0-2.88,3.51-2.88,8.59v3.51c0,5.22.09,8.59,2.83,8.59,2.57,0,2.7-2.65,2.7-8.5v-3.83Z"/><path class="cls-2" d="M638.04,477.91v4.14c.76-2.25,2.25-4.59,6.7-4.59,4.19,0,6.98,2.07,6.98,7.51v13.54h2.52v.81h-12.73v-.81h1.84v-14.62c0-3.82-.54-4.27-1.67-4.27-1.89,0-3.64,2.83-3.64,6.48v12.42h1.93v.81h-12.78v-.81h2.47v-19.8h-2.47v-.81h10.84Z"/><path class="cls-2" d="M665.18,478.72h-2.48v-.81h2.48v-5.8l8.37-2.07v7.88h5.85v.81h-5.85v15.17c0,2.65.41,4.09,1.98,4.09,2.16,0,3.51-1.98,3.91-5.04l.77.09c-.41,3.51-1.89,6.75-7.38,6.75-4.46,0-7.65-1.3-7.65-6.88v-14.17Z"/><path class="cls-2" d="M692.67,477.46c7.56,0,11.16,3.55,11.16,10.84s-3.42,11.47-11.43,11.47c-7.56,0-11.38-4.05-11.38-11.07,0-7.38,4.41-11.25,11.66-11.25ZM695.19,486.64c0-4.86-.13-8.37-2.66-8.37-2.74,0-2.88,3.51-2.88,8.59v3.51c0,5.22.09,8.59,2.83,8.59,2.57,0,2.7-2.65,2.7-8.5v-3.83Z"/><path class="cls-2" d="M292.18,550.18c-.94,2.25-2.7,3.6-6.21,3.6-4.99,0-8.14-3.55-8.14-11.12s3.15-11.2,8.91-11.2c2.79,0,4.41.81,5.22,2.21v-13.27h-2.74v-.81h11.25v32.94h2.2v.81h-9.99l-.5-3.15ZM292.09,547.21v-9.81c0-2.43-.95-4.63-2.92-4.63-2.21,0-2.66,2.66-2.66,8.91v2.34c0,6.34.54,7.83,2.48,7.83,1.3,0,3.1-1.26,3.1-4.63Z"/><path class="cls-2" d="M315.62,531.46c7.06,0,10.08,3.55,9.81,10.26h-12.69v1.75c0,5.31.94,8.91,5.31,8.91,3.33,0,5.58-2.11,6.57-5.58l.81.13c-1.04,3.87-3.38,6.84-9.76,6.84-8.01,0-11.61-4.59-11.61-11.12,0-7.78,5.31-11.2,11.56-11.2ZM317.42,540.82v-2.21c0-4.72-.36-6.3-2.21-6.3-1.57,0-2.43,1.53-2.43,6.3v2.21h4.63Z"/><path class="cls-2" d="M329.3,532.72h-2.47v-.81h2.47v-5.8l8.37-2.07v7.88h5.85v.81h-5.85v15.17c0,2.65.41,4.09,1.98,4.09,2.16,0,3.51-1.98,3.92-5.04l.77.09c-.41,3.51-1.89,6.75-7.38,6.75-4.46,0-7.65-1.3-7.65-6.88v-14.17Z"/><path class="cls-2" d="M356.89,542.76v-3.46c0-5.71-.5-7.2-2.29-7.2-.81,0-2.12.36-2.12,1.8,0,.36.09.81.27,1.31h1.12c.23.58.36,1.17.36,2.02,0,2.12-1.71,3.51-3.96,3.51-2.79,0-3.87-1.53-3.87-3.73,0-3.78,3.29-5.54,9.4-5.54,7.06,0,9.45,1.98,9.45,8.5v9.13c0,1.84.54,2.34,1.3,2.34.81,0,1.58-.86,1.8-4.63l.68.04c-.23,5.4-1.89,6.93-5.76,6.93-3.65,0-5.67-1.12-6.21-3.33-.72,2.16-2.02,3.33-5.17,3.33s-6.66-.95-6.66-5.45,3.92-5.58,10.35-5.58h1.31ZM356.89,547.66v-4.18h-.32c-1.89,0-2.79,1.35-2.79,4.09v.72c0,3.24.31,3.69,1.17,3.69s1.94-1.44,1.94-4.32Z"/><path class="cls-2" d="M380.33,531.91v20.61h2.52v.81h-13.36v-.81h2.47v-19.8h-2.65v-.81h11.02ZM376.28,520.44c2.79,0,4.46,1.39,4.46,4.14,0,2.38-1.31,4.23-4.54,4.23-3.65,0-4.5-2.29-4.5-4.18,0-2.21,1.21-4.18,4.59-4.18Z"/><path class="cls-2" d="M394.59,519.58v32.94h2.52v.81h-13.36v-.81h2.47v-32.13h-2.65v-.81h11.02Z"/><path class="cls-2" d="M400.85,559.68c3.96-3.38,4.5-4.77,4.5-6.48,0-1.35-.77-1.84-1.4-1.94l-2.16,1.94c-1.17-.41-2.7-1.62-2.7-3.51,0-2.16,1.53-3.69,3.83-3.69,2.79,0,4.37,2.25,4.37,5.04,0,3.51-1.75,6.25-5.9,9.31l-.54-.67Z"/><path class="cls-2" d="M417.63,531.91h13.05v.81h-2.43l4.9,14.94,5.22-14.94h-3.01v-.81h6.34v.81h-2.25l-8.41,24.25c-2.03,5.8-4.37,7.61-7.92,7.61s-5.62-1.71-5.62-4.54c0-2.25,1.44-3.65,3.6-3.65,2.29,0,3.74.99,3.74,3.11,0,.45-.09.99-.27,1.62h-1.57c-.45,1.35-.18,2.38,1.12,2.38,2.52,0,4.32-2.52,6.03-7.38l.99-2.79h-3.96l-7.69-20.61h-1.85v-.81Z"/><path class="cls-2" d="M452.69,531.46c7.56,0,11.16,3.55,11.16,10.84s-3.42,11.47-11.43,11.47c-7.56,0-11.38-4.05-11.38-11.07,0-7.38,4.41-11.25,11.66-11.25ZM455.21,540.64c0-4.86-.13-8.37-2.66-8.37-2.74,0-2.88,3.51-2.88,8.59v3.51c0,5.22.09,8.59,2.83,8.59,2.57,0,2.7-2.65,2.7-8.5v-3.83Z"/><path class="cls-2" d="M481.17,553.33l-.5-3.29c-.86,2.12-2.29,3.74-6.34,3.74s-6.97-2.07-6.97-7.51v-13.54h-2.52v-.81h10.89v15.43c0,3.82.54,4.41,1.67,4.41,1.8,0,3.2-1.84,3.2-5.26v-13.77h-2.07v-.81h10.44v20.61h2.47v.81h-10.26Z"/><path class="cls-2" d="M515.82,531.91h11.61v.81h-1.85l4.05,15.17,4-15.17h-3.1v-.81h6.08v.81h-1.89l-5.4,20.61h-6.17l-3.92-13.81-4.23,13.81h-6.03l-6.66-20.61h-2.02v-.81h13.63v.81h-2.7l4.14,15.3,3.24-10.53-1.12-4.77h-1.66v-.81Z"/><path class="cls-2" d="M548.4,531.46c7.56,0,11.16,3.55,11.16,10.84s-3.42,11.47-11.43,11.47c-7.56,0-11.38-4.05-11.38-11.07,0-7.38,4.41-11.25,11.66-11.25ZM550.92,540.64c0-4.86-.13-8.37-2.66-8.37-2.74,0-2.88,3.51-2.88,8.59v3.51c0,5.22.09,8.59,2.83,8.59,2.57,0,2.7-2.65,2.7-8.5v-3.83Z"/><path class="cls-2" d="M571.76,531.91v4.14c.76-2.25,2.25-4.59,6.7-4.59,4.19,0,6.98,2.07,6.98,7.51v13.54h2.52v.81h-12.73v-.81h1.84v-14.62c0-3.82-.54-4.27-1.67-4.27-1.89,0-3.64,2.83-3.64,6.48v12.42h1.93v.81h-12.78v-.81h2.47v-19.8h-2.47v-.81h10.84Z"/><path class="cls-2" d="M589.44,519.72c1.17-.58,2.12-.9,2.92-.9.9,0,1.53.58,1.53,1.67,0,.85-.18,1.89-.41,2.97l-1.8,8.23h-.95l-1.3-11.97Z"/><path class="cls-2" d="M598.26,532.72h-2.48v-.81h2.48v-5.8l8.37-2.07v7.88h5.85v.81h-5.85v15.17c0,2.65.41,4.09,1.98,4.09,2.16,0,3.51-1.98,3.91-5.04l.77.09c-.41,3.51-1.89,6.75-7.38,6.75-4.46,0-7.65-1.3-7.65-6.88v-14.17Z"/><path class="cls-2" d="M632.69,535.33c.99-2.25,2.61-3.87,6.03-3.87,5.13,0,8.23,3.51,8.23,11.2s-3.15,11.12-9.27,11.12c-3.1,0-4.63-.86-5.26-3.11l-.31,2.66h-10.26v-.81h2.47v-32.13h-2.47v-.81h10.84v15.75ZM632.69,539.47v8.37c0,2.43,1.03,4.64,2.92,4.64,2.21,0,2.65-2.66,2.65-8.91v-2.34c0-6.34-.54-7.83-2.07-7.83-1.84,0-3.51,2.16-3.51,6.08Z"/><path class="cls-2" d="M660.09,531.46c7.07,0,10.08,3.55,9.81,10.26h-12.69v1.75c0,5.31.95,8.91,5.31,8.91,3.33,0,5.58-2.11,6.57-5.58l.81.13c-1.04,3.87-3.38,6.84-9.76,6.84-8.01,0-11.61-4.59-11.61-11.12,0-7.78,5.31-11.2,11.56-11.2ZM661.89,540.82v-2.21c0-4.72-.36-6.3-2.2-6.3-1.58,0-2.43,1.53-2.43,6.3v2.21h4.63Z"/><path class="cls-2" d="M292.18,604.18c-.94,2.25-2.7,3.6-6.21,3.6-4.99,0-8.14-3.55-8.14-11.12s3.15-11.2,8.91-11.2c2.79,0,4.41.81,5.22,2.21v-13.27h-2.74v-.81h11.25v32.94h2.2v.81h-9.99l-.5-3.15ZM292.09,601.21v-9.81c0-2.43-.95-4.63-2.92-4.63-2.21,0-2.66,2.66-2.66,8.91v2.34c0,6.34.54,7.83,2.48,7.83,1.3,0,3.1-1.26,3.1-4.63Z"/><path class="cls-2" d="M314.68,585.91v20.61h2.52v.81h-13.36v-.81h2.47v-19.8h-2.65v-.81h11.02ZM310.63,574.44c2.79,0,4.46,1.39,4.46,4.14,0,2.38-1.31,4.23-4.54,4.23-3.65,0-4.5-2.29-4.5-4.18,0-2.21,1.21-4.18,4.59-4.18Z"/><path class="cls-2" d="M319.13,599.73h.54c1.67,5.49,4.41,7.06,8.1,7.06,3.33,0,4.59-1.21,4.59-2.92,0-2.03-2.21-2.47-5.62-3.42-3.6-.99-7.6-2.38-7.6-7.38,0-4.59,3.15-7.6,7.92-7.6,1.98,0,3.33.5,4.54,1.04.54.22.72.36,1.26.36.67,0,.99-.36,1.57-1.48h.5v6.88h-.54c-1.62-4.14-3.91-5.85-7.11-5.85-2.97,0-4.18,1.21-4.18,2.61,0,2.07,2.7,2.57,5.67,3.38,3.55.95,7.51,2.38,7.51,7.69s-3.33,7.7-8.42,7.7c-2.16,0-3.69-.45-5.4-1.3-.27-.18-.68-.36-.85-.36-.58,0-1.21.41-1.94,1.67h-.54v-8.05Z"/><path class="cls-2" d="M349.73,596.76v-3.46c0-5.71-.5-7.2-2.29-7.2-.81,0-2.12.36-2.12,1.8,0,.36.09.81.27,1.31h1.12c.23.58.36,1.17.36,2.02,0,2.12-1.71,3.51-3.96,3.51-2.79,0-3.87-1.53-3.87-3.73,0-3.78,3.29-5.54,9.4-5.54,7.06,0,9.45,1.98,9.45,8.5v9.13c0,1.84.54,2.34,1.3,2.34.81,0,1.58-.86,1.8-4.63l.68.04c-.23,5.4-1.89,6.93-5.76,6.93-3.65,0-5.67-1.12-6.21-3.33-.72,2.16-2.02,3.33-5.17,3.33s-6.66-.95-6.66-5.45,3.92-5.58,10.35-5.58h1.31ZM349.73,601.66v-4.18h-.31c-1.89,0-2.79,1.35-2.79,4.09v.72c0,3.24.31,3.69,1.17,3.69s1.94-1.44,1.94-4.32Z"/><path class="cls-2" d="M372.63,589.47c.99-2.25,2.7-4,6.21-4,5.04,0,8.15,3.55,8.15,11.2s-3.15,11.12-9.27,11.12c-3.06,0-4.19-.81-5-2.21v11.65h5.8v.81h-16.65v-.81h2.47v-30.51h-2.38v-.81h10.66v3.55ZM372.72,593.61v8.23c0,2.43.95,4.64,2.92,4.64,2.21,0,2.66-2.66,2.66-8.91v-2.34c0-6.34-.54-7.83-2.07-7.83-1.84,0-3.51,2.29-3.51,6.21Z"/><path class="cls-2" d="M399.09,589.47c.99-2.25,2.7-4,6.21-4,5.04,0,8.14,3.55,8.14,11.2s-3.15,11.12-9.27,11.12c-3.06,0-4.19-.81-5-2.21v11.65h5.81v.81h-16.65v-.81h2.47v-30.51h-2.38v-.81h10.66v3.55ZM399.18,593.61v8.23c0,2.43.95,4.64,2.93,4.64,2.21,0,2.66-2.66,2.66-8.91v-2.34c0-6.34-.54-7.83-2.07-7.83-1.84,0-3.51,2.29-3.51,6.21Z"/><path class="cls-2" d="M426.81,585.46c7.56,0,11.16,3.55,11.16,10.84s-3.42,11.47-11.43,11.47c-7.56,0-11.38-4.05-11.38-11.07,0-7.38,4.41-11.25,11.66-11.25ZM429.33,594.64c0-4.86-.13-8.37-2.66-8.37-2.74,0-2.88,3.51-2.88,8.59v3.51c0,5.22.09,8.59,2.83,8.59,2.57,0,2.7-2.65,2.7-8.5v-3.83Z"/><path class="cls-2" d="M450.08,585.91v20.61h2.52v.81h-13.36v-.81h2.47v-19.8h-2.66v-.81h11.03ZM446.03,574.44c2.79,0,4.45,1.39,4.45,4.14,0,2.38-1.3,4.23-4.54,4.23-3.64,0-4.5-2.29-4.5-4.18,0-2.21,1.21-4.18,4.59-4.18Z"/><path class="cls-2" d="M464.43,585.91v4.14c.76-2.25,2.25-4.59,6.7-4.59,4.19,0,6.98,2.07,6.98,7.51v13.54h2.52v.81h-12.73v-.81h1.84v-14.62c0-3.82-.54-4.27-1.67-4.27-1.89,0-3.64,2.83-3.64,6.48v12.42h1.93v.81h-12.78v-.81h2.47v-19.8h-2.47v-.81h10.84Z"/><path class="cls-2" d="M483.25,586.72h-2.48v-.81h2.48v-5.8l8.37-2.07v7.88h5.85v.81h-5.85v15.17c0,2.65.41,4.09,1.98,4.09,2.16,0,3.51-1.98,3.91-5.04l.77.09c-.41,3.51-1.89,6.75-7.38,6.75-4.46,0-7.65-1.3-7.65-6.88v-14.17Z"/><path class="cls-2" d="M510.51,585.46c7.07,0,10.08,3.55,9.81,10.26h-12.69v1.75c0,5.31.95,8.91,5.31,8.91,3.33,0,5.58-2.11,6.57-5.58l.81.13c-1.04,3.87-3.38,6.84-9.76,6.84-8.01,0-11.61-4.59-11.61-11.12,0-7.78,5.31-11.2,11.56-11.2ZM512.31,594.82v-2.21c0-4.72-.36-6.3-2.2-6.3-1.58,0-2.43,1.53-2.43,6.3v2.21h4.63Z"/><path class="cls-2" d="M536.75,604.18c-.94,2.25-2.7,3.6-6.21,3.6-5,0-8.14-3.55-8.14-11.12s3.15-11.2,8.91-11.2c2.79,0,4.41.81,5.22,2.21v-13.27h-2.75v-.81h11.25v32.94h2.21v.81h-9.99l-.5-3.15ZM536.66,601.21v-9.81c0-2.43-.94-4.63-2.92-4.63-2.21,0-2.65,2.66-2.65,8.91v2.34c0,6.34.54,7.83,2.47,7.83,1.3,0,3.1-1.26,3.1-4.63Z"/><path class="cls-2" d="M553.85,599.95c2.34,0,4,1.17,4,3.83,0,2.38-1.35,4-3.87,4-3.01,0-4-2.07-4-3.87,0-2.21,1.35-3.96,3.87-3.96Z"/><path class="cls-2" d="M279.51,664.14v-1.9h10.43v1.9h-10.43Z"/><path class="cls-2" d="M308.9,658.45c0,.89-.19,1.67-.58,2.34s-.91,1.22-1.57,1.65c-.66.43-1.4.75-2.22.95l5.3,7.94h-2.7l-4.89-7.68h-2.42v7.68h-2.26v-17.9h4.6c2.21,0,3.88.42,5.02,1.27,1.14.85,1.71,2.1,1.71,3.75ZM306.48,658.45c0-1.15-.33-1.98-.99-2.48s-1.68-.75-3.07-.75h-2.6v6.66h2.6c1.28,0,2.28-.26,2.99-.79.71-.52,1.07-1.41,1.07-2.65Z"/><path class="cls-2" d="M318.35,657.36c1.29,0,2.37.29,3.24.88.87.58,1.53,1.41,1.96,2.48.44,1.07.66,2.32.66,3.77s-.23,2.63-.68,3.7c-.45,1.08-1.11,1.92-1.98,2.53-.87.61-1.95.92-3.23.92s-2.36-.29-3.24-.88-1.54-1.42-1.98-2.49c-.45-1.07-.67-2.32-.67-3.75s.23-2.66.68-3.73c.45-1.08,1.12-1.91,2-2.52.88-.6,1.96-.9,3.24-.9ZM318.35,659.14c-1.18,0-2.07.44-2.67,1.31-.6.87-.9,2.23-.9,4.06s.3,3.14.89,4.02c.59.88,1.48,1.31,2.66,1.31s2.06-.44,2.66-1.31c.59-.88.89-2.22.89-4.04s-.29-3.17-.88-4.04-1.47-1.31-2.64-1.31Z"/><path class="cls-2" d="M337.75,657.36c.44,0,.86.09,1.27.29.4.19.73.56.99,1.11.26.55.39,1.34.39,2.39v10.19h-2.03v-9.84c0-.86-.05-1.48-.16-1.86-.1-.38-.4-.57-.9-.57-.41,0-.81.13-1.22.38-.4.26-.8.67-1.18,1.25v10.63h-2.04v-9.84c0-.86-.05-1.48-.16-1.86-.1-.38-.4-.57-.9-.57-.42,0-.83.13-1.23.38-.39.26-.78.67-1.16,1.25v10.63h-2.02v-13.69h1.72l.13,1.59c.37-.53.79-.97,1.25-1.33.46-.36,1.04-.54,1.72-.54.52,0,1.01.12,1.47.37s.8.73,1.01,1.44c.37-.54.79-.97,1.26-1.31.47-.33,1.05-.5,1.75-.5Z"/><path class="cls-2" d="M354.13,668.34c0,.55.09.95.27,1.2s.46.44.85.56l-.53,1.53c-.59-.08-1.1-.27-1.55-.57s-.76-.75-.96-1.36c-.49.63-1.11,1.11-1.85,1.44-.74.33-1.55.49-2.44.49-1.37,0-2.45-.39-3.24-1.16-.79-.77-1.18-1.79-1.18-3.07,0-1.41.55-2.5,1.65-3.25,1.1-.75,2.69-1.13,4.77-1.13h2.01v-1.14c0-.99-.29-1.69-.86-2.1-.58-.41-1.38-.62-2.4-.62-.45,0-.98.05-1.59.16-.61.11-1.27.29-1.98.54l-.57-1.65c.84-.31,1.63-.53,2.37-.66.74-.13,1.44-.19,2.11-.19,1.71,0,2.99.4,3.84,1.19s1.28,1.87,1.28,3.23v6.56ZM348.48,669.97c.68,0,1.32-.17,1.94-.51.62-.34,1.12-.82,1.52-1.42v-3.52h-1.98c-1.51,0-2.57.26-3.19.78-.62.52-.93,1.22-.93,2.09s.22,1.49.66,1.93,1.1.66,1.98.66Z"/><path class="cls-2" d="M359.93,671.33v-13.69h1.86l.17,1.9c.55-.7,1.25-1.24,2.09-1.62s1.65-.57,2.44-.57c1.34,0,2.32.36,2.93,1.07.61.71.92,1.7.92,2.96v9.95h-2.18v-8.33c0-.94-.05-1.69-.16-2.27s-.32-1-.65-1.26c-.33-.26-.84-.4-1.53-.4-.54,0-1.04.12-1.51.35-.47.23-.89.53-1.26.88-.37.35-.67.7-.92,1.06v9.97h-2.18Z"/><path class="cls-2" d="M377.25,665.26c.04,1.06.25,1.92.61,2.59.36.67.85,1.17,1.44,1.48.6.32,1.25.47,1.95.47s1.34-.1,1.9-.31c.57-.21,1.15-.52,1.75-.92l1.03,1.44c-.64.5-1.37.9-2.19,1.18-.82.29-1.66.43-2.52.43-1.33,0-2.46-.3-3.39-.9-.94-.6-1.65-1.43-2.14-2.5s-.73-2.31-.73-3.72.25-2.62.74-3.69c.49-1.08,1.19-1.92,2.08-2.54s1.95-.92,3.16-.92,2.15.27,2.98.81c.83.54,1.47,1.31,1.92,2.31s.67,2.2.67,3.58c0,.23,0,.45-.01.66,0,.2-.02.38-.04.54h-9.2ZM380.97,659.15c-1.01,0-1.86.36-2.54,1.08-.68.72-1.07,1.83-1.16,3.34h7.14c-.03-1.46-.35-2.57-.96-3.31-.62-.74-1.44-1.11-2.47-1.11Z"/><path class="cls-2" d="M413.43,653.15c1.17,0,2.15.15,2.94.44.79.29,1.54.73,2.25,1.3l-1.26,1.47c-.56-.48-1.16-.82-1.79-1.02-.63-.2-1.29-.31-1.97-.31-.98,0-1.88.23-2.72.7s-1.5,1.23-2.01,2.3c-.51,1.07-.76,2.52-.76,4.35s.24,3.2.72,4.28c.48,1.07,1.13,1.85,1.96,2.33s1.74.71,2.76.71,1.83-.15,2.48-.46,1.21-.65,1.68-1.04l1.17,1.48c-.55.53-1.26.99-2.13,1.37-.88.39-1.95.58-3.22.58-1.45,0-2.76-.36-3.93-1.07-1.17-.71-2.1-1.75-2.79-3.13-.68-1.37-1.03-3.06-1.03-5.06s.35-3.7,1.05-5.07c.7-1.37,1.63-2.4,2.79-3.11,1.17-.7,2.44-1.05,3.82-1.05Z"/><path class="cls-2" d="M427.54,657.36c1.29,0,2.37.29,3.24.88s1.53,1.41,1.96,2.48c.44,1.07.66,2.32.66,3.77s-.23,2.63-.68,3.7c-.45,1.08-1.11,1.92-1.98,2.53-.87.61-1.95.92-3.23.92s-2.36-.29-3.24-.88c-.88-.59-1.54-1.42-1.98-2.49s-.67-2.32-.67-3.75.23-2.66.68-3.73c.45-1.08,1.12-1.91,2-2.52.88-.6,1.96-.9,3.24-.9ZM427.54,659.14c-1.18,0-2.07.44-2.67,1.31s-.9,2.23-.9,4.06.3,3.14.89,4.02c.59.88,1.48,1.31,2.66,1.31s2.07-.44,2.66-1.31c.59-.88.89-2.22.89-4.04s-.29-3.17-.88-4.04c-.59-.87-1.47-1.31-2.64-1.31Z"/><path class="cls-2" d="M438.06,671.33v-1.68h2.13v-10.33h-2.13v-1.68h3.8l.4,3.24c.53-1.13,1.17-2,1.92-2.61.75-.62,1.75-.92,2.99-.92.38,0,.72.03,1.02.08.3.06.6.13.92.21l-.64,1.95c-.29-.08-.55-.14-.78-.17-.23-.04-.5-.06-.81-.06-1.05,0-1.95.37-2.7,1.12-.75.75-1.36,1.87-1.81,3.38v5.8h2.78v1.68h-7.1ZM447,662.27v-2.98l.22-1.65h1.88l-.31,4.63h-1.79Z"/><path class="cls-2" d="M453.53,671.33v-13.69h1.86l.17,1.9c.55-.7,1.25-1.24,2.09-1.62.84-.38,1.65-.57,2.44-.57,1.34,0,2.32.36,2.93,1.07.61.71.92,1.7.92,2.96v9.95h-2.18v-8.33c0-.94-.05-1.69-.16-2.27-.1-.58-.32-1-.65-1.26-.33-.26-.84-.4-1.53-.4-.54,0-1.04.12-1.51.35-.47.23-.89.53-1.26.88-.37.35-.67.7-.92,1.06v9.97h-2.18Z"/><path class="cls-2" d="M470.85,665.26c.04,1.06.25,1.92.61,2.59.36.67.84,1.17,1.44,1.48.6.32,1.25.47,1.95.47s1.34-.1,1.9-.31,1.15-.52,1.75-.92l1.03,1.44c-.64.5-1.37.9-2.19,1.18-.82.29-1.66.43-2.52.43-1.33,0-2.46-.3-3.39-.9-.94-.6-1.65-1.43-2.14-2.5s-.73-2.31-.73-3.72.25-2.62.74-3.69c.49-1.08,1.19-1.92,2.08-2.54s1.95-.92,3.16-.92,2.14.27,2.98.81c.83.54,1.47,1.31,1.92,2.31s.67,2.2.67,3.58c0,.23,0,.45-.01.66,0,.2-.02.38-.04.54h-9.2ZM474.56,659.15c-1.01,0-1.86.36-2.54,1.08-.68.72-1.07,1.83-1.16,3.34h7.14c-.03-1.46-.35-2.57-.96-3.31s-1.44-1.11-2.47-1.11Z"/><path class="cls-2" d="M495.6,670.64c-.47.31-1.04.56-1.7.73-.67.17-1.32.26-1.96.26-1.47,0-2.61-.39-3.41-1.16-.8-.77-1.2-1.76-1.2-2.98v-8.16h-3.15v-1.69h3.15v-3.11l2.18-.26v3.37h4.73l-.26,1.69h-4.47v8.14c0,.76.2,1.34.6,1.74.4.4,1.07.6,2.01.6.51,0,.98-.06,1.42-.18.43-.12.84-.28,1.21-.47l.85,1.48Z"/><path class="cls-2" d="M505.52,667.05c.6,0,1.1.2,1.5.61.4.41.6.9.6,1.47,0,.31-.04.63-.11.95-.07.32-.21.68-.4,1.09l-2.11,4.82h-1.98l1.25-5.13c-.26-.19-.47-.44-.62-.75s-.23-.63-.23-.98c0-.58.2-1.07.6-1.48.4-.4.89-.6,1.48-.6Z"/><path class="cls-2" d="M536.77,668.77l4.84-15.34h2.27l-5.99,17.9h-2.34l-5.99-17.9h2.43l4.78,15.34Z"/><path class="cls-2" d="M548.84,665.26c.04,1.06.25,1.92.61,2.59.36.67.84,1.17,1.44,1.48.6.32,1.25.47,1.95.47s1.34-.1,1.9-.31,1.15-.52,1.75-.92l1.03,1.44c-.64.5-1.37.9-2.19,1.18-.82.29-1.66.43-2.52.43-1.33,0-2.46-.3-3.39-.9-.94-.6-1.65-1.43-2.14-2.5s-.73-2.31-.73-3.72.25-2.62.74-3.69c.49-1.08,1.19-1.92,2.08-2.54s1.95-.92,3.16-.92,2.14.27,2.98.81c.83.54,1.47,1.31,1.92,2.31s.67,2.2.67,3.58c0,.23,0,.45-.01.66,0,.2-.02.38-.04.54h-9.2ZM552.56,659.15c-1.01,0-1.86.36-2.54,1.08-.68.72-1.07,1.83-1.16,3.34h7.14c-.03-1.46-.35-2.57-.96-3.31s-1.44-1.11-2.47-1.11Z"/><path class="cls-2" d="M562.86,671.33v-1.68h2.13v-10.33h-2.13v-1.68h3.8l.4,3.24c.53-1.13,1.17-2,1.92-2.61.75-.62,1.75-.92,2.99-.92.38,0,.72.03,1.02.08.3.06.6.13.92.21l-.64,1.95c-.29-.08-.55-.14-.78-.17-.23-.04-.5-.06-.81-.06-1.05,0-1.95.37-2.7,1.12-.75.75-1.36,1.87-1.81,3.38v5.8h2.78v1.68h-7.1ZM571.8,662.27v-2.98l.22-1.65h1.88l-.31,4.63h-1.79Z"/><path class="cls-2" d="M580.51,659.42c.5-.66,1.08-1.17,1.74-1.53s1.38-.54,2.17-.54c1.22,0,2.21.29,2.96.88.75.59,1.3,1.42,1.65,2.49s.52,2.32.52,3.75-.21,2.61-.62,3.69c-.42,1.08-1.03,1.93-1.83,2.54-.8.62-1.79.92-2.97.92-1.59,0-2.83-.57-3.73-1.72l-.16,1.42h-1.91v-19.2l2.18-.27v7.57ZM583.61,669.86c1.14,0,2.02-.44,2.64-1.33.62-.88.92-2.24.92-4.07,0-1.2-.12-2.19-.36-2.98s-.6-1.39-1.08-1.78c-.48-.39-1.07-.59-1.78-.59-.76,0-1.43.23-2.01.68-.58.46-1.05.96-1.42,1.51v6.79c.36.54.8.97,1.35,1.29.54.32,1.12.48,1.75.48Z"/><path class="cls-2" d="M595.64,665.26c.04,1.06.25,1.92.61,2.59.36.67.84,1.17,1.44,1.48.6.32,1.25.47,1.95.47s1.34-.1,1.9-.31,1.15-.52,1.75-.92l1.03,1.44c-.64.5-1.37.9-2.19,1.18-.82.29-1.66.43-2.52.43-1.33,0-2.46-.3-3.39-.9-.94-.6-1.65-1.43-2.14-2.5s-.73-2.31-.73-3.72.25-2.62.74-3.69c.49-1.08,1.19-1.92,2.08-2.54s1.95-.92,3.16-.92,2.14.27,2.98.81c.83.54,1.47,1.31,1.92,2.31s.67,2.2.67,3.58c0,.23,0,.45-.01.66,0,.2-.02.38-.04.54h-9.2ZM599.36,659.15c-1.01,0-1.86.36-2.54,1.08-.68.72-1.07,1.83-1.16,3.34h7.14c-.03-1.46-.35-2.57-.96-3.31s-1.44-1.11-2.47-1.11Z"/><path class="cls-2" d="M609.53,671.33v-13.69h1.86l.17,1.9c.55-.7,1.25-1.24,2.09-1.62.84-.38,1.65-.57,2.44-.57,1.34,0,2.32.36,2.93,1.07.61.71.92,1.7.92,2.96v9.95h-2.18v-8.33c0-.94-.05-1.69-.16-2.27-.1-.58-.32-1-.65-1.26-.33-.26-.84-.4-1.53-.4-.54,0-1.04.12-1.51.35-.47.23-.89.53-1.26.88-.37.35-.67.7-.92,1.06v9.97h-2.18Z"/><path class="cls-2" d="M634.93,668.34c0,.55.09.95.27,1.2.18.25.46.44.84.56l-.53,1.53c-.59-.08-1.11-.27-1.55-.57-.44-.3-.76-.75-.96-1.36-.49.63-1.11,1.11-1.85,1.44-.74.33-1.55.49-2.44.49-1.37,0-2.45-.39-3.24-1.16-.79-.77-1.18-1.79-1.18-3.07,0-1.41.55-2.5,1.65-3.25s2.69-1.13,4.77-1.13h2.01v-1.14c0-.99-.29-1.69-.86-2.1-.58-.41-1.38-.62-2.4-.62-.45,0-.98.05-1.59.16-.61.11-1.27.29-1.98.54l-.57-1.65c.84-.31,1.63-.53,2.37-.66.74-.13,1.44-.19,2.11-.19,1.71,0,2.99.4,3.84,1.19s1.28,1.87,1.28,3.23v6.56ZM629.27,669.97c.68,0,1.32-.17,1.94-.51.62-.34,1.12-.82,1.52-1.42v-3.52h-1.98c-1.51,0-2.57.26-3.19.78-.62.52-.93,1.22-.93,2.09s.22,1.49.66,1.93,1.1.66,1.98.66Z"/><path class="cls-2" d="M661.56,668.77l4.84-15.34h2.27l-5.99,17.9h-2.34l-5.99-17.9h2.43l4.78,15.34Z"/><path class="cls-2" d="M673.64,665.26c.04,1.06.25,1.92.61,2.59.36.67.84,1.17,1.44,1.48.6.32,1.25.47,1.95.47s1.34-.1,1.9-.31,1.15-.52,1.75-.92l1.03,1.44c-.64.5-1.37.9-2.19,1.18-.82.29-1.66.43-2.52.43-1.33,0-2.46-.3-3.39-.9-.94-.6-1.65-1.43-2.14-2.5s-.73-2.31-.73-3.72.25-2.62.74-3.69c.49-1.08,1.19-1.92,2.08-2.54s1.95-.92,3.16-.92,2.14.27,2.98.81c.83.54,1.47,1.31,1.92,2.31s.67,2.2.67,3.58c0,.23,0,.45-.01.66,0,.2-.02.38-.04.54h-9.2ZM677.36,659.15c-1.01,0-1.86.36-2.54,1.08-.68.72-1.07,1.83-1.16,3.34h7.14c-.03-1.46-.35-2.57-.96-3.31s-1.44-1.11-2.47-1.11Z"/><path class="cls-2" d="M687.53,671.33v-13.69h1.86l.17,1.9c.55-.7,1.25-1.24,2.09-1.62.84-.38,1.65-.57,2.44-.57,1.34,0,2.32.36,2.93,1.07.61.71.92,1.7.92,2.96v9.95h-2.18v-8.33c0-.94-.05-1.69-.16-2.27-.1-.58-.32-1-.65-1.26-.33-.26-.84-.4-1.53-.4-.54,0-1.04.12-1.51.35-.47.23-.89.53-1.26.88-.37.35-.67.7-.92,1.06v9.97h-2.18Z"/><path class="cls-2" d="M704.84,665.26c.04,1.06.25,1.92.61,2.59.36.67.84,1.17,1.44,1.48.6.32,1.25.47,1.95.47s1.34-.1,1.9-.31,1.15-.52,1.75-.92l1.03,1.44c-.64.5-1.37.9-2.19,1.18-.82.29-1.66.43-2.52.43-1.33,0-2.46-.3-3.39-.9-.94-.6-1.65-1.43-2.14-2.5s-.73-2.31-.73-3.72.25-2.62.74-3.69c.49-1.08,1.19-1.92,2.08-2.54s1.95-.92,3.16-.92,2.14.27,2.98.81c.83.54,1.47,1.31,1.92,2.31s.67,2.2.67,3.58c0,.23,0,.45-.01.66,0,.2-.02.38-.04.54h-9.2ZM708.56,659.15c-1.01,0-1.86.36-2.54,1.08-.68.72-1.07,1.83-1.16,3.34h7.14c-.03-1.46-.35-2.57-.96-3.31s-1.44-1.11-2.47-1.11Z"/><path class="cls-2" d="M718.85,671.33v-1.68h2.13v-10.33h-2.13v-1.68h3.8l.4,3.24c.53-1.13,1.17-2,1.92-2.61.75-.62,1.75-.92,2.99-.92.38,0,.72.03,1.02.08.3.06.6.13.92.21l-.64,1.95c-.29-.08-.55-.14-.78-.17-.23-.04-.5-.06-.81-.06-1.05,0-1.95.37-2.7,1.12-.75.75-1.36,1.87-1.81,3.38v5.8h2.78v1.68h-7.1ZM727.8,662.27v-2.98l.22-1.65h1.88l-.31,4.63h-1.79Z"/><path class="cls-2" d="M741.25,657.64v11.96h3.86v1.73h-10.27v-1.73h4.23v-10.23h-4.1v-1.73h6.28ZM739.51,651.23c.49,0,.87.15,1.16.44.29.29.44.65.44,1.08s-.15.81-.44,1.11c-.29.3-.68.45-1.16.45-.46,0-.84-.15-1.13-.45-.29-.3-.44-.67-.44-1.11s.15-.78.44-1.08c.29-.29.67-.44,1.13-.44Z"/><path class="cls-2" d="M754.58,669.82c1.05,0,1.88-.2,2.49-.59.61-.39.92-.92.92-1.58,0-.42-.08-.78-.23-1.08s-.46-.58-.93-.82c-.47-.24-1.19-.49-2.16-.73-.95-.23-1.77-.5-2.46-.81-.7-.31-1.24-.71-1.62-1.2s-.58-1.13-.58-1.92.22-1.44.66-2c.44-.56,1.05-.99,1.83-1.29s1.69-.45,2.72-.45c1.1,0,2.06.14,2.88.44.82.29,1.51.65,2.09,1.07l-.96,1.48c-.52-.35-1.09-.65-1.72-.88s-1.38-.34-2.26-.34c-1.08,0-1.84.17-2.29.5-.45.33-.68.76-.68,1.29,0,.4.11.73.33.99.22.26.6.5,1.12.72.53.21,1.26.44,2.18.7.89.23,1.67.52,2.33.84s1.18.76,1.55,1.3c.37.54.56,1.23.56,2.08,0,.97-.28,1.76-.83,2.36-.55.6-1.27,1.04-2.15,1.31-.88.27-1.81.41-2.79.41-1.24,0-2.29-.18-3.17-.54s-1.6-.79-2.19-1.31l1.25-1.44c.54.44,1.15.8,1.85,1.07.7.27,1.45.41,2.25.41Z"/></svg>