<svg width="260" height="204" viewBox="0 0 260 204" fill="none" xmlns="http://www.w3.org/2000/svg">
<path d="M257.794 160.864C249.238 164.878 240.186 168.985 230.785 168.176C223.875 167.583 213.04 160.308 206.267 158.817C197.847 156.961 189.058 161.868 180.602 163.57C172.903 165.121 164.89 167.368 157.36 165.117C150.691 163.123 145.423 157.854 138.887 155.462C119.541 148.373 98.2826 168.412 78.6707 162.107C72.3882 160.088 66.955 155.47 60.411 154.666C50.3736 153.431 41.6644 161.364 31.8886 163.972C23.5335 166.202 14.4178 164.362 6.91993 160.019" stroke="#9FA5BE" stroke-width="2" stroke-miterlimit="10" stroke-linecap="round"/>
<path d="M258.259 173.485C250.443 182.661 236.253 185.822 224.312 184.733C212.371 183.644 202.973 175.309 191.012 176.174C178.894 177.052 163.749 185.903 152.694 180.817C148.834 179.042 145.586 176.133 141.803 174.196C132.382 169.37 121.044 171.137 110.83 173.879C100.619 176.621 92.2321 181.894 81.7601 180.456C72.8939 179.241 62.7237 172.815 53.8052 172.112C45.1643 171.43 36.7569 177.486 28.2891 179.367C19.8214 181.248 10.0979 178.668 3.42511 173.087" stroke="#9FA5BE" stroke-width="2" stroke-miterlimit="10" stroke-linecap="round"/>
<path d="M1.75628 193.629C6.24372 199.617 15.4762 199.044 22.2536 195.953C29.0311 192.862 35.1042 187.857 42.433 186.577C58.9098 183.705 73.9296 200.539 90.4868 198.171C101.82 196.55 111.016 186.127 122.458 186.48C134.488 186.85 143.829 199.089 155.867 199.154C166.818 199.215 180.819 189.055 191.645 190.717C198.527 191.773 207.792 197.362 214.103 200.324C221.415 203.752 229.195 203.504 236.958 201.311C244.722 199.117 251.439 195.116 258.478 191.147" stroke="#9FA5BE" stroke-width="2" stroke-miterlimit="10" stroke-linecap="round"/>
<path d="M190.352 114.678L189.614 114.003L189.614 114.003L190.352 114.678ZM210.845 94.3351L211.602 94.9885L211.602 94.9887L210.845 94.3351ZM223.229 75.4056L224.12 75.8597L224.12 75.8599L223.229 75.4056ZM228.103 52.3368L229.076 52.1068L229.076 52.1073L228.103 52.3368ZM212.137 40.8817L211.861 39.9205L211.863 39.9201L212.137 40.8817ZM211.449 40.0327L210.545 39.6045L210.546 39.6033L211.449 40.0327ZM211.779 26.2255L210.804 26.4467L210.804 26.4466L211.779 26.2255ZM208.274 10.9195L207.276 10.9855L207.276 10.9854L208.274 10.9195ZM207.267 5.0213L206.39 5.50025L206.389 5.50015L207.267 5.0213ZM199.572 1.66192L199.495 0.664948L199.495 0.664891L199.572 1.66192ZM179.783 14.7419L180.446 15.491L180.446 15.491L179.783 14.7419ZM147.264 42.6771L148.143 43.1555L147.515 44.3081L146.57 43.3968L147.264 42.6771ZM134.78 45.5734L135.718 45.9193L135.323 46.9918L134.313 46.4574L134.78 45.5734ZM90.3605 46.9951L89.9134 46.1006L89.9135 46.1006L90.3605 46.9951ZM55.9018 77.4042L56.6828 78.0286L56.6827 78.0287L55.9018 77.4042ZM17.2977 135.533L16.4411 135.017L16.4412 135.017L17.2977 135.533ZM7.94054 151.067L8.63535 151.786L3.13918 157.096L7.08406 150.55L7.94054 151.067ZM24.0671 142.78L23.888 141.796L23.8884 141.796L24.0671 142.78ZM29.9954 142.894L29.6801 143.843L29.6783 143.842L29.9954 142.894ZM37.1109 158.703L38.1003 158.849L36.1111 158.725L37.1109 158.703ZM49.3175 143.832L49.552 144.804L49.5519 144.804L49.3175 143.832ZM63.951 153.963L64.9504 153.997L62.9515 153.994L63.951 153.963ZM78.6328 145.319L78.9519 144.371L78.952 144.371L78.6328 145.319ZM90.6785 160.08L91.6571 160.286L90.8247 164.247L89.7166 160.354L90.6785 160.08ZM120.77 154.055C121.069 154.519 120.935 155.138 120.471 155.437C120.006 155.736 119.388 155.602 119.089 155.138L120.77 154.055ZM167.461 165.599C168.821 146.543 176.768 128.038 189.614 114.003L191.09 115.353C178.549 129.054 170.784 147.133 169.456 165.741L167.461 165.599ZM189.614 114.003C192.899 110.415 196.481 107.122 199.993 103.845C203.518 100.558 206.979 97.2814 210.088 93.6814L211.602 94.9887C208.413 98.6802 204.879 102.023 201.358 105.308C197.824 108.604 194.309 111.837 191.09 115.353L189.614 114.003ZM210.088 93.6816C214.955 88.0445 218.925 81.643 222.338 74.9513L224.12 75.8599C220.659 82.6463 216.604 89.1948 211.602 94.9885L210.088 93.6816ZM222.338 74.9514C225.971 67.8245 228.884 60.0043 227.129 52.5664L229.076 52.1073C231.008 60.3004 227.771 68.6962 224.12 75.8597L222.338 74.9514ZM227.13 52.5669C226.325 49.1613 224.182 46.0064 221.439 43.9429C218.696 41.8799 215.454 40.9744 212.412 41.8432L211.863 39.9201C215.662 38.8351 219.542 40.0134 222.641 42.3446C225.739 44.6753 228.158 48.2249 229.076 52.1068L227.13 52.5669ZM212.413 41.8428C211.006 42.2469 209.993 40.769 210.545 39.6045L212.353 40.4609C212.419 40.321 212.387 40.1623 212.304 40.0595C212.217 39.951 212.041 39.8688 211.861 39.9205L212.413 41.8428ZM210.546 39.6033C212.356 35.7965 211.838 31.0079 210.804 26.4467L212.754 26.0043C213.796 30.5992 214.478 35.9902 212.352 40.4621L210.546 39.6033ZM210.804 26.4466C210.23 23.9147 209.459 21.4644 208.756 18.8789C208.063 16.3267 207.455 13.7022 207.276 10.9855L209.271 10.8535C209.438 13.3687 210.003 15.8402 210.686 18.3545C211.36 20.8354 212.169 23.4222 212.754 26.0045L210.804 26.4466ZM207.276 10.9854C207.204 9.89799 207.2 8.96938 207.088 7.99111C206.98 7.05151 206.784 6.22269 206.39 5.50025L208.145 4.54234C208.713 5.58286 208.953 6.69776 209.075 7.76383C209.192 8.79122 209.21 9.93023 209.271 10.8536L207.276 10.9854ZM206.389 5.50015C205.237 3.388 202.414 2.44544 199.649 2.65896L199.495 0.664891C202.622 0.42345 206.448 1.43071 208.145 4.54244L206.389 5.50015ZM199.65 2.6589C195.922 2.94947 192.677 4.74544 189.559 7.21297C188.001 8.44557 186.496 9.82935 184.987 11.2544C183.489 12.67 181.975 14.1381 180.446 15.491L179.121 13.9929C180.618 12.6689 182.088 11.2416 183.614 9.80056C185.129 8.36895 186.688 6.93464 188.318 5.64467C191.575 3.06705 195.197 0.99994 199.495 0.664948L199.65 2.6589ZM180.446 15.491C174.996 20.3112 168.471 24.2072 162.648 28.3442C156.765 32.5245 151.489 37.0127 148.143 43.1555L146.386 42.1987C149.958 35.6434 155.543 30.939 161.49 26.7138C167.498 22.4452 173.773 18.7227 179.121 13.9929L180.446 15.491ZM146.57 43.3968C145.04 41.9206 142.732 41.4753 140.539 41.9842C138.346 42.4932 136.458 43.9124 135.718 45.9193L133.842 45.2275C134.865 42.4533 137.392 40.6614 140.087 40.036C142.782 39.4106 145.834 39.9078 147.959 41.9575L146.57 43.3968ZM134.313 46.4574C121.053 39.4435 104.389 41.1038 90.8075 47.8897L89.9135 46.1006C103.893 39.1159 121.261 37.2909 135.248 44.6895L134.313 46.4574ZM90.8076 47.8896C77.2196 54.6809 66.3139 65.9829 56.6828 78.0286L55.1207 76.7797C64.8078 64.6639 75.9329 53.0881 89.9134 46.1006L90.8076 47.8896ZM56.6827 78.0287C42.2023 96.1341 30.1776 116.09 18.1543 136.049L16.4412 135.017C28.4528 115.078 40.5437 95.0058 55.1208 76.7796L56.6827 78.0287ZM18.1544 136.049C15.0353 141.228 11.9162 146.407 8.797 151.583L7.08406 150.55C10.203 145.375 13.322 140.196 16.4411 135.017L18.1544 136.049ZM7.24571 150.347C11.8062 145.941 17.6682 142.928 23.888 141.796L24.2462 143.764C18.4164 144.825 12.9129 147.653 8.63535 151.786L7.24571 150.347ZM23.8884 141.796C25.9012 141.43 28.1713 141.229 30.3124 141.945L29.6783 143.842C28.0282 143.29 26.1691 143.414 24.2458 143.764L23.8884 141.796ZM30.3107 141.945C33.632 143.048 35.5444 145.776 36.6335 148.87C37.7198 151.956 38.0435 155.55 38.1107 158.682L36.1111 158.725C36.0455 155.662 35.7273 152.32 34.7469 149.534C33.7694 146.757 32.1904 144.677 29.6801 143.843L30.3107 141.945ZM36.1216 158.558C37.1569 151.518 41.9894 144.57 49.0832 142.86L49.5519 144.804C43.4691 146.271 39.0531 152.37 38.1003 158.849L36.1216 158.558ZM49.083 142.86C52.6828 141.991 56.5721 142.899 59.5806 144.91C62.5924 146.923 64.8338 150.123 64.9505 153.932L62.9515 153.994C62.8589 150.974 61.0757 148.315 58.4692 146.573C55.8594 144.828 52.5365 144.084 49.552 144.804L49.083 142.86ZM62.9516 153.928C63.0815 150.173 65.4717 147.21 68.5518 145.494C71.6271 143.78 75.5319 143.22 78.9519 144.371L78.3137 146.266C75.4955 145.318 72.1742 145.765 69.5254 147.241C66.8815 148.714 65.0499 151.123 64.9504 153.997L62.9516 153.928ZM78.952 144.371C85.6389 146.624 89.7852 153.289 91.6403 159.807L89.7166 160.354C87.9415 154.117 84.0949 148.214 78.3136 146.266L78.952 144.371ZM89.6998 159.875C91.0941 153.24 96.6844 147.734 103.304 146.493L103.673 148.459C97.8571 149.549 92.8868 154.434 91.6571 160.286L89.6998 159.875ZM103.304 146.493C109.926 145.251 117.107 148.366 120.77 154.055L119.089 155.138C115.862 150.127 109.488 147.368 103.673 148.459L103.304 146.493Z" fill="#9FA5BE"/>
<path d="M153.202 138.429C150.847 133.908 153.31 128.692 156.373 125.187C162.841 118.033 169.151 110.665 174.81 102.837C186.151 87.1571 196.539 70.7949 206.278 54.059C208.6 49.7856 210.685 45.3457 212.194 40.6662L210.661 40.1787C209.256 44.7405 207.276 49.1316 205.039 53.3847C195.569 70.1896 185.407 86.7022 174.323 102.479C168.781 110.376 162.579 117.826 156.22 125.061C153.194 128.623 150.771 133.928 153.206 138.433L153.202 138.429Z" fill="#9FA5BE"/>
<path d="M215.867 53.9985C218.028 54.5957 218.946 57.2482 218.487 59.2834C217.992 61.4363 216.414 63.0977 214.812 64.5316C208.184 70.4867 200.875 75.6049 193.896 81.1254C190.431 83.9445 186.99 86.7961 183.783 89.9239L183.883 90.0498C187.646 87.6369 191.272 85.0534 194.878 82.4131C201.99 77.0064 208.824 71.2301 215.364 65.1247C217.778 62.8905 220.201 59.3199 218.483 55.9727C217.976 54.941 217.05 54.0635 215.915 53.8361L215.879 53.9945L215.867 53.9985Z" fill="#9FA5BE"/>
<path d="M192.643 16.3955C187.963 23.8048 191.83 28.5209 199.944 28.5209C201.3 28.5616 202.866 28.4803 203.92 27.4445C204.85 26.5468 205.22 24.8366 204.206 23.8089C203.2 22.7365 201.578 23.094 200.435 22.5862C199.493 22.2328 198.451 20.9167 198.845 20.0311C199.03 19.4868 199.771 18.9993 200.531 18.9059C201.876 18.7434 203.184 19.4827 204.419 20.0189C205.578 20.6201 207.16 20.6201 207.691 19.105C207.888 18.585 207.937 18.1057 208.09 17.5898C208.343 16.6271 208.705 15.6562 208.878 14.6326L208.725 14.5879C208.327 15.5141 207.828 16.3915 207.397 17.3339C207.079 17.9432 206.89 19.2349 206.085 19.2471C205.474 19.2471 204.576 18.5688 203.646 18.1097C202.705 17.6385 201.63 17.1998 200.35 17.2892C197.223 17.5979 195.959 20.8679 198.338 23.0574C199.006 23.6748 199.847 24.0892 200.741 24.2354C201.678 24.4507 203.075 24.1257 203.498 25.1088C203.824 27.0505 201.538 27.5135 199.948 27.4648C197.98 27.4851 195.976 27.3511 194.213 26.5833C191.206 25.3241 190.542 22.1353 191.565 19.235C191.858 18.2763 192.289 17.3623 192.78 16.4808L192.643 16.3955Z" fill="#9FA5BE"/>
<path d="M191.622 33.8302C190.725 32.5547 189.698 31.6976 188.455 30.8445C188.048 30.5805 187.622 30.3205 187.07 30.0971C187.07 30.7024 187.259 31.2304 187.521 31.7098C188.342 33.1193 189.956 34.1349 191.622 33.8343V33.8302Z" fill="#9FA5BE"/>
<path d="M186.652 38.5017C184.934 36.8809 183.175 35.707 181.018 34.7646C181.493 37.2384 184.217 39.0379 186.652 38.5017Z" fill="#9FA5BE"/>
<path d="M182.052 44.4446C179.456 43.2666 177.625 41.3777 176.486 38.7454C175.118 41.8936 178.913 45.7729 182.052 44.4446Z" fill="#9FA5BE"/>
<path d="M176.69 50.3179C174.497 48.4777 172.855 46.5726 171.334 44.1394C170.537 47.2347 173.551 50.6997 176.69 50.3179Z" fill="#9FA5BE"/>
<path d="M172.774 53.6245C169.78 52.0727 167.434 50.0579 165.417 47.3363C165.22 51.0491 169.18 54.4247 172.774 53.6245Z" fill="#9FA5BE"/>
<path d="M166.734 57.7518C164.15 56.8175 161.941 55.4729 160.097 53.4581C159.494 52.8082 158.946 52.0892 158.367 51.2727C158.202 55.3876 162.842 58.9704 166.734 57.7518Z" fill="#9FA5BE"/>
<path d="M148.532 58.5035C148.451 60.5793 148.93 62.6753 150.339 64.2921C151.715 65.8844 154.573 66.7212 156.154 65.0273C155.148 65.2101 154.295 65.0111 153.526 64.6658C150.914 63.5243 150.073 60.754 148.532 58.5035Z" fill="#9FA5BE"/>
<path d="M149.613 69.3857C147.983 68.0005 145.918 66.6762 144.188 65.4535C143.572 65.0392 142.948 64.6167 142.216 64.2227C142.421 65.0351 142.831 65.7501 143.322 66.3838C144.824 68.2523 147.178 69.5847 149.613 69.3857Z" fill="#9FA5BE"/>
<path d="M146.075 74.2157C143.451 74.1182 141.741 72.3106 140.316 70.2998C139.809 69.6133 139.306 68.874 138.658 68.1875C138.746 70.0926 139.37 71.9247 140.71 73.3342C142.018 74.7153 144.493 75.5115 146.079 74.2157H146.075Z" fill="#9FA5BE"/>
<path d="M162.11 61.8384C159.14 60.7457 156.782 59.0965 154.705 56.6836C154.608 60.242 158.846 63.183 162.11 61.8384Z" fill="#9FA5BE"/>
<path d="M126.237 43.3024C128.68 47.2427 130.145 51.4267 130.721 56.0331C132.508 51.516 130.439 45.6706 126.237 43.3024Z" fill="#9FA5BE"/>
<path d="M116.77 42.8966C119.833 42.5066 122.392 49.7981 122.948 52.2557C123.274 53.5718 123.459 54.9204 123.644 56.3503C125.089 52.1907 123.753 47.3121 120.815 44.1274C119.845 43.1037 118.142 42.0151 116.77 42.8966Z" fill="#9FA5BE"/>
<path d="M110.098 43.4286C111.285 45.2607 112.44 46.9343 113.454 48.8191C114.344 50.3992 115.431 52.8731 116.191 54.5548C116.787 50.123 114.127 45.281 110.098 43.4286Z" fill="#9FA5BE"/>
<path d="M99.6634 47.044C99.8486 46.7434 100.138 46.6906 100.404 46.7475C101.128 46.8856 101.615 47.4786 102.118 48.0027C103.052 49.0182 103.909 50.1109 104.63 51.2767C105.986 53.4093 106.859 55.676 107.592 58.1498C108.393 54.1527 106.437 49.8469 103.278 47.4096C102.444 46.7881 101.479 46.0772 100.38 46.3006C100.026 46.3575 99.6514 46.6662 99.6634 47.044Z" fill="#9FA5BE"/>
<path d="M91.606 50.6711C94.1455 52.556 95.1919 55.3751 95.9687 58.3282C96.2504 59.3275 96.512 60.3634 96.9346 61.3951C97.6429 58.1698 97.1841 54.3555 94.6526 52.0198C93.8075 51.252 92.7208 50.6915 91.606 50.6711Z" fill="#9FA5BE"/>
<path d="M84.2172 55.3753C86.3543 57.2479 88.1412 59.2221 89.5015 61.7041C89.9523 62.5084 90.3507 63.3492 90.7854 64.2754C91.6104 60.2336 88.2901 55.745 84.2212 55.3753H84.2172Z" fill="#9FA5BE"/>
<path d="M75.8058 61.156C79.0617 61.3876 81.1586 63.8573 82.6879 66.5139C83.2353 67.4239 83.7584 68.3907 84.4346 69.3128C84.3259 67.0095 83.6779 64.7469 82.1768 62.9352C80.7118 61.1601 77.9187 59.9374 75.8058 61.156Z" fill="#9FA5BE"/>
<path d="M70.9538 65.8275C74.0165 66.2012 76.725 67.8017 78.0532 70.6289C78.4918 71.5307 78.7977 72.5178 78.9909 73.6389C80.9992 68.8578 75.6102 63.6299 70.9538 65.8234V65.8275Z" fill="#9FA5BE"/>
<path d="M66.6937 71.6153C69.5109 73.358 71.5434 75.6449 72.9761 78.6509C73.938 75.06 70.332 71.0304 66.6937 71.6153Z" fill="#9FA5BE"/>
<path d="M61.0097 79.3865C61.5892 78.8869 62.2694 78.9438 62.8489 79.2972C64.5473 80.6092 65.7507 82.6403 67.1553 84.3545C67.4128 81.8929 65.6823 78.8341 63.2755 78.0989C62.3821 77.8308 61.0338 78.3548 61.0097 79.3865Z" fill="#9FA5BE"/>
<path d="M56.8123 85.5606C58.9333 87.8395 60.6398 90.0492 62.3301 92.6734C62.8935 89.3668 60.1246 85.8084 56.8123 85.5606Z" fill="#9FA5BE"/>
<path d="M49.1378 94.4048C51.8504 94.2992 53.6535 96.2246 55.0098 98.3451C55.5008 99.0762 55.9757 99.8643 56.6035 100.608C56.5874 98.6416 56.0199 96.7121 54.6556 95.2294C53.3315 93.767 50.6994 92.9627 49.1338 94.4048H49.1378Z" fill="#9FA5BE"/>
<path d="M124.719 153.638C121.724 139.08 121.974 123.786 125.5 109.219C121.459 123.644 120.626 139.039 123.137 153.939L124.719 153.638Z" fill="#9FA5BE"/>
<path d="M118.581 151.655C114.604 136.089 119.043 119.942 123.442 104.929C118.476 119.942 113.49 136.138 117.019 152.058L118.581 151.655Z" fill="#9FA5BE"/>
<path d="M97.4044 150.125C93.1302 135.444 101.151 121.036 103.031 106.615C102.407 110.291 101.405 113.882 100.33 117.445C97.1267 128.083 92.9089 139.34 95.8509 150.567L97.4003 150.125H97.4044Z" fill="#9FA5BE"/>
<path d="M88.3055 151.806C91.1509 136.476 95.1192 121.344 99.6348 106.396C94.608 121.182 90.1166 136.179 86.7278 151.481L88.3055 151.806Z" fill="#9FA5BE"/>
<path d="M68.9489 146.249C69.2508 132.653 71.5971 119.061 75.8994 106.087C71.09 118.878 68.1883 132.442 67.3431 146.18L68.9529 146.249H68.9489Z" fill="#9FA5BE"/>
<path d="M61.7783 147.211C65.7104 134.042 68.8334 120.682 71.9565 107.309C68.3223 120.515 64.672 133.758 60.249 146.708L61.7783 147.215V147.211Z" fill="#9FA5BE"/>
<path d="M52.2881 102.979C47.6075 108.914 44.8063 116.064 41.4056 122.766C38.1134 129.55 34.8575 136.354 31.7344 143.231L33.2115 143.881C36.077 136.918 39.0874 130.009 42.134 123.111C45.2893 116.295 47.8208 109.081 52.2841 102.983L52.2881 102.979Z" fill="#9FA5BE"/>
<path d="M56.7051 105.973C51.9842 118.724 48.1608 131.808 44.1483 144.795L45.6937 145.246C49.1951 132.101 52.4833 118.907 56.701 105.973H56.7051Z" fill="#9FA5BE"/>
<path d="M43.355 101.412C34.8349 115.499 26.4758 129.696 17.4888 143.455L18.8451 144.328C27.4095 130.232 35.2977 115.771 43.355 101.412Z" fill="#9FA5BE"/>
<path d="M120.397 90.102C114.987 90.102 110.602 85.6753 110.602 80.2148C110.602 74.7542 114.987 70.3276 120.397 70.3276C125.808 70.3276 130.193 74.7542 130.193 80.2148C130.193 85.6753 125.808 90.102 120.397 90.102Z" stroke="#9FA5BE" stroke-width="2" stroke-miterlimit="10"/>
<path d="M119.426 77.2786C120.384 76.5677 121.805 76.649 122.751 77.372C123.696 78.0951 124.159 79.3706 124.022 80.5608C123.825 82.2669 122.36 83.7658 120.666 83.8876C118.971 84.0095 117.269 82.6528 117.088 80.9467C116.907 79.2406 118.38 77.5142 120.082 77.5304" fill="#9FA5BE"/>
<path d="M14.4424 146.48C12.2973 150.969 10.1481 155.453 8.00301 159.942" stroke="#9FA5BE" stroke-width="2" stroke-miterlimit="10"/>
<path d="M214.234 77.9896C212.395 80.3172 209.872 81.8729 206.982 82.4701C210.005 83.0794 213.393 80.9833 214.234 77.9896Z" fill="#9FA5BE"/>
<path d="M208.773 86.9257C206.274 87.9534 203.831 88.8795 201.283 89.7773C204.012 90.0048 206.873 88.912 208.773 86.9257Z" fill="#9FA5BE"/>
<path d="M201.72 95.5858C200.396 97.0035 198.722 97.9418 196.826 98.2506C196.207 98.3481 195.571 98.3765 194.89 98.3521C197.317 99.7495 200.915 98.2871 201.716 95.5899L201.72 95.5858Z" fill="#9FA5BE"/>
<path d="M192.409 104.925C191.544 105.25 190.296 105.729 189.419 105.965C188.554 106.224 187.23 106.472 186.328 106.647C188.413 107.451 191.041 106.704 192.409 104.929V104.925Z" fill="#9FA5BE"/>
<path d="M186.359 111.412C185.53 111.57 184.48 111.879 183.667 112.082C182.854 112.297 181.791 112.533 180.987 112.797C182.822 113.427 185.047 112.85 186.359 111.412Z" fill="#9FA5BE"/>
<path d="M180.263 119.614C178.126 120.353 176.061 120.934 173.86 121.438C176.082 122.088 178.706 121.336 180.263 119.614Z" fill="#9FA5BE"/>
<path d="M173.521 128.295C171.807 128.368 170.193 128.575 168.519 128.957C170.113 129.713 172.173 129.436 173.521 128.295Z" fill="#9FA5BE"/>
<path d="M168.89 135.842C167.687 135.931 166.552 136.422 165.554 137.08C164.564 137.759 163.682 138.628 163.139 139.717C163.654 139.392 164.121 139.055 164.592 138.726C165.912 137.783 167.554 136.76 168.89 135.842Z" fill="#9FA5BE"/>
</svg>
