<svg width="35" height="41" viewBox="0 0 35 41" fill="none" xmlns="http://www.w3.org/2000/svg">
<path d="M16.9213 15.0078C15.9007 12.7332 15.1049 10.4068 14.4994 8.02876C14.2053 6.85697 13.2885 5.70241 13.8075 4.53061C14.3956 3.03141 15.3125 2.0147 16.9213 1.03246C17.1462 0.894606 17.4057 0.911838 17.6133 1.03246C19.2221 2.0147 20.139 3.03141 20.7272 4.53061C21.2462 5.70241 20.3293 6.85697 20.0352 8.02876C19.4297 10.4068 18.634 12.7332 17.6133 15.0078C17.4922 15.3008 17.0424 15.3008 16.9213 15.0078Z" fill="#9FA5BE"/>
<path d="M22.3705 19.6089C24.1696 18.4543 26.0553 17.5238 28.0101 16.7828C28.9615 16.4209 29.8611 15.4387 30.8645 15.8867C32.2138 16.4037 33.0788 17.2825 33.9956 18.7645C34.1167 18.9885 34.134 19.2298 34.0475 19.4538C33.3556 21.0564 32.629 22.0386 31.3661 22.7624C30.432 23.3483 29.394 22.5039 28.408 22.2799C26.3667 21.8319 24.3599 21.177 22.4051 20.2982C22.1283 20.1776 22.0937 19.764 22.3532 19.6089H22.3705Z" fill="#9FA5BE"/>
<path d="M12.8388 20.4705C10.9013 21.5906 8.89456 22.5039 6.81864 23.2277C5.81528 23.5723 4.82922 24.5373 3.77396 24.0893C2.37272 23.5551 1.45586 22.6762 0.521698 21.1598C0.400603 20.9358 0.383304 20.6773 0.4871 20.4705C1.24827 18.8679 2.06133 17.8857 3.39338 17.1964C4.39674 16.6277 5.46929 17.4893 6.50725 17.7133C8.65236 18.1958 10.7456 18.8851 12.8042 19.7812C13.081 19.9018 13.1156 20.3154 12.8388 20.4705Z" fill="#9FA5BE"/>
<path d="M18.1148 26.2605C19.1182 28.518 19.8793 30.8271 20.4502 33.1879C20.727 34.3425 21.6266 35.497 21.1076 36.6516C20.5021 38.1163 19.568 39.1158 17.9591 40.0636C17.7342 40.1842 17.4747 40.1842 17.2671 40.0636C15.6756 39.0813 14.7588 38.0646 14.1879 36.5827C13.6862 35.4281 14.6204 34.2908 14.9144 33.1362C15.5372 30.7926 16.3676 28.5007 17.4228 26.2605C17.5439 25.9676 17.9937 25.9848 18.1148 26.2605Z" fill="#9FA5BE"/>
<path d="M17.6823 22.3488C18.5804 22.3488 19.3084 21.6236 19.3084 20.729C19.3084 19.8344 18.5804 19.1091 17.6823 19.1091C16.7842 19.1091 16.0562 19.8344 16.0562 20.729C16.0562 21.6236 16.7842 22.3488 17.6823 22.3488Z" fill="#9FA5BE"/>
<path d="M10.7626 14.5081C11.804 14.5081 12.6482 13.6671 12.6482 12.6298C12.6482 11.5924 11.804 10.7515 10.7626 10.7515C9.72118 10.7515 8.87695 11.5924 8.87695 12.6298C8.87695 13.6671 9.72118 14.5081 10.7626 14.5081Z" fill="#9FA5BE"/>
<path d="M24.6019 14.5081C25.6433 14.5081 26.4876 13.6671 26.4876 12.6298C26.4876 11.5924 25.6433 10.7515 24.6019 10.7515C23.5605 10.7515 22.7163 11.5924 22.7163 12.6298C22.7163 13.6671 23.5605 14.5081 24.6019 14.5081Z" fill="#9FA5BE"/>
<path d="M26.3319 31.7404C27.3733 31.7404 28.2175 30.8994 28.2175 29.8621C28.2175 28.8247 27.3733 27.9838 26.3319 27.9838C25.2905 27.9838 24.4463 28.8247 24.4463 29.8621C24.4463 30.8994 25.2905 31.7404 26.3319 31.7404Z" fill="#9FA5BE"/>
<path d="M9.0326 31.7404C10.074 31.7404 10.9182 30.8994 10.9182 29.8621C10.9182 28.8247 10.074 27.9838 9.0326 27.9838C7.99119 27.9838 7.14697 28.8247 7.14697 29.8621C7.14697 30.8994 7.99119 31.7404 9.0326 31.7404Z" fill="#9FA5BE"/>
</svg>
