<svg width="46" height="50" viewBox="0 0 46 50" fill="none" xmlns="http://www.w3.org/2000/svg">
<path d="M22.3142 29.3008C22.9287 31.6509 23.4331 34.2672 23.8737 36.6578C24.1404 38.3075 24.3549 39.9398 24.7781 41.5606C25.2767 44.2348 24.3027 46.828 22.5461 48.9639C22.4069 49.1202 22.1635 49.1202 22.0243 48.9697C20.6793 47.4879 20.0068 45.8903 19.6184 44.0843C19.2184 42.4288 19.8793 40.7907 20.0822 39.1642C20.2387 37.7287 20.5634 35.6796 20.8069 34.2383C21.1083 32.5944 21.3982 30.9563 21.7924 29.3124C21.8446 29.0461 22.2562 29.0403 22.3142 29.3066V29.3008Z" fill="#9FA5BE"/>
<path d="M1.04331 17.753C2.82313 16.96 4.49279 16.8326 6.2726 17.0468C7.90748 17.2031 9.17712 18.3492 10.5859 19.0554C13.4208 20.4735 16.2906 22.0943 18.9574 23.8076C19.1835 23.9466 19.056 24.3286 18.7893 24.2997C16.4529 24.1318 13.9136 23.7729 11.6004 23.4256C10.0177 23.1478 8.46403 22.8294 6.84655 22.7136C4.2377 22.3258 2.21439 20.5604 0.869389 18.245C0.770833 18.0656 0.851997 17.834 1.03751 17.753H1.04331Z" fill="#9FA5BE"/>
<path d="M22.4709 21.5328C22.0535 19.0322 21.7694 16.2654 21.5317 13.7359C21.4447 12.1904 21.294 10.0602 21.0389 8.54948C20.8012 6.76665 21.3346 5.08802 22.1288 3.47307C22.5636 2.64533 23.0796 1.82338 23.8855 1.01879C24.0188 0.885662 24.2391 0.885662 24.3724 1.01879C25.0739 1.92178 25.4856 2.84213 25.8044 3.72776C26.3726 5.43533 26.6682 7.17184 26.187 8.90835C25.9609 9.75346 25.6827 10.5928 25.5145 11.4379C25.2652 12.7113 24.6971 15.2582 24.3782 16.5143C23.9434 18.2045 23.5144 19.8889 22.9811 21.5733C22.9057 21.8338 22.4941 21.8106 22.4593 21.5386L22.4709 21.5328Z" fill="#9FA5BE"/>
<path d="M25.7348 25.2084C28.164 25.2837 30.8076 25.5384 33.2193 25.7873C34.8716 26.0015 36.5007 26.2561 38.1761 26.3024C40.8777 26.5803 43.0866 28.2473 44.6345 30.528C44.7446 30.7016 44.6751 30.9389 44.4953 31.0316C42.6981 31.9056 40.9821 32.0966 39.1327 31.9577C37.4341 31.8709 36.0543 30.7769 34.5527 30.1286C33.2251 29.5787 31.3525 28.6815 30.0423 28.0447C28.5524 27.2923 27.0624 26.5513 25.6015 25.712C25.3638 25.5847 25.4739 25.1911 25.7406 25.2084H25.7348Z" fill="#9FA5BE"/>
<path d="M22.3955 27.0665C23.4072 27.0665 24.2275 26.2475 24.2275 25.2373C24.2275 24.2271 23.4072 23.4082 22.3955 23.4082C21.3837 23.4082 20.5635 24.2271 20.5635 25.2373C20.5635 26.2475 21.3837 27.0665 22.3955 27.0665Z" fill="#9FA5BE"/>
</svg>
