<svg width="126" height="19" viewBox="0 0 126 19" fill="none" xmlns="http://www.w3.org/2000/svg">
<path d="M124.964 3.72454C122.783 6.02515 118.308 5.80605 115.017 4.62088C111.726 3.43572 108.772 1.51357 105.219 1.0156C97.2164 -0.0898865 89.9241 6.38369 81.884 5.46743C76.3867 4.83999 71.9117 0.836332 66.3646 0.975763C60.5183 1.11519 55.9934 5.82596 50.1471 5.84588C44.8244 5.8658 38.0308 1.96174 32.7704 2.59914C29.4297 3.00747 24.9297 5.14873 21.8632 6.29405C18.3105 7.60869 14.5335 7.51905 10.769 6.67251C7.00445 5.82596 3.72606 4.29222 0.310547 2.76845" stroke="#566EAC" stroke-miterlimit="10"/>
<path d="M124.964 14.1525C122.783 16.4531 118.308 16.234 115.017 15.0489C111.726 13.8637 108.772 11.9415 105.219 11.4436C97.2164 10.3381 89.9241 16.8117 81.884 15.8954C76.3867 15.268 71.9117 11.2643 66.3646 11.4037C60.5183 11.5432 55.9934 16.2539 50.1471 16.2739C44.8244 16.2938 38.0308 12.3897 32.7704 13.0271C29.4297 13.4354 24.9297 15.5767 21.8632 16.722C18.3105 18.0367 14.5335 17.947 10.769 17.1005C7.00445 16.2539 3.72606 14.7202 0.310547 13.1964" stroke="#566EAC" stroke-miterlimit="10"/>
</svg>
