<svg width="126" height="55" viewBox="0 0 126 55" fill="none" xmlns="http://www.w3.org/2000/svg">
<path d="M1.09277 27.5919C5.24374 29.2309 9.64402 30.9016 14.2063 30.5738C17.5595 30.3306 22.8199 27.3592 26.1108 26.7565C30.1994 25.9952 34.4626 28.0043 38.5761 28.6916C42.3158 29.326 46.205 30.246 49.8573 29.326C53.0983 28.5118 55.6537 26.3653 58.8324 25.3819C68.2313 22.4845 78.5526 30.669 88.0761 28.0889C91.1302 27.2641 93.7603 25.3819 96.939 25.0541C101.813 24.5465 106.039 27.7822 110.788 28.8502C114.839 29.7596 119.277 29.0088 122.917 27.2324" stroke="#566EAC" stroke-miterlimit="10"/>
<path d="M0.868652 48.8879C4.65813 52.6312 11.5515 53.9212 17.3479 53.4771C23.1443 53.033 27.7066 49.6281 33.5155 49.9876C39.3991 50.3471 46.7537 53.9529 52.1263 51.8804C53.9961 51.1508 55.5792 49.9664 57.4116 49.1734C61.9864 47.2066 67.4961 47.9256 72.4448 49.0465C77.406 50.1674 81.4698 52.3139 86.5556 51.7323C90.8562 51.2354 95.7925 48.6129 100.13 48.3274C104.331 48.0525 108.407 50.5163 112.521 51.2882C116.635 52.0601 121.359 51.0027 124.6 48.7293" stroke="#566EAC" stroke-miterlimit="10"/>
<path d="M125.41 4.23334C123.228 6.67598 118.753 6.44335 115.462 5.18502C112.171 3.92668 109.217 1.88586 105.664 1.35715C97.6617 0.183413 90.3694 7.05665 82.3293 6.08382C76.832 5.41765 72.357 1.16681 66.8099 1.31485C60.9636 1.46289 56.4387 6.46449 50.5924 6.48564C45.2697 6.50679 38.4761 2.3617 33.2157 3.03845C29.875 3.47199 25.375 5.74545 22.3085 6.96148C18.7559 8.35728 14.9789 8.26211 11.2143 7.3633C7.44976 6.46449 4.17137 4.83607 0.755859 3.21821" stroke="#566EAC" stroke-miterlimit="10"/>
</svg>
