<svg width="26" height="30" viewBox="0 0 26 30" fill="none" xmlns="http://www.w3.org/2000/svg">
<path d="M12.653 11.0999C11.9345 9.49863 11.3743 7.86094 10.9481 6.18686C10.7411 5.36196 10.0956 4.54918 10.461 3.72427C10.875 2.66887 11.5205 1.95314 12.653 1.26167C12.8114 1.16462 12.994 1.17675 13.1402 1.26167C14.2727 1.95314 14.9182 2.66887 15.3322 3.72427C15.6976 4.54918 15.0521 5.36196 14.8451 6.18686C14.4189 7.86094 13.8587 9.49863 13.1402 11.0999C13.0549 11.3062 12.7383 11.3062 12.653 11.0999Z" fill="#5372C0"/>
<path d="M16.4892 14.3389C17.7557 13.5261 19.0831 12.871 20.4593 12.3494C21.1291 12.0946 21.7623 11.4032 22.4687 11.7186C23.4186 12.0825 24.0275 12.7012 24.6729 13.7444C24.7582 13.9021 24.7704 14.072 24.7095 14.2297C24.2223 15.3579 23.7109 16.0493 22.8218 16.5588C22.1642 16.9713 21.4335 16.3769 20.7394 16.2192C19.3023 15.9038 17.8897 15.4428 16.5135 14.8241C16.3187 14.7392 16.2943 14.448 16.477 14.3389H16.4892Z" fill="#5372C0"/>
<path d="M9.7791 14.9454C8.41514 15.7339 7.00247 16.3768 5.54109 16.8863C4.83475 17.1289 4.1406 17.8083 3.39773 17.4929C2.41129 17.1168 1.76585 16.4981 1.10822 15.4306C1.02298 15.2729 1.0108 15.0909 1.08387 14.9454C1.61971 13.8172 2.19208 13.1257 3.1298 12.6405C3.83614 12.2401 4.59119 12.8467 5.32188 13.0044C6.83198 13.3441 8.30554 13.8293 9.75475 14.4601C9.9496 14.545 9.97395 14.8362 9.7791 14.9454Z" fill="#5372C0"/>
<path d="M13.4935 19.0215C14.1998 20.6107 14.7357 22.2362 15.1376 23.8982C15.3324 24.7109 15.9657 25.5237 15.6003 26.3365C15.1741 27.3676 14.5165 28.0712 13.3839 28.7384C13.2256 28.8234 13.0429 28.8234 12.8968 28.7384C11.7764 28.047 11.1309 27.3312 10.7291 26.288C10.3759 25.4752 11.0335 24.6745 11.2405 23.8618C11.679 22.212 12.2635 20.5985 13.0064 19.0215C13.0916 18.8153 13.4083 18.8274 13.4935 19.0215Z" fill="#5372C0"/>
<path d="M13.1889 16.2677C13.8212 16.2677 14.3337 15.7572 14.3337 15.1274C14.3337 14.4976 13.8212 13.9871 13.1889 13.9871C12.5567 13.9871 12.0442 14.4976 12.0442 15.1274C12.0442 15.7572 12.5567 16.2677 13.1889 16.2677Z" fill="#5372C0"/>
<path d="M8.31766 10.7481C9.05077 10.7481 9.64508 10.1561 9.64508 9.4258C9.64508 8.69552 9.05077 8.10352 8.31766 8.10352C7.58454 8.10352 6.99023 8.69552 6.99023 9.4258C6.99023 10.1561 7.58454 10.7481 8.31766 10.7481Z" fill="#5372C0"/>
<path d="M18.0603 10.7481C18.7935 10.7481 19.3878 10.1561 19.3878 9.4258C19.3878 8.69552 18.7935 8.10352 18.0603 8.10352C17.3272 8.10352 16.7329 8.69552 16.7329 9.4258C16.7329 10.1561 17.3272 10.7481 18.0603 10.7481Z" fill="#5372C0"/>
<path d="M19.2781 22.8791C20.0112 22.8791 20.6055 22.2871 20.6055 21.5568C20.6055 20.8265 20.0112 20.2345 19.2781 20.2345C18.545 20.2345 17.9507 20.8265 17.9507 21.5568C17.9507 22.2871 18.545 22.8791 19.2781 22.8791Z" fill="#5372C0"/>
<path d="M7.09988 22.8791C7.833 22.8791 8.42731 22.2871 8.42731 21.5568C8.42731 20.8265 7.833 20.2345 7.09988 20.2345C6.36677 20.2345 5.77246 20.8265 5.77246 21.5568C5.77246 22.2871 6.36677 22.8791 7.09988 22.8791Z" fill="#5372C0"/>
</svg>
