<svg width="87" height="91" viewBox="0 0 87 91" fill="none" xmlns="http://www.w3.org/2000/svg">
<mask id="path-1-outside-1_50_81" maskUnits="userSpaceOnUse" x="8.58057" y="23.5155" width="68" height="52" fill="black">
<rect fill="white" x="8.58057" y="23.5155" width="68" height="52"/>
<path d="M35.9806 64.1435H24.6126L22.5686 72.5155H12.9646L24.8366 33.7075H35.9806L47.8526 72.5155H38.0246L35.9806 64.1435ZM26.0686 57.4795H34.4686L30.2686 40.3155L26.0686 57.4795ZM65.8907 42.7795V66.4675H73.4507V72.5155H48.6147V66.4675H57.0427V48.8275H48.8947V42.7795H65.8907ZM60.5427 27.2115C62.0734 27.2115 63.324 27.6875 64.2947 28.6395C65.2654 29.5915 65.7507 30.7768 65.7507 32.1955C65.7507 33.6142 65.2654 34.8088 64.2947 35.7795C63.324 36.7315 62.0734 37.2075 60.5427 37.2075C58.9934 37.2075 57.724 36.7315 56.7347 35.7795C55.764 34.8088 55.2787 33.6142 55.2787 32.1955C55.2787 30.7768 55.764 29.5915 56.7347 28.6395C57.724 27.6875 58.9934 27.2115 60.5427 27.2115Z"/>
</mask>
<path d="M35.9806 64.1435L38.895 63.432L38.3362 61.1435H35.9806V64.1435ZM24.6126 64.1435V61.1435H22.2569L21.6982 63.432L24.6126 64.1435ZM22.5686 72.5155V75.5155H24.9242L25.483 73.227L22.5686 72.5155ZM12.9646 72.5155L10.0958 71.6379L8.90958 75.5155H12.9646V72.5155ZM24.8366 33.7075V30.7075H22.6171L21.9678 32.8299L24.8366 33.7075ZM35.9806 33.7075L38.8493 32.8299L38.2001 30.7075H35.9806V33.7075ZM47.8526 72.5155V75.5155H51.9076L50.7213 71.6379L47.8526 72.5155ZM38.0246 72.5155L35.1102 73.227L35.6689 75.5155H38.0246V72.5155ZM26.0686 57.4795L23.1545 56.7664L22.246 60.4795H26.0686V57.4795ZM34.4686 57.4795V60.4795H38.2912L37.3826 56.7664L34.4686 57.4795ZM30.2686 40.3155L33.1826 39.6024H27.3545L30.2686 40.3155ZM35.9806 61.1435H24.6126V67.1435H35.9806V61.1435ZM21.6982 63.432L19.6542 71.804L25.483 73.227L27.527 64.855L21.6982 63.432ZM22.5686 69.5155H12.9646V75.5155H22.5686V69.5155ZM15.8333 73.3931L27.7053 34.5851L21.9678 32.8299L10.0958 71.6379L15.8333 73.3931ZM24.8366 36.7075H35.9806V30.7075H24.8366V36.7075ZM33.1118 34.5851L44.9838 73.3931L50.7213 71.6379L38.8493 32.8299L33.1118 34.5851ZM47.8526 69.5155H38.0246V75.5155H47.8526V69.5155ZM40.939 71.804L38.895 63.432L33.0662 64.855L35.1102 73.227L40.939 71.804ZM26.0686 60.4795H34.4686V54.4795H26.0686V60.4795ZM37.3826 56.7664L33.1826 39.6024L27.3545 41.0286L31.5545 58.1926L37.3826 56.7664ZM27.3545 39.6024L23.1545 56.7664L28.9826 58.1926L33.1826 41.0286L27.3545 39.6024ZM65.8907 42.7795H68.8907V39.7795H65.8907V42.7795ZM65.8907 66.4675H62.8907V69.4675H65.8907V66.4675ZM73.4507 66.4675H76.4507V63.4675H73.4507V66.4675ZM73.4507 72.5155V75.5155H76.4507V72.5155H73.4507ZM48.6147 72.5155H45.6147V75.5155H48.6147V72.5155ZM48.6147 66.4675V63.4675H45.6147V66.4675H48.6147ZM57.0427 66.4675V69.4675H60.0427V66.4675H57.0427ZM57.0427 48.8275H60.0427V45.8275H57.0427V48.8275ZM48.8947 48.8275H45.8947V51.8275H48.8947V48.8275ZM48.8947 42.7795V39.7795H45.8947V42.7795H48.8947ZM64.2947 28.6395L66.3953 26.4977V26.4977L64.2947 28.6395ZM64.2947 35.7795L66.3953 37.9213L66.4057 37.9111L66.416 37.9008L64.2947 35.7795ZM56.7347 35.7795L54.6134 37.9008L54.6338 37.9212L54.6546 37.9412L56.7347 35.7795ZM56.7347 28.6395L54.6546 26.4778L54.6443 26.4877L54.6341 26.4977L56.7347 28.6395ZM62.8907 42.7795V66.4675H68.8907V42.7795H62.8907ZM65.8907 69.4675H73.4507V63.4675H65.8907V69.4675ZM70.4507 66.4675V72.5155H76.4507V66.4675H70.4507ZM73.4507 69.5155H48.6147V75.5155H73.4507V69.5155ZM51.6147 72.5155V66.4675H45.6147V72.5155H51.6147ZM48.6147 69.4675H57.0427V63.4675H48.6147V69.4675ZM60.0427 66.4675V48.8275H54.0427V66.4675H60.0427ZM57.0427 45.8275H48.8947V51.8275H57.0427V45.8275ZM51.8947 48.8275V42.7795H45.8947V48.8275H51.8947ZM48.8947 45.7795H65.8907V39.7795H48.8947V45.7795ZM60.5427 30.2115C61.3953 30.2115 61.8566 30.4503 62.1941 30.7813L66.3953 26.4977C64.7914 24.9247 62.7514 24.2115 60.5427 24.2115V30.2115ZM62.1941 30.7813C62.5621 31.1423 62.7507 31.5434 62.7507 32.1955H68.7507C68.7507 30.0102 67.9686 28.0407 66.3953 26.4977L62.1941 30.7813ZM62.7507 32.1955C62.7507 32.8483 62.5607 33.2708 62.1734 33.6582L66.416 37.9008C67.97 36.3468 68.7507 34.3801 68.7507 32.1955H62.7507ZM62.1941 33.6377C61.8566 33.9687 61.3953 34.2075 60.5427 34.2075V40.2075C62.7514 40.2075 64.7914 39.4943 66.3953 37.9213L62.1941 33.6377ZM60.5427 34.2075C59.661 34.2075 59.172 33.9614 58.8148 33.6178L54.6546 37.9412C56.2761 39.5016 58.3257 40.2075 60.5427 40.2075V34.2075ZM58.856 33.6582C58.4687 33.2708 58.2787 32.8483 58.2787 32.1955H52.2787C52.2787 34.3801 53.0594 36.3468 54.6134 37.9008L58.856 33.6582ZM58.2787 32.1955C58.2787 31.5434 58.4673 31.1423 58.8353 30.7813L54.6341 26.4977C53.0608 28.0407 52.2787 30.0102 52.2787 32.1955H58.2787ZM58.8148 30.8012C59.172 30.4576 59.661 30.2115 60.5427 30.2115V24.2115C58.3257 24.2115 56.2761 24.9174 54.6546 26.4778L58.8148 30.8012Z" fill="#5372C0" mask="url(#path-1-outside-1_50_81)"/>
<rect x="2" y="2.00012" width="82.708" height="83.4788" stroke="#5372C0" stroke-width="3"/>
<rect x="8.32617" y="7.40173" width="71.0316" height="71.6936" stroke="#5372C0" stroke-width="3"/>
</svg>
