<svg width="51" height="32" viewBox="0 0 51 32" fill="none" xmlns="http://www.w3.org/2000/svg">
<path d="M25.9943 25.5456C25.503 25.7944 25.1632 26.3351 25.3967 26.7652C25.6302 27.1954 26.1875 27.3469 26.6747 27.2997C27.1618 27.2531 27.6226 27.0557 28.1042 26.9702C29.296 26.759 30.4893 27.2406 31.604 27.7118C32.3281 28.0182 33.0529 28.324 33.7771 28.6305C34.3532 28.8737 35.7007 29.6062 36.3185 29.7014C36.6277 29.7493 36.7202 29.1753 36.6319 28.8042C36.9412 28.7563 37.3595 29.2441 37.3595 29.2441C37.3595 29.2441 37.1754 29.6903 37.4589 30.0079C38.1942 30.8314 39.3144 31.1253 40.3798 30.9523C41.4827 30.7737 41.9636 30.29 42.4882 29.3268C42.8663 28.6333 43.473 28.0988 44.0039 27.5137C45.3209 26.0613 46.216 24.1633 46.2007 22.2022C46.1944 21.4016 46.0394 20.6087 45.8435 19.8324C45.3146 17.7427 44.4445 15.6801 42.9309 14.1457C42.4952 13.7037 42.0066 13.3062 41.646 12.8009C40.9086 11.7696 40.7926 10.4325 40.7015 9.16774C43.9421 8.80219 47.0047 7.06135 48.9763 4.46363C46.79 4.72423 44.5828 4.74508 41.8176 5.35872C44.1499 4.58941 45.6947 2.42117 47.6983 1C43.9122 1.15636 40.286 2.97644 37.6382 5.68674C37.4846 5.84379 37.3296 6.00711 37.1337 6.10718C36.9016 6.22602 36.6326 6.24478 36.3713 6.25312C35.8258 6.27049 35.2761 6.25173 34.7396 6.3525C33.6242 6.56237 32.6742 7.26566 31.768 7.94949C31.2085 8.37132 30.6213 8.83069 30.3871 9.49089C30.1321 10.2095 30.3628 11.0295 30.8013 11.6536L30.9333 11.9051C30.2092 12.1525 29.4593 12.3228 28.6991 12.4118C28.5392 12.4305 28.3724 12.4451 28.2209 12.3902C28.1014 12.3471 27.9993 12.2672 27.8957 12.1942C26.5586 11.2491 25.9554 11.4562 24.9088 11.5278C24.5433 11.5528 24.2458 11.8162 24.1562 12.0233C24.0478 12.2728 24.1791 12.541 24.029 12.5535C21.646 12.7523 19.3499 12.6279 16.9628 12.4521C14.5756 12.2762 12.2065 12.1922 9.8729 11.8044C8.2349 11.532 6.60942 10.9975 5.58506 9.60833C5.30222 9.22542 4.87483 8.7327 4.74557 8.28306C4.64132 7.91822 4.72958 7.33793 4.34527 7.11486C3.82684 6.81464 2.72743 6.70414 2.10823 6.84452C2.01581 6.86537 1.91921 6.89456 1.85597 6.96544C1.79968 7.02868 1.77883 7.11555 1.76006 7.19825C1.12836 10.0462 0.817019 12.8558 1.11237 15.7572C1.12975 15.9289 1.15476 16.1138 1.2736 16.2388C1.37506 16.3452 1.52448 16.3876 1.66694 16.4251C2.25973 16.5821 2.94078 16.7253 3.44601 16.3778C3.74345 16.1735 3.70731 15.8372 3.93803 15.5599C4.4655 14.9275 5.48638 14.6217 6.26055 14.3423C6.98469 14.081 7.71439 13.8183 8.47536 13.7009C9.04174 13.614 9.61646 13.6085 10.1891 13.6036C14.994 13.5619 20.3625 14.4375 25.1646 13.9128C25.3953 13.8878 25.8345 13.9441 26.0277 14.0643C26.3661 14.2749 26.6893 14.4904 27.0715 14.6141C27.3571 14.7065 27.8151 14.7732 28.0076 15.0303C28.2154 15.3076 28.3558 15.6294 28.485 15.9511C28.813 16.767 29.0813 17.6065 29.287 18.4613C29.4468 19.125 29.5921 19.8401 30.0785 20.3182C30.8861 19.9269 31.809 19.7775 32.6985 19.8943C32.7909 19.9061 33.0314 20.0492 33.0314 20.0492" stroke="#5372C0" stroke-miterlimit="10" stroke-linecap="round"/>
<path d="M33.0306 20.0514C33.0306 20.0514 33.0133 20.5601 32.8187 20.804C32.2252 21.5497 31.7387 22.4038 31.5636 23.3406C31.3885 24.2774 31.5553 25.3045 32.1481 26.0502C30.5976 25.1947 28.9131 24.3114 27.1555 24.5255C26.8282 24.5651 26.4912 24.6506 26.241 24.866C25.9908 25.0814 25.8539 25.2468 25.995 25.5457" stroke="#5372C0" stroke-miterlimit="10" stroke-linecap="round"/>
<path d="M31.7067 14.696C31.4913 15.2499 31.3669 15.8392 31.3453 16.4334C31.2306 16.1464 30.8589 15.9393 30.6802 15.6669C30.0548 15.0407 29.7303 14.2506 29.0471 13.6898C30.1201 13.6418 30.9728 13.3534 31.9228 12.851C32.041 13.0504 32.2821 13.2179 32.485 13.3305C32.1598 13.7433 31.8978 14.2054 31.7067 14.696Z" stroke="#5372C0" stroke-miterlimit="10" stroke-linecap="round"/>
<path d="M27.8811 12.1498C28.5816 13.015 29.1668 13.9726 29.6164 14.9914C29.8429 15.5057 30.0354 16.0338 30.2273 16.562C30.3419 16.8768 30.4559 17.1916 30.5706 17.5064C30.6672 17.7719 30.7888 18.0652 31.0494 18.1743" stroke="#5372C0" stroke-miterlimit="10" stroke-linecap="round"/>
<path d="M32.4642 13.295C32.7672 13.473 33.1202 13.564 33.4712 13.5556C33.2154 13.9587 32.7373 14.1623 32.4162 14.5161C32.0639 14.9059 31.9284 15.4522 31.927 15.9775C31.9256 16.5029 32.0437 17.02 32.1362 17.5377C32.141 17.5662 32.1459 17.5975 32.1306 17.6225C32.116 17.6468 32.0875 17.6572 32.0611 17.667C31.8387 17.7483 31.6289 17.8629 31.4412 18.0068C31.1466 18.2327 30.8811 18.5398 30.5142 18.5954" stroke="#5372C0" stroke-miterlimit="10" stroke-linecap="round"/>
<path d="M25.8242 13.9455C25.549 13.8357 24.615 13.1977 24.4329 12.992C24.2508 12.7863 24.1271 12.5139 24.1612 12.2422" stroke="#5372C0" stroke-miterlimit="10" stroke-linecap="round"/>
<path d="M27.1118 12.9566C26.9728 12.7752 26.7914 12.639 26.6128 12.4993C26.1083 12.1032 25.5232 11.673 24.8553 11.714C24.6725 11.7217 24.6538 11.4534 24.8366 11.436C25.5767 11.4548 26.1583 11.9607 26.6587 12.4465C26.822 12.6029 26.993 12.762 27.1125 12.9566H27.1118Z" fill="#5372C0"/>
<path d="M26.2173 13.2756C25.9011 13.0588 25.5772 12.8517 25.2464 12.6599C24.9573 12.5021 24.589 12.2631 24.2707 12.3833C24.1998 12.4132 24.1178 12.3798 24.088 12.3089C24.0129 12.0636 24.3875 12.0824 24.5299 12.1109C24.835 12.1734 25.0852 12.3715 25.3229 12.5438C25.6314 12.7759 25.9282 13.0213 26.2173 13.2756Z" fill="#5372C0"/>
<path d="M30.8909 11.7932C31.0069 11.9322 31.1605 12.0399 31.3301 12.1032C31.369 12.1178 31.4093 12.1303 31.442 12.1553C31.4732 12.1796 31.4955 12.2144 31.517 12.247C31.6692 12.4777 31.7874 12.6855 32.0021 12.86" stroke="#5372C0" stroke-miterlimit="10" stroke-linecap="round"/>
<path d="M31.4128 12.1241C31.613 12.1428 31.8208 12.0504 31.941 11.8892" stroke="#5372C0" stroke-miterlimit="10" stroke-linecap="round"/>
<path d="M31.3308 10.2261C31.3572 10.0941 31.3253 9.95094 31.2454 9.84253" stroke="#5372C0" stroke-miterlimit="10" stroke-linecap="round"/>
<path d="M34.1419 9.03633C33.9327 9.33933 33.8889 9.79799 34.087 10.0927C34.2162 10.2845 34.4421 10.3901 34.6679 10.4394C35.1989 10.5548 35.7514 10.5312 36.2823 10.4353C36.1204 10.0037 36.1454 9.48874 35.8751 9.10165C35.6478 8.77642 35.2746 8.64021 34.8868 8.67496C34.7041 8.69163 34.5171 8.7243 34.3622 8.82159C34.276 8.8751 34.2023 8.94946 34.1419 9.03633Z" stroke="#5372C0" stroke-miterlimit="10" stroke-linecap="round"/>
<path d="M34.9841 9.1657C34.8444 9.19211 34.7193 9.29288 34.6727 9.427C34.6262 9.56113 34.6672 9.72374 34.777 9.8127C34.9111 9.9218 35.1036 9.9079 35.2753 9.88428C35.3135 9.87872 35.3531 9.87246 35.383 9.84883C35.4108 9.82659 35.4261 9.79254 35.4407 9.75988C35.4997 9.62158 35.5505 9.45688 35.474 9.32762C35.3941 9.1928 35.2162 9.16153 35.0605 9.14624" stroke="#5372C0" stroke-miterlimit="10" stroke-linecap="round"/>
<path d="M24.4517 6.25863C25.3648 7.31704 26.36 8.32193 27.5171 9.11348C28.6672 9.87931 29.9689 10.4888 31.324 10.7598C31.381 10.7695 31.4199 10.8244 31.4095 10.8814C31.3991 10.9391 31.3435 10.9766 31.2858 10.9648C30.9348 10.8932 30.5943 10.7897 30.2614 10.6695C27.834 9.80217 26.0493 8.23576 24.4517 6.25793V6.25863Z" fill="#5372C0"/>
<path d="M26.2729 4.87646C27.2716 6.76603 28.7949 8.30743 30.3148 9.78419C30.4114 9.87871 30.2724 10.0288 30.1702 9.935C28.6935 8.40472 27.2125 6.80495 26.2729 4.87716V4.87646Z" fill="#5372C0"/>
<path d="M28.8755 4.47192C29.0284 5.29752 29.2369 6.11061 29.4898 6.90911C29.7428 7.69927 30.002 8.50402 30.4482 9.20522C30.5197 9.32128 30.3481 9.43247 30.2723 9.31711C29.8422 8.57768 29.6135 7.75347 29.3898 6.9383C29.1688 6.1266 28.9936 5.30308 28.8755 4.47192Z" fill="#5372C0"/>
<path d="M31.1257 8.34355C31.0805 7.1399 31.3676 5.93556 31.9388 4.89661C31.4294 5.96752 31.2216 7.1684 31.3342 8.32966C31.3453 8.47004 31.1341 8.48463 31.1264 8.34355H31.1257Z" fill="#5372C0"/>
<path d="M28.1243 12.2352C27.8617 11.7779 27.4836 11.3741 27.0048 11.1525C26.526 10.9308 25.0165 11.2518 24.97 11.4839" stroke="#5372C0" stroke-miterlimit="10" stroke-linecap="round"/>
<path d="M38.6723 19.4899C38.1358 19.5163 37.6896 19.8353 37.2567 20.1223C35.6472 21.3218 34.3747 20.3787 32.7006 20.0368C32.6255 20.0215 32.5769 19.9478 32.5922 19.8728C32.6075 19.795 32.686 19.7456 32.7631 19.7658C33.2836 19.8957 33.7791 20.0861 34.2726 20.2599C34.9897 20.5205 35.7931 20.7178 36.5284 20.4246C37.0141 20.2328 37.4346 19.8978 37.9092 19.6775C38.149 19.567 38.4089 19.492 38.6723 19.4906V19.4899Z" fill="#5372C0"/>
<path d="M41.8377 23.7102C41.7015 23.7999 41.5632 23.8895 41.4103 23.9486C41.1163 24.0786 40.6785 23.9986 40.5895 23.6491C40.5034 23.1661 40.3248 22.7053 40.0364 22.3058C39.6666 21.7783 39.1864 21.3016 38.6027 21.0187C37.4803 20.5024 35.9459 20.535 34.827 21.0465C33.2092 21.7859 33.1119 23.7207 33.3371 25.2669C33.417 25.9105 33.5247 26.5574 33.8027 27.1322L33.9535 27.4442C33.7387 27.292 33.4934 27.1183 33.2384 27.037C32.7686 26.8702 32.2932 26.711 31.8193 26.5526C30.4002 26.087 28.979 25.5769 27.4758 25.515C26.9845 25.4963 26.5008 25.6054 26.0151 25.6804C25.9393 25.6943 25.867 25.6436 25.8531 25.5678C25.8399 25.4914 25.8914 25.4191 25.9678 25.4066C26.3 25.3524 26.6322 25.3031 26.9699 25.269C27.2993 25.2252 27.6677 25.2648 27.9971 25.3017C29.3418 25.4441 30.6149 25.9285 31.8839 26.3559C32.2001 26.4636 32.5156 26.5783 32.8318 26.6888C33.1536 26.8076 33.483 26.8966 33.7721 27.096L33.6366 27.2107C33.3503 26.5998 33.2509 25.9341 33.1772 25.2857C33.0188 24.0077 33.0271 22.5198 33.9667 21.5205C34.875 20.5899 36.4699 20.4419 37.6916 20.6608C38.7083 20.8373 39.4964 21.4419 40.0649 22.287C40.3498 22.6921 40.5256 23.1592 40.6055 23.6449C40.6889 23.9889 41.1184 24.0674 41.4082 23.9437C41.5611 23.8868 41.7001 23.7985 41.8377 23.7109V23.7102Z" fill="#5372C0"/>
<path d="M35.3179 26.6074C35.705 27.3475 36.1101 28.1196 36.7328 28.6812C36.8725 28.8153 36.6688 29.0182 36.5354 28.8771C35.951 28.2204 35.632 27.4087 35.3179 26.6081V26.6074Z" fill="#5372C0"/>
<path d="M39.0559 29.2156C39.86 29.2337 40.6494 29.2393 41.4458 29.1468C41.9191 29.0954 42.3812 29.0252 42.7996 28.766C42.1053 29.6486 40.0184 29.6034 39.0559 29.2156Z" fill="#5372C0"/>
<path d="M38.6431 29.8758C39.6348 29.9793 41.5841 30.0467 42.3868 29.4261C41.6536 30.2219 39.616 30.1677 38.6431 29.8758Z" fill="#5372C0"/>
<path d="M39.6855 11.9961C39.6904 13.0156 38.7647 13.7259 37.8759 14.024C37.2657 14.238 36.6298 14.4027 35.9752 14.3819C35.6444 14.3687 35.3129 14.2999 35.0099 14.1595C34.7083 14.0177 34.4498 13.8329 34.1634 13.7502C33.8771 13.6619 33.5693 13.6473 33.2788 13.7043C33.203 13.7196 33.1301 13.6703 33.1155 13.5945C33.1002 13.5174 33.1523 13.4423 33.2301 13.4305C33.5693 13.377 33.9181 13.4076 34.2392 13.5188C34.5672 13.6286 34.8299 13.8336 35.1016 13.9712C35.9592 14.3979 36.9648 14.1929 37.8425 13.9239C38.7286 13.6619 39.6556 12.999 39.6862 11.9948L39.6855 11.9961Z" fill="#5372C0"/>
<path d="M38.1387 8.64096C38.7516 7.61244 39.6564 6.79587 40.5877 6.05923C41.2166 5.54635 41.669 5.15579 42.5189 5.07935C42.7052 5.06406 42.7309 5.33926 42.5426 5.35594C41.7489 5.38443 41.3014 5.75137 40.6919 6.19752C39.7315 6.88413 38.7982 7.64788 38.1387 8.64027V8.64096Z" fill="#5372C0"/>
<path d="M38.7063 9.18095C39.4714 9.2025 40.2338 9.13787 40.9739 8.98984C41.0497 8.97455 41.1226 9.02389 41.1379 9.09895C41.1546 9.18026 41.0941 9.25948 41.0114 9.26504C40.238 9.32411 39.4631 9.29492 38.7063 9.18095Z" fill="#5372C0"/>
<path d="M36.4094 6.10852C37.0571 6.10852 37.6874 6.30102 38.2177 6.661C38.3052 6.71938 38.3879 6.78331 38.4679 6.85003C38.5464 6.91466 38.6346 6.99319 38.6478 7.09952C38.6214 6.99597 38.5311 6.93342 38.447 6.87783C38.192 6.70756 37.9084 6.57692 37.6158 6.49074C37.226 6.37747 36.8187 6.34133 36.4254 6.3865C36.2329 6.40248 36.2148 6.11547 36.4094 6.10921V6.10852Z" fill="#5372C0"/>
<path d="M38.6292 6.10508C39.2657 5.48171 39.8133 4.75758 40.55 4.24401C40.9037 3.99244 41.3269 3.77353 41.7147 3.57825C42.2769 3.27177 43.0872 2.8138 43.6509 2.50247C43.9108 2.35861 44.1693 2.21823 44.4403 2.08341L44.532 2.33985C43.0608 2.66856 41.7509 3.21201 40.5743 4.17034C40.1865 4.47404 39.8161 4.80205 39.4478 5.13285C39.7765 4.76244 40.1226 4.40593 40.4916 4.07236C42.0942 2.60254 43.6064 2.26688 45.6419 1.78528C44.8246 2.18557 43.7968 2.72693 43.0059 3.17031C42.4875 3.45455 41.9698 3.7492 41.4312 3.99661C40.9044 4.25304 40.4082 4.55048 39.9676 4.93965C39.527 5.32952 39.0934 5.74023 38.6292 6.10439V6.10508Z" fill="#5372C0"/>
<path d="M40.1838 8.3386C41.368 8.15792 42.5383 7.86743 43.578 7.25796C44.6301 6.67489 45.6197 5.98064 46.7073 5.45039L46.7893 5.711C45.9693 5.84165 45.1451 5.96535 44.325 6.08975C43.5071 6.20372 42.7364 6.48309 42.0213 6.90353C41.5432 7.17665 41.0901 7.49702 40.6432 7.82504C41.0539 7.45115 41.4862 7.09951 41.9525 6.79095C42.4195 6.48517 42.9226 6.22179 43.4633 6.05292C43.9991 5.88057 44.5551 5.80968 45.1048 5.711C45.9206 5.57062 46.8505 5.42399 47.6719 5.2843C46.8741 5.66652 46.0131 6.10434 45.2597 6.56648C44.4779 7.0182 43.6996 7.50189 42.8504 7.8306C41.9977 8.14888 41.0866 8.29065 40.1838 8.3393V8.3386Z" fill="#5372C0"/>
<path d="M2.53206 7.40112C2.03448 9.56936 1.99278 11.8161 2.03517 14.0295C2.04699 14.7718 2.06645 15.5153 2.0588 16.2617C1.66616 13.3951 1.48547 10.1469 2.53206 7.40182V7.40112Z" fill="#5372C0"/>
<path d="M3.4418 7.04818C3.22011 8.46379 3.029 9.89122 2.93032 11.32C2.82538 12.7461 2.81287 14.1909 2.83024 15.6211C2.37853 12.8524 2.603 9.72512 3.4418 7.04749V7.04818Z" fill="#5372C0"/>
<path d="M6.79913 11.6285C5.68165 10.9238 4.71706 9.91685 4.2035 8.6861L4.437 8.64649C4.41963 9.17882 4.38418 9.71045 4.34179 10.2414C4.25075 11.3026 4.13053 12.3617 4.04991 13.4229C4.00822 13.9538 3.97069 14.4848 3.93733 15.0157L3.81989 14.9705C3.99988 14.7203 4.20975 14.491 4.44465 14.2888C4.9047 13.8697 5.50653 13.6432 6.08125 13.4479C6.36618 13.345 6.65528 13.2464 6.94438 13.1532C7.54203 12.9607 8.14664 12.7884 8.75819 12.6466C8.89579 12.616 9.03826 12.6007 9.17655 12.5938C9.64078 12.5743 10.0994 12.6035 10.5602 12.6584L10.522 12.919C9.87498 12.7842 9.24049 12.6028 8.61364 12.3964C7.99236 12.1824 7.36343 11.9676 6.79774 11.6271L6.79913 11.6285ZM6.81442 11.6049C7.81098 12.174 8.9778 12.3589 10.0897 12.5764L10.5706 12.6605L10.5324 12.9211C9.95629 12.885 9.33292 12.828 8.77209 12.9489C8.18625 13.0886 7.60388 13.2408 7.02638 13.4124C6.45722 13.5904 5.8679 13.7669 5.3175 13.9844C4.77058 14.2116 4.29384 14.5869 3.92482 15.0491L3.78027 15.2311C3.85324 14.6279 3.91718 14.0212 3.96652 13.4152C4.11246 11.6514 4.09509 9.87446 4.22852 8.10999L4.42866 8.59436C4.89984 9.80358 5.69903 10.9134 6.81373 11.6035L6.81442 11.6049Z" fill="#5372C0"/>
<path d="M10.9194 12.0768C10.9424 12.427 10.9896 12.7759 11.0598 13.1199C11.0946 13.2895 11.1397 13.4667 11.262 13.589" stroke="#5372C0" stroke-miterlimit="10" stroke-linecap="round"/>
<path d="M11.7381 12.1046C11.6804 12.5855 11.8208 13.0873 12.1203 13.4674" stroke="#5372C0" stroke-miterlimit="10" stroke-linecap="round"/>
<path d="M27.6665 26.0154C27.344 26.1224 27.0278 26.2572 26.7478 26.4504C26.4677 26.6436 26.2258 26.8987 26.0813 27.2065" stroke="#5372C0" stroke-miterlimit="10" stroke-linecap="round"/>
<path d="M26.7178 25.811C26.494 25.8347 26.2751 25.8937 26.059 25.9584C25.7901 26.0397 25.4989 26.1502 25.3647 26.3969" stroke="#5372C0" stroke-miterlimit="10" stroke-linecap="round"/>
</svg>
