<svg width="91" height="62" viewBox="0 0 91 62" fill="none" xmlns="http://www.w3.org/2000/svg">
<path d="M23.906 16.0294H40.3609L37.8176 25.8749C37.4586 27.1649 36.6914 28.3012 35.6327 29.1108C34.5729 29.9352 33.2669 30.3722 31.9286 30.3501H24.3327C22.661 30.3215 21.0294 30.8679 19.7069 31.8993C18.3554 32.9568 17.3745 34.4224 16.9075 36.0819C16.5719 37.3052 16.5309 38.5916 16.788 39.8342C17.0447 40.9592 17.5269 42.0193 18.2048 42.9496C18.898 43.8726 19.799 44.6159 20.8335 45.1184C21.921 45.6605 23.1196 45.9376 24.3327 45.9273H28.9415C29.7875 45.9107 30.5891 46.3084 31.0922 46.9945C31.63 47.6588 31.8029 48.5502 31.5531 49.3698L28.6513 60.2481H23.5304C20.1754 60.2817 16.8636 59.4837 13.8862 57.9244C11.039 56.4707 8.54447 54.402 6.58046 51.8656C4.64137 49.3301 3.28827 46.3897 2.62035 43.2594C1.90467 39.9424 1.9925 36.5001 2.87639 33.2246L3.16657 32.0369C3.78098 29.7245 4.77321 27.5314 6.10252 25.5479C7.40987 23.6244 9.0115 21.9221 10.8478 20.5046C12.6835 19.0843 14.7359 17.9739 16.9246 17.2171C19.1678 16.4236 21.5287 16.0219 23.906 16.0294ZM32.2188 60.3169L46.523 6.11509C46.8821 4.80206 47.6624 3.64598 48.742 2.82753C49.8008 1.98698 51.1159 1.5429 52.4632 1.57102H67.6721C71.0018 1.55024 74.2872 2.34153 77.2481 3.87748C83.0781 6.86452 87.2656 12.3387 88.6505 18.7834C89.3708 22.0959 89.2711 25.5365 88.3603 28.801L88.0701 29.9026C87.4577 32.2182 86.4715 34.4162 85.1512 36.4089C83.876 38.3766 82.2904 40.1207 80.4571 41.5726C76.7095 44.4837 72.1125 46.0632 67.3819 46.065H54.2043L56.7647 35.9958C57.1191 34.7082 57.8802 33.5721 58.9325 32.7599C59.9978 31.9317 61.3086 31.4891 62.6537 31.5034H67.0064C70.5012 31.4956 73.5419 29.0895 74.3804 25.6684C74.7118 24.4967 74.747 23.26 74.4828 22.071C74.2336 20.9434 73.7508 19.8817 73.066 18.9555C72.3501 18.0526 71.4471 17.3183 70.4203 16.804C69.3638 16.2564 68.1942 15.9674 67.0064 15.9606H58.796L48.23 55.8245C47.8631 57.1108 47.0974 58.2447 46.0451 59.0604C45.0112 59.8859 43.7281 60.3294 42.4093 60.3169H32.2188Z" stroke="#5372C0" stroke-width="3"/>
</svg>
