<svg width="78" height="87" viewBox="0 0 78 87" fill="none" xmlns="http://www.w3.org/2000/svg">
<path d="M2 1.95496H75.8794L69.2824 77.5171L39.2699 84.8082L8.92715 77.8489L2 1.95496Z" stroke="#5372C0" stroke-width="3" stroke-miterlimit="10"/>
<path d="M50.1522 47.3591L49.4932 59.2896L40.1108 62.3176C39.857 62.399 39.5986 62.21 39.5986 61.9412V47.3575H50.1522V47.3591Z" stroke="#5372C0" stroke-width="3" stroke-miterlimit="10"/>
<path d="M52.7909 24.8221L51.1429 38.4103H39.5986V24.8221H52.7909Z" stroke="#5372C0" stroke-width="3" stroke-miterlimit="10"/>
<path d="M71.591 5.60059L65.6545 75.1975L39.5986 81.4946V71.7855L39.9289 71.8838L57.7382 66.2503L62.3553 14.8796H39.5986V5.60059H71.591Z" stroke="#5372C0" stroke-width="3" stroke-miterlimit="10"/>
<path d="M62.3556 14.8794L57.7386 66.2502L39.9292 71.8836L39.599 71.7853L21.1291 66.2502L20.14 54.3181L27.726 55.312V58.9576L39.599 62.176L49.4936 59.2894L50.1525 47.3589H28.7152V38.4102H51.1432L52.7913 24.822H16.8423V14.8794H62.3556Z" stroke="#5372C0" stroke-width="3" stroke-miterlimit="10"/>
</svg>
