<svg width="55" height="80" viewBox="0 0 55 80" fill="none" xmlns="http://www.w3.org/2000/svg">
<path d="M2 14.4843C2 11.0886 3.33647 7.83199 5.71541 5.43088C8.09434 3.02977 11.3209 1.68085 14.6852 1.68085H27.3704V27.2877H14.6852C11.3209 27.2877 8.09434 25.9388 5.71541 23.5376C3.33647 21.1365 2 17.8799 2 14.4843Z" stroke="#5372C0" stroke-width="3" stroke-linecap="round" stroke-linejoin="round"/>
<path d="M27.3696 1.68085H40.0548C41.7207 1.68085 43.3702 2.01202 44.9092 2.65545C46.4483 3.29888 47.8467 4.24197 49.0246 5.43088C50.2025 6.61979 51.1369 8.03123 51.7744 9.58461C52.4119 11.138 52.74 12.8029 52.74 14.4843C52.74 16.1656 52.4119 17.8305 51.7744 19.3839C51.1369 20.9373 50.2025 22.3487 49.0246 23.5376C47.8467 24.7266 46.4483 25.6696 44.9092 26.3131C43.3702 26.9565 41.7207 27.2877 40.0548 27.2877H27.3696V1.68085Z" stroke="#5372C0" stroke-width="3" stroke-linecap="round" stroke-linejoin="round"/>
<path d="M27.3696 40.0911C27.3696 38.4098 27.6977 36.7449 28.3352 35.1915C28.9727 33.6381 29.9071 32.2267 31.085 31.0378C32.263 29.8488 33.6614 28.9058 35.2004 28.2623C36.7394 27.6189 38.389 27.2877 40.0548 27.2877C41.7207 27.2877 43.3702 27.6189 44.9092 28.2623C46.4483 28.9058 47.8467 29.8488 49.0246 31.0378C50.2025 32.2267 51.1369 33.6381 51.7744 35.1915C52.4119 36.7449 52.74 38.4098 52.74 40.0911C52.74 41.7725 52.4119 43.4374 51.7744 44.9908C51.1369 46.5442 50.2025 47.9556 49.0246 49.1445C47.8467 50.3334 46.4483 51.2765 44.9092 51.92C43.3702 52.5634 41.7207 52.8946 40.0548 52.8946C38.389 52.8946 36.7394 52.5634 35.2004 51.92C33.6614 51.2765 32.263 50.3334 31.085 49.1445C29.9071 47.9556 28.9727 46.5442 28.3352 44.9908C27.6977 43.4374 27.3696 41.7725 27.3696 40.0911Z" stroke="#5372C0" stroke-width="3" stroke-linecap="round" stroke-linejoin="round"/>
<path d="M2 65.6981C2 62.3024 3.33647 59.0458 5.71541 56.6447C8.09434 54.2436 11.3209 52.8947 14.6852 52.8947H27.3704V65.6981C27.3704 69.0937 26.0339 72.3503 23.655 74.7515C21.276 77.1526 18.0495 78.5015 14.6852 78.5015C11.3209 78.5015 8.09434 77.1526 5.71541 74.7515C3.33647 72.3503 2 69.0937 2 65.6981Z" stroke="#5372C0" stroke-width="3" stroke-linecap="round" stroke-linejoin="round"/>
<path d="M2 40.0911C2 36.6955 3.33647 33.4389 5.71541 31.0378C8.09434 28.6366 11.3209 27.2877 14.6852 27.2877H27.3704V52.8946H14.6852C11.3209 52.8946 8.09434 51.5456 5.71541 49.1445C3.33647 46.7434 2 43.4868 2 40.0911Z" stroke="#5372C0" stroke-width="3" stroke-linecap="round" stroke-linejoin="round"/>
</svg>
