<svg width="30" height="30" viewBox="0 0 30 30" fill="none" xmlns="http://www.w3.org/2000/svg">
<path d="M15.0001 0C6.71687 0 0 6.88559 0 15.3798C0 22.1749 4.29799 27.9399 10.258 29.9736C11.0077 30.1159 11.2829 29.6399 11.2829 29.2337C11.2829 28.867 11.269 27.6554 11.2625 26.3703C7.08946 27.3007 6.2089 24.5557 6.2089 24.5557C5.52656 22.778 4.54341 22.3053 4.54341 22.3053C3.18245 21.3508 4.64599 21.3704 4.64599 21.3704C6.15227 21.4789 6.94539 22.9553 6.94539 22.9553C8.28325 25.3065 10.4545 24.6268 11.3105 24.2338C11.4451 23.2398 11.8338 22.5613 12.2628 22.1772C8.93107 21.7883 5.42869 20.4696 5.42869 14.5765C5.42869 12.8974 6.01466 11.5254 6.97421 10.4483C6.81846 10.061 6.30503 8.49671 7.11952 6.37826C7.11952 6.37826 8.37913 5.96492 11.2456 7.95475C12.4421 7.61398 13.7254 7.44309 15.0001 7.43723C16.2749 7.44309 17.5591 7.61398 18.7579 7.95475C21.6209 5.96492 22.8787 6.37826 22.8787 6.37826C23.6952 8.49671 23.1815 10.061 23.0258 10.4483C23.9876 11.5254 24.5696 12.8974 24.5696 14.5765C24.5696 20.4836 21.0605 21.7843 17.7203 22.165C18.2583 22.6423 18.7377 23.5782 18.7377 25.0131C18.7377 27.071 18.7203 28.7272 18.7203 29.2337C18.7203 29.643 18.9904 30.1226 19.7507 29.9715C25.7075 27.9356 30 22.1726 30 15.3798C30 6.88559 23.2841 0 15.0001 0ZM5.61803 21.9088C5.585 21.9852 5.46775 22.0081 5.36094 21.9557C5.25215 21.9055 5.19104 21.8013 5.22631 21.7247C5.25861 21.646 5.3761 21.6241 5.48465 21.6768C5.59369 21.7269 5.65579 21.8321 5.61803 21.9088ZM6.35587 22.5838C6.28434 22.6518 6.14449 22.6202 6.0496 22.5128C5.95149 22.4055 5.9331 22.2622 6.00564 22.1931C6.07941 22.1251 6.21503 22.157 6.3134 22.2642C6.41151 22.3727 6.43064 22.5151 6.35587 22.5838ZM6.86206 23.4475C6.77015 23.5129 6.61987 23.4516 6.52697 23.3148C6.43507 23.178 6.43507 23.014 6.52896 22.9483C6.62211 22.8826 6.77015 22.9417 6.8643 23.0774C6.95595 23.2165 6.95595 23.3805 6.86206 23.4475ZM7.71813 24.4477C7.63591 24.5407 7.46079 24.5157 7.33262 24.3889C7.20146 24.2649 7.16495 24.0889 7.24742 23.9959C7.33063 23.9027 7.50674 23.929 7.63591 24.0548C7.76607 24.1785 7.80581 24.3558 7.71813 24.4477ZM8.82451 24.7854C8.78825 24.9059 8.61959 24.9606 8.44968 24.9095C8.28003 24.8567 8.169 24.7156 8.20328 24.5939C8.23855 24.4727 8.40795 24.4156 8.5791 24.4704C8.7485 24.5228 8.85979 24.6629 8.82451 24.7854ZM10.0836 24.9287C10.0878 25.0555 9.94378 25.1607 9.76543 25.163C9.58609 25.167 9.44103 25.0644 9.43904 24.9396C9.43904 24.8115 9.57988 24.7073 9.75922 24.7043C9.93757 24.7007 10.0836 24.8026 10.0836 24.9287ZM11.3206 24.88C11.3419 25.0038 11.218 25.1309 11.0409 25.1648C10.8667 25.1974 10.7055 25.121 10.6834 24.9982C10.6618 24.8714 10.788 24.7443 10.9619 24.7114C11.1392 24.6799 11.298 24.7542 11.3206 24.88Z" fill="#5372C0"/>
</svg>
