<svg width="88" height="88" viewBox="0 0 88 88" fill="none" xmlns="http://www.w3.org/2000/svg">
<path d="M27.9994 72.2562C28.101 72.226 28.2118 72.208 28.3283 72.2049C28.3326 72.2048 28.3368 72.2047 28.341 72.2047C28.3412 72.2047 28.3415 72.2047 28.3417 72.2047C28.4593 72.2023 28.572 72.216 28.676 72.2427L27.9994 72.2562ZM27.9994 72.2562C27.8959 72.3802 27.7852 72.581 27.7819 72.8605C27.7818 72.8687 27.7818 72.8769 27.7819 72.8853L27.9994 72.2562ZM18.9692 68.1436C18.966 68.1388 18.9629 68.134 18.9598 68.1292L19.0234 68.0854C19.0265 68.0906 19.0295 68.0957 19.0326 68.1009L18.9692 68.1436ZM18.9692 68.1436C19.0457 68.257 19.1355 68.3527 19.231 68.4272C19.1643 68.3205 19.0982 68.2119 19.0327 68.1012L18.9692 68.1436ZM19.9175 76.6279C22.2238 78.4141 25.8167 79.7057 31.2103 78.8821C31.2196 80.2753 31.2305 81.5776 31.2396 82.667C31.2505 83.9615 31.2588 84.9552 31.2588 85.4431C31.2588 85.7378 31.1557 85.9432 31.0592 86.0341C31.018 86.073 30.8181 86.2543 30.1658 86.1493C13.5537 80.3826 1.54443 64.1365 1.54443 44.9513C1.54443 20.9064 20.3944 1.5 43.5369 1.5C66.6814 1.5 85.5286 20.9063 85.5286 44.9513C85.5286 64.1329 73.5315 80.3747 56.9253 86.1458C56.2505 86.2621 56.0539 86.0764 56.0203 86.0448L56.0201 86.0445C55.9295 85.9591 55.8236 85.7537 55.8236 85.4431C55.8236 84.9571 55.8291 84.1053 55.8364 82.9604C55.8402 82.3751 55.8445 81.7131 55.8487 80.9843C55.8614 78.8357 55.874 76.1187 55.874 73.1073C55.874 70.1097 55.2124 67.6979 54.1966 65.9052C58.3472 65.1947 62.5784 63.8159 65.9667 60.8848C70.1334 57.2803 72.7832 51.5482 72.7832 42.6036C72.7832 37.6647 71.186 33.5302 68.5042 30.221C69.1305 28.1696 69.9348 23.7376 67.7818 18.1064L67.5277 17.4419L66.8524 17.2182L66.3807 18.6421C66.8524 17.2182 66.8509 17.2177 66.8494 17.2172L66.8463 17.2162L66.8399 17.2141L66.826 17.2097L66.794 17.2C66.7708 17.1932 66.7439 17.1857 66.7131 17.1777C66.6516 17.1618 66.5751 17.1443 66.4835 17.1271C66.2999 17.0928 66.0567 17.0604 65.7523 17.0459C65.1424 17.017 64.2957 17.0606 63.2 17.2995C61.1126 17.7545 58.1336 18.9148 54.1567 21.6175C50.74 20.708 47.1253 20.2539 43.5438 20.2373V20.2372L43.5299 20.2373C39.9488 20.2539 36.3367 20.7079 32.9256 21.6174C28.9437 18.9145 25.9611 17.7543 23.8714 17.2994C22.7746 17.0606 21.9271 17.017 21.3168 17.0459C21.0121 17.0604 20.7688 17.0928 20.5852 17.1271C20.4934 17.1442 20.4169 17.1617 20.3554 17.1776C20.3247 17.1855 20.2977 17.193 20.2745 17.1999L20.2425 17.2096L20.2287 17.214L20.2223 17.216L20.2192 17.217C20.2177 17.2175 20.2162 17.218 20.6873 18.6421L20.2162 17.218L19.5397 17.4418L19.2858 18.1076C17.1379 23.739 17.9429 28.1711 18.5691 30.2219C15.8935 33.5289 14.2848 37.6624 14.2848 42.6036C14.2848 51.5281 16.9298 57.261 21.0854 60.8757C24.4701 63.8199 28.698 65.2142 32.8451 65.9361C32.2469 67.001 31.7743 68.283 31.4908 69.7729C30.3505 70.2144 28.7871 70.6243 27.1725 70.4753C25.2981 70.3022 23.1924 69.3674 21.4944 66.3655L21.4908 66.3589C21.4833 66.3453 21.4735 66.3276 21.4613 66.3061C21.437 66.2631 21.4033 66.2047 21.3601 66.133C21.274 65.9899 21.1497 65.7929 20.9877 65.5591C20.665 65.0935 20.1844 64.4706 19.5462 63.8338C18.2822 62.5725 16.2974 61.1586 13.624 60.9645L13.5799 60.9613L13.5356 60.9607L13.5154 62.4605C13.5356 60.9607 13.5351 60.9607 13.5346 60.9607L13.5335 60.9606L13.531 60.9606L13.5248 60.9606L13.5077 60.9605C13.4943 60.9604 13.4768 60.9604 13.4557 60.9606C13.4134 60.961 13.3561 60.962 13.287 60.9645C13.1502 60.9694 12.96 60.9803 12.7445 61.0048C12.3738 61.0469 11.6973 61.1513 11.1255 61.4882C10.8207 61.6678 10.4202 61.9868 10.1955 62.5202C9.95435 63.0928 10.0149 63.6732 10.2098 64.1534C10.5435 64.9754 11.3477 65.7079 12.352 66.4179L12.4527 66.4892L12.5484 66.5355C12.5548 66.539 12.5675 66.5461 12.5861 66.5569C12.6325 66.5841 12.7156 66.6354 12.8286 66.7152C13.0542 66.8746 13.4 67.1489 13.8111 67.5749C14.6266 68.4201 15.7195 69.8837 16.6349 72.2775L16.6364 72.2819C16.6456 72.3084 16.6577 72.3426 16.6731 72.3837C16.7037 72.466 16.7472 72.5763 16.8056 72.71C16.9221 72.9769 17.0987 73.339 17.3508 73.7568C17.8545 74.591 18.6679 75.66 19.9175 76.6279ZM28.7189 73.4732C28.7133 73.4804 28.7077 73.4873 28.7022 73.494C28.5987 73.5248 28.486 73.5428 28.368 73.5451C28.3667 73.5452 28.3654 73.5452 28.3641 73.5452C28.3624 73.5452 28.3607 73.5453 28.359 73.5453C28.24 73.548 28.1261 73.5344 28.0213 73.5074C28.0206 73.5067 28.02 73.506 28.0194 73.5053C28.133 73.5036 28.2458 73.5002 28.3579 73.4952C28.3581 73.4952 28.3582 73.4952 28.3584 73.4952C28.36 73.4951 28.3616 73.495 28.3632 73.495C28.3645 73.4949 28.3658 73.4948 28.367 73.4948C28.4852 73.4894 28.6025 73.4821 28.7189 73.4732ZM31.7381 73.5695C31.6063 73.4669 31.4509 73.2854 31.3949 73.0005L31.9335 72.9095L32.057 73.5501L31.9361 72.9091L31.9503 72.9066L32.0656 73.5489C32.0628 73.5495 32.06 73.55 32.0571 73.5506C31.9478 73.5712 31.8402 73.5769 31.7381 73.5695ZM31.9488 72.898L31.9345 72.9005L31.9316 72.8853L31.9461 72.8827L31.9488 72.898ZM31.929 72.8857L31.9319 72.901L31.3942 72.997C31.3933 72.9919 31.3923 72.9868 31.3914 72.9816L31.929 72.8857ZM31.9277 72.8794L31.4066 72.9686C31.5814 72.917 31.7508 72.8634 31.9141 72.8087L31.9277 72.8794ZM31.9449 72.8764L31.9304 72.8789L31.917 72.8078C31.9219 72.8062 31.9268 72.8045 31.9317 72.8028L31.9449 72.8764ZM31.9518 72.8752L31.9377 72.8008C32.1153 72.741 32.2857 72.6799 32.4483 72.6186C32.467 72.6688 32.4826 72.7234 32.4941 72.7824L31.9518 72.8752ZM31.953 72.8815L32.4946 72.7849C32.4955 72.7899 32.4965 72.7949 32.4974 72.8L31.9559 72.8967L31.953 72.8815ZM32.0796 73.5461L31.9576 72.9054L32.4998 72.8138C32.5457 73.0856 32.4761 73.2972 32.3985 73.4352C32.3024 73.4837 32.1951 73.5218 32.0796 73.5461ZM21.0663 70.9778C21.0734 70.9178 21.0874 70.8512 21.112 70.7811C21.2169 70.8826 21.3225 70.9808 21.429 71.0758C21.4322 71.0787 21.4355 71.0815 21.4387 71.0844C21.4487 71.0934 21.4588 71.1023 21.4689 71.1112C21.4702 71.1124 21.4716 71.1135 21.4729 71.1147C21.584 71.2127 21.6958 71.3071 21.8084 71.3982C21.7101 71.4388 21.6163 71.4584 21.5361 71.4661C21.456 71.4167 21.3779 71.3555 21.3052 71.2829C21.2952 71.2735 21.2855 71.2639 21.2759 71.2542C21.2722 71.2505 21.2685 71.2467 21.2649 71.2429C21.1847 71.1599 21.1182 71.0701 21.0663 70.9778ZM18.9447 68.1054C18.8557 67.9611 18.8006 67.8082 18.7797 67.6633C18.7832 67.6692 18.7867 67.6749 18.79 67.6804C18.8023 67.7009 18.8131 67.7191 18.8223 67.7347C18.8341 67.7549 18.8432 67.7709 18.8497 67.7824L18.8587 67.7982L18.8592 67.7992L18.8596 67.8L18.8603 67.8014L18.8606 67.8018L18.8612 67.803L18.8672 67.8143L18.8762 67.8301C18.9205 67.9086 18.9651 67.9861 19.01 68.0627L18.9447 68.1054Z" stroke="#5372C0" stroke-width="3"/>
</svg>
