<svg width="86" height="87" viewBox="0 0 86 87" fill="none" xmlns="http://www.w3.org/2000/svg">
<path d="M47.4812 29.8154C44.095 29.8154 42.1089 29.8154 41.9606 29.8154C36.3061 29.8044 30.6481 29.8044 24.9936 29.8081C22.9099 29.8081 22.6675 30.0565 22.6675 32.1569C22.6675 46.4833 22.6675 60.806 22.6675 75.1325C22.6675 77.2328 22.9135 77.4812 24.9936 77.4812C41.6277 77.4812 58.2618 77.4812 74.8959 77.4812C76.9797 77.4812 77.2221 77.2328 77.2221 75.1325C77.2221 60.806 77.2221 46.4833 77.2221 32.1569C77.2221 30.0565 76.9761 29.8519 74.8959 29.7971C74.8959 29.7971 70.9527 29.7971 65.7902 29.8008" stroke="#5372C0" stroke-width="3" stroke-linecap="round" stroke-linejoin="round"/>
<path d="M51.1172 44.0834C50.7662 44.4011 50.4009 44.5984 49.9559 44.7664C47.3909 45.7344 40.2135 48.3353 39.1354 47.9371C38.9002 47.0969 40.3799 41.1428 41.1034 39.0315C41.5773 37.6434 41.6895 36.0654 42.8182 35.0353L54.5901 22.2357C56.8078 20.1098 58.9313 17.8889 61.0911 15.7045C63.2545 13.5237 65.4323 11.3576 67.574 9.15128C68.9994 7.68285 70.6201 6.45914 71.9984 4.87747C74.5127 1.99173 77.4756 1.50955 80.547 3.28848C83.8897 5.22814 85.127 9.69556 82.0447 13.6845C81.8059 13.9949 79.7366 16.194 79.4002 16.3364L51.1172 44.0797V44.0834Z" stroke="#5372C0" stroke-width="3" stroke-linecap="round" stroke-linejoin="round"/>
<path d="M72.5588 23.098H80.3875C82.3917 23.109 83.8713 24.5701 83.8749 26.6193C83.8858 44.7484 83.8677 62.8774 83.9002 81.0101C83.9039 83.1506 82.2687 84.9259 79.5554 84.915C59.206 84.8346 38.8601 84.8711 18.5107 84.8711C14.4082 84.8711 10.3021 84.7615 6.20331 84.9113C3.75414 85.0026 1.98871 83.1397 1.99956 80.674C2.07915 62.7678 2.03936 44.8616 2.04297 26.9554C2.04297 24.2487 3.20063 23.0944 5.86686 23.0944C20.0048 23.0944 34.1427 23.0944 48.2842 23.098H53.9567" stroke="#5372C0" stroke-width="3" stroke-linecap="round" stroke-linejoin="round"/>
<path d="M71.7376 58.8518C70.8983 58.8518 70.182 58.9906 69.3789 59.4728C66.5064 61.2042 63.5616 61.175 60.7652 59.1805C59.745 58.4536 58.7573 57.6646 57.5961 57.1824C55.2916 56.2217 53.1716 56.7076 51.1023 57.9934C49.5648 58.9504 48.2697 60.2946 46.2981 60.5796C44.4386 60.8499 42.8142 60.4846 41.3129 59.5093C39.8477 58.5559 38.4947 57.4199 36.8125 56.8391" stroke="#5372C0" stroke-width="3" stroke-linecap="round" stroke-linejoin="round"/>
<path d="M44.123 34.1735C45.8306 35.2803 47.672 36.2738 49.1227 37.7313C50.5263 39.1413 51.2318 40.9897 52.2737 42.6517" stroke="#5372C0" stroke-width="3" stroke-linecap="round" stroke-linejoin="round"/>
<path d="M70.7383 7.31396C73.4552 10.0572 76.172 12.7969 78.8889 15.5402" stroke="#5372C0" stroke-width="3" stroke-linecap="round" stroke-linejoin="round"/>
<path d="M8.86133 39.6307C11.4046 40.0873 13.9586 39.8499 16.5127 39.7988" stroke="#5372C0" stroke-width="3" stroke-linecap="round" stroke-linejoin="round"/>
<path d="M16.5138 33.0846C14.0176 33.1029 11.5214 33.3367 9.02881 33.0006" stroke="#5372C0" stroke-width="3" stroke-linecap="round" stroke-linejoin="round"/>
<path d="M16.5138 73.708C14.0176 73.737 11.525 73.7624 9.02881 73.7915" stroke="#5372C0" stroke-width="3" stroke-linecap="round" stroke-linejoin="round"/>
<path d="M16.5138 66.994C14.0176 67.0231 11.525 67.0485 9.02881 67.0775" stroke="#5372C0" stroke-width="3" stroke-linecap="round" stroke-linejoin="round"/>
<path d="M12.0707 56.9961C13.8668 56.9961 15.3229 55.5259 15.3229 53.7122C15.3229 51.8986 13.8668 50.4283 12.0707 50.4283C10.2745 50.4283 8.81836 51.8986 8.81836 53.7122C8.81836 55.5259 10.2745 56.9961 12.0707 56.9961Z" stroke="#5372C0" stroke-width="3" stroke-linecap="round" stroke-linejoin="round"/>
</svg>
