<svg width="78" height="87" viewBox="0 0 78 87" fill="none" xmlns="http://www.w3.org/2000/svg">
<path d="M8.22985 71.6367C8.55197 75.2438 8.74744 77.4165 8.74744 77.4165L38.7708 84.7923L38.9397 84.8343C39.0241 84.8141 39.1086 84.7923 39.1086 84.7923L69.1319 77.4165L75.8794 1.98108H2C2 1.98108 6.65206 53.9881 8.22985 71.6383V71.6367Z" stroke="#5372C0" stroke-width="3" stroke-miterlimit="10"/>
<path d="M39.1055 6.33761V16.7316H61.0319V25.4486H39.1055V40.8717H59.3462L56.6472 67.357L39.1055 71.7163V80.6618L64.6613 74.3987L70.9381 6.28943L39.1055 6.33761Z" stroke="#5372C0" stroke-width="3" stroke-miterlimit="10"/>
<path d="M39.4441 16.7313H17.5161L19.8773 49.2528H48.215V59.9809L39.1063 62.6633L31.3472 60.6523V55.9589H21.9023V67.6925L39.1063 71.7161" stroke="#5372C0" stroke-width="3" stroke-miterlimit="10"/>
<path d="M40.1184 25.4482H27.9746L28.9863 40.9521H40.1184" stroke="#5372C0" stroke-width="3" stroke-miterlimit="10"/>
<path d="M39.1055 62.6634V48.9172" stroke="#5372C0" stroke-width="3" stroke-miterlimit="10"/>
</svg>
