<svg width="87" height="91" viewBox="0 0 87 91" fill="none" xmlns="http://www.w3.org/2000/svg">
<mask id="path-1-outside-1_50_87" maskUnits="userSpaceOnUse" x="10.7451" y="26.5155" width="60" height="50" fill="black">
<rect fill="white" x="10.7451" y="26.5155" width="60" height="50"/>
<path d="M39.1451 33.7075V40.4275H31.1371V65.7675H39.1451V72.5155H13.9451V65.7675H21.9531V40.4275H13.9451V33.7075H39.1451ZM58.5552 30.0395L67.4032 30.9635V72.5155H59.5632L59.1152 69.2395C58.2939 70.3968 57.2019 71.3955 55.8392 72.2355C54.4766 73.0568 52.8246 73.4675 50.8832 73.4675C48.4192 73.4675 46.3752 72.8048 44.7512 71.4795C43.1459 70.1542 41.9419 68.3062 41.1392 65.9355C40.3552 63.5462 39.9632 60.7555 39.9632 57.5635C39.9632 54.5022 40.4392 51.7862 41.3912 49.4155C42.3432 47.0448 43.7059 45.1875 45.4792 43.8435C47.2526 42.4808 49.3619 41.7995 51.8072 41.7995C53.1326 41.7995 54.3646 42.0328 55.5032 42.4995C56.6419 42.9662 57.6592 43.6475 58.5552 44.5435V30.0395ZM54.1872 48.2675C52.6566 48.2675 51.4246 48.9955 50.4912 50.4515C49.5579 51.8888 49.0912 54.2782 49.0912 57.6195C49.0912 60.0648 49.2872 61.9688 49.6792 63.3315C50.0712 64.6755 50.6126 65.6182 51.3032 66.1595C51.9939 66.7008 52.7872 66.9715 53.6832 66.9715C54.6726 66.9715 55.5686 66.6635 56.3712 66.0475C57.1926 65.4315 57.9206 64.5915 58.5552 63.5275V50.7035C57.9392 49.9382 57.2859 49.3408 56.5952 48.9115C55.9046 48.4822 55.1019 48.2675 54.1872 48.2675Z"/>
</mask>
<path d="M39.1451 33.7075H42.1451V30.7075H39.1451V33.7075ZM39.1451 40.4275V43.4275H42.1451V40.4275H39.1451ZM31.1371 40.4275V37.4275H28.1371V40.4275H31.1371ZM31.1371 65.7675H28.1371V68.7675H31.1371V65.7675ZM39.1451 65.7675H42.1451V62.7675H39.1451V65.7675ZM39.1451 72.5155V75.5155H42.1451V72.5155H39.1451ZM13.9451 72.5155H10.9451V75.5155H13.9451V72.5155ZM13.9451 65.7675V62.7675H10.9451V65.7675H13.9451ZM21.9531 65.7675V68.7675H24.9531V65.7675H21.9531ZM21.9531 40.4275H24.9531V37.4275H21.9531V40.4275ZM13.9451 40.4275H10.9451V43.4275H13.9451V40.4275ZM13.9451 33.7075V30.7075H10.9451V33.7075H13.9451ZM36.1451 33.7075V40.4275H42.1451V33.7075H36.1451ZM39.1451 37.4275H31.1371V43.4275H39.1451V37.4275ZM28.1371 40.4275V65.7675H34.1371V40.4275H28.1371ZM31.1371 68.7675H39.1451V62.7675H31.1371V68.7675ZM36.1451 65.7675V72.5155H42.1451V65.7675H36.1451ZM39.1451 69.5155H13.9451V75.5155H39.1451V69.5155ZM16.9451 72.5155V65.7675H10.9451V72.5155H16.9451ZM13.9451 68.7675H21.9531V62.7675H13.9451V68.7675ZM24.9531 65.7675V40.4275H18.9531V65.7675H24.9531ZM21.9531 37.4275H13.9451V43.4275H21.9531V37.4275ZM16.9451 40.4275V33.7075H10.9451V40.4275H16.9451ZM13.9451 36.7075H39.1451V30.7075H13.9451V36.7075ZM58.5552 30.0395L58.8668 27.0557L55.5552 26.7099V30.0395H58.5552ZM67.4032 30.9635H70.4032V28.2605L67.7148 27.9797L67.4032 30.9635ZM67.4032 72.5155V75.5155H70.4032V72.5155H67.4032ZM59.5632 72.5155L56.5909 72.922L56.9456 75.5155H59.5632V72.5155ZM59.1152 69.2395L62.0876 68.833L61.0596 61.3161L56.6687 67.5033L59.1152 69.2395ZM55.8392 72.2355L57.3879 74.8049L57.4007 74.7971L57.4135 74.7893L55.8392 72.2355ZM44.7512 71.4795L42.8413 73.793L42.8479 73.7984L42.8544 73.8038L44.7512 71.4795ZM41.1392 65.9355L38.2888 66.8708L38.2932 66.8842L38.2977 66.8976L41.1392 65.9355ZM41.3912 49.4155L38.6073 48.2976V48.2976L41.3912 49.4155ZM45.4792 43.8435L47.2913 46.2344L47.2993 46.2284L47.3072 46.2223L45.4792 43.8435ZM55.5032 42.4995L56.6409 39.7236V39.7236L55.5032 42.4995ZM58.5552 44.5435L56.4339 46.6648L61.5552 51.7861V44.5435H58.5552ZM50.4912 50.4515L53.0073 52.0853L53.0121 52.0779L53.0169 52.0705L50.4912 50.4515ZM49.6792 63.3315L46.7961 64.1609L46.7992 64.1715L49.6792 63.3315ZM56.3712 66.0475L54.5712 63.6475L54.558 63.6575L54.5448 63.6676L56.3712 66.0475ZM58.5552 63.5275L61.1317 65.0643L61.5552 64.3543V63.5275H58.5552ZM58.5552 50.7035H61.5552V49.6462L60.8923 48.8225L58.5552 50.7035ZM58.2436 33.0233L67.0916 33.9473L67.7148 27.9797L58.8668 27.0557L58.2436 33.0233ZM64.4032 30.9635V72.5155H70.4032V30.9635H64.4032ZM67.4032 69.5155H59.5632V75.5155H67.4032V69.5155ZM62.5356 72.109L62.0876 68.833L56.1429 69.646L56.5909 72.922L62.5356 72.109ZM56.6687 67.5033C56.1084 68.2928 55.3288 69.026 54.265 69.6817L57.4135 74.7893C59.0751 73.765 60.4794 72.5008 61.5618 70.9757L56.6687 67.5033ZM54.2906 69.6661C53.4885 70.1496 52.3989 70.4675 50.8832 70.4675V76.4675C53.2502 76.4675 55.4646 75.9641 57.3879 74.8049L54.2906 69.6661ZM50.8832 70.4675C48.9836 70.4675 47.6458 69.9695 46.648 69.1553L42.8544 73.8038C45.1047 75.6401 47.8549 76.4675 50.8832 76.4675V70.4675ZM46.6612 69.166C45.5659 68.2618 44.641 66.9234 43.9808 64.9734L38.2977 66.8976C39.2428 69.689 40.7259 72.0466 42.8413 73.793L46.6612 69.166ZM43.9897 65.0002C43.3273 62.9814 42.9632 60.5192 42.9632 57.5635H36.9632C36.9632 60.9918 37.3832 64.1109 38.2888 66.8708L43.9897 65.0002ZM42.9632 57.5635C42.9632 54.811 43.3912 52.4857 44.1752 50.5335L38.6073 48.2976C37.4873 51.0866 36.9632 54.1934 36.9632 57.5635H42.9632ZM44.1752 50.5335C44.9551 48.5913 46.0123 47.2038 47.2913 46.2344L43.6672 41.4526C41.3995 43.1712 39.7314 45.4984 38.6073 48.2976L44.1752 50.5335ZM47.3072 46.2223C48.5066 45.3006 49.9575 44.7995 51.8072 44.7995V38.7995C48.7663 38.7995 45.9985 39.6611 43.6513 41.4647L47.3072 46.2223ZM51.8072 44.7995C52.7727 44.7995 53.615 44.9678 54.3656 45.2754L56.6409 39.7236C55.1142 39.0979 53.4924 38.7995 51.8072 38.7995V44.7995ZM54.3656 45.2754C55.1252 45.5867 55.8106 46.0415 56.4339 46.6648L60.6766 42.4222C59.5079 41.2535 58.1586 40.3456 56.6409 39.7236L54.3656 45.2754ZM61.5552 44.5435V30.0395H55.5552V44.5435H61.5552ZM54.1872 45.2675C51.4871 45.2675 49.3661 46.6478 47.9656 48.8325L53.0169 52.0705C53.4831 51.3432 53.826 51.2675 54.1872 51.2675V45.2675ZM47.9752 48.8177C46.545 51.0202 46.0912 54.1579 46.0912 57.6195H52.0912C52.0912 54.3985 52.5709 52.7575 53.0073 52.0853L47.9752 48.8177ZM46.0912 57.6195C46.0912 60.1739 46.2903 62.4025 46.7962 64.1609L52.5623 62.5021C52.2842 61.5352 52.0912 59.9557 52.0912 57.6195H46.0912ZM46.7992 64.1715C47.2704 65.787 48.0528 67.4235 49.4526 68.5207L53.1539 63.7983C53.1754 63.8152 53.1037 63.7665 52.9808 63.5525C52.8568 63.3365 52.7067 62.997 52.5592 62.4915L46.7992 64.1715ZM49.4526 68.5207C50.6833 69.4852 52.1316 69.9715 53.6832 69.9715V63.9715C53.4429 63.9715 53.3046 63.9164 53.1539 63.7983L49.4526 68.5207ZM53.6832 69.9715C55.3491 69.9715 56.8839 69.4357 58.1977 68.4274L54.5448 63.6676C54.2532 63.8913 53.9961 63.9715 53.6832 63.9715V69.9715ZM58.1712 68.4475C59.3626 67.554 60.3373 66.3962 61.1317 65.0643L55.9788 61.9907C55.5039 62.7868 55.0226 63.309 54.5712 63.6475L58.1712 68.4475ZM61.5552 63.5275V50.7035H55.5552V63.5275H61.5552ZM60.8923 48.8225C60.1072 47.8471 59.2091 47.004 58.179 46.3636L55.0114 51.4594C55.3627 51.6777 55.7713 52.0293 56.2182 52.5845L60.8923 48.8225ZM58.179 46.3636C56.9555 45.6031 55.5899 45.2675 54.1872 45.2675V51.2675C54.6139 51.2675 54.8536 51.3613 55.0114 51.4594L58.179 46.3636Z" fill="#5372C0" mask="url(#path-1-outside-1_50_87)"/>
<rect x="2" y="2.00012" width="82.708" height="83.4788" stroke="#5372C0" stroke-width="3"/>
<rect x="7.83789" y="7.8927" width="71.0316" height="71.6936" stroke="#5372C0" stroke-width="3"/>
</svg>
