<svg width="61" height="88" viewBox="0 0 61 88" fill="none" xmlns="http://www.w3.org/2000/svg">
<path d="M5.36473 45.23C5.31051 46.2371 5.20567 47.2405 5.20567 48.2475C5.19482 58.1978 5.20567 68.1445 5.19482 78.0947C5.19482 82.2507 8.31105 85.9324 12.8444 85.8631C23.5921 85.6952 34.3435 85.7317 45.0876 85.8631C47.976 85.8959 51.9057 82.3529 51.8298 79.1018C51.5803 68.5422 51.7394 57.9752 51.7285 47.412C51.7285 46.6859 51.6237 45.9597 51.5695 45.2336" stroke="#5372C0" stroke-width="3" stroke-linecap="round" stroke-linejoin="round"/>
<path d="M37.4263 37.1917C37.4624 35.7905 37.8239 33.1342 37.3359 31.1055C36.7611 30.653 35.8537 30.5436 35.2898 30.664C34.1076 30.923 32.958 30.8063 31.7939 30.6384" stroke="#5372C0" stroke-width="3" stroke-linecap="round" stroke-linejoin="round"/>
<path d="M4.66969 37.9653C2.6127 39.049 1.7993 40.3808 2.34879 42.3877C2.72476 43.7633 4.02259 43.9603 4.85406 44.7412C5.59878 45.4417 6.09043 44.7083 6.69777 44.5733C7.0159 44.5003 7.35934 44.5624 7.69193 44.5624C21.545 44.5624 35.3945 44.5733 49.2476 44.5332C50.155 44.5332 50.8889 45.1316 51.7384 45.044C53.0616 44.909 54.9089 42.9861 55.0643 41.709C55.2668 40.0597 54.4245 38.8812 52.7507 37.9909L4.66969 37.9653Z" stroke="#5372C0" stroke-width="3" stroke-linecap="round" stroke-linejoin="round"/>
<path d="M36.6128 30.6419C37.1009 28.5183 37.5491 26.3765 36.5875 24.282C36.3417 23.7457 36.6924 23.4866 36.7719 23.0962C37.1334 21.3521 37.5058 19.6116 36.6164 17.8966C36.3525 17.3858 36.602 16.9115 36.7393 16.3824C37.1876 14.6602 37.5058 12.9014 36.6128 11.1901C36.3887 10.7596 36.3887 10.2816 36.6128 9.85468C37.372 8.40611 37.0864 6.84442 37.0864 5.32287C37.0864 4.07498 36.4285 3.31603 35.1089 3.31238C31.8951 3.30873 28.6813 3.31603 25.4674 3.30873C24.0901 3.30508 23.79 4.13336 23.7972 5.32287C23.8189 9.68319 23.8045 14.0435 23.8045 18.4038C23.8045 22.7641 23.8045 27.0114 23.8009 31.3169C23.8009 31.8789 23.9057 32.4554 23.6382 32.9954" stroke="#5372C0" stroke-width="3" stroke-linecap="round" stroke-linejoin="round"/>
<path d="M12.0966 57.9717C11.7703 58.6139 11.8501 59.3035 11.8464 59.9822C11.8464 65.6816 11.8356 71.3847 11.8537 77.0841C11.8537 78.1459 11.9588 79.2077 12.0132 80.2695" stroke="#5372C0" stroke-width="3" stroke-linecap="round" stroke-linejoin="round"/>
<path d="M56.3118 2.46973C55.8021 5.84852 58.0688 10.2125 58.4375 13.6314C58.6689 15.7842 58.4701 18.0757 57.306 19.8928C55.9756 21.9726 53.3944 23.1621 50.9651 22.8118C48.5357 22.4615 46.3847 20.597 45.6834 18.2253C43.6517 11.3838 52.7907 7.05627 56.2576 2.65946" stroke="#5372C0" stroke-width="3" stroke-linecap="round" stroke-linejoin="round"/>
<path d="M6.19605 37.6297C5.11875 32.7913 4.01253 28.2851 3.03645 23.7679C2.84485 22.8812 2.47249 20.94 2.46164 20.1008C2.41465 16.5104 3.7667 10.1724 4.33789 7.89921C4.85846 5.82669 5.75501 5.4691 7.00945 6.84835C9.16406 9.22372 12.49 13.8285 14.2324 16.5323C14.9157 17.5904 15.5483 19.4112 16.2569 21.7209C17.4716 25.6981 19.3442 33.7218 20.3745 37.7537" stroke="#5372C0" stroke-width="3" stroke-linecap="round" stroke-linejoin="round"/>
<path d="M52.9025 23.4287C53.1375 24.4905 53.1194 25.5377 52.9169 26.6178C52.2626 30.1608 51.6806 33.7147 51.0732 37.2613" stroke="#5372C0" stroke-width="3" stroke-linecap="round" stroke-linejoin="round"/>
<path d="M46.5873 20.9144C45.6148 21.4326 45.0834 22.3192 44.5845 23.257C43.3879 25.5046 37.9219 37.5603 37.9219 37.5603" stroke="#5372C0" stroke-width="3" stroke-linecap="round" stroke-linejoin="round"/>
<path d="M14.1195 17.3207C12.4999 18.6744 10.5225 19.6194 8.451 20.0244C6.72659 20.3601 4.95519 20.3893 3.19824 20.3857" stroke="#5372C0" stroke-width="3" stroke-linecap="round" stroke-linejoin="round"/>
</svg>
