<svg width="87" height="91" viewBox="0 0 87 91" fill="none" xmlns="http://www.w3.org/2000/svg">
<mask id="path-1-outside-1_50_99" maskUnits="userSpaceOnUse" x="10.9514" y="30.5155" width="66" height="45" fill="black">
<rect fill="white" x="10.9514" y="30.5155" width="66" height="45"/>
<path d="M33.7714 46.3635C33.7714 44.9822 33.5101 43.8435 32.9874 42.9475C32.4834 42.0328 31.7088 41.3608 30.6634 40.9315C29.6368 40.4835 28.3394 40.2595 26.7714 40.2595H23.6354V52.9435H27.2474C28.6101 52.9435 29.7768 52.7102 30.7474 52.2435C31.7181 51.7768 32.4648 51.0582 32.9874 50.0875C33.5101 49.1168 33.7714 47.8755 33.7714 46.3635ZM43.2354 46.3355C43.2354 49.3408 42.5914 51.8235 41.3034 53.7835C40.0154 55.7435 38.2141 57.2088 35.8994 58.1795C33.5848 59.1315 30.8968 59.6075 27.8354 59.6075H23.6354V72.5155H14.4514V33.7075H26.6594C31.9234 33.7075 36.0021 34.7528 38.8954 36.8435C41.7887 38.9342 43.2354 42.0982 43.2354 46.3355ZM44.8095 72.5155V66.5795H48.7295V48.6595H44.8095V42.7795H55.4775L57.1015 49.4715C58.1655 46.9142 59.5189 45.0102 61.1615 43.7595C62.8229 42.5088 64.8482 41.8835 67.2375 41.8835C68.2455 41.8835 69.1415 41.9675 69.9255 42.1355C70.7095 42.2848 71.4469 42.4995 72.1375 42.7795L69.4495 50.0875C68.9082 49.9382 68.3669 49.8262 67.8255 49.7515C67.2842 49.6768 66.6869 49.6395 66.0335 49.6395C64.0922 49.6395 62.3842 50.4328 60.9095 52.0195C59.4535 53.6062 58.3429 55.6222 57.5775 58.0675V66.5795H63.4575V72.5155H44.8095ZM64.9415 55.2115V46.5315L66.2575 42.7795H72.1375L70.4855 55.2115H64.9415Z"/>
</mask>
<path d="M32.9874 42.9475L30.3599 44.3953L30.3776 44.4274L30.3961 44.4591L32.9874 42.9475ZM30.6634 40.9315L29.4636 43.6811L29.4935 43.6942L29.5237 43.7066L30.6634 40.9315ZM23.6354 40.2595V37.2595H20.6354V40.2595H23.6354ZM23.6354 52.9435H20.6354V55.9435H23.6354V52.9435ZM30.7474 52.2435L29.4475 49.5397L30.7474 52.2435ZM32.9874 50.0875L30.346 48.6652L32.9874 50.0875ZM41.3034 53.7835L43.8105 55.431L41.3034 53.7835ZM35.8994 58.1795L37.0405 60.954L37.0501 60.9501L37.0596 60.9461L35.8994 58.1795ZM23.6354 59.6075V56.6075H20.6354V59.6075H23.6354ZM23.6354 72.5155V75.5155H26.6354V72.5155H23.6354ZM14.4514 72.5155H11.4514V75.5155H14.4514V72.5155ZM14.4514 33.7075V30.7075H11.4514V33.7075H14.4514ZM36.7714 46.3635C36.7714 44.6215 36.4436 42.9185 35.5788 41.4359L30.3961 44.4591C30.5766 44.7686 30.7714 45.3428 30.7714 46.3635H36.7714ZM35.6149 41.4997C34.753 39.9354 33.4257 38.8228 31.8032 38.1564L29.5237 43.7066C29.9918 43.8988 30.2139 44.1303 30.3599 44.3953L35.6149 41.4997ZM31.8633 38.1819C30.3388 37.5167 28.5985 37.2595 26.7714 37.2595V43.2595C28.0803 43.2595 28.9347 43.4503 29.4636 43.6811L31.8633 38.1819ZM26.7714 37.2595H23.6354V43.2595H26.7714V37.2595ZM20.6354 40.2595V52.9435H26.6354V40.2595H20.6354ZM23.6354 55.9435H27.2474V49.9435H23.6354V55.9435ZM27.2474 55.9435C28.9443 55.9435 30.5782 55.6536 32.0473 54.9473L29.4475 49.5397C28.9753 49.7668 28.2759 49.9435 27.2474 49.9435V55.9435ZM32.0473 54.9473C33.6036 54.199 34.8132 53.0245 35.6288 51.5098L30.346 48.6652C30.1163 49.0918 29.8326 49.3546 29.4475 49.5397L32.0473 54.9473ZM35.6288 51.5098C36.458 49.9699 36.7714 48.1964 36.7714 46.3635H30.7714C30.7714 47.5546 30.5622 48.2638 30.346 48.6652L35.6288 51.5098ZM40.2354 46.3355C40.2354 48.9188 39.6834 50.786 38.7963 52.136L43.8105 55.431C45.4994 52.861 46.2354 49.7629 46.2354 46.3355H40.2354ZM38.7963 52.136C37.8594 53.5618 36.5442 54.656 34.7392 55.4129L37.0596 60.9461C39.884 59.7617 42.1715 57.9253 43.8105 55.431L38.7963 52.136ZM34.7583 55.405C32.8767 56.1789 30.5902 56.6075 27.8354 56.6075V62.6075C31.2033 62.6075 34.2928 62.0841 37.0405 60.954L34.7583 55.405ZM27.8354 56.6075H23.6354V62.6075H27.8354V56.6075ZM20.6354 59.6075V72.5155H26.6354V59.6075H20.6354ZM23.6354 69.5155H14.4514V75.5155H23.6354V69.5155ZM17.4514 72.5155V33.7075H11.4514V72.5155H17.4514ZM14.4514 36.7075H26.6594V30.7075H14.4514V36.7075ZM26.6594 36.7075C31.5778 36.7075 34.9472 37.6918 37.1384 39.2751L40.6525 34.4119C37.057 31.8138 32.269 30.7075 26.6594 30.7075V36.7075ZM37.1384 39.2751C39.0989 40.6917 40.2354 42.8566 40.2354 46.3355H46.2354C46.2354 41.3397 44.4786 37.1766 40.6525 34.4119L37.1384 39.2751ZM44.8095 72.5155H41.8095V75.5155H44.8095V72.5155ZM44.8095 66.5795V63.5795H41.8095V66.5795H44.8095ZM48.7295 66.5795V69.5795H51.7295V66.5795H48.7295ZM48.7295 48.6595H51.7295V45.6595H48.7295V48.6595ZM44.8095 48.6595H41.8095V51.6595H44.8095V48.6595ZM44.8095 42.7795V39.7795H41.8095V42.7795H44.8095ZM55.4775 42.7795L58.3929 42.072L57.8366 39.7795H55.4775V42.7795ZM57.1015 49.4715L54.1862 50.179L56.3488 59.0905L59.8714 50.6239L57.1015 49.4715ZM61.1615 43.7595L59.3572 41.3627L59.3507 41.3676L59.3442 41.3726L61.1615 43.7595ZM69.9255 42.1355L69.297 45.0689L69.3305 45.0761L69.3642 45.0825L69.9255 42.1355ZM72.1375 42.7795L74.9531 43.8151L75.9554 41.0901L73.2647 39.9993L72.1375 42.7795ZM69.4495 50.0875L68.6518 52.9795L71.3124 53.7134L72.2651 51.1231L69.4495 50.0875ZM67.8255 49.7515L68.2355 46.7796L67.8255 49.7515ZM60.9095 52.0195L58.7121 49.9772L58.7056 49.9841L58.6992 49.9911L60.9095 52.0195ZM57.5775 58.0675L54.7145 57.1714L54.5775 57.609V58.0675H57.5775ZM57.5775 66.5795H54.5775V69.5795H57.5775V66.5795ZM63.4575 66.5795H66.4575V63.5795H63.4575V66.5795ZM63.4575 72.5155V75.5155H66.4575V72.5155H63.4575ZM64.9415 55.2115H61.9415V58.2115H64.9415V55.2115ZM64.9415 46.5315L62.1106 45.5386L61.9415 46.0206V46.5315H64.9415ZM66.2575 42.7795V39.7795H64.1306L63.4266 41.7866L66.2575 42.7795ZM72.1375 42.7795L75.1114 43.1747L75.5626 39.7795H72.1375V42.7795ZM70.4855 55.2115V58.2115H73.1133L73.4594 55.6067L70.4855 55.2115ZM47.8095 72.5155V66.5795H41.8095V72.5155H47.8095ZM44.8095 69.5795H48.7295V63.5795H44.8095V69.5795ZM51.7295 66.5795V48.6595H45.7295V66.5795H51.7295ZM48.7295 45.6595H44.8095V51.6595H48.7295V45.6595ZM47.8095 48.6595V42.7795H41.8095V48.6595H47.8095ZM44.8095 45.7795H55.4775V39.7795H44.8095V45.7795ZM52.5622 43.487L54.1862 50.179L60.0169 48.764L58.3929 42.072L52.5622 43.487ZM59.8714 50.6239C60.7992 48.3939 61.8768 46.9855 62.9789 46.1464L59.3442 41.3726C57.1609 43.0349 55.5319 45.4345 54.3317 48.3191L59.8714 50.6239ZM62.9658 46.1563C64.0317 45.3539 65.398 44.8835 67.2375 44.8835V38.8835C64.2984 38.8835 61.614 39.6638 59.3572 41.3627L62.9658 46.1563ZM67.2375 44.8835C68.0856 44.8835 68.7643 44.9548 69.297 45.0689L70.5541 39.2021C69.5188 38.9802 68.4055 38.8835 67.2375 38.8835V44.8835ZM69.3642 45.0825C69.9682 45.1976 70.5148 45.3588 71.0104 45.5597L73.2647 39.9993C72.379 39.6402 71.4509 39.3721 70.4869 39.1885L69.3642 45.0825ZM69.322 41.7439L66.634 49.0519L72.2651 51.1231L74.9531 43.8151L69.322 41.7439ZM70.2473 47.1955C69.5821 47.012 68.9113 46.8729 68.2355 46.7796L67.4156 52.7234C67.8225 52.7795 68.2343 52.8643 68.6518 52.9795L70.2473 47.1955ZM68.2355 46.7796C67.5351 46.683 66.7984 46.6395 66.0335 46.6395V52.6395C66.5754 52.6395 67.0333 52.6706 67.4156 52.7234L68.2355 46.7796ZM66.0335 46.6395C63.1573 46.6395 60.6816 47.8581 58.7121 49.9772L63.107 54.0618C64.0868 53.0076 65.0271 52.6395 66.0335 52.6395V46.6395ZM58.6992 49.9911C56.8938 51.9586 55.5868 54.3842 54.7145 57.1714L60.4406 58.9636C61.0989 56.8601 62.0133 55.2538 63.1199 54.0479L58.6992 49.9911ZM54.5775 58.0675V66.5795H60.5775V58.0675H54.5775ZM57.5775 69.5795H63.4575V63.5795H57.5775V69.5795ZM60.4575 66.5795V72.5155H66.4575V66.5795H60.4575ZM63.4575 69.5155H44.8095V75.5155H63.4575V69.5155ZM67.9415 55.2115V46.5315H61.9415V55.2115H67.9415ZM67.7725 47.5244L69.0885 43.7724L63.4266 41.7866L62.1106 45.5386L67.7725 47.5244ZM66.2575 45.7795H72.1375V39.7795H66.2575V45.7795ZM69.1637 42.3843L67.5117 54.8163L73.4594 55.6067L75.1114 43.1747L69.1637 42.3843ZM70.4855 52.2115H64.9415V58.2115H70.4855V52.2115Z" fill="#5372C0" mask="url(#path-1-outside-1_50_99)"/>
<rect x="1.99976" y="2.00012" width="82.708" height="83.4788" stroke="#5372C0" stroke-width="3"/>
<rect x="7.83789" y="7.8927" width="71.0316" height="71.6936" stroke="#5372C0" stroke-width="3"/>
</svg>
