<svg width="87" height="92" viewBox="0 0 87 92" fill="none" xmlns="http://www.w3.org/2000/svg">
<mask id="path-1-outside-1_50_75" maskUnits="userSpaceOnUse" x="11.2432" y="30.6923" width="63" height="46" fill="black">
<rect fill="white" x="11.2432" y="30.6923" width="63" height="46"/>
<path d="M34.0632 46.5403C34.0632 45.1589 33.8018 44.0203 33.2792 43.1243C32.7752 42.2096 32.0005 41.5376 30.9552 41.1083C29.9285 40.6603 28.6312 40.4363 27.0632 40.4363H23.9272V53.1203H27.5392C28.9018 53.1203 30.0685 52.8869 31.0392 52.4203C32.0098 51.9536 32.7565 51.2349 33.2792 50.2643C33.8018 49.2936 34.0632 48.0523 34.0632 46.5403ZM43.5272 46.5123C43.5272 49.5176 42.8832 52.0003 41.5952 53.9603C40.3072 55.9203 38.5058 57.3856 36.1912 58.3563C33.8765 59.3083 31.1885 59.7843 28.1272 59.7843H23.9272V72.6923H14.7432V33.8843H26.9512C32.2152 33.8843 36.2938 34.9296 39.1872 37.0203C42.0805 39.1109 43.5272 42.2749 43.5272 46.5123ZM56.1893 67.3163C57.664 67.3163 58.8493 67.0829 59.7453 66.6163C60.66 66.1496 61.1173 65.4496 61.1173 64.5163C61.1173 63.8816 60.94 63.3496 60.5853 62.9203C60.2306 62.4909 59.5493 62.0803 58.5413 61.6883C57.5333 61.2963 56.04 60.8296 54.0613 60.2883C52.2506 59.8029 50.6453 59.1869 49.2453 58.4403C47.864 57.6936 46.7813 56.7323 45.9973 55.5563C45.232 54.3803 44.8493 52.9149 44.8493 51.1603C44.8493 49.3869 45.344 47.8096 46.3333 46.4283C47.3226 45.0469 48.7786 43.9643 50.7013 43.1803C52.624 42.3776 54.976 41.9763 57.7573 41.9763C60.408 41.9763 62.7133 42.3216 64.6733 43.0123C66.652 43.6843 68.36 44.5429 69.7973 45.5883L66.2693 50.7963C65.0373 50.0309 63.712 49.4243 62.2933 48.9763C60.8746 48.5096 59.4466 48.2763 58.0093 48.2763C56.572 48.2763 55.4986 48.4723 54.7893 48.8643C54.0986 49.2376 53.7533 49.8069 53.7533 50.5723C53.7533 51.0763 53.9306 51.5149 54.2853 51.8883C54.6586 52.2429 55.3493 52.6163 56.3573 53.0083C57.3653 53.3816 58.84 53.8483 60.7813 54.4083C62.704 54.9496 64.3746 55.5749 65.7933 56.2843C67.2306 56.9936 68.3413 57.9456 69.1253 59.1403C69.9093 60.3163 70.3013 61.8749 70.3013 63.8163C70.3013 65.9816 69.6573 67.8016 68.3693 69.2763C67.0813 70.7323 65.3733 71.8243 63.2453 72.5523C61.1173 73.2803 58.784 73.6443 56.2453 73.6443C53.3706 73.6443 50.832 73.2336 48.6293 72.4123C46.4266 71.5909 44.5506 70.5083 43.0013 69.1643L47.4533 64.1803C48.6106 65.0763 49.9173 65.8229 51.3733 66.4203C52.848 67.0176 54.4533 67.3163 56.1893 67.3163Z"/>
</mask>
<path d="M33.2792 43.1243L30.6517 44.5721L30.6693 44.6042L30.6878 44.6359L33.2792 43.1243ZM30.9552 41.1083L29.7553 43.8579L29.7852 43.8709L29.8154 43.8833L30.9552 41.1083ZM23.9272 40.4363V37.4363H20.9272V40.4363H23.9272ZM23.9272 53.1203H20.9272V56.1203H23.9272V53.1203ZM31.0392 52.4203L29.7393 49.7165L31.0392 52.4203ZM33.2792 50.2643L30.6378 48.842L33.2792 50.2643ZM41.5952 53.9603L44.1023 55.6078L41.5952 53.9603ZM36.1912 58.3563L37.3323 61.1308L37.3418 61.1268L37.3513 61.1228L36.1912 58.3563ZM23.9272 59.7843V56.7843H20.9272V59.7843H23.9272ZM23.9272 72.6923V75.6923H26.9272V72.6923H23.9272ZM14.7432 72.6923H11.7432V75.6923H14.7432V72.6923ZM14.7432 33.8843V30.8843H11.7432V33.8843H14.7432ZM37.0632 46.5403C37.0632 44.7983 36.7353 43.0952 35.8705 41.6126L30.6878 44.6359C30.8683 44.9453 31.0632 45.5195 31.0632 46.5403H37.0632ZM35.9067 41.6764C35.0447 40.1121 33.7174 38.9996 32.0949 38.3332L29.8154 43.8833C30.2836 44.0756 30.5056 44.3071 30.6517 44.5721L35.9067 41.6764ZM32.155 38.3586C30.6306 37.6934 28.8903 37.4363 27.0632 37.4363V43.4363C28.372 43.4363 29.2264 43.6271 29.7553 43.8579L32.155 38.3586ZM27.0632 37.4363H23.9272V43.4363H27.0632V37.4363ZM20.9272 40.4363V53.1203H26.9272V40.4363H20.9272ZM23.9272 56.1203H27.5392V50.1203H23.9272V56.1203ZM27.5392 56.1203C29.236 56.1203 30.8699 55.8303 32.339 55.124L29.7393 49.7165C29.2671 49.9435 28.5676 50.1203 27.5392 50.1203V56.1203ZM32.339 55.124C33.8953 54.3758 35.105 53.2013 35.9206 51.6866L30.6378 48.842C30.408 49.2686 30.1243 49.5314 29.7393 49.7165L32.339 55.124ZM35.9206 51.6866C36.7498 50.1467 37.0632 48.3732 37.0632 46.5403H31.0632C31.0632 47.7313 30.8539 48.4405 30.6378 48.842L35.9206 51.6866ZM40.5272 46.5123C40.5272 49.0955 39.9752 50.9628 39.088 52.3127L44.1023 55.6078C45.7912 53.0377 46.5272 49.9396 46.5272 46.5123H40.5272ZM39.0881 52.3127C38.1511 53.7385 36.836 54.8328 35.031 55.5897L37.3513 61.1228C40.1757 59.9384 42.4632 58.102 44.1023 55.6078L39.0881 52.3127ZM35.05 55.5818C33.1684 56.3557 30.882 56.7843 28.1272 56.7843V62.7843C31.495 62.7843 34.5846 62.2609 37.3323 61.1308L35.05 55.5818ZM28.1272 56.7843H23.9272V62.7843H28.1272V56.7843ZM20.9272 59.7843V72.6923H26.9272V59.7843H20.9272ZM23.9272 69.6923H14.7432V75.6923H23.9272V69.6923ZM17.7432 72.6923V33.8843H11.7432V72.6923H17.7432ZM14.7432 36.8843H26.9512V30.8843H14.7432V36.8843ZM26.9512 36.8843C31.8696 36.8843 35.2389 37.8686 37.4301 39.4519L40.9442 34.5886C37.3487 31.9906 32.5607 30.8843 26.9512 30.8843V36.8843ZM37.4301 39.4519C39.3906 40.8685 40.5272 43.0334 40.5272 46.5123H46.5272C46.5272 41.5165 44.7704 37.3534 40.9442 34.5886L37.4301 39.4519ZM59.7453 66.6163L58.3819 63.944L58.3707 63.9497L58.3595 63.9555L59.7453 66.6163ZM58.5413 61.6883L57.4539 64.4843H57.454L58.5413 61.6883ZM54.0613 60.2883L54.853 57.3946L54.8455 57.3926L54.838 57.3905L54.0613 60.2883ZM49.2453 58.4403L47.8187 61.0794L47.8261 61.0834L47.8335 61.0873L49.2453 58.4403ZM45.9973 55.5563L43.4829 57.1926L43.4919 57.2065L43.5011 57.2204L45.9973 55.5563ZM46.3333 46.4283L48.7723 48.1751L46.3333 46.4283ZM50.7013 43.1803L51.834 45.9582L51.8456 45.9535L51.857 45.9487L50.7013 43.1803ZM64.6733 43.0123L63.6762 45.8417L63.6924 45.8474L63.7085 45.8529L64.6733 43.0123ZM69.7973 45.5883L72.281 47.2708L73.9083 44.8686L71.5618 43.1621L69.7973 45.5883ZM66.2693 50.7963L64.6862 53.3446L67.1357 54.8662L68.753 52.4788L66.2693 50.7963ZM62.2933 48.9763L61.3559 51.826L61.3728 51.8316L61.3899 51.837L62.2933 48.9763ZM54.7893 48.8643L56.2158 51.5034L56.2281 51.4967L56.2403 51.49L54.7893 48.8643ZM54.2853 51.8883L52.1103 53.9545L52.1633 54.0103L52.219 54.0633L54.2853 51.8883ZM56.3573 53.0083L55.27 55.8043L55.2926 55.8131L55.3153 55.8215L56.3573 53.0083ZM60.7813 54.4083L59.9498 57.2907L59.959 57.2934L59.9682 57.296L60.7813 54.4083ZM65.7933 56.2843L64.4516 58.9675L64.4586 58.971L64.4656 58.9745L65.7933 56.2843ZM69.1253 59.1403L66.6171 60.7862L66.6231 60.7953L66.6291 60.8044L69.1253 59.1403ZM68.3693 69.2763L70.6163 71.264L70.6226 71.2569L70.6288 71.2497L68.3693 69.2763ZM63.2453 72.5523L62.2742 69.7138L63.2453 72.5523ZM48.6293 72.4123L47.5811 75.2232L48.6293 72.4123ZM43.0013 69.1643L40.7639 67.1657L38.7361 69.4358L41.0355 71.4304L43.0013 69.1643ZM47.4533 64.1803L49.2898 61.8081L47.0787 60.0963L45.2159 62.1817L47.4533 64.1803ZM51.3733 66.4203L50.2346 69.1958L50.247 69.2008L51.3733 66.4203ZM56.1893 70.3163C57.9406 70.3163 59.6558 70.0454 61.1311 69.277L58.3595 63.9555C58.0428 64.1205 57.3873 64.3163 56.1893 64.3163V70.3163ZM61.1087 69.2885C61.9266 68.8713 62.7124 68.2597 63.2858 67.3821C63.8695 66.4887 64.1173 65.4956 64.1173 64.5163H58.1173C58.1173 64.5033 58.1191 64.4477 58.1426 64.3636C58.1669 64.2771 58.2072 64.1855 58.2628 64.1004C58.3788 63.9228 58.4787 63.8946 58.3819 63.944L61.1087 69.2885ZM64.1173 64.5163C64.1173 63.2872 63.7585 62.051 62.8982 61.0096L58.2724 64.8309C58.2126 64.7585 58.1657 64.6722 58.1382 64.5899C58.1125 64.5127 58.1173 64.4795 58.1173 64.5163H64.1173ZM62.8982 61.0096C62.0335 59.9629 60.7428 59.3255 59.6286 58.8922L57.454 64.4843C57.8507 64.6386 58.1076 64.768 58.2596 64.8596C58.424 64.9587 58.3817 64.9632 58.2724 64.8309L62.8982 61.0096ZM59.6286 58.8922C58.4731 58.4429 56.86 57.9437 54.853 57.3946L53.2696 63.1819C55.2199 63.7155 56.5935 64.1497 57.4539 64.4843L59.6286 58.8922ZM54.838 57.3905C53.2093 56.954 51.8232 56.4151 50.6571 55.7932L47.8335 61.0873C49.4674 61.9587 51.292 62.6519 53.2846 63.186L54.838 57.3905ZM50.6718 55.8011C49.6727 55.261 48.9767 54.6171 48.4934 53.8922L43.5011 57.2204C44.5858 58.8474 46.0553 60.1261 47.8187 61.0794L50.6718 55.8011ZM48.5117 53.9199C48.1342 53.3399 47.8493 52.4794 47.8493 51.1603H41.8493C41.8493 53.3505 42.3297 55.4207 43.4829 57.1926L48.5117 53.9199ZM47.8493 51.1603C47.8493 49.9843 48.1644 49.0238 48.7723 48.1751L43.8943 44.6814C42.5235 46.5954 41.8493 48.7895 41.8493 51.1603H47.8493ZM48.7723 48.1751C49.3657 47.3465 50.3186 46.5761 51.834 45.9582L49.5685 40.4023C47.2387 41.3524 45.2795 42.7474 43.8943 44.6814L48.7723 48.1751ZM51.857 45.9487C53.3132 45.3408 55.2471 44.9763 57.7573 44.9763V38.9763C54.7048 38.9763 51.9347 39.4144 49.5455 40.4118L51.857 45.9487ZM57.7573 44.9763C60.1575 44.9763 62.111 45.2902 63.6762 45.8417L65.6703 40.1828C63.3156 39.353 60.6585 38.9763 57.7573 38.9763V44.9763ZM63.7085 45.8529C65.4502 46.4444 66.8782 47.1748 68.0328 48.0145L71.5618 43.1621C69.8417 41.9111 67.8537 40.9241 65.638 40.1716L63.7085 45.8529ZM67.3135 43.9057L63.7855 49.1137L68.753 52.4788L72.281 47.2708L67.3135 43.9057ZM67.8523 48.2479C66.4023 47.3471 64.8479 46.6369 63.1967 46.1155L61.3899 51.837C62.576 52.2116 63.6723 52.7147 64.6862 53.3446L67.8523 48.2479ZM63.2307 46.1265C61.5215 45.5642 59.7774 45.2763 58.0093 45.2763V51.2763C59.1158 51.2763 60.2278 51.455 61.3559 51.826L63.2307 46.1265ZM58.0093 45.2763C56.4021 45.2763 54.7151 45.4776 53.3382 46.2385L56.2403 51.49C56.2313 51.495 56.3449 51.4329 56.6652 51.3745C56.9784 51.3173 57.4182 51.2763 58.0093 51.2763V45.2763ZM53.3627 46.2251C52.633 46.6196 51.9424 47.1992 51.4473 48.0154C50.9497 48.8358 50.7533 49.7244 50.7533 50.5723H56.7533C56.7533 50.6547 56.7296 50.8761 56.5773 51.1271C56.4275 51.374 56.2549 51.4823 56.2158 51.5034L53.3627 46.2251ZM50.7533 50.5723C50.7533 51.8637 51.2387 53.0371 52.1103 53.9545L56.4603 49.822C56.5194 49.8842 56.6031 49.9953 56.6676 50.1549C56.7326 50.3157 56.7533 50.4643 56.7533 50.5723H50.7533ZM52.219 54.0633C53.0447 54.8477 54.2102 55.3922 55.27 55.8043L57.4446 50.2122C57.0169 50.0459 56.7133 49.9051 56.5098 49.7951C56.2891 49.6758 56.274 49.6396 56.3515 49.7133L52.219 54.0633ZM55.3153 55.8215C56.4285 56.2338 57.9875 56.7247 59.9498 57.2907L61.6128 51.5258C59.6924 50.9718 58.3021 50.5294 57.3992 50.195L55.3153 55.8215ZM59.9682 57.296C61.7532 57.7985 63.2392 58.3613 64.4516 58.9675L67.1349 53.601C65.51 52.7885 63.6547 52.1006 61.5943 51.5205L59.9682 57.296ZM64.4656 58.9745C65.4831 59.4766 66.161 60.0912 66.6171 60.7862L71.6334 57.4943C70.5215 55.8 68.9781 54.5106 67.1209 53.594L64.4656 58.9745ZM66.6291 60.8044C66.9829 61.3351 67.3013 62.2526 67.3013 63.8163H73.3013C73.3013 61.4972 72.8356 59.2975 71.6214 57.4762L66.6291 60.8044ZM67.3013 63.8163C67.3013 65.3385 66.8687 66.4339 66.1098 67.3028L70.6288 71.2497C72.4459 69.1693 73.3013 66.6247 73.3013 63.8163H67.3013ZM66.1223 67.2885C65.2295 68.2978 63.9884 69.1273 62.2742 69.7138L64.2164 75.3908C66.7581 74.5212 68.933 73.1668 70.6163 71.264L66.1223 67.2885ZM62.2742 69.7138C60.4962 70.322 58.4956 70.6443 56.2453 70.6443V76.6443C59.0723 76.6443 61.7383 76.2385 64.2164 75.3908L62.2742 69.7138ZM56.2453 70.6443C53.6513 70.6443 51.4794 70.2732 49.6774 69.6013L47.5811 75.2232C50.1845 76.194 53.0899 76.6443 56.2453 76.6443V70.6443ZM49.6774 69.6013C47.7623 68.8872 46.2091 67.9754 44.9671 66.8981L41.0355 71.4304C42.8922 73.0411 45.091 74.2947 47.5811 75.2232L49.6774 69.6013ZM45.2387 71.1628L49.6907 66.1788L45.2159 62.1817L40.7639 67.1657L45.2387 71.1628ZM45.6168 66.5524C47.0029 67.6256 48.5476 68.5037 50.2346 69.1958L52.512 63.6448C51.287 63.1422 50.2183 62.5269 49.2898 61.8081L45.6168 66.5524ZM50.247 69.2008C52.1108 69.9558 54.1026 70.3163 56.1893 70.3163V64.3163C54.804 64.3163 53.5851 64.0794 52.4996 63.6397L50.247 69.2008Z" fill="#5372C0" mask="url(#path-1-outside-1_50_75)"/>
<rect x="2" y="2" width="82.708" height="83.4788" stroke="#5372C0" stroke-width="3"/>
<rect x="7.83838" y="7.89258" width="71.0316" height="71.6936" stroke="#5372C0" stroke-width="3"/>
</svg>
