<svg width="87" height="91" viewBox="0 0 87 91" fill="none" xmlns="http://www.w3.org/2000/svg">
<mask id="path-1-outside-1_50_93" maskUnits="userSpaceOnUse" x="10.6069" y="30.5155" width="63" height="46" fill="black">
<rect fill="white" x="10.6069" y="30.5155" width="63" height="46"/>
<path d="M42.0509 45.4955C42.0509 47.3435 41.7056 48.9582 41.0149 50.3395C40.3243 51.7208 39.3909 52.8875 38.2149 53.8395C37.0389 54.7915 35.7229 55.5568 34.2669 56.1355L44.4309 72.5155H34.0429L25.6429 57.6755H23.0389V72.5155H13.8549V33.7075H26.0629C31.3456 33.7075 35.3309 34.6688 38.0189 36.5915C40.7069 38.5142 42.0509 41.4822 42.0509 45.4955ZM32.5869 45.4955C32.5869 43.6288 32.0363 42.2755 30.9349 41.4355C29.8523 40.5768 28.2376 40.1475 26.0909 40.1475H23.0389V51.3755H26.4549C28.4523 51.3755 29.9736 50.9088 31.0189 49.9755C32.0643 49.0422 32.5869 47.5488 32.5869 45.4955ZM53.5931 42.7795V63.1355C53.5931 64.5728 53.8544 65.5622 54.3771 66.1035C54.9184 66.6448 55.6651 66.9155 56.6171 66.9155C57.5317 66.9155 58.4464 66.6262 59.3611 66.0475C60.2757 65.4688 61.0411 64.6848 61.6571 63.6955V42.7795H70.5051V72.5155H62.7771L62.3851 69.0435C61.3771 70.4995 60.0517 71.6008 58.4091 72.3475C56.7664 73.0942 55.0491 73.4675 53.2571 73.4675C50.3824 73.4675 48.2451 72.6368 46.8451 70.9755C45.4451 69.2955 44.7451 67.0462 44.7451 64.2275V42.7795H53.5931Z"/>
</mask>
<path d="M41.0149 50.3395L43.6982 51.6811L43.6982 51.6811L41.0149 50.3395ZM38.2149 53.8395L40.1025 56.1712L40.1025 56.1712L38.2149 53.8395ZM34.2669 56.1355L33.1589 53.3476L29.8279 54.6715L31.7178 57.7173L34.2669 56.1355ZM44.4309 72.5155V75.5155H49.8231L46.9801 70.9337L44.4309 72.5155ZM34.0429 72.5155L31.4322 73.9933L32.2938 75.5155H34.0429V72.5155ZM25.6429 57.6755L28.2537 56.1977L27.3921 54.6755H25.6429V57.6755ZM23.0389 57.6755V54.6755H20.0389V57.6755H23.0389ZM23.0389 72.5155V75.5155H26.0389V72.5155H23.0389ZM13.8549 72.5155H10.8549V75.5155H13.8549V72.5155ZM13.8549 33.7075V30.7075H10.8549V33.7075H13.8549ZM38.0189 36.5915L39.7643 34.1514V34.1514L38.0189 36.5915ZM30.9349 41.4355L29.0707 43.786L29.093 43.8036L29.1156 43.8209L30.9349 41.4355ZM23.0389 40.1475V37.1475H20.0389V40.1475H23.0389ZM23.0389 51.3755H20.0389V54.3755H23.0389V51.3755ZM31.0189 49.9755L29.0209 47.7377L31.0189 49.9755ZM39.0509 45.4955C39.0509 46.9685 38.7769 48.1073 38.3317 48.9979L43.6982 51.6811C44.6343 49.8091 45.0509 47.7185 45.0509 45.4955H39.0509ZM38.3317 48.9979C37.8284 50.0043 37.1635 50.8309 36.3273 51.5078L40.1025 56.1712C41.6184 54.9441 42.8201 53.4373 43.6982 51.6811L38.3317 48.9979ZM36.3273 51.5078C35.395 52.2625 34.3436 52.8768 33.1589 53.3476L35.3749 58.9234C37.1023 58.2369 38.6829 57.3205 40.1025 56.1712L36.3273 51.5078ZM31.7178 57.7173L41.8818 74.0973L46.9801 70.9337L36.8161 54.5537L31.7178 57.7173ZM44.4309 69.5155H34.0429V75.5155H44.4309V69.5155ZM36.6537 71.0377L28.2537 56.1977L23.0322 59.1533L31.4322 73.9933L36.6537 71.0377ZM25.6429 54.6755H23.0389V60.6755H25.6429V54.6755ZM20.0389 57.6755V72.5155H26.0389V57.6755H20.0389ZM23.0389 69.5155H13.8549V75.5155H23.0389V69.5155ZM16.8549 72.5155V33.7075H10.8549V72.5155H16.8549ZM13.8549 36.7075H26.0629V30.7075H13.8549V36.7075ZM26.0629 36.7075C31.0648 36.7075 34.3176 37.6324 36.2736 39.0316L39.7643 34.1514C36.3443 31.7052 31.6264 30.7075 26.0629 30.7075V36.7075ZM36.2736 39.0316C38.0011 40.2672 39.0509 42.2159 39.0509 45.4955H45.0509C45.0509 40.7485 43.4128 36.7612 39.7643 34.1514L36.2736 39.0316ZM35.5869 45.4955C35.5869 43.0435 34.8399 40.6408 32.7543 39.0501L29.1156 43.8209C29.2327 43.9102 29.5869 44.2142 29.5869 45.4955H35.5869ZM32.7991 39.085C30.9632 37.629 28.561 37.1475 26.0909 37.1475V43.1475C27.9142 43.1475 28.7413 43.5247 29.0707 43.786L32.7991 39.085ZM26.0909 37.1475H23.0389V43.1475H26.0909V37.1475ZM20.0389 40.1475V51.3755H26.0389V40.1475H20.0389ZM23.0389 54.3755H26.4549V48.3755H23.0389V54.3755ZM26.4549 54.3755C28.8785 54.3755 31.2274 53.8112 33.017 52.2133L29.0209 47.7377C28.7198 48.0065 28.026 48.3755 26.4549 48.3755V54.3755ZM33.017 52.2133C34.9491 50.4882 35.5869 47.9997 35.5869 45.4955H29.5869C29.5869 47.098 29.1794 47.5961 29.0209 47.7377L33.017 52.2133ZM53.5931 42.7795H56.5931V39.7795H53.5931V42.7795ZM54.3771 66.1035L52.2189 68.1873L52.2371 68.2062L52.2557 68.2248L54.3771 66.1035ZM59.3611 66.0475L60.965 68.5827V68.5827L59.3611 66.0475ZM61.6571 63.6955L64.2038 65.2812L64.6571 64.5531V63.6955H61.6571ZM61.6571 42.7795V39.7795H58.6571V42.7795H61.6571ZM70.5051 42.7795H73.5051V39.7795H70.5051V42.7795ZM70.5051 72.5155V75.5155H73.5051V72.5155H70.5051ZM62.7771 72.5155L59.796 72.8521L60.0967 75.5155H62.7771V72.5155ZM62.3851 69.0435L65.3661 68.7069L64.4692 60.7626L59.9185 67.3359L62.3851 69.0435ZM58.4091 72.3475L59.6505 75.0786L58.4091 72.3475ZM46.8451 70.9755L44.5404 72.8961L44.5457 72.9024L44.551 72.9087L46.8451 70.9755ZM44.7451 42.7795V39.7795H41.7451V42.7795H44.7451ZM50.5931 42.7795V63.1355H56.5931V42.7795H50.5931ZM50.5931 63.1355C50.5931 64.7253 50.8391 66.7582 52.2189 68.1873L56.5353 64.0197C56.7351 64.2267 56.7345 64.3593 56.6896 64.1893C56.6456 64.0227 56.5931 63.6911 56.5931 63.1355H50.5931ZM52.2557 68.2248C53.4897 69.4588 55.0744 69.9155 56.6171 69.9155V63.9155C56.4223 63.9155 56.3532 63.8876 56.3655 63.8921C56.3721 63.8945 56.393 63.903 56.4215 63.921C56.4503 63.9391 56.4768 63.9606 56.4984 63.9822L52.2557 68.2248ZM56.6171 69.9155C58.1966 69.9155 59.6596 69.4086 60.965 68.5827L57.7571 63.5123C57.2332 63.8438 56.8668 63.9155 56.6171 63.9155V69.9155ZM60.965 68.5827C62.2902 67.7444 63.3677 66.624 64.2038 65.2812L59.1104 62.1098C58.7144 62.7457 58.2613 63.1933 57.7571 63.5123L60.965 68.5827ZM64.6571 63.6955V42.7795H58.6571V63.6955H64.6571ZM61.6571 45.7795H70.5051V39.7795H61.6571V45.7795ZM67.5051 42.7795V72.5155H73.5051V42.7795H67.5051ZM70.5051 69.5155H62.7771V75.5155H70.5051V69.5155ZM65.7581 72.1789L65.3661 68.7069L59.404 69.3801L59.796 72.8521L65.7581 72.1789ZM59.9185 67.3359C59.225 68.3375 58.3268 69.0895 57.1676 69.6164L59.6505 75.0786C61.7766 74.1122 63.5291 72.6615 64.8516 70.7511L59.9185 67.3359ZM57.1676 69.6164C55.9121 70.1871 54.6178 70.4675 53.2571 70.4675V76.4675C55.4804 76.4675 57.6207 76.0012 59.6505 75.0786L57.1676 69.6164ZM53.2571 70.4675C50.9624 70.4675 49.7984 69.8246 49.1391 69.0423L44.551 72.9087C46.6918 75.4491 49.8024 76.4675 53.2571 76.4675V70.4675ZM49.1497 69.055C48.3155 68.0539 47.7451 66.5508 47.7451 64.2275H41.7451C41.7451 67.5415 42.5746 70.5371 44.5404 72.8961L49.1497 69.055ZM47.7451 64.2275V42.7795H41.7451V64.2275H47.7451ZM44.7451 45.7795H53.5931V39.7795H44.7451V45.7795Z" fill="#5372C0" mask="url(#path-1-outside-1_50_93)"/>
<rect x="2" y="2.00012" width="82.708" height="83.4788" stroke="#5372C0" stroke-width="3"/>
<rect x="7.83838" y="7.8927" width="71.0316" height="71.6936" stroke="#5372C0" stroke-width="3"/>
</svg>
