<svg width="644" height="501" viewBox="0 0 644 501" fill="none" xmlns="http://www.w3.org/2000/svg">
<path d="M5.13965 394.64C26.3996 404.52 48.8896 414.63 72.2496 412.64C89.4196 411.18 116.34 393.27 133.17 389.6C154.09 385.03 175.93 397.11 196.94 401.3C216.07 405.12 235.98 410.65 254.69 405.11C271.26 400.2 284.35 387.23 300.59 381.34C348.66 363.89 401.48 413.22 450.21 397.7C465.82 392.73 479.32 381.36 495.58 379.38C520.52 376.34 542.16 395.87 566.45 402.29C587.21 407.78 609.86 403.25 628.49 392.56" stroke="#5372C0" stroke-width="5" stroke-miterlimit="10" stroke-linecap="round"/>
<path d="M3.98047 425.71C23.4005 448.3 58.6605 456.08 88.3305 453.4C118 450.72 141.35 430.2 171.07 432.33C201.18 434.49 238.81 456.28 266.28 443.76C275.87 439.39 283.94 432.23 293.34 427.46C316.75 415.58 344.92 419.93 370.3 426.68C395.67 433.43 416.51 446.41 442.53 442.87C464.56 439.88 489.83 424.06 511.99 422.33C533.46 420.65 554.351 435.56 575.391 440.19C596.431 444.82 620.59 438.47 637.17 424.73" stroke="#5372C0" stroke-width="5" stroke-miterlimit="10" stroke-linecap="round"/>
<path d="M641.32 475.3C630.17 490.04 607.23 488.63 590.39 481.02C573.55 473.41 558.46 461.09 540.25 457.94C499.31 450.87 461.99 492.31 420.85 486.48C392.69 482.49 369.84 456.83 341.41 457.7C311.52 458.61 288.31 488.74 258.4 488.9C231.19 489.05 196.4 464.04 169.5 468.13C152.4 470.73 129.38 484.49 113.7 491.78C95.5304 500.22 76.2004 499.61 56.9104 494.21C37.6204 488.81 20.9304 478.96 3.44043 469.19" stroke="#5372C0" stroke-width="5" stroke-miterlimit="10" stroke-linecap="round"/>
<path d="M227.11 406.47C223.77 360.11 204.25 315.08 172.71 280.94C156.55 263.45 137.44 248.81 121.79 230.86C109.53 216.79 99.5603 200.85 91.0203 184.26C81.9703 166.67 74.3303 146.71 78.9103 127.47C83.1903 109.53 101.58 94.4599 118.58 99.2699C119.81 99.6199 120.84 98.3299 120.29 97.1799C115.4 86.9899 116.89 74.4599 119.47 63.1899C122.35 50.5999 127.32 38.3899 128.18 25.5099C128.51 20.5599 128.29 15.3299 130.68 10.9899C134.22 4.55994 142.48 2.15993 149.8 2.71993C169.74 4.25993 183.93 21.7399 198.97 34.9199C225.8 58.4299 262.58 72.4299 279.77 103.69C288.85 95.0099 306.41 99.0499 310.79 110.82C344.64 93.0799 386.92 97.3699 421.16 114.32C455.41 131.28 482.78 159.44 506.78 189.18C542.88 233.9 572.84 283.17 602.7 332.28C610.45 345.03 618.2 357.78 625.95 370.52C614.97 360.01 600.85 352.82 585.88 350.12C580.99 349.24 575.86 348.84 571.15 350.4C556.66 355.17 553.8 374.07 553.47 389.32C551 372.68 539.51 356.62 523.14 352.71C506.78 348.8 487.3 360.84 486.78 377.65C486.21 361.33 465.8 351.2 450.3 356.37C434.81 361.54 424.88 377.01 420.37 392.71C417.11 377.34 403.99 364.55 388.54 361.68C373.09 358.81 356.25 366.04 347.69 379.21" stroke="#5372C0" stroke-width="4" stroke-miterlimit="10"/>
<path d="M265.02 339.41C270.87 328.28 264.75 315.44 257.14 306.81C241.07 289.2 225.39 271.06 211.33 251.79C183.15 213.19 157.34 172.91 133.14 131.71C127.37 121.19 122.19 110.26 118.44 98.7399L122.25 97.5399C125.74 108.77 130.66 119.58 136.22 130.05C159.75 171.42 185 212.07 212.54 250.91C226.31 270.35 241.72 288.69 257.52 306.5C265.04 315.27 271.06 328.33 265.01 339.42L265.02 339.41Z" fill="#5372C0"/>
<path d="M109.32 131.56C103.95 133.03 101.67 139.56 102.81 144.57C104.04 149.87 107.96 153.96 111.94 157.49C128.41 172.15 146.57 184.75 163.91 198.34C172.52 205.28 181.07 212.3 189.04 220L188.79 220.31C179.44 214.37 170.43 208.01 161.47 201.51C143.8 188.2 126.82 173.98 110.57 158.95C104.57 153.45 98.5502 144.66 102.82 136.42C104.08 133.88 106.38 131.72 109.2 131.16L109.29 131.55L109.32 131.56Z" fill="#5372C0"/>
<path d="M167.02 38.9899C178.65 57.2299 169.04 68.8399 148.88 68.8399C145.51 68.9399 141.62 68.7399 139 66.1899C136.69 63.9799 135.77 59.7699 138.29 57.2399C140.79 54.5999 144.82 55.4799 147.66 54.2299C150 53.3599 152.59 50.1199 151.61 47.9399C151.15 46.5999 149.31 45.3999 147.42 45.1699C144.08 44.7699 140.83 46.5899 137.76 47.9099C134.88 49.3899 130.95 49.3899 129.63 45.6599C129.14 44.3799 129.02 43.1999 128.64 41.9299C128.01 39.5599 127.11 37.1699 126.68 34.6499L127.06 34.5399C128.05 36.8199 129.29 38.9799 130.36 41.2999C131.15 42.7999 131.62 45.9799 133.62 46.0099C135.14 46.0099 137.37 44.3399 139.68 43.2099C142.02 42.0499 144.69 40.9699 147.87 41.1899C155.64 41.9499 158.78 49.9999 152.87 55.3899C151.21 56.9099 149.12 57.9299 146.9 58.2899C144.57 58.8199 141.1 58.0199 140.05 60.4399C139.24 65.2199 144.92 66.3599 148.87 66.2399C153.76 66.2899 158.74 65.9599 163.12 64.0699C170.59 60.9699 172.24 53.1199 169.7 45.9799C168.97 43.6199 167.9 41.3699 166.68 39.1999L167.02 38.9899Z" fill="#5372C0"/>
<path d="M169.56 81.9099C171.79 78.7699 174.34 76.6599 177.43 74.5599C178.44 73.9099 179.5 73.2699 180.87 72.7199C180.87 74.2099 180.4 75.5099 179.75 76.6899C177.71 80.1599 173.7 82.6599 169.56 81.9199V81.9099Z" fill="#5372C0"/>
<path d="M181.91 93.41C186.18 89.42 190.55 86.53 195.91 84.21C194.73 90.3 187.96 94.73 181.91 93.41Z" fill="#5372C0"/>
<path d="M193.34 108.04C199.79 105.14 204.34 100.49 207.17 94.0099C210.57 101.76 201.14 111.31 193.34 108.04Z" fill="#5372C0"/>
<path d="M206.66 122.5C212.11 117.97 216.19 113.28 219.97 107.29C221.95 114.91 214.46 123.44 206.66 122.5Z" fill="#5372C0"/>
<path d="M216.39 130.64C223.83 126.82 229.66 121.86 234.67 115.16C235.16 124.3 225.32 132.61 216.39 130.64Z" fill="#5372C0"/>
<path d="M231.4 140.8C237.82 138.5 243.31 135.19 247.89 130.23C249.39 128.63 250.75 126.86 252.19 124.85C252.6 134.98 241.07 143.8 231.4 140.8Z" fill="#5372C0"/>
<path d="M276.63 142.65C276.83 147.76 275.64 152.92 272.14 156.9C268.72 160.82 261.62 162.88 257.69 158.71C260.19 159.16 262.31 158.67 264.22 157.82C270.71 155.01 272.8 148.19 276.63 142.65Z" fill="#5372C0"/>
<path d="M273.94 169.44C277.99 166.03 283.12 162.77 287.42 159.76C288.95 158.74 290.5 157.7 292.32 156.73C291.81 158.73 290.79 160.49 289.57 162.05C285.84 166.65 279.99 169.93 273.94 169.44Z" fill="#5372C0"/>
<path d="M282.73 181.33C289.25 181.09 293.5 176.64 297.04 171.69C298.3 170 299.55 168.18 301.16 166.49C300.94 171.18 299.39 175.69 296.06 179.16C292.81 182.56 286.66 184.52 282.72 181.33H282.73Z" fill="#5372C0"/>
<path d="M242.89 150.86C250.27 148.17 256.13 144.11 261.29 138.17C261.53 146.93 251 154.17 242.89 150.86Z" fill="#5372C0"/>
<path d="M332.02 105.23C325.95 114.93 322.31 125.23 320.88 136.57C316.44 125.45 321.58 111.06 332.02 105.23Z" fill="#5372C0"/>
<path d="M355.55 104.23C347.94 103.27 341.58 121.22 340.2 127.27C339.39 130.51 338.93 133.83 338.47 137.35C334.88 127.11 338.2 115.1 345.5 107.26C347.91 104.74 352.14 102.06 355.55 104.23Z" fill="#5372C0"/>
<path d="M372.12 105.54C369.17 110.05 366.3 114.17 363.78 118.81C361.57 122.7 358.87 128.79 356.98 132.93C355.5 122.02 362.11 110.1 372.12 105.54Z" fill="#5372C0"/>
<path d="M398.05 114.44C397.59 113.7 396.87 113.57 396.21 113.71C394.41 114.05 393.201 115.51 391.951 116.8C389.631 119.3 387.5 121.99 385.71 124.86C382.34 130.11 380.171 135.69 378.351 141.78C376.361 131.94 381.221 121.34 389.071 115.34C391.141 113.81 393.54 112.06 396.27 112.61C397.15 112.75 398.08 113.51 398.05 114.44Z" fill="#5372C0"/>
<path d="M418.07 123.37C411.76 128.01 409.16 134.95 407.23 142.22C406.53 144.68 405.88 147.23 404.83 149.77C403.07 141.83 404.21 132.44 410.5 126.69C412.6 124.8 415.3 123.42 418.07 123.37Z" fill="#5372C0"/>
<path d="M436.43 134.95C431.12 139.56 426.68 144.42 423.3 150.53C422.18 152.51 421.19 154.58 420.11 156.86C418.06 146.91 426.31 135.86 436.42 134.95H436.43Z" fill="#5372C0"/>
<path d="M457.33 149.18C449.24 149.75 444.03 155.83 440.23 162.37C438.87 164.61 437.57 166.99 435.89 169.26C436.16 163.59 437.77 158.02 441.5 153.56C445.14 149.19 452.08 146.18 457.33 149.18Z" fill="#5372C0"/>
<path d="M469.39 160.68C461.78 161.6 455.05 165.54 451.75 172.5C450.66 174.72 449.9 177.15 449.42 179.91C444.43 168.14 457.82 155.27 469.39 160.67V160.68Z" fill="#5372C0"/>
<path d="M479.97 174.93C472.97 179.22 467.92 184.85 464.36 192.25C461.97 183.41 470.93 173.49 479.97 174.93Z" fill="#5372C0"/>
<path d="M494.09 194.06C492.65 192.83 490.96 192.97 489.52 193.84C485.3 197.07 482.31 202.07 478.82 206.29C478.18 200.23 482.48 192.7 488.46 190.89C490.68 190.23 494.03 191.52 494.09 194.06Z" fill="#5372C0"/>
<path d="M504.52 209.26C499.25 214.87 495.01 220.31 490.81 226.77C489.41 218.63 496.29 209.87 504.52 209.26Z" fill="#5372C0"/>
<path d="M523.59 231.03C516.85 230.77 512.37 235.51 509 240.73C507.78 242.53 506.6 244.47 505.04 246.3C505.08 241.46 506.49 236.71 509.88 233.06C513.17 229.46 519.71 227.48 523.6 231.03H523.59Z" fill="#5372C0"/>
<path d="M335.79 376.85C343.23 341.01 342.61 303.36 333.85 267.5C343.89 303.01 345.96 340.91 339.72 377.59L335.79 376.85Z" fill="#5372C0"/>
<path d="M351.05 371.97C360.93 333.65 349.9 293.9 338.97 256.94C351.31 293.9 363.7 333.77 354.93 372.96L351.05 371.97Z" fill="#5372C0"/>
<path d="M403.66 368.2C414.28 332.06 394.35 296.59 389.68 261.09C391.23 270.14 393.72 278.98 396.39 287.75C404.35 313.94 414.83 341.65 407.52 369.29L403.67 368.2H403.66Z" fill="#5372C0"/>
<path d="M426.27 372.34C419.2 334.6 409.34 297.35 398.12 260.55C410.61 296.95 421.77 333.87 430.19 371.54L426.27 372.34Z" fill="#5372C0"/>
<path d="M474.37 358.66C473.62 325.19 467.79 291.73 457.1 259.79C469.05 291.28 476.26 324.67 478.36 358.49L474.36 358.66H474.37Z" fill="#5372C0"/>
<path d="M492.18 361.03C482.41 328.61 474.65 295.72 466.89 262.8C475.92 295.31 484.99 327.91 495.98 359.79L492.18 361.04V361.03Z" fill="#5372C0"/>
<path d="M515.76 252.14C527.39 266.75 534.35 284.35 542.8 300.85C550.98 317.55 559.07 334.3 566.83 351.23L563.16 352.83C556.04 335.69 548.56 318.68 540.99 301.7C533.15 284.92 526.86 267.16 515.77 252.15L515.76 252.14Z" fill="#5372C0"/>
<path d="M504.79 259.51C516.52 290.9 526.02 323.11 535.99 355.08L532.15 356.19C523.45 323.83 515.28 291.35 504.8 259.51H504.79Z" fill="#5372C0"/>
<path d="M537.96 248.28C559.13 282.96 579.9 317.91 602.23 351.78L598.86 353.93C577.58 319.23 557.98 283.63 537.96 248.28Z" fill="#5372C0"/>
<path d="M346.53 220.44C359.973 220.44 370.87 209.543 370.87 196.1C370.87 182.657 359.973 171.76 346.53 171.76C333.088 171.76 322.19 182.657 322.19 196.1C322.19 209.543 333.088 220.44 346.53 220.44Z" stroke="#5372C0" stroke-width="4" stroke-miterlimit="10"/>
<path d="M348.94 188.87C346.56 187.12 343.03 187.32 340.68 189.1C338.33 190.88 337.18 194.02 337.52 196.95C338.01 201.15 341.65 204.84 345.86 205.14C350.07 205.44 354.3 202.1 354.75 197.9C355.2 193.7 351.54 189.45 347.31 189.49" fill="#5372C0"/>
<path d="M609.8 359.23C615.13 370.28 620.47 381.32 625.8 392.37" stroke="#5372C0" stroke-width="4" stroke-miterlimit="10"/>
<path d="M113.37 190.62C117.94 196.35 124.21 200.18 131.39 201.65C123.88 203.15 115.46 197.99 113.37 190.62Z" fill="#5372C0"/>
<path d="M126.94 212.62C133.15 215.15 139.22 217.43 145.55 219.64C138.77 220.2 131.66 217.51 126.94 212.62Z" fill="#5372C0"/>
<path d="M144.47 233.94C147.76 237.43 151.92 239.74 156.63 240.5C158.17 240.74 159.75 240.81 161.44 240.75C155.41 244.19 146.47 240.59 144.48 233.95L144.47 233.94Z" fill="#5372C0"/>
<path d="M167.6 256.93C169.75 257.73 172.85 258.91 175.03 259.49C177.18 260.13 180.47 260.74 182.71 261.17C177.53 263.15 171 261.31 167.6 256.94V256.93Z" fill="#5372C0"/>
<path d="M182.64 272.9C184.7 273.29 187.31 274.05 189.33 274.55C191.35 275.08 193.99 275.66 195.99 276.31C191.43 277.86 185.9 276.44 182.64 272.9Z" fill="#5372C0"/>
<path d="M197.78 293.09C203.09 294.91 208.22 296.34 213.69 297.58C208.17 299.18 201.65 297.33 197.78 293.09Z" fill="#5372C0"/>
<path d="M214.53 314.46C218.79 314.64 222.8 315.15 226.96 316.09C223 317.95 217.88 317.27 214.53 314.46Z" fill="#5372C0"/>
<path d="M226.04 333.04C229.03 333.26 231.85 334.47 234.33 336.09C236.79 337.76 238.98 339.9 240.33 342.58C239.05 341.78 237.89 340.95 236.72 340.14C233.44 337.82 229.36 335.3 226.04 333.04Z" fill="#5372C0"/>
</svg>
