<svg width="30" height="30" viewBox="0 0 30 30" fill="none" xmlns="http://www.w3.org/2000/svg">
<g clip-path="url(#clip0_109_281)">
<path d="M14.6575 19.5249C17.206 19.5249 19.2719 17.4584 19.2719 14.9093C19.2719 12.3603 17.206 10.2938 14.6575 10.2938C12.1091 10.2938 10.0432 12.3603 10.0432 14.9093C10.0432 17.4584 12.1091 19.5249 14.6575 19.5249Z" stroke="#5372C0" stroke-width="2" stroke-miterlimit="10"/>
<path d="M10.4408 10.8939C11.0004 10.8939 11.4541 10.4401 11.4541 9.88037C11.4541 9.3206 11.0004 8.86682 10.4408 8.86682C9.88115 8.86682 9.42749 9.3206 9.42749 9.88037C9.42749 10.4401 9.88115 10.8939 10.4408 10.8939Z" fill="#5372C0"/>
<path d="M19.5851 11.2739C20.1447 11.2739 20.5984 10.8201 20.5984 10.2604C20.5984 9.70061 20.1447 9.24683 19.5851 9.24683C19.0254 9.24683 18.5718 9.70061 18.5718 10.2604C18.5718 10.8201 19.0254 11.2739 19.5851 11.2739Z" fill="#5372C0"/>
<path d="M9.5858 20.505C10.1454 20.505 10.5991 20.0512 10.5991 19.4915C10.5991 18.9317 10.1454 18.4779 9.5858 18.4779C9.02618 18.4779 8.57251 18.9317 8.57251 19.4915C8.57251 20.0512 9.02618 20.505 9.5858 20.505Z" fill="#5372C0"/>
<path d="M18.8146 21.2739C19.3742 21.2739 19.8278 20.8201 19.8278 20.2604C19.8278 19.7006 19.3742 19.2468 18.8146 19.2468C18.2549 19.2468 17.8013 19.7006 17.8013 20.2604C17.8013 20.8201 18.2549 21.2739 18.8146 21.2739Z" fill="#5372C0"/>
<path d="M12.8015 2.7926C12.5693 1.03648 14.8017 1.22477 15.5089 1.91982C16.4817 2.87882 15.6567 4.64021 15.3646 5.4039C14.8897 6.6462 14.756 8.16124 14.902 8.81055" stroke="#5372C0" stroke-width="2" stroke-miterlimit="10" stroke-linecap="round"/>
<path d="M13.0778 2.75747C13.0972 2.90879 12.9916 3.04957 12.8386 3.06892C12.6873 3.08828 12.5465 2.9827 12.5272 2.82961C12.5078 2.67828 12.6134 2.53751 12.7664 2.51816C12.9177 2.4988 13.0585 2.60438 13.0778 2.75747Z" fill="#5372C0"/>
<path d="M26.9894 13.6724C28.7591 13.6214 28.3457 15.8227 27.5822 16.4544C26.5302 17.3236 24.8625 16.3242 24.1325 15.9564C22.945 15.3564 21.4515 15.0695 20.79 15.1487" stroke="#5372C0" stroke-width="2" stroke-miterlimit="10" stroke-linecap="round"/>
<path d="M26.9983 13.9486C26.8452 13.9539 26.7168 13.8325 26.7133 13.6794C26.708 13.5263 26.8294 13.3979 26.9825 13.3943C27.1355 13.3891 27.2639 13.5105 27.2674 13.6636C27.2727 13.8166 27.1513 13.9451 26.9983 13.9486Z" fill="#5372C0"/>
<path d="M16.012 27.3007C16.1105 29.0691 13.8992 28.7137 13.2466 27.9676C12.3494 26.9382 13.3046 25.2437 13.6529 24.5046C14.2211 23.301 14.4674 21.8001 14.3707 21.142" stroke="#5372C0" stroke-width="2" stroke-miterlimit="10" stroke-linecap="round"/>
<path d="M15.7341 27.3166C15.7253 27.1635 15.8432 27.0315 15.9962 27.0245C16.1493 27.0174 16.2812 27.1336 16.2882 27.2867C16.297 27.4397 16.1792 27.5717 16.0261 27.5788C15.8731 27.5876 15.7411 27.4697 15.7341 27.3166Z" fill="#5372C0"/>
<path d="M2.03706 16.2555C0.267318 16.2767 0.719428 14.0806 1.49347 13.463C2.56129 12.6113 4.2114 13.6407 4.93443 14.0226C6.11132 14.6437 7.59959 14.9552 8.26104 14.8883" stroke="#5372C0" stroke-width="2" stroke-miterlimit="10" stroke-linecap="round"/>
<path d="M2.03348 15.9776C2.18653 15.9758 2.31319 16.099 2.31495 16.2521C2.31671 16.4051 2.19357 16.5318 2.04052 16.5336C1.88747 16.5354 1.76081 16.4122 1.75905 16.2591C1.75729 16.106 1.88044 15.9793 2.03348 15.9776Z" fill="#5372C0"/>
</g>
<defs>
<clipPath id="clip0_109_281">
<rect width="29.0476" height="30" fill="white"/>
</clipPath>
</defs>
</svg>
