<svg width="32" height="37" viewBox="0 0 32 37" fill="none" xmlns="http://www.w3.org/2000/svg">
<path d="M30.6454 21.5115C30.6153 21.4894 30.5858 21.4659 30.5557 21.4438C29.8281 21.794 29.0609 21.9875 28.2642 22.0919C27.8809 22.1427 27.4932 22.228 27.1313 22.3619C26.4751 22.6054 25.9594 23.0357 25.5857 23.6897C26.2029 23.5801 26.776 23.4779 27.3498 23.3749C27.3535 23.3918 27.3571 23.4087 27.3601 23.4264C26.7877 23.5992 26.2154 23.7721 25.6173 23.9523C25.7843 24.2834 26.0308 24.4997 26.3508 24.5482C26.7568 24.61 27.1813 24.6424 27.5881 24.599C28.3635 24.5158 29.0748 24.2208 29.5133 23.5492C29.937 22.9004 30.271 22.1934 30.6447 21.5115H30.6454ZM22.0444 22.2832C22.4637 22.2427 22.8683 22.2045 23.3332 22.1596C23.1169 21.9242 22.9433 21.7359 22.7704 21.5475C23.4862 21.833 23.8584 22.4627 24.3035 23.0615C24.2984 22.2096 23.6547 21.435 22.8742 21.2989C22.5748 21.2467 22.329 21.3416 22.1481 21.5792C21.9921 21.7837 21.9208 22.0103 22.0451 22.2832H22.0444ZM23.4244 22.2905C22.997 22.3398 22.5711 22.3972 22.1444 22.4516C22.4063 23.199 23.5737 23.6463 24.2623 23.3065C24.0262 22.982 23.7966 22.662 23.5598 22.3472C23.534 22.3126 23.4678 22.2861 23.4251 22.2905H23.4244ZM13.8508 12.4992C14.0818 11.5215 14.301 10.5917 14.521 9.66113C14.5342 9.66407 14.5482 9.66627 14.5622 9.66922C14.4114 10.6263 14.2606 11.5826 14.1061 12.5691C15.0359 12.2388 15.6627 11.6481 16.0541 10.8021C16.7779 9.23593 16.5646 7.73376 15.7142 6.24704C15.6708 6.34855 15.634 6.42727 15.6024 6.50745C15.2552 7.3858 14.7446 8.13615 13.945 8.67022C13.7684 8.78719 13.6088 8.93211 13.4499 9.07335C13.021 9.45441 12.8151 9.90389 12.9534 10.4961C13.1203 11.2118 13.4161 11.8599 13.8516 12.4992H13.8508ZM15.996 20.2146C16.2019 21.4755 16.4013 22.7378 16.5874 24.0024C16.6801 24.6306 16.6661 24.6328 17.2958 24.6703C17.3841 24.6755 17.4731 24.6858 17.5614 24.6939C18.631 24.7895 19.6999 24.9035 20.771 24.9749C21.5184 25.0249 22.2658 24.9837 22.9536 24.6291C23.0389 24.5857 23.1471 24.5019 23.1633 24.4209C23.2148 24.1539 23.228 23.8795 23.2574 23.6066C23.1338 23.561 23.0331 23.5279 22.936 23.4859C22.4409 23.2741 22.0775 22.9254 21.8575 22.4333C21.6979 22.0757 21.742 21.7359 21.9826 21.4328C22.2172 21.1371 22.5343 21.0194 22.9058 21.0907C23.0868 21.126 23.2611 21.1944 23.4708 21.2577C23.5605 20.4103 23.7385 19.5775 23.6966 18.7175C23.448 19.2222 23.0331 19.5172 22.5328 19.6923C21.3536 20.105 20.2398 19.9439 19.2107 19.2479C18.9613 19.0787 18.7509 18.8514 18.4853 18.6175C18.6759 18.5778 18.7877 18.5513 18.901 18.5307C19.5314 18.4159 20.028 18.1246 20.3083 17.5163C20.3848 17.3507 20.4878 17.1528 20.6349 17.0719C21.0307 16.8527 21.024 16.546 20.9159 16.1884C20.9129 16.1796 20.9122 16.17 20.913 16.1619C20.9313 16.0045 20.8409 15.9501 20.704 15.917C20.2384 15.8059 19.7764 15.6794 19.31 15.5712C18.9606 15.4903 18.6075 15.4293 18.1985 15.3483C18.3257 15.789 18.4339 16.1686 18.5442 16.5518C18.3522 16.7041 18.3257 16.5276 18.2867 16.4121C17.824 15.0401 17.774 13.6291 17.8939 12.2027C17.9145 11.9644 17.9741 11.7253 17.9616 11.4892C17.9116 10.5851 17.8284 9.68393 17.7777 8.77983C17.7379 8.07141 17.6658 7.35711 17.7188 6.65384C17.7953 5.64676 17.9807 4.64776 18.105 3.64362C18.1609 3.18973 18.1808 2.73216 18.2168 2.2768C18.1955 2.27386 18.1742 2.27092 18.1536 2.26798C18.1249 2.41216 18.0999 2.55782 18.0675 2.70053C17.8843 3.49796 17.5231 3.75323 16.7147 3.6473C16.5492 3.62523 16.3858 3.57667 16.224 3.52959C15.9621 3.45382 15.826 3.28389 15.8297 3.00214C15.8356 2.62108 15.8312 2.24002 15.8312 1.85896C15.2743 3.51635 15.0654 5.22744 15.15 7.00768C15.3427 6.54791 15.5274 6.10506 15.7341 5.60997C16.1909 6.83922 16.9133 7.94194 16.6808 9.24917C16.9766 9.40586 17.223 9.5368 17.4694 9.66701C17.4606 9.6854 17.4533 9.70306 17.4444 9.71998C17.1884 9.64935 16.9324 9.57873 16.6823 9.50958C16.5867 9.89138 16.5013 10.2283 16.4042 10.6167C16.7441 10.5181 17.0354 10.4328 17.3275 10.3482C17.3267 10.3203 17.3245 10.293 17.3238 10.2658C17.1215 10.2048 16.9199 10.143 16.7183 10.0819C16.9192 10.051 17.1171 10.0444 17.3032 10.0871C17.3966 10.1084 17.5121 10.2084 17.5364 10.2952C17.5533 10.3578 17.4525 10.5027 17.3745 10.5321C17.095 10.6373 16.8081 10.7344 16.5146 10.783C16.3542 10.8102 16.2703 10.8543 16.199 10.9992C15.8863 11.6363 15.4428 12.1601 14.8042 12.4904C14.635 12.5779 14.6115 12.6971 14.6233 12.8567C14.7012 14.0043 14.2407 15.0276 13.8744 16.0715C13.8567 16.1208 13.7501 16.1384 13.6846 16.17C13.7986 15.6632 13.9509 15.2284 14.0892 14.7892C14.1142 14.7098 14.1157 14.5855 14.0693 14.5288C13.9612 14.3942 13.8185 14.2875 13.6912 14.1698C13.6559 14.2 13.6338 14.2155 13.6162 14.2346C13.5191 14.3383 13.4293 14.4501 13.3263 14.5465C12.498 15.3204 11.7771 16.2686 10.5206 16.312C10.3926 16.7858 10.3021 17.2492 10.1388 17.6862C9.98286 18.1018 9.97109 18.5094 9.9939 18.9404C10.0189 19.426 10.0454 19.9218 9.97035 20.3985C9.85339 21.1319 9.65182 21.8514 9.48042 22.5752C9.47086 22.6164 9.40024 22.6429 9.3583 22.6767C9.33109 22.6223 9.27297 22.5613 9.2818 22.5142C9.36125 22.0963 9.41863 21.6704 9.5481 21.2673C9.80116 20.4823 9.88649 19.693 9.77762 18.8764C9.7195 18.4402 9.77762 18.0202 9.94093 17.5986C10.0991 17.1918 10.1749 16.7534 10.2793 16.3576C9.54663 16.1553 8.86763 15.9692 8.17393 15.7779C8.07168 15.9898 7.98266 16.2245 7.85319 16.4341C7.53613 16.9469 7.56482 17.4405 7.77963 17.9988C8.32694 19.4201 8.79113 20.8457 8.8772 22.4112C8.97136 24.1149 9.90047 25.5737 10.7001 27.1009C11.5056 25.9158 12.5951 25.2044 13.9707 24.8579C13.9053 24.8336 13.8898 24.8241 13.8729 24.8219C13.7405 24.8057 13.6081 24.7917 13.4764 24.774C12.3877 24.6299 11.5829 24.1098 11.2783 23.0107C11.1591 22.5796 11.1408 22.1191 11.0974 21.6704C11.0326 20.9995 10.9936 20.3271 10.9274 19.6562C10.9053 19.4267 10.8333 19.2031 10.7663 18.8956C11.4468 19.4929 12.2185 19.7452 12.9512 20.0807C13.3432 20.2602 13.7221 20.4904 14.0612 20.756C15.2081 21.652 15.4714 22.5274 15.0558 23.9244C14.9808 24.1774 14.8888 24.4246 14.8013 24.685C15.3618 24.6571 15.9062 24.6291 16.4484 24.6012C16.2159 22.8717 15.9864 21.1591 15.7554 19.4466C15.8577 19.6967 15.9548 19.9527 15.9982 20.2175L15.996 20.2146ZM12.7915 21.7932C13.3977 22.6767 14.0039 23.5602 14.61 24.443C14.6343 24.4379 14.6586 24.4334 14.6828 24.4283C14.7814 24.0531 14.8962 23.6802 14.9756 23.2998C15.1338 22.5495 14.9263 21.908 14.3915 21.3519C13.8633 20.8023 13.2417 20.4154 12.5443 20.127C12.1111 19.9475 11.6932 19.7335 11.268 19.5356C11.2334 19.5194 11.1945 19.5113 11.1834 19.5076C11.2386 20.4426 11.2695 21.3717 11.3607 22.295C11.3975 22.6745 11.5248 23.0578 11.6792 23.4094C12.0404 24.2297 13.0858 24.6777 14.382 24.5813C13.8324 23.6529 13.2903 22.7363 12.7489 21.8197L12.7923 21.7925L12.7915 21.7932ZM11.8654 10.8367C12.15 10.7543 12.4347 10.6719 12.7297 10.5866C12.7297 10.5439 12.7408 10.4814 12.7283 10.4247C12.601 9.8752 12.7915 9.41984 13.1711 9.04393C13.4345 8.78277 13.7331 8.55399 14.0311 8.33109C14.4864 7.99049 14.8506 7.61017 14.8682 6.99003C14.8807 6.51996 14.9374 6.04988 14.9749 5.57099C14.8167 5.62836 14.7049 5.71149 14.6078 5.69678C14.1995 5.63793 13.7876 5.57393 13.394 5.45549C13.2822 5.42165 13.1799 5.20685 13.1564 5.06119C13.1174 4.8199 13.1461 4.56831 13.1461 4.32114C13.124 4.31599 13.102 4.31084 13.0792 4.30496C12.3148 6.58837 12.0728 9.00788 11.2489 11.3251C11.5387 11.3627 11.8006 11.4789 11.9735 11.3994C12.2383 11.2781 12.4789 11.2781 12.7621 11.292C12.5326 11.3457 12.3251 11.395 12.1177 11.4443C12.1191 11.4752 12.1206 11.5068 12.1221 11.5377C12.4671 11.565 12.7349 11.9365 13.1373 11.7518C13.0321 11.4583 12.9482 11.1861 12.8342 10.9272C12.8026 10.8565 12.6812 10.7786 12.6047 10.783C12.3619 10.7955 12.1214 10.8455 11.8793 10.8808C11.8749 10.8654 11.8705 10.8506 11.8661 10.8352V10.8367H11.8654ZM7.14257 27.387C8.05034 28.052 8.95885 28.7171 9.86737 29.3813C9.88943 29.3747 9.91297 29.3674 9.93578 29.3607C9.89238 29.0297 9.86222 28.6965 9.8041 28.3676C9.59591 27.1869 8.97209 26.3513 7.79655 25.9834C7.5685 25.9121 7.33972 25.8392 7.10799 25.7833C6.3878 25.6119 5.67718 25.4236 5.11147 24.9043C5.10338 24.8976 5.08131 24.905 5.05115 24.9072C5.19754 25.8098 5.32554 26.7139 5.494 27.6092C5.61686 28.2588 5.93686 28.823 6.39148 29.3048C6.70854 29.641 7.07636 29.9073 7.54717 29.9662C8.30193 30.0603 9.028 29.9206 9.77909 29.6616C8.86911 28.901 7.98855 28.1653 7.10799 27.4297C7.11976 27.4157 7.13153 27.4017 7.1433 27.387H7.14257ZM6.75856 9.07041C7.38533 8.53413 7.95692 8.04493 8.52777 7.55573C8.53807 7.56824 8.5491 7.58001 8.5594 7.59178C8.0165 8.15307 7.4736 8.71436 6.9307 9.27565C6.941 9.30949 6.95204 9.34259 6.96233 9.3757C7.4096 9.34554 7.87011 9.37276 8.30119 9.27271C9.88502 8.90489 10.9274 7.94341 11.36 6.35223C11.5336 5.71223 11.7248 5.07811 11.9249 4.38367C11.7557 4.49475 11.6447 4.56684 11.5351 4.64041C10.8914 5.07664 10.2036 5.40179 9.44364 5.59747C8.8978 5.73797 8.36519 5.9469 7.84584 6.16906C7.48464 6.32354 7.16316 6.57513 7.03001 6.96796C6.80638 7.62635 6.81153 8.31712 6.75783 9.07041H6.75856ZM2.92001 3.45824C3.82117 4.13282 4.69142 4.84933 5.56242 5.56289C6.11782 6.01752 6.35617 6.63177 6.39663 7.34093C6.41429 7.63665 6.49006 7.9287 6.58937 8.21486C6.63056 7.91325 6.67617 7.61164 6.71222 7.31003C6.7696 6.82892 7.0153 6.46846 7.39857 6.18524C7.88703 5.82552 8.44611 5.61071 9.02653 5.48712C10.1763 5.24363 11.1628 4.68969 12.0831 3.9901C12.1464 3.94229 12.2118 3.89815 12.334 3.81134C12.2942 3.95258 12.2707 4.03792 12.2457 4.12252C12.0095 4.92215 11.7602 5.71811 11.5395 6.52143C10.9951 8.50471 9.05301 9.8031 7.00868 9.5368C6.97411 9.53239 6.93879 9.5368 6.90201 9.5368C7.20951 10.4887 7.87011 10.9691 8.98902 11.0618C9.67831 11.1192 10.3676 11.1817 11.0922 11.245C11.3372 10.3078 11.5991 9.35142 11.8337 8.38921C12.114 7.24309 12.345 6.08446 12.651 4.94569C12.7606 4.53815 12.9762 4.13576 13.23 3.79589C13.6809 3.19267 14.7123 3.33391 14.9903 3.89741C15.0006 3.91801 15.0279 3.92905 15.0845 3.97539C15.1787 3.47295 15.2662 2.9992 15.3545 2.52471C15.3677 2.45556 15.3817 2.38568 15.3949 2.31653C15.6708 0.878359 16.8427 0.826865 17.7563 1.18806C18.3022 1.4036 18.4581 1.87662 18.4169 2.40701C18.3507 3.25594 18.275 4.10633 18.1492 4.9479C17.9653 6.17126 17.7983 7.39095 18.0418 8.6408C18.0888 8.37155 18.1631 8.10378 18.1786 7.83307C18.2264 6.9915 18.2455 6.14846 18.2889 5.30689C18.3 5.0965 18.3493 4.88537 18.4022 4.67939C18.631 3.79001 19.4225 3.49281 20.2016 3.99525C20.5378 4.21153 20.7312 4.53447 20.7894 4.90891C20.8762 5.46873 20.9291 6.03517 20.9586 6.60088C20.9858 7.12097 20.9644 7.64401 20.9644 8.13394C21.1866 8.09569 21.408 8.02948 21.6302 8.02433C22.0775 8.01404 22.3114 8.1516 22.4298 8.57827C22.5939 9.17487 22.7057 9.78692 22.8182 10.3968C22.9352 11.0324 23.0257 11.6731 23.1235 12.2896C23.8003 11.7658 24.4712 11.2626 25.1237 10.7352C25.5217 10.4137 25.6196 10.1768 25.8594 9.39556C26.0249 9.77809 26.2265 10.1496 26.35 10.5454C26.7208 11.7319 26.7068 12.92 26.2949 14.1014C25.9808 15.0004 25.3805 15.5315 24.4264 15.6566C24.1556 15.6919 23.8893 15.7662 23.5377 15.8397C26.122 17.5266 26.9077 19.8225 26.0631 22.7518C26.7407 22.1861 27.4866 21.9477 28.3002 21.8602C29.2536 21.7572 30.1606 21.5019 31 20.8899C30.9448 21.0863 30.9235 21.2356 30.8624 21.3673C30.5535 22.0345 30.2592 22.7106 29.912 23.3572C29.4331 24.2481 28.6224 24.6688 27.6521 24.8189C27.4682 24.8476 27.2814 24.8653 27.0952 24.8667C26.3986 24.8704 25.7704 24.7226 25.393 24.0266C25.3341 24.0987 25.2885 24.1495 25.2473 24.2047C24.739 24.8748 24.1078 25.3935 23.3494 25.7605C23.2574 25.8054 23.1714 25.9202 23.1383 26.021C22.9845 26.4829 22.9043 26.9773 22.6983 27.4142C22.2812 28.3 22.2606 29.2151 22.3747 30.1501C22.535 31.4625 22.7145 32.7726 22.8889 34.0835C22.9264 34.3675 22.8219 34.5632 22.5681 34.6912C21.1675 35.3974 19.7264 35.9881 18.1602 36.2073C16.7014 36.4111 15.2905 36.2904 14.073 35.3716C13.6566 35.0575 13.3278 34.6205 12.9857 34.2167C12.7893 33.985 12.6679 33.7039 12.7371 33.3788C12.7687 33.228 12.6826 33.1507 12.5642 33.0617C12.0544 32.6785 11.5351 32.3033 11.0665 31.8729C10.7766 31.6081 10.5405 31.2697 10.3389 30.9284C10.144 30.5973 10.0241 30.2214 9.86737 29.8558C9.28033 30.089 8.63664 30.1898 7.97604 30.2126C7.24703 30.2369 6.66808 29.9367 6.19065 29.4137C5.63525 28.8046 5.33511 28.0748 5.19386 27.2715C5.01658 26.263 5.00186 25.2235 4.63625 24.2348C4.77308 24.3444 4.91726 24.4452 5.04527 24.5637C5.58743 25.0661 6.22155 25.3743 6.94468 25.5229C7.29926 25.5958 7.64795 25.7076 7.99149 25.8253C9.08906 26.2019 9.71656 26.9927 9.97256 28.105C9.99463 28.1999 10.0138 28.2955 10.0373 28.4037C10.2094 28.0462 10.383 27.7056 10.5324 27.3547C10.5603 27.2899 10.5 27.1737 10.4559 27.095C9.80557 25.9312 9.22883 24.7351 8.83821 23.4543C8.6646 22.8864 8.64474 22.3089 8.61237 21.7226C8.55131 20.6111 8.13715 19.5805 7.76418 18.5461C7.65898 18.2541 7.56041 17.9598 7.44418 17.6722C7.31544 17.3544 7.3331 17.0491 7.47581 16.7446C7.60822 16.4636 7.74064 16.1825 7.87085 15.9008C7.90689 15.8228 7.93926 15.7426 7.98119 15.6455C6.93806 15.1585 6.00454 14.5435 5.14678 13.7263C5.64628 13.6534 6.109 13.6255 6.55038 13.5129C7.18303 13.3511 7.80096 13.1333 8.4211 12.9251C8.50717 12.8965 8.58956 12.7979 8.63149 12.7118C8.72566 12.5169 8.86911 12.4418 9.07876 12.4492C9.32373 12.4565 9.57017 12.4389 9.8144 12.4543C10.105 12.4713 10.3948 12.5147 10.6854 12.5389C10.7523 12.5448 10.8222 12.5205 10.8906 12.511C10.8347 12.4595 10.7854 12.3764 10.7222 12.3631C10.1484 12.2439 9.57605 12.1152 8.99711 12.0321C7.68473 11.843 6.92629 11.0603 6.59084 9.82517C6.52978 9.60007 6.43709 9.55593 6.22596 9.57432C5.61612 9.62655 5.00113 9.63538 4.39349 9.70453C3.72995 9.7803 3.25693 9.49855 2.88911 8.99243C2.39771 8.31565 2.1704 7.52925 2.03578 6.72005C1.93573 6.11683 1.88203 5.50478 1.82465 4.89567C1.77683 4.3947 1.67899 3.91654 1.41416 3.4781C1.27218 3.24343 1.15007 2.99479 1.03899 2.74393C0.997057 2.64904 1.01177 2.52913 1 2.42099C1.1074 2.4335 1.2332 2.41437 1.31853 2.46513C1.85996 2.78586 2.41978 3.086 2.92222 3.46191L2.92001 3.45824ZM6.41134 9.34701C5.69557 8.53045 5.02246 7.76098 4.34862 6.99297L4.41703 6.92603C5.09014 7.63813 5.76325 8.35022 6.43709 9.06232C6.45916 9.04393 6.48123 9.02553 6.50403 9.00714C6.49374 8.94829 6.48344 8.89018 6.47167 8.83206C6.36794 8.29284 6.22596 7.75803 6.16858 7.2144C6.10532 6.61265 5.85079 6.14258 5.42853 5.72915C4.39496 4.71691 3.22089 3.89153 2.01003 3.11469C1.78272 2.9683 1.54658 2.83442 1.31485 2.69538C1.31485 2.82485 1.35237 2.92122 1.40754 3.00582C1.86364 3.70247 2.03357 4.47783 2.07918 5.29806C2.10493 5.76593 2.16598 6.23453 2.24764 6.69577C2.37785 7.43215 2.58015 8.15013 3.00535 8.77983C3.34006 9.27565 3.77041 9.5905 4.41262 9.48163C4.534 9.46103 4.66126 9.47648 4.78485 9.46839C5.30862 9.43087 5.83313 9.39115 6.41134 9.34848V9.34701ZM26.0867 14.0389C26.417 13.1304 26.4839 12.202 26.3044 11.2597C26.2242 10.8396 26.0815 10.4313 25.9668 10.0179C25.9403 10.0201 25.9131 10.0231 25.8866 10.0245C25.6872 10.5542 25.2973 10.9205 24.8567 11.2405C24.6051 11.423 24.344 11.5922 24.0946 11.7783C23.52 12.205 23.0595 12.7251 22.8109 13.407C22.5328 14.1698 22.6748 14.8658 23.1662 15.5344C23.7937 14.5332 24.4065 13.5556 25.0193 12.5787C25.0347 12.5875 25.0502 12.5971 25.0649 12.6051C24.5205 13.6115 23.9754 14.6171 23.4171 15.6492C23.8033 15.5661 24.1446 15.4719 24.4933 15.4219C25.3275 15.302 25.8108 14.8018 26.0874 14.0396H26.0867V14.0389ZM23.4546 25.3964C25.5967 24.2348 26.6612 21.4659 25.8836 19.0758C25.4143 17.6325 24.4146 16.6511 23.1213 15.9368C21.9193 15.2733 20.6077 14.9283 19.2776 14.6399C18.901 14.5583 18.5214 14.4854 18.1227 14.4045C18.1227 14.4979 18.1197 14.5487 18.1227 14.6002C18.1484 15.0504 18.1499 15.043 18.5773 15.1446C19.4314 15.3461 20.2943 15.5212 21.1336 15.7713C22.3467 16.1325 23.4715 16.6798 24.3351 17.642C25.2863 18.7028 25.7527 19.9328 25.479 21.3666C25.2753 22.431 24.7302 23.3322 24.0188 24.1362C23.4524 24.7777 22.7351 25.1235 21.884 25.2103C20.7783 25.3236 19.6859 25.1698 18.5913 25.0617C17.3098 24.9344 16.0305 24.7946 14.741 24.9815C12.9982 25.2338 11.6005 26.018 10.7229 27.5893C10.2168 28.4949 9.93137 29.449 10.3933 30.462C10.8678 31.5022 11.7116 32.201 12.7084 32.8462C12.6797 32.6785 12.651 32.5836 12.6495 32.4887C12.6407 32.1525 12.4803 31.9502 12.192 31.7589C10.8487 30.8681 10.4676 29.3137 11.2261 27.9064C11.7057 27.0155 12.4634 26.4138 13.3896 26.0599C14.1407 25.7745 14.9234 25.5707 15.7002 25.3596C16.2468 25.2103 16.7912 25.2426 17.301 25.5295C17.3451 25.5546 17.3995 25.5707 17.451 25.5752C18.5905 25.6848 19.7286 25.815 20.871 25.89C21.7656 25.9489 22.6461 25.8348 23.4538 25.3971L23.4546 25.3964ZM24.5323 22.9291C25.7792 21.4034 25.3194 18.3416 23.7297 17.4831C23.7268 17.5104 23.7201 17.5376 23.7238 17.5619C23.7341 17.6229 23.7481 17.6832 23.7613 17.7436C23.9129 18.4049 23.9931 19.0677 23.8827 19.7467C23.8055 20.2278 23.751 20.7126 23.6959 21.1966C23.6856 21.2842 23.6892 21.4166 23.7422 21.46C24.2035 21.8396 24.4528 22.3303 24.5315 22.9291H24.5323ZM24.1056 23.6397H23.4744C23.4509 23.8773 23.431 24.0811 23.4112 24.2848C23.431 24.2937 23.4502 24.3032 23.47 24.3128C23.6716 24.0995 23.8732 23.8861 24.1064 23.6397H24.1056ZM22.7888 19.3406C23.729 18.8536 23.7341 17.6649 23.1228 17.0263C22.7182 17.3677 22.3129 17.7097 21.9068 18.0518C21.8943 18.0378 21.8825 18.0246 21.8707 18.0106C22.2047 17.6376 22.5402 17.2639 22.8837 16.8799C21.7361 16.5783 20.81 16.8557 20.4032 17.7649C20.1913 18.2379 19.7911 18.5116 19.2938 18.6455C19.193 18.6727 19.093 18.705 18.9657 18.7433C19.8772 19.721 21.589 19.9608 22.7874 19.3399H22.7888V19.3406ZM22.4291 13.1841C22.6608 13.1554 23.0029 12.7339 22.9639 12.5044C22.8234 11.6753 22.6741 10.8477 22.5277 10.0209C21.8877 10.2842 21.4595 10.2173 21.3117 9.82591C20.9534 8.87914 21.0387 8.70848 22.09 8.3642C21.7736 8.20677 21.4941 8.17146 21.2131 8.31491C20.9541 8.44732 20.9174 8.69082 20.9277 8.95344C20.9365 9.17561 20.9313 9.39703 20.9372 9.61919C20.9747 11.0206 21.0159 12.4212 21.052 13.8226C21.0586 14.097 21.0432 14.3721 21.052 14.6473C21.0542 14.712 21.102 14.815 21.1535 14.8341C21.6971 15.0386 22.2452 15.2299 22.8227 15.4359C22.4482 14.7922 22.3548 14.1286 22.563 13.4371C22.3982 13.3783 22.2562 13.3261 22.1142 13.2746C22.2261 13.2076 22.3268 13.1981 22.4276 13.1848H22.4291V13.1841ZM22.5556 27.1671C22.7388 26.7963 22.8116 26.3704 22.9492 25.9216C21.1785 26.4197 19.4785 26.0136 17.7512 25.8856C18.3647 26.8603 19.3394 27.2053 20.345 27.5724C20.234 27.6489 20.1582 27.7056 20.078 27.7556C19.4512 28.1425 18.7561 28.3066 18.0315 28.3632C17.2237 28.4257 16.4182 28.439 15.6326 28.1845C14.866 27.9358 14.0745 27.1487 14.3982 25.982C14.1333 26.0688 13.9031 26.132 13.6824 26.221C12.7798 26.5822 12.0095 27.1112 11.4975 27.966C11.4129 28.1072 11.4019 28.2146 11.5159 28.3434C11.7925 28.6545 12.0654 28.9701 12.3288 29.2916C12.3972 29.3755 12.4531 29.4851 12.473 29.591C12.5657 30.0883 12.6576 30.5856 12.7253 31.0858C12.8151 31.7435 12.9453 32.4048 12.9386 33.0632C12.9335 33.5973 13.0453 34.0416 13.3918 34.4263C13.6228 34.6823 13.8567 34.9457 14.1289 35.1524C15.3258 36.0602 16.6978 36.1978 18.1308 35.994C19.605 35.7843 20.9703 35.2422 22.2937 34.5808C22.7005 34.377 22.7145 34.3491 22.6527 33.9026C22.5034 32.8219 22.3445 31.742 22.2062 30.6599C22.0539 29.4711 21.9973 28.2948 22.5556 27.1678V27.1671ZM22.0936 9.9517C22.3085 9.91198 22.4784 9.80384 22.446 9.56843C22.4026 9.24108 22.3151 8.9196 22.2467 8.5974C21.2403 8.8019 21.2455 8.78057 21.4779 9.62876C21.4875 9.6626 21.4941 9.69791 21.5081 9.73028C21.5883 9.9311 21.7928 10.0069 22.0944 9.9517H22.0936ZM21.2175 16.6401C21.5919 16.6004 21.9347 16.5636 22.3519 16.5187C21.9171 16.3466 21.5441 16.198 21.1035 16.0236C21.152 16.2855 21.1866 16.4724 21.2182 16.6408H21.2175V16.6401ZM20.7916 14.7105C20.7916 13.5453 20.8019 12.3845 20.7879 11.2236C20.7776 10.3982 20.7158 9.57358 20.7077 8.7482C20.6989 7.84337 20.743 6.9378 20.7261 6.03296C20.7187 5.6085 20.6238 5.18551 20.5687 4.76252C20.5392 4.76546 20.5098 4.76841 20.4804 4.77135C20.4613 4.96997 20.4444 5.17006 20.4215 5.36869C20.3664 5.85126 20.103 6.14405 19.6366 6.1514C18.7928 6.16464 18.7443 6.29044 18.539 5.59379C18.5361 5.5857 18.5111 5.58423 18.4427 5.56363C18.4427 5.78726 18.45 5.99692 18.4412 6.2051C18.411 6.90543 18.4478 7.61826 18.3235 8.30167C18.1793 9.09542 18.1109 9.88182 18.1315 10.6822C18.1418 11.0713 18.1749 11.462 18.1617 11.8504C18.1425 12.3992 18.0734 12.9457 18.0565 13.4945C18.0381 14.1044 18.0535 14.1044 18.642 14.228C18.6685 14.2331 18.6935 14.2427 18.7193 14.2486C19.4167 14.4045 20.1148 14.5597 20.7923 14.7105H20.7916ZM20.2568 4.73383C20.2781 4.26229 20.1663 4.12031 19.6999 4.02762C19.6307 4.01364 19.5601 4.00114 19.4895 3.99378C19.0363 3.94082 18.6604 4.26376 18.6671 4.72059C18.67 4.9685 18.695 5.21788 18.7384 5.46138C18.8208 5.91821 18.8583 5.94101 19.3188 5.94837C19.9919 5.95867 20.1523 5.81963 20.2222 5.15829C20.2369 5.01705 20.2501 4.87581 20.256 4.73383H20.2568ZM19.8875 27.6394C19.6609 27.5489 19.5123 27.4908 19.3652 27.4297C18.7237 27.1649 18.1381 26.8125 17.7306 26.2372C17.1252 25.3817 16.1328 25.2655 14.9212 25.8643C15.495 26.1821 16.0585 26.4947 16.6212 26.8066C16.6146 26.8213 16.6073 26.8368 16.6006 26.8522C15.9518 26.5837 15.3022 26.3145 14.5946 26.0217C14.5725 26.2593 14.5188 26.4609 14.5416 26.6536C14.624 27.365 15.1948 27.9101 16.0342 28.0726C17.0604 28.2713 18.0837 28.2249 19.0922 27.9542C19.3453 27.8858 19.5837 27.7622 19.8875 27.6401V27.6394ZM17.9895 1.92443C18.0638 1.68241 17.977 1.54779 17.788 1.44848C17.3201 1.19983 16.8302 1.15275 16.3233 1.31753C16.1637 1.36903 16.0813 1.47128 16.0776 1.64857C16.0725 1.89648 16.0489 2.14365 16.0327 2.39156C16.0011 3.2986 16.2277 3.51415 17.1362 3.44279C17.44 3.41851 17.6695 3.28904 17.7482 2.98449C17.8395 2.63432 17.8836 2.27018 17.9895 1.92517V1.92443ZM14.8609 4.61024C14.9359 4.28951 14.8874 4.00261 14.6144 3.80031C14.3283 3.58844 14.0009 3.56858 13.6853 3.71865C13.5853 3.76647 13.4838 3.89741 13.4617 4.00629C13.4006 4.29981 13.3822 4.60142 13.3359 4.99351C13.3778 5.05972 13.4315 5.25245 13.5382 5.2885C13.8442 5.39149 14.1708 5.43636 14.4901 5.49301C14.6387 5.51949 14.7101 5.44372 14.7307 5.28703C14.7601 5.05972 14.8086 4.83461 14.8616 4.61024H14.8609ZM14.2098 14.289C14.4577 13.802 14.421 13.535 14.0789 13.1922C14.0097 13.1238 13.9376 13.0568 13.8751 12.9818C13.4072 12.4212 12.8106 12.0527 12.128 11.8158C11.3423 11.5421 10.5236 11.4546 9.70111 11.3847C8.8772 11.3148 8.02386 11.3435 7.33236 10.7535C7.62514 11.245 8.05623 11.5333 8.59913 11.6525C9.51573 11.8526 10.439 12.0255 11.3511 12.2447C12.2611 12.4632 13.0512 12.8906 13.6265 13.6652C13.7935 13.8896 14.009 14.0772 14.2098 14.2898V14.289ZM13.419 14.1095C13.4102 14.0838 13.4028 14.058 13.394 14.033H10.4905V13.972C11.2974 13.9263 12.1052 13.8807 12.9122 13.8351C12.3067 13.4813 11.6947 13.1686 11.0665 12.892C10.2889 12.5492 9.51794 12.5794 8.76538 13.0002C8.12538 13.3584 7.43609 13.5843 6.71443 13.7101C6.38412 13.7675 6.05162 13.8145 5.66909 13.8749C5.73088 13.9418 5.76104 13.9837 5.80003 14.0154C6.98146 14.9908 8.30414 15.683 9.80851 16.0104C10.6126 16.1848 11.3431 16.0568 11.9683 15.494C12.3443 15.1556 12.7194 14.8172 13.0895 14.4722C13.2086 14.3611 13.3094 14.2309 13.4175 14.1095H13.419ZM13.021 13.5887C13.0828 13.6152 13.1476 13.638 13.2763 13.6873C12.6959 12.9568 11.9463 12.6875 11.1687 12.4676C11.1408 12.4882 11.1128 12.5088 11.0841 12.5286C11.1341 12.5926 11.1709 12.6839 11.2364 12.717C11.7565 12.9803 12.281 13.2326 12.8048 13.4879C12.8761 13.5225 12.9475 13.5571 13.021 13.5887ZM12.598 31.6927C12.5429 31.3271 12.4958 31.0152 12.4494 30.7106C12.1456 30.7253 11.8676 30.7386 11.5615 30.7526C11.8205 31.1623 12.1523 31.4514 12.598 31.6927ZM12.3877 30.4524C12.3516 29.8838 12.2869 29.3497 11.7182 29.0268C11.474 29.2666 11.3122 29.5675 11.2548 29.9154C11.2187 30.1295 11.2364 30.3774 11.4666 30.4627C11.7646 30.5723 12.086 30.5723 12.3877 30.4532V30.4524ZM11.588 28.7936C11.4997 28.6781 11.4078 28.5582 11.3158 28.4383C11.2901 28.4449 11.2651 28.4508 11.2393 28.4566C11.1834 28.7936 11.1275 29.1305 11.0709 29.4674L11.1268 29.4784C11.2768 29.2555 11.4262 29.0326 11.5873 28.7936H11.588Z" stroke="#5372C0" stroke-width="0.5"/>
</svg>
