<svg width="31" height="30" viewBox="0 0 31 30" fill="none" xmlns="http://www.w3.org/2000/svg">
<path d="M8.44406 20.6186C9.17048 20.4073 10.0816 19.9192 10.8942 19.4234C10.8039 19.6232 10.7177 19.8231 10.6439 20.0153C10.5043 20.3765 9.2813 23.6702 9.74917 27.4827C9.93385 28.9892 10.3032 29.7271 10.9845 29.9424C11.1076 29.9808 11.2308 30 11.3539 30C12.0803 30 12.7575 29.3428 13.4675 28.6549L13.5619 28.5626C14.4894 27.6633 15.4416 23.8278 16.0038 21.1874C17.3213 23.9046 19.9725 26.0837 22.316 26.9715C22.751 27.1368 24.0766 27.6364 24.8236 26.9177C25.4844 26.2836 25.3448 25.1037 24.3557 22.9784C23.7935 21.7716 21.9671 19.7001 20.6005 18.2358C23.4487 18.624 27.3066 18.1167 27.3599 18.109C27.3928 18.109 30.4791 17.544 30.672 16.0913C30.8156 14.9921 29.2971 14.3887 28.8005 14.1927C26.851 13.4202 24.3106 13.3203 22.2749 13.4087C25.0165 11.6639 27.7704 8.95055 28.0043 7.96284C28.0864 7.60926 28.308 6.66766 27.6513 6.07581C27.085 5.56465 26.0959 5.50316 24.5404 5.88749C21.6224 6.60617 19.2051 8.73149 17.785 10.2457C17.863 9.37715 17.9328 8.25877 17.9574 6.94053C18.0067 4.28485 16.9806 1.25638 15.7166 0.318625C15.2405 -0.0349535 14.8178 -0.0311102 14.5469 0.0342249C12.9791 0.410863 12.3019 2.70144 12.1952 4.7153C12.1255 6.022 12.3142 8.71996 12.462 10.5071C11.4113 9.41943 9.89691 7.90519 8.76418 6.97512C6.76958 5.34174 4.15936 5.05734 3.06356 5.82215C2.09088 6.49856 2.73933 7.4709 3.42472 8.49705C3.75305 8.98898 4.16346 9.6039 4.54104 10.3303C5.34955 11.8906 8.01312 13.5855 9.73685 14.5578C8.00902 14.8538 5.37418 15.3611 3.76126 15.9606C1.92672 16.6409 0.408191 17.963 0.0675491 19.1736C-0.0719909 19.6694 0.00598736 20.1229 0.289172 20.4534C1.27006 21.591 7.15126 20.9953 8.44816 20.6186H8.44406ZM3.8023 6.74069C4.27427 6.42938 6.22373 6.42938 7.94746 7.8437C9.15407 8.83141 10.8614 10.5724 11.8833 11.6408C11.2595 12.0982 10.7383 12.74 10.4469 13.6201C8.70262 12.6401 6.28939 11.0797 5.64094 9.83065C5.23463 9.05048 4.80781 8.40481 4.45896 7.88982C4.17577 7.46706 3.83103 6.94822 3.79819 6.74453L3.8023 6.74069ZM26.7895 6.90595C26.8387 6.94822 26.9331 7.11348 26.7895 7.71303C26.5843 8.45093 22.7592 12.1981 19.7919 13.4318C19.4513 12.6247 18.9465 12.0597 18.4991 11.6908C18.4212 11.6255 18.335 11.564 18.2529 11.5063C19.4677 10.1227 21.922 7.72071 24.84 7.00203C26.4037 6.6177 26.7525 6.8752 26.7854 6.90595H26.7895ZM29.4448 15.9491C29.3956 16.2412 28.0576 16.8407 27.167 16.9676C25.5829 17.1982 21.8481 17.4172 19.9069 16.9368C20.1203 16.3911 20.2106 15.78 20.1695 15.0997C20.1613 14.9729 20.1408 14.8576 20.1285 14.7346C22.0041 14.5194 25.7963 14.2542 28.3121 15.2535C29.3586 15.6685 29.4407 15.9491 29.4407 15.9491H29.4448ZM23.9412 26.1145C23.9084 26.1491 23.5924 26.2106 22.7756 25.9031C20.346 24.9846 17.5593 22.521 16.681 19.5733C17.6578 19.2543 18.4253 18.8238 18.9957 18.2858C20.3091 19.6501 22.6361 22.1713 23.223 23.4396C24.2901 25.7378 23.9412 26.1106 23.9371 26.1145H23.9412ZM11.3785 28.8393C11.3087 28.7625 11.1035 28.4473 10.9722 27.352C10.5372 23.8008 11.674 20.7455 11.8012 20.4111C11.949 20.0306 12.1419 19.6194 12.3348 19.2389C13.0694 19.704 13.9107 19.9614 14.7316 19.9614C14.826 19.9614 14.9163 19.9538 15.0106 19.9461C14.3581 23.1629 13.3485 27.1137 12.6795 27.7594L12.581 27.8516C12.2239 28.1975 11.6371 28.7663 11.3785 28.8355V28.8393ZM12.7041 12.5017C13.0612 12.2481 13.4511 12.0866 13.8205 11.9752C14.4607 11.7869 15.0353 11.7638 15.2528 11.7638H15.4087C15.7125 11.7446 16.0326 11.783 16.3445 11.8676C16.5456 11.9214 16.7426 11.9944 16.9355 12.0828C16.9519 12.0905 16.9683 12.0982 16.9806 12.1059C17.1612 12.1943 17.3336 12.298 17.4977 12.4172C17.5593 12.4633 17.6209 12.5056 17.6783 12.5555C18.2078 12.9936 18.8562 13.8046 18.9342 15.1651C18.9711 15.8069 18.8685 16.3603 18.6141 16.8292C18.5894 16.8753 18.5648 16.9214 18.5361 16.9676C18.4335 17.1367 18.3063 17.2904 18.1626 17.4364C17.7522 17.8477 17.1776 18.1743 16.4266 18.4318C16.0654 18.5548 15.6673 18.6624 15.2282 18.7547C15.22 18.7547 15.2117 18.7547 15.2035 18.7547C14.4525 18.9084 13.5865 18.6932 12.8765 18.1897C12.778 18.1205 12.6836 18.0475 12.5933 17.9706C12.5318 17.9168 12.4702 17.8592 12.4045 17.79C12.3881 17.7708 12.3676 17.7516 12.3512 17.7324C12.2322 17.6017 12.1049 17.448 11.9859 17.2673C11.6945 16.8254 11.4483 16.2258 11.4154 15.4456C11.4072 15.2612 11.4113 15.0652 11.4278 14.8615C11.4278 14.8422 11.4319 14.823 11.436 14.8038C11.4442 14.7116 11.4565 14.6193 11.4688 14.5271C11.4852 14.4118 11.5139 14.308 11.5427 14.2043C11.7438 13.401 12.1788 12.8591 12.6918 12.494H12.7041V12.5017ZM16.4922 10.7108C16.1147 10.6262 15.7371 10.5878 15.3677 10.6108C14.908 10.5955 14.3253 10.6454 13.7178 10.7992C13.5701 9.06585 13.3485 6.09886 13.4182 4.77294C13.5332 2.61688 14.2391 1.29865 14.8178 1.15261C15.3841 1.24485 16.7754 3.89284 16.718 6.91748C16.6892 8.50858 16.5866 9.81144 16.4922 10.7108ZM10.2047 15.6532C10.2663 16.5102 10.5372 17.2904 11.0009 17.963C10.0734 18.574 8.87499 19.285 8.07879 19.5156C6.42893 19.9922 1.8118 20.119 1.24133 19.727C1.22081 19.704 1.20849 19.6156 1.24954 19.4657C1.45474 18.7431 2.55875 17.644 4.20861 17.0329C5.7928 16.4449 8.53435 15.9337 10.2047 15.6532Z" fill="#5372C0"/>
</svg>
