<svg width="78" height="79" viewBox="0 0 78 79" fill="none" xmlns="http://www.w3.org/2000/svg">
<path d="M29.1384 61.8836C28.8064 66.761 26.0154 70.0491 21.7288 71.8109C21.0845 72.0763 20.289 72.2854 20.2594 73.0419C20.2166 74.1534 19.9109 75.3445 20.5388 76.383C20.8971 76.9769 21.5907 76.8508 22.1857 76.8508C26.9227 76.8508 31.6564 76.8508 36.3934 76.8508C39.8714 76.8508 43.3461 76.8508 46.824 76.8508C47.6064 76.8508 48.3954 76.9371 49.1054 76.4129C49.3257 76.2503 49.6215 76.1541 50.0127 76.3697C51.2816 77.0665 52.705 76.8508 54.0791 76.8508C60.1738 76.8575 66.2717 76.7679 72.3664 76.8873C75.864 76.9537 76.8206 74.7307 76.39 71.8308C76.2749 71.061 76.4492 8.08663 76.4459 5.49533C76.4459 3.13296 75.1901 1.83896 72.82 1.83896C50.4499 1.83233 28.0799 1.83233 5.7098 1.83896C3.33966 1.83896 2.08391 3.12964 2.08391 5.49533C2.08391 19.1685 1.98529 32.8417 2.14637 46.5116C2.19239 50.3273 1.87023 54.1329 2.0609 57.9486C2.17924 60.3076 3.33966 61.5983 5.7098 61.6016C12.5605 61.6149 44.9075 61.6049 48.6353 61.6049" stroke="#5372C0" stroke-width="3" stroke-linecap="round" stroke-linejoin="round"/>
<path d="M2.6875 48.9503C3.34167 48.9006 3.99584 48.8043 4.6533 48.8043C18.6605 48.7944 34.6368 48.7944 48.6439 48.8043" stroke="#5372C0" stroke-width="3" stroke-linecap="round" stroke-linejoin="round"/>
<path d="M76.3328 38.5849C76.3328 34.2683 75.2086 33.253 71.8851 33.2464L66.4709 33.253C62.089 33.2198 57.7037 33.2397 53.3217 33.2464C49.9983 33.253 48.874 34.2683 48.874 38.5849C48.874 40.3501 49.1765 71.9202 49.2291 73.3469C49.2652 74.2892 49.2159 75.2315 49.6926 76.0909" stroke="#5372C0" stroke-width="3" stroke-linecap="round" stroke-linejoin="round"/>
<path d="M39.2663 30.1944C30.9035 30.1944 22.5406 30.201 14.1777 30.1877C12.8167 30.1877 11.4558 30.0915 10.0981 30.0417" stroke="#5372C0" stroke-width="3" stroke-linecap="round" stroke-linejoin="round"/>
<path d="M75.8436 70.7524H49.8477" stroke="#5372C0" stroke-width="3" stroke-linecap="round" stroke-linejoin="round"/>
<path d="M49.0093 39.3417C57.5727 39.3417 67.6943 39.4241 76.261 39.4241" stroke="#5372C0" stroke-width="3" stroke-linecap="round" stroke-linejoin="round"/>
<path d="M33.3722 39.4941C27.0277 39.1523 20.6767 39.4377 14.3289 39.3382C12.9186 39.3149 11.5084 39.2419 10.0981 39.1888" stroke="#5372C0" stroke-width="3" stroke-linecap="round" stroke-linejoin="round"/>
<path d="M65.1111 58.4794C61.5838 58.6046 58.0566 58.6046 54.5293 58.4794" stroke="#5372C0" stroke-width="3" stroke-linecap="round" stroke-linejoin="round"/>
<path d="M56.8005 45.7484C55.673 46.0105 55.2686 46.7537 55.2785 47.8818C55.3179 52.1487 54.8939 51.8601 59.0688 51.8468C62.1917 51.8401 65.3146 51.8534 68.4408 51.8435C70.1042 51.8368 70.3968 51.5415 70.4034 49.8627C70.4198 46.0868 70.8241 45.6356 66.3238 45.7318C63.2009 45.7982 60.078 45.7451 56.9517 45.7451" stroke="#5372C0" stroke-width="3" stroke-linecap="round" stroke-linejoin="round"/>
<path d="M12.3629 11.5903C11.4951 11.723 11.1466 12.2639 11.1499 13.1166C11.1598 15.1505 11.1565 17.181 11.1499 19.2149C11.1499 20.4393 11.7548 21.0464 12.9645 21.0431C13.2669 21.0431 13.5694 21.0431 13.8718 21.0431H64.6573C67.1096 21.0431 67.3792 20.7711 67.3792 18.2992C67.3792 16.6734 67.343 15.0443 67.389 13.4218C67.4285 12.0582 66.9157 11.5671 65.5646 11.5771C61.485 11.6135 57.4022 11.5903 53.3227 11.5903H12.5142" stroke="#5372C0" stroke-width="3" stroke-linecap="round" stroke-linejoin="round"/>
</svg>
