<svg width="94" height="94" viewBox="0 0 94 94" fill="none" xmlns="http://www.w3.org/2000/svg">
<path d="M47.5406 54.8739L57.7917 83.2137C54.3181 84.2842 50.6344 84.8659 46.8137 84.8659C43.6697 84.8659 40.6189 84.4693 37.7008 83.7333L47.5406 54.8739ZM54.2376 29.7576C54.6896 29.7213 55.1049 29.6842 55.4644 29.65C55.8841 29.6102 56.2296 29.5742 56.4709 29.5482C56.5916 29.5351 56.6864 29.5246 56.7515 29.5172L56.8265 29.5086L56.8465 29.5063L56.852 29.5056L56.8536 29.5054L56.8541 29.5054L56.8542 29.5054C56.8543 29.5053 56.8544 29.5053 56.6804 28.0329L56.8544 29.5053L56.8564 29.5051C57.7785 29.3949 58.5375 28.9459 59.0327 28.2727C59.5089 27.6252 59.6853 26.8487 59.6295 26.1322C59.5736 25.4161 59.2787 24.6733 58.6995 24.1095C58.096 23.5219 57.2669 23.2121 56.3393 23.2671L56.3245 23.2679L56.3097 23.2691L56.3096 23.2691L56.3089 23.2692L56.3057 23.2694L56.2926 23.2705L56.2401 23.2745L56.0348 23.2902C55.8555 23.3038 55.5942 23.3232 55.2677 23.3465C54.6144 23.3931 53.7008 23.4553 52.6606 23.5175C50.5717 23.6424 48.0028 23.7653 46.0047 23.7653C44.132 23.7653 41.595 23.6425 39.5036 23.5175C38.4627 23.4553 37.5408 23.3931 36.8792 23.3464C36.5485 23.3231 36.2831 23.3037 36.1007 23.2901L35.8916 23.2744L35.8379 23.2703L35.8245 23.2693L35.8213 23.269L35.8205 23.2689L35.8204 23.2689L35.8068 23.2679L35.7932 23.2671C34.8452 23.2109 34.0113 23.5444 33.4148 24.1464C32.8457 24.7208 32.5589 25.4692 32.5048 26.183C32.4508 26.896 32.6212 27.6843 33.1109 28.3373C33.6165 29.0115 34.3896 29.4402 35.3148 29.5094L35.3673 29.5159C35.4284 29.5232 35.5171 29.5338 35.6299 29.5469C35.8553 29.573 36.177 29.609 36.5653 29.6489C37.0999 29.7038 37.7645 29.7667 38.4804 29.8214L44.0634 45.262L37.087 66.3788L24.8914 29.759C25.344 29.7227 25.7596 29.6855 26.1193 29.6513C26.5388 29.6113 26.8839 29.5753 27.125 29.5491C27.2456 29.5361 27.3403 29.5254 27.4053 29.518L27.4803 29.5094L27.5003 29.5071L27.5057 29.5064L27.5073 29.5062L27.5078 29.5062L27.508 29.5061C27.5081 29.5061 27.5081 29.5061 27.3311 28.0166L27.5081 29.5061L27.5085 29.5061C28.431 29.3962 29.1903 28.9471 29.6855 28.2735C30.1616 27.6258 30.3376 26.8491 30.2814 26.1327C30.2253 25.4168 29.9301 24.674 29.3506 24.1104C28.7466 23.523 27.917 23.2137 26.9892 23.2699L26.9753 23.2708L26.9615 23.2719L26.9614 23.2719L26.9607 23.2719L26.9575 23.2722L26.9445 23.2732L26.8919 23.2773L26.6867 23.293C26.5075 23.3065 26.2463 23.3259 25.9199 23.3492C25.2669 23.3959 24.3536 23.4581 23.3137 23.5203C21.3434 23.6381 18.9457 23.7541 17.0025 23.7668C23.8795 14.7396 34.6758 8.92988 46.8137 8.92988C55.4601 8.92988 63.4204 11.8752 69.7722 16.8276C66.6187 18.118 64.6462 21.4147 64.6462 24.7635C64.6462 28.211 66.4602 31.1546 68.2144 34.0011C68.3747 34.2612 68.5345 34.5205 68.6924 34.7793C70.14 37.3377 71.7098 40.4335 71.7098 44.9042C71.7098 47.8396 70.6444 51.2743 69.0606 56.3803C68.9754 56.655 68.8887 56.9346 68.8006 57.2191L68.7979 57.2278L68.7953 57.2365L66.2501 65.8219L54.2376 29.7576ZM84.4171 46.897V46.8973C84.4163 59.3358 78.4862 70.3712 69.3305 77.2964L79.8235 46.6765C81.4931 42.4606 82.3591 38.8286 82.705 35.5398C83.8182 39.125 84.4182 42.9394 84.4171 46.897ZM46.8137 1.5C21.9885 1.5 1.81934 21.8755 1.81934 46.8956C1.81934 71.9174 21.9893 92.2949 46.8128 92.2949C71.6354 92.2949 91.8035 71.9173 91.8035 46.8956C91.8044 21.8765 71.6362 1.5 46.8137 1.5ZM9.20845 46.8956C9.20845 42.7897 9.85888 38.8391 11.0554 35.1378L26.9732 79.1545C16.311 72.4529 9.20845 60.5139 9.20845 46.8956Z" stroke="#5372C0" stroke-width="3"/>
</svg>
